<?xml version="1.0" encoding="UTF-8"?>
<svg id="Layer_1" data-name="Layer 1" xmlns="http://www.w3.org/2000/svg" xmlns:xlink="http://www.w3.org/1999/xlink" viewBox="0 0 784 855">
  <defs>
    <style>
      .cls-1 {
        stroke-width: 3px;
      }

      .cls-1, .cls-2, .cls-3, .cls-4, .cls-5, .cls-6, .cls-7, .cls-8 {
        fill: none;
      }

      .cls-1, .cls-3, .cls-4, .cls-5, .cls-6, .cls-7, .cls-8 {
        stroke-miterlimit: 10;
      }

      .cls-1, .cls-5 {
        stroke: #f15a24;
      }

      .cls-9 {
        clip-path: url(#clippath);
      }

      .cls-2, .cls-10, .cls-11, .cls-12, .cls-13 {
        stroke-width: 0px;
      }

      .cls-3 {
        stroke-width: 40px;
      }

      .cls-3, .cls-4, .cls-7 {
        stroke: #666;
      }

      .cls-14 {
        clip-path: url(#clippath-1);
      }

      .cls-15 {
        clip-path: url(#clippath-4);
      }

      .cls-16 {
        clip-path: url(#clippath-3);
      }

      .cls-17 {
        clip-path: url(#clippath-2);
      }

      .cls-18 {
        clip-path: url(#clippath-7);
      }

      .cls-19 {
        clip-path: url(#clippath-8);
      }

      .cls-20 {
        clip-path: url(#clippath-6);
      }

      .cls-21 {
        clip-path: url(#clippath-5);
      }

      .cls-22 {
        clip-path: url(#clippath-9);
      }

      .cls-23 {
        font-family: MyriadPro-Regular, 'Myriad Pro';
        font-size: 12px;
      }

      .cls-24 {
        clip-path: url(#clippath-14);
      }

      .cls-25 {
        clip-path: url(#clippath-13);
      }

      .cls-26 {
        clip-path: url(#clippath-12);
      }

      .cls-27 {
        clip-path: url(#clippath-10);
      }

      .cls-28 {
        clip-path: url(#clippath-15);
      }

      .cls-29 {
        clip-path: url(#clippath-16);
      }

      .cls-30 {
        clip-path: url(#clippath-11);
      }

      .cls-4, .cls-7 {
        stroke-width: 2px;
      }

      .cls-6 {
        stroke: #fff;
      }

      .cls-7 {
        stroke-dasharray: 0 0 11.579 11.579;
      }

      .cls-8 {
        opacity: 0;
        stroke: #000;
        stroke-width: 0px;
      }

      .cls-11 {
        fill: #fff;
      }

      .cls-12 {
        fill: #f15a24;
      }

      .cls-13 {
        fill: #f7931e;
      }
    </style>
    <clipPath id="clippath">
      <rect class="cls-2" x="394.82" y="188.586" width="18" height="26"/>
    </clipPath>
    <clipPath id="clippath-1">
      <rect class="cls-2" x="412.853" y="282.455" width="21" height="27"/>
    </clipPath>
    <clipPath id="clippath-2">
      <rect class="cls-2" x="375.647" y="11.429" width="24" height="36"/>
    </clipPath>
    <clipPath id="clippath-3">
      <rect class="cls-2" x="323.232" y="348.66" width="43" height="44"/>
    </clipPath>
    <clipPath id="clippath-4">
      <rect class="cls-2" x="323.336" y="255.908" width="42" height="36"/>
    </clipPath>
    <clipPath id="clippath-5">
      <rect class="cls-2" x="400.063" y="640.796" width="18" height="26"/>
    </clipPath>
    <clipPath id="clippath-6">
      <rect class="cls-2" x="375.89" y="453.638" width="24" height="36"/>
    </clipPath>
    <clipPath id="clippath-7">
      <rect class="cls-2" x="328.476" y="786.869" width="43" height="44"/>
    </clipPath>
    <clipPath id="clippath-8">
      <rect class="cls-2" x="328.58" y="708.118" width="42" height="36"/>
    </clipPath>
    <clipPath id="clippath-9">
      <rect class="cls-2" x="474.925" y="23.032" width="32" height="32"/>
    </clipPath>
    <clipPath id="clippath-10">
      <rect class="cls-2" x="240.903" y="454.643" width="38" height="34"/>
    </clipPath>
    <clipPath id="clippath-11">
      <rect class="cls-2" x="237.808" y="540.411" width="37" height="27"/>
    </clipPath>
    <clipPath id="clippath-12">
      <rect class="cls-2" x="417.787" y="748.552" width="202" height="44"/>
    </clipPath>
    <clipPath id="clippath-13">
      <rect class="cls-2" x="452.297" y="349.042" width="202" height="44"/>
    </clipPath>
    <clipPath id="clippath-14">
      <rect class="cls-2" x="126.234" y="270.479" width="43" height="41"/>
    </clipPath>
    <clipPath id="clippath-15">
      <rect class="cls-2" x="177" y="313" width="19" height="19"/>
    </clipPath>
    <clipPath id="clippath-16">
      <rect class="cls-2" x="168.417" y="336.68" width="28" height="36"/>
    </clipPath>
  </defs>
  <g>
    <line class="cls-4" x1="379" y1="90" x2="379" y2="96"/>
    <line class="cls-7" x1="379" y1="107.579" x2="379" y2="310.211"/>
    <line class="cls-4" x1="379" y1="316" x2="379" y2="322"/>
  </g>
  <g>
    <line class="cls-1" x1="379.5" y1="304.5" x2="379.279" y2="269.057"/>
    <polygon class="cls-12" points="385.273 270.77 379.225 260.445 373.306 270.845 385.273 270.77"/>
  </g>
  <line class="cls-3" x1="71" y1="80" x2="699" y2="80"/>
  <polygon class="cls-8" points="403.322 201.946 403.322 201.946 403.322 201.946 403.322 201.946 403.322 201.946 403.322 201.946 403.322 201.946 403.322 201.946 403.322 201.946 403.322 201.946 403.322 201.946 403.322 201.946 403.322 201.946 403.322 201.946 403.322 201.946 403.322 201.946 403.322 201.946 403.322 201.946 403.322 201.946 403.322 201.946 403.322 201.946 403.322 201.946 403.322 201.946 403.322 201.946 403.322 201.946 403.322 201.946 403.322 201.946 403.322 201.946 403.322 201.946 403.322 201.946 403.322 201.946 403.322 201.946 403.322 201.946 403.322 201.946 403.322 201.946 403.322 201.946 403.322 201.946 403.322 201.946 403.322 201.946 403.322 201.946 403.322 201.946 403.322 201.946 403.322 201.946 403.322 201.946 403.322 201.946 403.322 201.946 403.322 201.946 403.322 201.946 403.322 201.946 403.322 201.946 403.322 201.946 403.322 201.946 403.322 201.946 403.322 201.946 403.322 201.946 403.322 201.946 403.322 201.946 403.322 201.946 403.322 201.946 403.322 201.946 403.322 201.946 403.322 201.946 403.322 201.946 403.322 201.946 403.322 201.946 403.322 201.946 403.322 201.946 403.322 201.946 403.322 201.946 403.322 201.946 403.322 201.946 403.322 201.946 403.322 201.946 403.322 201.946 403.322 201.946 403.322 201.946 403.322 201.946 403.322 201.946 403.322 201.946 403.322 201.946 403.322 201.946 403.322 201.946 403.322 201.946 403.322 201.946 403.322 201.946 403.322 201.946"/>
  <g class="cls-9">
    <path class="cls-10" d="m404.98,209.513c-.18.647-.18.717-.717,1.328-1.581,1.975-3.053,2.55-4.059,2.55-1.795,0-2.298-1.975-2.298-3.375,0-1.797,1.15-6.214,1.977-7.866,1.113-2.119,2.728-3.448,4.166-3.448,2.334,0,2.837,2.945,2.837,3.161s-.072.431-.108.611l-1.797,7.039m7.47-20.256c0-.036,0-.395-.467-.395-.538,0-3.95.323-4.561.395-.286.036-.502.216-.502.683,0,.431.322.431.861.431,1.725,0,1.795.251,1.795.609l-.106.719-2.156,8.512c-.645-1.33-1.688-2.298-3.303-2.298-4.202,0-8.656,5.278-8.656,10.522,0,3.377,1.977,5.747,4.777,5.747.719,0,2.514-.144,4.669-2.694.288,1.508,1.545,2.694,3.269,2.694,1.258,0,2.083-.827,2.658-1.975.611-1.294,1.078-3.484,1.078-3.556,0-.359-.323-.359-.431-.359-.359,0-.395.144-.503.647-.611,2.334-1.258,4.453-2.73,4.453-.97,0-1.077-.933-1.077-1.652,0-.862.072-1.114.214-1.723l5.172-20.759Z"/>
  </g>
  <g>
    <circle class="cls-13" cx="379.5" cy="318.5" r="13"/>
    <path class="cls-12" d="m379.5,306c6.893,0,12.5,5.607,12.5,12.5s-5.607,12.5-12.5,12.5-12.5-5.607-12.5-12.5,5.607-12.5,12.5-12.5m0-1c-7.456,0-13.5,6.044-13.5,13.5s6.044,13.5,13.5,13.5,13.5-6.044,13.5-13.5-6.044-13.5-13.5-13.5h0Z"/>
  </g>
  <g>
    <line class="cls-5" x1="392.5" y1="318.5" x2="453.324" y2="318.5"/>
    <polygon class="cls-12" points="451.865 323.486 460.5 318.5 451.865 313.514 451.865 323.486"/>
  </g>
  <polygon class="cls-8" points="418.249 473.315 418.249 473.315 418.249 473.315 418.249 473.315 418.249 473.315 418.249 473.315 418.249 473.315 418.249 473.315 418.249 473.315 418.249 473.315 418.249 473.315 418.249 473.315 418.249 473.315 418.249 473.315 418.249 473.315 418.249 473.315 418.249 473.315 418.249 473.315 418.249 473.315 418.249 473.315 418.249 473.315 418.249 473.315 418.249 473.315 418.249 473.315 418.249 473.315 418.249 473.315 418.249 473.315 418.249 473.315 418.249 473.315 418.249 473.315 418.249 473.315 418.249 473.315 418.249 473.315 418.249 473.315 418.249 473.315 418.249 473.315 418.249 473.315 418.249 473.315 418.249 473.315 418.249 473.315 418.249 473.315 418.249 473.315 418.249 473.315 418.249 473.315 418.249 473.315 418.249 473.315 418.249 473.315 418.249 473.315 418.249 473.315 418.249 473.315 418.249 473.315 418.249 473.315 418.249 473.315 418.249 473.315 418.249 473.315 418.249 473.315 418.249 473.315 418.249 473.315 418.249 473.315 418.249 473.315 418.249 473.315 418.249 473.315 418.249 473.315 418.249 473.315 418.249 473.315 418.249 473.315 418.249 473.315 418.249 473.315 418.249 473.315 418.249 473.315 418.249 473.315 418.249 473.315 418.249 473.315 418.249 473.315 418.249 473.315 418.249 473.315 418.249 473.315 418.249 473.315 418.249 473.315 418.249 473.315 418.249 473.315 418.249 473.315 418.249 473.315 418.249 473.315 418.249 473.315 418.249 473.315 418.249 473.315"/>
  <g class="cls-14">
    <path class="cls-10" d="m429.839,287.286c-.503.467-1.688,1.472-1.688,2.119,0,.359.359.719.717.719.323,0,.503-.252.683-.467.431-.539,1.258-1.544,2.837-2.334.252-.144.611-.323.611-.755,0-.359-.252-.539-.503-.719-.791-.538-1.186-1.184-1.473-2.047-.07-.323-.214-.789-.717-.789s-.719.466-.719.753c0,.18.287,1.33.862,2.083h-12.103c-.611,0-1.258,0-1.258.719s.647.719,1.258.719h11.492"/>
    <path class="cls-10" d="m428.761,295.295c0-1.941-.934-2.514-1.58-2.514-.898,0-1.761.933-1.761,1.723,0,.467.18.683.575,1.077.755.719,1.222,1.653,1.222,2.945,0,1.509-2.191,9.733-6.394,9.733-1.831,0-2.658-1.256-2.658-3.125,0-2.011.97-4.633,2.084-7.612.25-.611.43-1.114.43-1.797,0-1.616-1.148-2.944-2.944-2.944-3.377,0-4.741,5.206-4.741,5.53,0,.359.358.359.43.359.359,0,.395-.072.575-.647,1.042-3.627,2.586-4.453,3.628-4.453.287,0,.897,0,.897,1.15,0,.897-.359,1.867-.609,2.514-1.581,4.166-2.048,5.817-2.048,7.362,0,3.878,3.161,4.453,4.812,4.453,6.034,0,8.081-11.888,8.081-13.755"/>
  </g>
  <polygon class="cls-8" points="440.328 38.987 440.328 38.986 440.328 38.986 440.328 38.986 440.328 38.987 440.328 38.986 440.328 38.986 440.328 38.986 440.328 38.986 440.328 38.987 440.328 38.986 440.328 38.986 440.328 38.987 440.328 38.986 440.328 38.987 440.328 38.986 440.328 38.987 440.328 38.986 440.328 38.986 440.328 38.986 440.328 38.987 440.328 38.986 440.328 38.986 440.328 38.986 440.328 38.986 440.328 38.987 440.328 38.987 440.328 38.986 440.328 38.986 440.328 38.987 440.328 38.986 440.328 38.986 440.328 38.986 440.328 38.986 440.328 38.987 440.328 38.986 440.328 38.986 440.328 38.987 440.328 38.986 440.328 38.987 440.328 38.986 440.328 38.986 440.328 38.986 440.328 38.987 440.328 38.987 440.328 38.986 440.328 38.986 440.328 38.987 440.328 38.986 440.328 38.987 440.328 38.987 440.328 38.986 440.328 38.987 440.328 38.986 440.328 38.986 440.328 38.986 440.328 38.986 440.328 38.986 440.328 38.986 440.328 38.986 440.328 38.986 440.328 38.986 440.328 38.986 440.328 38.986 440.328 38.986 440.328 38.986 440.328 38.986 440.328 38.987 440.328 38.986 440.328 38.986 440.328 38.987 440.328 38.987 440.328 38.986 440.328 38.986 440.328 38.987 440.328 38.987 440.328 38.986 440.328 38.986 440.328 38.987 440.328 38.987 440.328 38.986 440.328 38.986 440.328 38.986 440.328 38.986 440.328 38.986 440.328 38.987 440.328 38.987"/>
  <g class="cls-17">
    <path class="cls-10" d="m395.633,16.46c-.503.467-1.688,1.472-1.688,2.119,0,.359.359.719.717.719.324,0,.503-.251.683-.467.431-.539,1.258-1.544,2.838-2.334.252-.144.611-.323.611-.755,0-.359-.252-.539-.503-.719-.791-.538-1.186-1.184-1.473-2.047-.07-.323-.214-.789-.717-.789s-.719.466-.719.753c0,.18.287,1.33.862,2.083h-12.103c-.611,0-1.258,0-1.258.719s.647.719,1.258.719h11.492"/>
    <path class="cls-10" d="m388.178,25.064c.323-1.292.431-1.652,3.269-1.652.862,0,1.15,0,1.15-.683,0-.431-.395-.431-.539-.431-1.042,0-3.7.108-4.741.108-1.078,0-3.7-.108-4.777-.108-.252,0-.719,0-.719.719,0,.395.323.395,1.006.395,1.508,0,2.478,0,2.478.681,0,.18,0,.252-.072.575l-4.848,19.358c-.323,1.33-.431,1.688-3.269,1.688-.827,0-1.15,0-1.15.719,0,.395.431.395.539.395,1.042,0,3.664-.108,4.705-.108,1.078,0,3.736.108,4.813.108.287,0,.719,0,.719-.683,0-.431-.287-.431-1.078-.431-.645,0-.825,0-1.544-.072-.755-.07-.898-.214-.898-.609,0-.287.072-.575.144-.827l4.813-19.142"/>
  </g>
  <g>
    <line class="cls-1" x1="380.011" y1="332.994" x2="380.011" y2="368.438"/>
    <polygon class="cls-12" points="374.027 366.688 380.011 377.05 385.994 366.688 374.027 366.688"/>
  </g>
  <polygon class="cls-8" points="356.019 361.47 356.019 361.47 356.019 361.47 356.019 361.47 356.019 361.47 356.019 361.47 356.019 361.47 356.019 361.47 356.019 361.47 356.019 361.47 356.019 361.47 356.019 361.47 356.019 361.47 356.019 361.47 356.019 361.47 356.019 361.47 356.019 361.47 356.019 361.47 356.019 361.47 356.019 361.47 356.019 361.47 356.019 361.47 356.019 361.47 356.019 361.47 356.019 361.47 356.019 361.47 356.019 361.47 356.019 361.47 356.019 361.47 356.019 361.47 356.019 361.47 356.019 361.47 356.019 361.47 356.019 361.47 356.019 361.47 356.019 361.47 356.019 361.47 356.019 361.47 356.019 361.47 356.019 361.47 356.019 361.47 356.019 361.47 356.019 361.47 356.019 361.47 356.019 361.47 356.019 361.47 356.019 361.47 356.019 361.47 356.019 361.47 356.019 361.47 356.019 361.47 356.019 361.47 356.019 361.47 356.019 361.47 356.019 361.47 356.019 361.47 356.019 361.47 356.019 361.47 356.019 361.47 356.019 361.47 356.019 361.47 356.019 361.47 356.019 361.47 356.019 361.47 356.019 361.47 356.019 361.47 356.019 361.47 356.019 361.47 356.019 361.47 356.019 361.47 356.019 361.47 356.019 361.47 356.019 361.47 356.019 361.47 356.019 361.47 356.019 361.47 356.019 361.47 356.019 361.47 356.019 361.47 356.019 361.47 356.019 361.47 356.019 361.47 356.019 361.47 356.019 361.47 356.019 361.47 356.019 361.47 356.019 361.47"/>
  <g class="cls-16">
    <path class="cls-10" d="m347.118,353.091c-.503.467-1.688,1.472-1.688,2.119,0,.359.359.719.717.719.323,0,.503-.251.683-.467.431-.539,1.258-1.544,2.837-2.334.252-.144.611-.324.611-.755,0-.359-.252-.539-.503-.719-.791-.538-1.186-1.184-1.474-2.047-.07-.324-.214-.789-.717-.789s-.719.466-.719.753c0,.18.288,1.33.863,2.083h-12.103c-.611,0-1.258,0-1.258.719s.647.719,1.258.719h11.492"/>
    <path class="cls-10" d="m333.514,371.788h3.484c2.694,0,2.981.575,2.981,1.616,0,.252,0,.683-.252,1.759-.072.18-.108.323-.108.395,0,.288.216.431.431.431.359,0,.359-.108.539-.755l1.975-7.792c.108-.395.108-.467.108-.575,0-.072-.072-.395-.431-.395s-.395.18-.539.755c-.755,2.802-1.58,3.447-4.633,3.447h-3.269l2.298-9.122c.323-1.256.359-1.4,1.941-1.4h4.741c4.417,0,5.242,1.184,5.242,3.95,0,.826,0,.97-.108,1.939-.07.467-.07.539-.07.647,0,.18.106.431.43.431.395,0,.431-.216.503-.899l.719-6.213c.108-.97-.072-.97-.97-.97h-17.597c-.719,0-1.078,0-1.078.719,0,.395.323.395,1.006.395,1.328,0,2.334,0,2.334.645,0,.144,0,.216-.18.863l-4.741,18.998c-.359,1.402-.431,1.688-3.269,1.688-.611,0-1.006,0-1.006.683,0,.431.431.431.539.431,1.042,0,3.7-.108,4.741-.108,1.186,0,4.167.108,5.352.108.323,0,.755,0,.755-.683,0-.287-.216-.359-.216-.395-.108-.036-.18-.036-1.006-.036-.789,0-.969,0-1.867-.072-1.042-.106-1.15-.25-1.15-.717,0-.072,0-.287.144-.827l2.227-8.942"/>
    <path class="cls-10" d="m357.237,383.196h7.669c.327,0,.928,0,.928-.602,0-.627-.577-.627-.928-.627h-7.669v-7.695c0-.325,0-.927-.602-.927-.626,0-.626.577-.626.927v7.695h-7.695c-.325,0-.927,0-.927.602,0,.627.577.627.927.627h7.695v7.694c0,.327,0,.928.602.928.627,0,.627-.577.627-.928v-7.694"/>
  </g>
  <polygon class="cls-8" points="349.821 284.466 349.821 284.466 349.821 284.466 349.821 284.466 349.821 284.466 349.821 284.466 349.821 284.466 349.821 284.466 349.821 284.466 349.821 284.466 349.821 284.466 349.821 284.466 349.821 284.466 349.821 284.466 349.821 284.466 349.821 284.466 349.821 284.466 349.821 284.466 349.821 284.466 349.821 284.466 349.821 284.466 349.821 284.466 349.821 284.466 349.821 284.466 349.821 284.466 349.821 284.466 349.821 284.466 349.821 284.466 349.821 284.466 349.821 284.466 349.821 284.466 349.821 284.466 349.821 284.466 349.821 284.466 349.821 284.466 349.821 284.466 349.821 284.466 349.821 284.466 349.821 284.466 349.821 284.466 349.821 284.466 349.821 284.466 349.821 284.466 349.821 284.466 349.821 284.466 349.821 284.466 349.821 284.466 349.821 284.466 349.821 284.466 349.821 284.466 349.821 284.466 349.821 284.466 349.821 284.466 349.821 284.466 349.821 284.466 349.821 284.466 349.821 284.466 349.821 284.466 349.821 284.466 349.821 284.466 349.821 284.466 349.821 284.466 349.821 284.466 349.821 284.466 349.821 284.466 349.821 284.466 349.821 284.466 349.821 284.466 349.821 284.466 349.821 284.466 349.821 284.466 349.821 284.466 349.821 284.466 349.821 284.466 349.821 284.466 349.821 284.466 349.821 284.466 349.821 284.466 349.821 284.466 349.821 284.466 349.821 284.466 349.821 284.466 349.821 284.466 349.821 284.466 349.821 284.466 349.821 284.466 349.821 284.466"/>
  <g class="cls-15">
    <path class="cls-10" d="m347.022,260.94c-.503.467-1.688,1.472-1.688,2.119,0,.359.359.719.717.719.324,0,.503-.251.683-.467.431-.539,1.258-1.544,2.838-2.334.252-.144.611-.323.611-.755,0-.359-.252-.539-.503-.719-.791-.538-1.186-1.184-1.473-2.047-.07-.323-.214-.789-.717-.789s-.719.466-.719.753c0,.18.288,1.33.862,2.083h-12.103c-.611,0-1.258,0-1.258.719s.647.719,1.258.719h11.492"/>
    <path class="cls-10" d="m333.418,279.637h3.484c2.694,0,2.981.575,2.981,1.616,0,.252,0,.683-.252,1.759-.072.18-.108.323-.108.395,0,.287.216.431.431.431.359,0,.359-.108.539-.755l1.975-7.792c.108-.395.108-.467.108-.575,0-.072-.072-.395-.431-.395s-.395.18-.539.755c-.755,2.802-1.58,3.447-4.633,3.447h-3.269l2.298-9.122c.323-1.256.359-1.4,1.941-1.4h4.741c4.417,0,5.242,1.184,5.242,3.95,0,.826,0,.97-.108,1.939-.07.467-.07.539-.07.647,0,.18.106.431.43.431.395,0,.431-.216.503-.899l.719-6.212c.108-.97-.072-.97-.97-.97h-17.597c-.719,0-1.078,0-1.078.719,0,.395.323.395,1.006.395,1.328,0,2.334,0,2.334.645,0,.144,0,.216-.18.862l-4.741,18.998c-.359,1.402-.431,1.688-3.269,1.688-.611,0-1.006,0-1.006.683,0,.431.431.431.539.431,1.042,0,3.7-.108,4.741-.108,1.186,0,4.167.108,5.352.108.323,0,.755,0,.755-.683,0-.288-.216-.359-.216-.395-.108-.036-.18-.036-1.006-.036-.789,0-.969,0-1.867-.072-1.042-.106-1.15-.25-1.15-.717,0-.072,0-.287.144-.827l2.227-8.942"/>
    <path class="cls-10" d="m364.183,291.044c.402,0,1.003,0,1.003-.602,0-.627-.577-.627-1.003-.627h-14.937c-.402,0-1.003,0-1.003.602,0,.627.576.627,1.003.627h14.937"/>
  </g>
  <g>
    <line class="cls-4" x1="384.243" y1="542.209" x2="384.243" y2="548.209"/>
    <line class="cls-7" x1="384.243" y1="559.788" x2="384.243" y2="762.42"/>
    <line class="cls-4" x1="384.243" y1="768.209" x2="384.243" y2="774.209"/>
  </g>
  <g>
    <line class="cls-1" x1="384.743" y1="756.709" x2="384.743" y2="693.111"/>
    <polygon class="cls-12" points="390.727 694.862 384.743 684.5 378.76 694.862 390.727 694.862"/>
  </g>
  <polygon class="cls-8" points="408.565 654.156 408.565 654.156 408.565 654.156 408.565 654.156 408.565 654.156 408.565 654.156 408.565 654.156 408.565 654.156 408.565 654.156 408.565 654.156 408.565 654.156 408.565 654.156 408.565 654.156 408.565 654.156 408.565 654.156 408.565 654.156 408.565 654.156 408.565 654.156 408.565 654.156 408.565 654.156 408.565 654.156 408.565 654.156 408.565 654.156 408.565 654.156 408.565 654.156 408.565 654.156 408.565 654.156 408.565 654.156 408.565 654.156 408.565 654.156 408.565 654.156 408.565 654.156 408.565 654.156 408.565 654.156 408.565 654.156 408.565 654.156 408.565 654.156 408.565 654.156 408.565 654.156 408.565 654.156 408.565 654.156 408.565 654.156 408.565 654.156 408.565 654.156 408.565 654.156 408.565 654.156 408.565 654.156 408.565 654.156 408.565 654.156 408.565 654.156 408.565 654.156 408.565 654.156 408.565 654.156 408.565 654.156 408.565 654.156 408.565 654.156 408.565 654.156 408.565 654.156 408.565 654.156 408.565 654.156 408.565 654.156 408.565 654.156 408.565 654.156 408.565 654.156 408.565 654.156 408.565 654.156 408.565 654.156 408.565 654.156 408.565 654.156 408.565 654.156 408.565 654.156 408.565 654.156 408.565 654.156 408.565 654.156 408.565 654.156 408.565 654.156 408.565 654.156 408.565 654.156 408.565 654.156 408.565 654.156 408.565 654.156 408.565 654.156 408.565 654.156 408.565 654.156 408.565 654.156 408.565 654.156"/>
  <g class="cls-21">
    <path class="cls-10" d="m410.224,661.722c-.18.647-.18.717-.717,1.328-1.581,1.975-3.053,2.55-4.059,2.55-1.795,0-2.298-1.975-2.298-3.375,0-1.797,1.15-6.214,1.977-7.866,1.113-2.119,2.728-3.448,4.166-3.448,2.334,0,2.837,2.945,2.837,3.161s-.072.431-.108.611l-1.797,7.039m7.47-20.256c0-.036,0-.395-.467-.395-.538,0-3.95.323-4.561.395-.286.036-.502.216-.502.683,0,.431.322.431.861.431,1.725,0,1.795.251,1.795.609l-.106.719-2.156,8.512c-.645-1.33-1.688-2.298-3.303-2.298-4.202,0-8.656,5.278-8.656,10.522,0,3.377,1.977,5.747,4.777,5.747.719,0,2.514-.144,4.669-2.694.288,1.508,1.545,2.694,3.269,2.694,1.258,0,2.083-.827,2.658-1.975.611-1.294,1.078-3.484,1.078-3.556,0-.359-.323-.359-.431-.359-.359,0-.395.144-.503.647-.611,2.334-1.258,4.453-2.73,4.453-.97,0-1.077-.933-1.077-1.652,0-.862.072-1.114.214-1.723l5.172-20.759Z"/>
  </g>
  <g>
    <circle class="cls-13" cx="384.743" cy="770.709" r="13"/>
    <path class="cls-12" d="m384.743,758.209c6.893,0,12.5,5.607,12.5,12.5s-5.607,12.5-12.5,12.5-12.5-5.607-12.5-12.5,5.607-12.5,12.5-12.5m0-1c-7.456,0-13.5,6.044-13.5,13.5s6.044,13.5,13.5,13.5,13.5-6.044,13.5-13.5-6.044-13.5-13.5-13.5h0Z"/>
  </g>
  <polygon class="cls-8" points="436.572 491.196 436.572 491.196 436.572 491.196 436.572 491.196 436.572 491.196 436.572 491.196 436.572 491.196 436.572 491.196 436.572 491.196 436.572 491.196 436.572 491.196 436.572 491.196 436.572 491.196 436.572 491.196 436.572 491.196 436.572 491.196 436.572 491.196 436.572 491.196 436.572 491.196 436.572 491.196 436.572 491.196 436.572 491.196 436.572 491.196 436.572 491.196 436.572 491.196 436.572 491.196 436.572 491.196 436.572 491.196 436.572 491.196 436.572 491.196 436.572 491.196 436.572 491.196 436.572 491.196 436.572 491.196 436.572 491.196 436.572 491.196 436.572 491.196 436.572 491.196 436.572 491.196 436.572 491.196 436.572 491.196 436.572 491.196 436.572 491.196 436.572 491.196 436.572 491.196 436.572 491.196 436.572 491.196 436.572 491.196 436.572 491.196 436.572 491.196 436.572 491.196 436.572 491.196 436.572 491.196 436.572 491.196 436.572 491.196 436.572 491.196 436.572 491.196 436.572 491.196 436.572 491.196 436.572 491.196 436.572 491.196 436.572 491.196 436.572 491.196 436.572 491.196 436.572 491.196 436.572 491.196 436.572 491.196 436.572 491.196 436.572 491.196 436.572 491.196 436.572 491.196 436.572 491.196 436.572 491.196 436.572 491.196 436.572 491.196 436.572 491.196 436.572 491.196 436.572 491.196 436.572 491.196 436.572 491.196 436.572 491.196 436.572 491.196 436.572 491.196 436.572 491.196 436.572 491.196 436.572 491.196 436.572 491.196"/>
  <g class="cls-20">
    <path class="cls-10" d="m395.876,458.669c-.503.467-1.688,1.472-1.688,2.119,0,.359.359.719.717.719.324,0,.503-.251.683-.467.431-.539,1.258-1.544,2.838-2.334.252-.144.611-.323.611-.755,0-.359-.252-.539-.503-.719-.791-.538-1.186-1.184-1.473-2.047-.07-.323-.214-.789-.717-.789s-.719.466-.719.753c0,.18.287,1.33.862,2.083h-12.103c-.611,0-1.258,0-1.258.719s.647.719,1.258.719h11.492"/>
    <path class="cls-10" d="m388.421,467.274c.323-1.292.431-1.652,3.269-1.652.862,0,1.15,0,1.15-.683,0-.431-.395-.431-.539-.431-1.042,0-3.7.108-4.741.108-1.078,0-3.7-.108-4.777-.108-.252,0-.719,0-.719.719,0,.395.323.395,1.006.395,1.508,0,2.478,0,2.478.681,0,.18,0,.252-.072.575l-4.848,19.358c-.323,1.33-.431,1.688-3.269,1.688-.827,0-1.15,0-1.15.719,0,.395.431.395.539.395,1.042,0,3.664-.108,4.705-.108,1.078,0,3.736.108,4.813.108.287,0,.719,0,.719-.683,0-.431-.287-.431-1.078-.431-.645,0-.825,0-1.544-.072-.755-.07-.898-.214-.898-.609,0-.287.072-.575.144-.827l4.813-19.142"/>
  </g>
  <g>
    <line class="cls-1" x1="385.254" y1="785.204" x2="385.254" y2="824.889"/>
    <polygon class="cls-12" points="379.27 823.138 385.254 833.5 391.238 823.138 379.27 823.138"/>
  </g>
  <polygon class="cls-8" points="361.262 813.679 361.262 813.679 361.262 813.679 361.262 813.679 361.262 813.679 361.262 813.679 361.262 813.679 361.262 813.679 361.262 813.679 361.262 813.679 361.262 813.679 361.262 813.679 361.262 813.679 361.262 813.679 361.262 813.679 361.262 813.679 361.262 813.679 361.262 813.679 361.262 813.679 361.262 813.679 361.262 813.679 361.262 813.679 361.262 813.679 361.262 813.679 361.262 813.679 361.262 813.679 361.262 813.679 361.262 813.679 361.262 813.679 361.262 813.679 361.262 813.679 361.262 813.679 361.262 813.679 361.262 813.679 361.262 813.679 361.262 813.679 361.262 813.679 361.262 813.679 361.262 813.679 361.262 813.679 361.262 813.679 361.262 813.679 361.262 813.679 361.262 813.679 361.262 813.679 361.262 813.679 361.262 813.679 361.262 813.679 361.262 813.679 361.262 813.679 361.262 813.679 361.262 813.679 361.262 813.679 361.262 813.679 361.262 813.679 361.262 813.679 361.262 813.679 361.262 813.679 361.262 813.679 361.262 813.679 361.262 813.679 361.262 813.679 361.262 813.679 361.262 813.679 361.262 813.679 361.262 813.679 361.262 813.679 361.262 813.679 361.262 813.679 361.262 813.679 361.262 813.679 361.262 813.679 361.262 813.679 361.262 813.679 361.262 813.679 361.262 813.679 361.262 813.679 361.262 813.679 361.262 813.679 361.262 813.679 361.262 813.679 361.262 813.679 361.262 813.679 361.262 813.679 361.262 813.679 361.262 813.679 361.262 813.679"/>
  <g class="cls-18">
    <path class="cls-10" d="m352.362,791.3c-.503.467-1.688,1.472-1.688,2.119,0,.359.359.719.717.719.323,0,.503-.251.683-.467.431-.539,1.258-1.544,2.837-2.334.252-.144.611-.324.611-.755,0-.359-.252-.539-.503-.719-.791-.538-1.186-1.184-1.474-2.047-.07-.324-.214-.789-.717-.789s-.719.466-.719.753c0,.18.288,1.33.863,2.083h-12.103c-.611,0-1.258,0-1.258.719s.647.719,1.258.719h11.492"/>
    <path class="cls-10" d="m338.757,809.997h3.484c2.694,0,2.981.575,2.981,1.616,0,.252,0,.683-.252,1.759-.072.18-.108.323-.108.395,0,.288.216.431.431.431.359,0,.359-.108.539-.755l1.975-7.792c.108-.395.108-.467.108-.575,0-.072-.072-.395-.431-.395s-.395.18-.539.755c-.755,2.802-1.58,3.447-4.633,3.447h-3.269l2.298-9.122c.323-1.256.359-1.4,1.941-1.4h4.741c4.417,0,5.242,1.184,5.242,3.95,0,.826,0,.97-.108,1.939-.07.467-.07.539-.07.647,0,.18.106.431.43.431.395,0,.431-.216.503-.899l.719-6.213c.108-.97-.072-.97-.97-.97h-17.597c-.719,0-1.078,0-1.078.719,0,.395.323.395,1.006.395,1.328,0,2.334,0,2.334.645,0,.144,0,.216-.18.863l-4.741,18.998c-.359,1.402-.431,1.688-3.269,1.688-.611,0-1.006,0-1.006.683,0,.431.431.431.539.431,1.042,0,3.7-.108,4.741-.108,1.186,0,4.167.108,5.352.108.323,0,.755,0,.755-.683,0-.287-.216-.359-.216-.395-.108-.036-.18-.036-1.006-.036-.789,0-.969,0-1.867-.072-1.042-.106-1.15-.25-1.15-.717,0-.072,0-.287.144-.827l2.227-8.942"/>
    <path class="cls-10" d="m362.48,821.405h7.669c.327,0,.928,0,.928-.602,0-.627-.577-.627-.928-.627h-7.669v-7.695c0-.325,0-.927-.602-.927-.626,0-.626.577-.626.927v7.695h-7.695c-.325,0-.927,0-.927.602,0,.627.577.627.927.627h7.695v7.694c0,.327,0,.928.602.928.627,0,.627-.577.627-.928v-7.694"/>
  </g>
  <polygon class="cls-8" points="355.064 736.676 355.064 736.676 355.064 736.676 355.064 736.676 355.064 736.676 355.064 736.676 355.064 736.676 355.064 736.676 355.064 736.676 355.064 736.676 355.064 736.676 355.064 736.676 355.064 736.676 355.064 736.676 355.064 736.676 355.064 736.676 355.064 736.676 355.064 736.676 355.064 736.676 355.064 736.676 355.064 736.676 355.064 736.676 355.064 736.676 355.064 736.676 355.064 736.676 355.064 736.676 355.064 736.676 355.064 736.676 355.064 736.676 355.064 736.676 355.064 736.676 355.064 736.676 355.064 736.676 355.064 736.676 355.064 736.676 355.064 736.676 355.064 736.676 355.064 736.676 355.064 736.676 355.064 736.676 355.064 736.676 355.064 736.676 355.064 736.676 355.064 736.676 355.064 736.676 355.064 736.676 355.064 736.676 355.064 736.676 355.064 736.676 355.064 736.676 355.064 736.676 355.064 736.676 355.064 736.676 355.064 736.676 355.064 736.676 355.064 736.676 355.064 736.676 355.064 736.676 355.064 736.676 355.064 736.676 355.064 736.676 355.064 736.676 355.064 736.676 355.064 736.676 355.064 736.676 355.064 736.676 355.064 736.676 355.064 736.676 355.064 736.676 355.064 736.676 355.064 736.676 355.064 736.676 355.064 736.676 355.064 736.676 355.064 736.676 355.064 736.676 355.064 736.676 355.064 736.676 355.064 736.676 355.064 736.676 355.064 736.676 355.064 736.676 355.064 736.676 355.064 736.676 355.064 736.676 355.064 736.676 355.064 736.676"/>
  <g class="cls-19">
    <path class="cls-10" d="m352.266,713.149c-.503.467-1.688,1.472-1.688,2.119,0,.359.359.719.717.719.324,0,.503-.251.683-.467.431-.539,1.258-1.544,2.838-2.334.252-.144.611-.323.611-.755,0-.359-.252-.539-.503-.719-.791-.538-1.186-1.184-1.473-2.047-.07-.323-.214-.789-.717-.789s-.719.466-.719.753c0,.18.288,1.33.862,2.083h-12.103c-.611,0-1.258,0-1.258.719s.647.719,1.258.719h11.492"/>
    <path class="cls-10" d="m338.661,731.846h3.484c2.694,0,2.981.575,2.981,1.616,0,.252,0,.683-.252,1.759-.072.18-.108.323-.108.395,0,.287.216.431.431.431.359,0,.359-.108.539-.755l1.975-7.792c.108-.395.108-.467.108-.575,0-.072-.072-.395-.431-.395s-.395.18-.539.755c-.755,2.802-1.58,3.447-4.633,3.447h-3.269l2.298-9.122c.323-1.256.359-1.4,1.941-1.4h4.741c4.417,0,5.242,1.184,5.242,3.95,0,.826,0,.97-.108,1.939-.07.467-.07.539-.07.647,0,.18.106.431.43.431.395,0,.431-.216.503-.899l.719-6.212c.108-.97-.072-.97-.97-.97h-17.597c-.719,0-1.078,0-1.078.719,0,.395.323.395,1.006.395,1.328,0,2.334,0,2.334.645,0,.144,0,.216-.18.862l-4.741,18.998c-.359,1.402-.431,1.688-3.269,1.688-.611,0-1.006,0-1.006.683,0,.431.431.431.539.431,1.042,0,3.7-.108,4.741-.108,1.186,0,4.167.108,5.352.108.323,0,.755,0,.755-.683,0-.288-.216-.359-.216-.395-.108-.036-.18-.036-1.006-.036-.789,0-.969,0-1.867-.072-1.042-.106-1.15-.25-1.15-.717,0-.072,0-.287.144-.827l2.227-8.942"/>
    <path class="cls-10" d="m369.427,743.254c.402,0,1.003,0,1.003-.602,0-.627-.577-.627-1.003-.627h-14.937c-.402,0-1.003,0-1.003.602,0,.627.576.627,1.003.627h14.937"/>
  </g>
  <g>
    <line class="cls-6" x1="474" y1="69.5" x2="502.118" y2="69.5"/>
    <polygon class="cls-11" points="501.024 73.24 507.5 69.5 501.024 65.76 501.024 73.24"/>
  </g>
  <polygon class="cls-8" points="699.335 199.752 699.335 199.752 699.335 199.752 699.335 199.752 699.335 199.752 699.335 199.752 699.335 199.752 699.335 199.752 699.335 199.752 699.335 199.752 699.335 199.752 699.335 199.752 699.335 199.752 699.335 199.752 699.335 199.752 699.335 199.752 699.335 199.752 699.335 199.752 699.335 199.752 699.335 199.752 699.335 199.752 699.335 199.752 699.335 199.752 699.335 199.752 699.335 199.752 699.335 199.752 699.335 199.752 699.335 199.752 699.335 199.752 699.335 199.752 699.335 199.752 699.335 199.752 699.335 199.752 699.335 199.752 699.335 199.752 699.335 199.752 699.335 199.752 699.335 199.752 699.335 199.752 699.335 199.752 699.335 199.752 699.335 199.752 699.335 199.752 699.335 199.752 699.335 199.752 699.335 199.752 699.335 199.752 699.335 199.752 699.335 199.752 699.335 199.752 699.335 199.752 699.335 199.752 699.335 199.752 699.335 199.752 699.335 199.752 699.335 199.752 699.335 199.752 699.335 199.752 699.335 199.752 699.335 199.752 699.335 199.752 699.335 199.752 699.335 199.752 699.335 199.752 699.335 199.752 699.335 199.752 699.335 199.752 699.335 199.752 699.335 199.752 699.335 199.752 699.335 199.752 699.335 199.752 699.335 199.752 699.335 199.752 699.335 199.752 699.335 199.752 699.335 199.752 699.335 199.752 699.335 199.752 699.335 199.752 699.335 199.752 699.335 199.752 699.335 199.752 699.335 199.752 699.335 199.752 699.335 199.752 699.335 199.752"/>
  <g class="cls-22">
    <path class="cls-10" d="m492.311,27.263c-.503.467-1.688,1.472-1.688,2.119,0,.359.359.719.717.719.324,0,.503-.251.683-.467.431-.539,1.258-1.544,2.838-2.334.252-.144.611-.323.611-.755,0-.359-.252-.539-.503-.719-.791-.538-1.186-1.184-1.473-2.047-.07-.323-.214-.789-.717-.789s-.719.466-.719.753c0,.18.287,1.33.862,2.083h-12.103c-.611,0-1.258,0-1.258.719s.647.719,1.258.719h11.492"/>
    <path class="cls-10" d="m491.233,35.272c0-1.941-.934-2.514-1.58-2.514-.898,0-1.761.933-1.761,1.723,0,.467.18.683.575,1.077.755.719,1.222,1.653,1.222,2.945,0,1.509-2.191,9.733-6.394,9.733-1.831,0-2.658-1.256-2.658-3.125,0-2.011.97-4.633,2.084-7.612.25-.611.43-1.114.43-1.797,0-1.616-1.148-2.944-2.944-2.944-3.377,0-4.741,5.206-4.741,5.53,0,.359.358.359.43.359.359,0,.395-.072.575-.647,1.042-3.626,2.586-4.453,3.628-4.453.288,0,.897,0,.897,1.15,0,.897-.359,1.867-.609,2.514-1.581,4.166-2.048,5.817-2.048,7.363,0,3.878,3.161,4.453,4.812,4.453,6.034,0,8.081-11.888,8.081-13.755"/>
    <path class="cls-10" d="m500.798,50.899c-.177.702-.728,1.203-1.28,1.68-.225.2-1.228,1.002-2.305,1.002-.928,0-1.83-.652-1.83-2.431,0-1.328.727-4.084,1.303-5.087,1.153-2.005,2.431-2.381,3.133-2.381,1.755,0,2.231,1.905,2.231,2.181,0,.1-.05.275-.077.35l-1.177,4.688m5.337-13.509c.025-.05.1-.377.1-.402,0-.125-.1-.35-.4-.35-.501,0-2.581.2-3.208.25-.201.025-.552.05-.552.577,0,.352.35.352.652.352,1.203,0,1.203.175,1.203.375,0,.177-.05.326-.102.552l-1.428,5.714c-.527-.827-1.378-1.478-2.581-1.478-3.208,0-6.467,3.534-6.467,7.144,0,2.431,1.63,4.159,3.786,4.159,1.353,0,2.556-.777,3.558-1.753.477,1.503,1.931,1.753,2.583,1.753.902,0,1.528-.55,1.98-1.328.552-.977.877-2.406.877-2.506,0-.325-.325-.325-.4-.325-.352,0-.377.1-.552.777-.302,1.203-.778,2.681-1.83,2.681-.652,0-.828-.552-.828-1.228,0-.475.05-.702.126-1.027l3.483-13.936Z"/>
  </g>
  <g>
    <circle class="cls-11" cx="433.642" cy="69.123" r="5.5"/>
    <text class="cls-23" transform="translate(430.066 72.367)"><tspan x="0" y="0">+</tspan></text>
  </g>
  <g>
    <circle class="cls-11" cx="433.642" cy="90.5" r="5.5"/>
    <text class="cls-23" transform="translate(431.8 94.022)"><tspan x="0" y="0">-</tspan></text>
  </g>
  <g>
    <circle class="cls-11" cx="455.5" cy="69.123" r="5.5"/>
    <text class="cls-23" transform="translate(451.924 72.367)"><tspan x="0" y="0">+</tspan></text>
  </g>
  <g>
    <circle class="cls-11" cx="455.5" cy="90.5" r="5.5"/>
    <text class="cls-23" transform="translate(453.658 94.022)"><tspan x="0" y="0">-</tspan></text>
  </g>
  <g>
    <circle class="cls-11" cx="389.765" cy="69.123" r="5.5"/>
    <text class="cls-23" transform="translate(386.189 72.367)"><tspan x="0" y="0">+</tspan></text>
  </g>
  <g>
    <circle class="cls-11" cx="411.623" cy="69.123" r="5.5"/>
    <text class="cls-23" transform="translate(408.048 72.367)"><tspan x="0" y="0">+</tspan></text>
  </g>
  <g>
    <circle class="cls-11" cx="389.765" cy="90.5" r="5.5"/>
    <text class="cls-23" transform="translate(387.923 94.022)"><tspan x="0" y="0">-</tspan></text>
  </g>
  <g>
    <circle class="cls-11" cx="411.623" cy="90.5" r="5.5"/>
    <text class="cls-23" transform="translate(409.782 94.022)"><tspan x="0" y="0">-</tspan></text>
  </g>
  <g>
    <circle class="cls-11" cx="345.462" cy="90.5" r="5.5"/>
    <text class="cls-23" transform="translate(343.62 94.022)"><tspan x="0" y="0">-</tspan></text>
  </g>
  <g>
    <circle class="cls-11" cx="367.32" cy="90.5" r="5.5"/>
    <text class="cls-23" transform="translate(365.478 94.022)"><tspan x="0" y="0">-</tspan></text>
  </g>
  <g>
    <circle class="cls-11" cx="301.585" cy="90.5" r="5.5"/>
    <text class="cls-23" transform="translate(299.743 94.022)"><tspan x="0" y="0">-</tspan></text>
  </g>
  <g>
    <circle class="cls-11" cx="323.443" cy="90.5" r="5.5"/>
    <text class="cls-23" transform="translate(321.602 94.022)"><tspan x="0" y="0">-</tspan></text>
  </g>
  <g>
    <circle class="cls-11" cx="345.462" cy="69.123" r="5.5"/>
    <text class="cls-23" transform="translate(341.886 72.367)"><tspan x="0" y="0">+</tspan></text>
  </g>
  <g>
    <circle class="cls-11" cx="367.32" cy="69.123" r="5.5"/>
    <text class="cls-23" transform="translate(363.744 72.367)"><tspan x="0" y="0">+</tspan></text>
  </g>
  <g>
    <circle class="cls-11" cx="301.585" cy="69.123" r="5.5"/>
    <text class="cls-23" transform="translate(298.009 72.367)"><tspan x="0" y="0">+</tspan></text>
  </g>
  <g>
    <circle class="cls-11" cx="323.443" cy="69.123" r="5.5"/>
    <text class="cls-23" transform="translate(319.868 72.367)"><tspan x="0" y="0">+</tspan></text>
  </g>
  <line class="cls-3" x1="71" y1="516.309" x2="699" y2="516.309"/>
  <g>
    <circle class="cls-11" cx="436.765" cy="505.432" r="5.5"/>
    <text class="cls-23" transform="translate(433.189 508.676)"><tspan x="0" y="0">+</tspan></text>
  </g>
  <g>
    <circle class="cls-11" cx="433.765" cy="526.809" r="5.5"/>
    <text class="cls-23" transform="translate(431.923 530.331)"><tspan x="0" y="0">-</tspan></text>
  </g>
  <g>
    <circle class="cls-11" cx="458.623" cy="505.432" r="5.5"/>
    <text class="cls-23" transform="translate(455.048 508.676)"><tspan x="0" y="0">+</tspan></text>
  </g>
  <g>
    <circle class="cls-11" cx="454.623" cy="526.809" r="5.5"/>
    <text class="cls-23" transform="translate(452.781 530.331)"><tspan x="0" y="0">-</tspan></text>
  </g>
  <g>
    <circle class="cls-11" cx="392.888" cy="505.432" r="5.5"/>
    <text class="cls-23" transform="translate(389.313 508.676)"><tspan x="0" y="0">+</tspan></text>
  </g>
  <g>
    <circle class="cls-11" cx="414.747" cy="505.432" r="5.5"/>
    <text class="cls-23" transform="translate(411.171 508.676)"><tspan x="0" y="0">+</tspan></text>
  </g>
  <g>
    <circle class="cls-11" cx="392.888" cy="526.809" r="5.5"/>
    <text class="cls-23" transform="translate(391.047 530.331)"><tspan x="0" y="0">-</tspan></text>
  </g>
  <g>
    <circle class="cls-11" cx="412.747" cy="526.809" r="5.5"/>
    <text class="cls-23" transform="translate(410.905 530.331)"><tspan x="0" y="0">-</tspan></text>
  </g>
  <g>
    <circle class="cls-11" cx="350.585" cy="526.809" r="5.5"/>
    <text class="cls-23" transform="translate(348.743 530.331)"><tspan x="0" y="0">-</tspan></text>
  </g>
  <g>
    <circle class="cls-11" cx="371.443" cy="526.809" r="5.5"/>
    <text class="cls-23" transform="translate(369.601 530.331)"><tspan x="0" y="0">-</tspan></text>
  </g>
  <g>
    <circle class="cls-11" cx="307.708" cy="526.809" r="5.5"/>
    <text class="cls-23" transform="translate(305.867 530.331)"><tspan x="0" y="0">-</tspan></text>
  </g>
  <g>
    <circle class="cls-11" cx="329.567" cy="526.809" r="5.5"/>
    <text class="cls-23" transform="translate(327.725 530.331)"><tspan x="0" y="0">-</tspan></text>
  </g>
  <g>
    <circle class="cls-11" cx="348.585" cy="505.432" r="5.5"/>
    <text class="cls-23" transform="translate(345.009 508.676)"><tspan x="0" y="0">+</tspan></text>
  </g>
  <g>
    <circle class="cls-11" cx="370.443" cy="505.432" r="5.5"/>
    <text class="cls-23" transform="translate(366.868 508.676)"><tspan x="0" y="0">+</tspan></text>
  </g>
  <g>
    <circle class="cls-11" cx="304.708" cy="505.432" r="5.5"/>
    <text class="cls-23" transform="translate(301.133 508.676)"><tspan x="0" y="0">+</tspan></text>
  </g>
  <g>
    <circle class="cls-11" cx="326.567" cy="505.432" r="5.5"/>
    <text class="cls-23" transform="translate(322.991 508.676)"><tspan x="0" y="0">+</tspan></text>
  </g>
  <g>
    <line class="cls-6" x1="278.873" y1="505.309" x2="263.882" y2="505.45"/>
    <polygon class="cls-11" points="264.941 501.7 258.5 505.5 265.011 509.179 264.941 501.7"/>
  </g>
  <g>
    <line class="cls-6" x1="278.969" y1="526.591" x2="243.978" y2="526.591"/>
    <polygon class="cls-11" points="245.072 522.851 238.596 526.591 245.072 530.33 245.072 522.851"/>
  </g>
  <polygon class="cls-8" points="248.259 468.661 248.259 468.661 248.259 468.661 248.259 468.661 248.259 468.661 248.259 468.661 248.259 468.661 248.259 468.661 248.259 468.661 248.259 468.661 248.259 468.661 248.259 468.661 248.259 468.661 248.259 468.661 248.259 468.661 248.259 468.661 248.259 468.661 248.259 468.661 248.259 468.661 248.259 468.661 248.259 468.661 248.259 468.661 248.259 468.661 248.259 468.661 248.259 468.661 248.259 468.661 248.259 468.661 248.259 468.661 248.259 468.661 248.259 468.661 248.259 468.661 248.259 468.661 248.259 468.661 248.259 468.661 248.259 468.661 248.259 468.661 248.259 468.661 248.259 468.661 248.259 468.661 248.259 468.661 248.259 468.661 248.259 468.661 248.259 468.661 248.259 468.661 248.259 468.661 248.259 468.661 248.259 468.661 248.259 468.661 248.259 468.661 248.259 468.661 248.259 468.661 248.259 468.661 248.259 468.661 248.259 468.661 248.259 468.661 248.259 468.661 248.259 468.661 248.259 468.661 248.259 468.661 248.259 468.661 248.259 468.661 248.259 468.661 248.259 468.661 248.259 468.661 248.259 468.661 248.259 468.661 248.259 468.661 248.259 468.661 248.259 468.661 248.259 468.661 248.259 468.661 248.259 468.661 248.259 468.661 248.259 468.661 248.259 468.661 248.259 468.661 248.259 468.661 248.259 468.661 248.259 468.661 248.259 468.661 248.259 468.661 248.259 468.661 248.259 468.661 248.259 468.661 248.259 468.661 248.259 468.661 248.259 468.661"/>
  <g class="cls-27">
    <path class="cls-10" d="m258.388,458.875c-.503.467-1.688,1.472-1.688,2.119,0,.359.359.719.717.719.323,0,.503-.251.683-.467.431-.539,1.258-1.544,2.837-2.334.252-.144.611-.324.611-.755,0-.359-.252-.539-.503-.719-.791-.538-1.186-1.184-1.474-2.047-.07-.324-.214-.789-.717-.789s-.719.466-.719.753c0,.18.288,1.33.862,2.083h-12.103c-.611,0-1.258,0-1.258.719s.647.719,1.258.719h11.492"/>
    <path class="cls-10" d="m257.31,466.884c0-1.941-.934-2.514-1.58-2.514-.898,0-1.761.933-1.761,1.723,0,.467.18.683.575,1.077.755.719,1.222,1.653,1.222,2.945,0,1.509-2.191,9.733-6.394,9.733-1.831,0-2.658-1.256-2.658-3.125,0-2.011.97-4.633,2.084-7.613.25-.611.43-1.114.43-1.797,0-1.616-1.148-2.944-2.944-2.944-3.377,0-4.741,5.206-4.741,5.53,0,.359.358.359.43.359.359,0,.395-.072.575-.647,1.042-3.627,2.586-4.453,3.628-4.453.287,0,.897,0,.897,1.15,0,.897-.359,1.867-.609,2.514-1.581,4.166-2.048,5.817-2.048,7.363,0,3.878,3.161,4.453,4.812,4.453,6.034,0,8.081-11.888,8.081-13.755"/>
    <path class="cls-10" d="m269.507,479.979h7.669c.327,0,.928,0,.928-.602,0-.627-.577-.627-.928-.627h-7.669v-7.695c0-.325,0-.927-.602-.927-.626,0-.626.577-.626.927v7.695h-7.695c-.325,0-.927,0-.927.602,0,.627.577.627.927.627h7.695v7.694c0,.327,0,.928.601.928.627,0,.627-.577.627-.928v-7.694"/>
  </g>
  <polygon class="cls-8" points="218.862 574.271 218.862 574.271 218.862 574.271 218.862 574.271 218.862 574.271 218.862 574.271 218.862 574.271 218.862 574.271 218.862 574.271 218.862 574.271 218.862 574.271 218.862 574.271 218.862 574.271 218.862 574.271 218.862 574.271 218.862 574.271 218.862 574.271 218.862 574.271 218.862 574.271 218.862 574.271 218.862 574.271 218.862 574.271 218.862 574.271 218.862 574.271 218.862 574.271 218.862 574.271 218.862 574.271 218.862 574.271 218.862 574.271 218.862 574.271 218.862 574.271 218.862 574.271 218.862 574.271 218.862 574.271 218.862 574.271 218.862 574.271 218.862 574.271 218.862 574.271 218.862 574.271 218.862 574.271 218.862 574.271 218.862 574.271 218.862 574.271 218.862 574.271 218.862 574.271 218.862 574.271 218.862 574.271 218.862 574.271 218.862 574.271 218.862 574.271 218.862 574.271 218.862 574.271 218.862 574.271 218.862 574.271 218.862 574.271 218.862 574.271 218.862 574.271 218.862 574.271 218.862 574.271 218.862 574.271 218.862 574.271 218.862 574.271 218.862 574.271 218.862 574.271 218.862 574.271 218.862 574.271 218.862 574.271 218.862 574.271 218.862 574.271 218.862 574.271 218.862 574.271 218.862 574.271 218.862 574.271 218.862 574.271 218.862 574.271 218.862 574.271 218.862 574.271 218.862 574.271 218.862 574.271 218.862 574.271 218.862 574.271 218.862 574.271 218.862 574.271 218.862 574.271 218.862 574.271 218.862 574.271 218.862 574.271"/>
  <g class="cls-30">
    <path class="cls-10" d="m255.094,545.242c-.503.467-1.688,1.472-1.688,2.119,0,.359.359.719.717.719.323,0,.503-.252.683-.467.431-.539,1.258-1.544,2.837-2.334.252-.144.611-.323.611-.755,0-.359-.252-.539-.503-.719-.791-.538-1.186-1.184-1.473-2.047-.07-.323-.214-.789-.717-.789s-.719.466-.719.753c0,.18.288,1.33.863,2.083h-12.103c-.611,0-1.258,0-1.258.719s.647.719,1.258.719h11.492"/>
    <path class="cls-10" d="m254.016,553.252c0-1.941-.934-2.514-1.58-2.514-.898,0-1.761.933-1.761,1.723,0,.467.18.683.575,1.077.755.719,1.222,1.653,1.222,2.945,0,1.509-2.191,9.733-6.394,9.733-1.831,0-2.658-1.256-2.658-3.125,0-2.011.97-4.633,2.084-7.612.25-.611.43-1.114.43-1.797,0-1.616-1.148-2.944-2.944-2.944-3.377,0-4.741,5.206-4.741,5.53,0,.359.358.359.43.359.359,0,.395-.072.575-.647,1.042-3.627,2.586-4.453,3.628-4.453.287,0,.897,0,.897,1.15,0,.897-.359,1.867-.609,2.514-1.581,4.166-2.048,5.817-2.048,7.362,0,3.878,3.161,4.453,4.813,4.453,6.034,0,8.081-11.888,8.081-13.755"/>
    <path class="cls-10" d="m273.255,566.347c.402,0,1.003,0,1.003-.602,0-.627-.577-.627-1.003-.627h-14.938c-.402,0-1.003,0-1.003.602,0,.627.576.627,1.003.627h14.938"/>
  </g>
  <polygon class="cls-8" points="200.684 634.075 200.684 634.075 200.684 634.075 200.684 634.075 200.684 634.075 200.684 634.075 200.684 634.075 200.684 634.075 200.684 634.075 200.684 634.075 200.684 634.075 200.684 634.075 200.684 634.075 200.684 634.075 200.684 634.075 200.684 634.075 200.684 634.075 200.684 634.075 200.684 634.075 200.684 634.075 200.684 634.075 200.684 634.075 200.684 634.075 200.684 634.075 200.684 634.075 200.684 634.075 200.684 634.075 200.684 634.075 200.684 634.075 200.684 634.075 200.684 634.075 200.684 634.075 200.684 634.075 200.684 634.075 200.684 634.075 200.684 634.075 200.684 634.075 200.684 634.075 200.684 634.075 200.684 634.075 200.684 634.075 200.684 634.075 200.684 634.075 200.684 634.075 200.684 634.075 200.684 634.075 200.684 634.075 200.684 634.075 200.684 634.075 200.684 634.075 200.684 634.075 200.684 634.075 200.684 634.075 200.684 634.075 200.684 634.075 200.684 634.075 200.684 634.075 200.684 634.075 200.684 634.075 200.684 634.075 200.684 634.075 200.684 634.075 200.684 634.075 200.684 634.075 200.684 634.075 200.684 634.075 200.684 634.075 200.684 634.075 200.684 634.075 200.684 634.075 200.684 634.075 200.684 634.075 200.684 634.075 200.684 634.075 200.684 634.075 200.684 634.075 200.684 634.075 200.684 634.075 200.684 634.075 200.684 634.075 200.684 634.075 200.684 634.075 200.684 634.075 200.684 634.075 200.684 634.075 200.684 634.075 200.684 634.075 200.684 634.075 200.684 634.075"/>
  <polygon class="cls-8" points="461.307 775.362 461.308 775.362 461.308 775.362 461.308 775.362 461.308 775.362 461.308 775.362 461.308 775.362 461.308 775.362 461.308 775.362 461.308 775.362 461.308 775.362 461.308 775.362 461.308 775.362 461.308 775.362 461.308 775.362 461.308 775.362 461.308 775.362 461.308 775.362 461.308 775.362 461.308 775.362 461.308 775.362 461.308 775.362 461.307 775.362 461.308 775.362 461.308 775.362 461.308 775.362 461.308 775.362 461.308 775.362 461.307 775.362 461.307 775.362 461.308 775.362 461.308 775.362 461.308 775.362 461.308 775.362 461.308 775.362 461.307 775.362 461.308 775.362 461.307 775.362 461.308 775.362 461.308 775.362 461.308 775.362 461.308 775.362 461.308 775.362 461.308 775.362 461.308 775.362 461.308 775.362 461.308 775.362 461.307 775.362 461.308 775.362 461.308 775.362 461.308 775.362 461.308 775.362 461.308 775.362 461.308 775.362 461.308 775.362 461.308 775.362 461.308 775.362 461.308 775.362 461.307 775.362 461.308 775.362 461.308 775.362 461.308 775.362 461.308 775.362 461.308 775.362 461.308 775.362 461.308 775.362 461.308 775.362 461.308 775.362 461.308 775.362 461.308 775.362 461.307 775.362 461.307 775.362 461.308 775.362 461.308 775.362 461.308 775.362 461.308 775.362 461.308 775.362 461.308 775.362 461.308 775.362 461.308 775.362 461.308 775.362 461.308 775.362 461.308 775.362 461.308 775.362 461.308 775.362 461.308 775.362 461.308 775.362 461.308 775.362 461.308 775.362 461.308 775.362 461.307 775.362"/>
  <g class="cls-26">
    <path class="cls-10" d="m441.473,752.983c-.503.467-1.688,1.472-1.688,2.119,0,.359.359.719.717.719.323,0,.503-.251.683-.467.431-.539,1.258-1.544,2.837-2.334.252-.144.611-.324.611-.755,0-.359-.252-.539-.503-.719-.791-.538-1.186-1.184-1.474-2.047-.07-.324-.214-.789-.717-.789s-.719.466-.719.753c0,.18.288,1.33.863,2.083h-12.103c-.611,0-1.258,0-1.258.719s.647.719,1.258.719h11.492"/>
    <path class="cls-10" d="m427.769,771.68h3.484c2.694,0,2.981.575,2.981,1.616,0,.252,0,.683-.252,1.759-.072.18-.108.323-.108.395,0,.288.216.431.431.431.359,0,.359-.108.539-.755l1.975-7.792c.108-.395.108-.467.108-.575,0-.072-.072-.395-.431-.395s-.395.18-.539.755c-.755,2.802-1.58,3.447-4.633,3.447h-3.269l2.298-9.122c.323-1.256.359-1.4,1.941-1.4h4.741c4.417,0,5.242,1.184,5.242,3.95,0,.826,0,.97-.108,1.939-.07.467-.07.539-.07.647,0,.18.106.431.43.431.395,0,.431-.216.503-.899l.719-6.213c.108-.97-.072-.97-.97-.97h-17.597c-.719,0-1.078,0-1.078.719,0,.395.323.395,1.006.395,1.328,0,2.334,0,2.334.645,0,.144,0,.216-.18.863l-4.741,18.998c-.359,1.402-.431,1.688-3.269,1.688-.611,0-1.006,0-1.006.683,0,.431.431.431.539.431,1.042,0,3.7-.108,4.741-.108,1.186,0,4.167.108,5.352.108.323,0,.755,0,.755-.683,0-.287-.216-.359-.216-.395-.108-.036-.18-.036-1.006-.036-.789,0-.969,0-1.867-.072-1.042-.106-1.15-.25-1.15-.717,0-.072,0-.287.144-.827l2.227-8.942"/>
    <path class="cls-10" d="m451.592,783.088h7.669c.327,0,.928,0,.928-.602,0-.627-.577-.627-.928-.627h-7.669v-7.695c0-.325,0-.927-.602-.927-.626,0-.626.577-.626.927v7.695h-7.695c-.325,0-.927,0-.927.602,0,.627.577.627.927.627h7.695v7.694c0,.327,0,.928.601.928.627,0,.627-.577.627-.928v-7.694"/>
    <path class="cls-10" d="m486.476,775.091h10.02c.503,0,1.184,0,1.184-.717s-.681-.719-1.184-.719h-10.02v-10.056c0-.503,0-1.184-.719-1.184s-.719.681-.719,1.184v10.056h-10.055c-.503,0-1.186,0-1.186.719s.683.717,1.186.717h10.055v10.056c0,.503,0,1.186.719,1.186s.719-.683.719-1.186v-10.056"/>
    <path class="cls-10" d="m532.173,752.983c-.503.467-1.688,1.472-1.688,2.119,0,.359.36.719.718.719.323,0,.503-.251.682-.467.432-.539,1.258-1.544,2.838-2.334.252-.144.611-.324.611-.755,0-.359-.252-.539-.503-.719-.791-.538-1.186-1.184-1.474-2.047-.07-.324-.214-.789-.717-.789s-.719.466-.719.753c0,.18.288,1.33.863,2.083h-12.103c-.611,0-1.258,0-1.258.719s.647.719,1.258.719h11.492"/>
    <path class="cls-10" d="m518.468,771.68h3.485c2.693,0,2.981.575,2.981,1.616,0,.252,0,.683-.252,1.759-.072.18-.107.323-.107.395,0,.288.215.431.431.431.359,0,.359-.108.539-.755l1.975-7.792c.108-.395.108-.467.108-.575,0-.072-.072-.395-.432-.395s-.395.18-.539.755c-.754,2.802-1.579,3.447-4.632,3.447h-3.269l2.298-9.122c.324-1.256.36-1.4,1.941-1.4h4.74c4.418,0,5.243,1.184,5.243,3.95,0,.826,0,.97-.108,1.939-.07.467-.07.539-.07.647,0,.18.106.431.429.431.396,0,.431-.216.503-.899l.719-6.213c.108-.97-.072-.97-.97-.97h-17.597c-.719,0-1.078,0-1.078.719,0,.395.323.395,1.006.395,1.328,0,2.334,0,2.334.645,0,.144,0,.216-.179.863l-4.741,18.998c-.359,1.402-.431,1.688-3.269,1.688-.611,0-1.006,0-1.006.683,0,.431.431.431.539.431,1.042,0,3.7-.108,4.741-.108,1.186,0,4.167.108,5.351.108.324,0,.755,0,.755-.683,0-.287-.216-.359-.216-.395-.107-.036-.179-.036-1.006-.036-.789,0-.969,0-1.867-.072-1.042-.106-1.15-.25-1.15-.717,0-.072,0-.287.144-.827l2.226-8.942"/>
    <path class="cls-10" d="m549.334,783.088c.401,0,1.003,0,1.003-.602,0-.627-.577-.627-1.003-.627h-14.938c-.401,0-1.003,0-1.003.602,0,.627.577.627,1.003.627h14.938"/>
    <path class="cls-10" d="m587.514,759.038c.286-.503.286-.575.286-.683,0-.251-.215-.717-.718-.717-.431,0-.539.216-.79.717l-16.125,31.353c-.288.503-.288.575-.288.683,0,.288.252.719.719.719.43,0,.537-.216.789-.719l16.127-31.353"/>
    <path class="cls-10" d="m589.596,778.576c.504,0,1.185,0,1.185-.719s-.681-.717-1.221-.717h-21.44c-.539,0-1.222,0-1.222.717s.683.719,1.186.719h21.512m-.036-6.967c.54,0,1.221,0,1.221-.719s-.681-.719-1.185-.719h-21.512c-.503,0-1.186,0-1.186.719s.683.719,1.222.719h21.44Z"/>
    <path class="cls-10" d="m611.629,783.352c-1.4,0-3.519-.898-4.165-4.345-.396-2.155-.396-5.459-.396-7.578,0-2.299,0-4.669.288-6.608.683-4.275,3.376-4.597,4.273-4.597,1.186,0,3.556.645,4.239,4.201.358,2.011.358,4.741.358,7.003,0,2.694,0,5.136-.394,7.434-.539,3.411-2.586,4.489-4.203,4.489m7.578-11.492c0-2.873-.179-5.747-1.436-8.405-1.653-3.447-4.596-4.022-6.106-4.022-2.155,0-4.776.934-6.248,4.273-1.15,2.478-1.33,5.28-1.33,8.153,0,2.694.144,5.925,1.617,8.655,1.544,2.909,4.166,3.628,5.925,3.628,1.939,0,4.669-.755,6.25-4.167,1.149-2.478,1.328-5.278,1.328-8.116Z"/>
  </g>
  <polygon class="cls-8" points="579.817 366.852 579.818 366.852 579.818 366.852 579.818 366.852 579.817 366.852 579.817 366.852 579.818 366.852 579.818 366.852 579.818 366.852 579.817 366.852 579.818 366.852 579.817 366.852 579.818 366.852 579.817 366.852 579.817 366.852 579.818 366.852 579.818 366.852 579.818 366.852 579.817 366.852 579.817 366.852 579.817 366.852 579.818 366.852 579.818 366.852 579.818 366.852 579.817 366.852 579.818 366.852 579.817 366.852 579.817 366.852 579.817 366.852 579.818 366.852 579.817 366.852 579.818 366.852 579.818 366.852 579.817 366.852 579.818 366.852 579.818 366.852 579.817 366.852 579.818 366.852 579.817 366.852 579.818 366.852 579.817 366.852 579.818 366.852 579.818 366.852 579.817 366.852 579.817 366.852 579.818 366.852 579.818 366.852 579.818 366.852 579.817 366.852 579.818 366.852 579.818 366.852 579.817 366.852 579.818 366.852 579.818 366.852 579.818 366.852 579.817 366.852 579.818 366.852 579.818 366.852 579.817 366.852 579.818 366.852 579.817 366.852 579.817 366.852 579.818 366.852 579.818 366.852 579.817 366.852 579.818 366.852 579.817 366.852 579.818 366.852 579.818 366.852 579.818 366.852 579.818 366.852 579.817 366.852 579.817 366.852 579.818 366.852 579.817 366.852 579.818 366.852 579.817 366.852 579.818 366.852 579.817 366.852 579.818 366.852 579.818 366.852 579.818 366.852 579.817 366.852 579.817 366.852 579.818 366.852 579.818 366.852 579.818 366.852 579.818 366.852 579.818 366.852 579.818 366.852 579.817 366.852"/>
  <g class="cls-25">
    <path class="cls-10" d="m475.983,353.473c-.503.467-1.688,1.472-1.688,2.119,0,.359.359.719.717.719.323,0,.503-.251.683-.467.431-.539,1.258-1.544,2.837-2.334.252-.144.611-.324.611-.755,0-.359-.252-.539-.503-.719-.791-.538-1.186-1.184-1.474-2.047-.07-.324-.214-.789-.717-.789s-.719.466-.719.753c0,.18.288,1.33.863,2.083h-12.103c-.611,0-1.258,0-1.258.719s.647.719,1.258.719h11.492"/>
    <path class="cls-10" d="m462.278,372.17h3.484c2.694,0,2.981.575,2.981,1.616,0,.252,0,.683-.252,1.759-.072.18-.108.323-.108.395,0,.288.216.431.431.431.359,0,.359-.108.539-.755l1.975-7.792c.108-.395.108-.467.108-.575,0-.072-.072-.395-.431-.395s-.395.18-.539.755c-.755,2.802-1.58,3.447-4.633,3.447h-3.269l2.298-9.122c.323-1.256.359-1.4,1.941-1.4h4.741c4.417,0,5.242,1.184,5.242,3.95,0,.826,0,.97-.108,1.939-.07.467-.07.539-.07.647,0,.18.106.431.43.431.395,0,.431-.216.503-.899l.719-6.213c.108-.97-.072-.97-.97-.97h-17.597c-.719,0-1.078,0-1.078.719,0,.395.323.395,1.006.395,1.328,0,2.334,0,2.334.645,0,.144,0,.216-.18.863l-4.741,18.998c-.359,1.402-.431,1.688-3.269,1.688-.611,0-1.006,0-1.006.683,0,.431.431.431.539.431,1.042,0,3.7-.108,4.741-.108,1.186,0,4.167.108,5.352.108.323,0,.755,0,.755-.683,0-.287-.216-.359-.216-.395-.108-.036-.18-.036-1.006-.036-.789,0-.969,0-1.867-.072-1.042-.106-1.15-.25-1.15-.717,0-.072,0-.287.144-.827l2.227-8.942"/>
    <path class="cls-10" d="m486.102,383.578h7.669c.327,0,.928,0,.928-.602,0-.627-.577-.627-.928-.627h-7.669v-7.695c0-.325,0-.927-.602-.927-.626,0-.626.577-.626.927v7.695h-7.695c-.325,0-.927,0-.927.602,0,.627.577.627.927.627h7.695v7.694c0,.327,0,.928.601.928.627,0,.627-.577.627-.928v-7.694"/>
    <path class="cls-10" d="m520.986,375.581h10.02c.503,0,1.184,0,1.184-.717s-.681-.719-1.184-.719h-10.02v-10.056c0-.503,0-1.184-.719-1.184s-.719.681-.719,1.184v10.056h-10.055c-.503,0-1.186,0-1.186.719s.683.717,1.186.717h10.055v10.056c0,.503,0,1.186.719,1.186s.719-.683.719-1.186v-10.056"/>
    <path class="cls-10" d="m566.683,353.473c-.503.467-1.688,1.472-1.688,2.119,0,.359.36.719.718.719.323,0,.503-.251.682-.467.432-.539,1.258-1.544,2.838-2.334.252-.144.611-.324.611-.755,0-.359-.252-.539-.503-.719-.791-.538-1.186-1.184-1.474-2.047-.07-.324-.214-.789-.717-.789s-.719.466-.719.753c0,.18.288,1.33.863,2.083h-12.103c-.611,0-1.258,0-1.258.719s.647.719,1.258.719h11.492"/>
    <path class="cls-10" d="m552.978,372.17h3.485c2.693,0,2.981.575,2.981,1.616,0,.252,0,.683-.252,1.759-.072.18-.107.323-.107.395,0,.288.215.431.431.431.359,0,.359-.108.539-.755l1.975-7.792c.108-.395.108-.467.108-.575,0-.072-.072-.395-.432-.395s-.395.18-.539.755c-.754,2.802-1.579,3.447-4.632,3.447h-3.269l2.298-9.122c.324-1.256.36-1.4,1.941-1.4h4.74c4.418,0,5.243,1.184,5.243,3.95,0,.826,0,.97-.108,1.939-.07.467-.07.539-.07.647,0,.18.106.431.429.431.396,0,.431-.216.503-.899l.719-6.213c.108-.97-.072-.97-.97-.97h-17.597c-.719,0-1.078,0-1.078.719,0,.395.323.395,1.006.395,1.328,0,2.334,0,2.334.645,0,.144,0,.216-.179.863l-4.741,18.998c-.359,1.402-.431,1.688-3.269,1.688-.611,0-1.006,0-1.006.683,0,.431.431.431.539.431,1.042,0,3.7-.108,4.741-.108,1.186,0,4.167.108,5.351.108.324,0,.755,0,.755-.683,0-.287-.216-.359-.216-.395-.107-.036-.179-.036-1.006-.036-.789,0-.969,0-1.867-.072-1.042-.106-1.15-.25-1.15-.717,0-.072,0-.287.144-.827l2.226-8.942"/>
    <path class="cls-10" d="m583.844,383.578c.401,0,1.003,0,1.003-.602,0-.627-.577-.627-1.003-.627h-14.938c-.401,0-1.003,0-1.003.602,0,.627.577.627,1.003.627h14.938"/>
    <path class="cls-10" d="m624.106,379.065c.504,0,1.185,0,1.185-.719s-.681-.717-1.221-.717h-21.44c-.539,0-1.222,0-1.222.717s.683.719,1.186.719h21.512m-.036-6.967c.54,0,1.221,0,1.221-.719s-.681-.719-1.185-.719h-21.512c-.503,0-1.186,0-1.186.719s.683.719,1.222.719h21.44Z"/>
    <path class="cls-10" d="m646.139,383.842c-1.4,0-3.519-.898-4.165-4.345-.396-2.155-.396-5.459-.396-7.578,0-2.299,0-4.669.288-6.608.683-4.275,3.376-4.597,4.273-4.597,1.186,0,3.556.645,4.239,4.201.358,2.011.358,4.741.358,7.003,0,2.694,0,5.136-.394,7.434-.539,3.411-2.586,4.489-4.203,4.489m7.578-11.492c0-2.873-.179-5.747-1.436-8.405-1.653-3.447-4.596-4.022-6.106-4.022-2.155,0-4.776.934-6.248,4.273-1.15,2.478-1.33,5.28-1.33,8.153,0,2.694.144,5.925,1.617,8.655,1.544,2.909,4.166,3.628,5.925,3.628,1.939,0,4.669-.755,6.25-4.167,1.149-2.478,1.328-5.278,1.328-8.116Z"/>
  </g>
  <g>
    <line class="cls-1" x1="185.952" y1="308.742" x2="185.952" y2="286.111"/>
    <polygon class="cls-12" points="191.935 287.862 185.952 277.5 179.968 287.862 191.935 287.862"/>
  </g>
  <polygon class="cls-8" points="158.453 311.141 158.453 311.141 158.453 311.141 158.453 311.141 158.453 311.141 158.453 311.141 158.453 311.141 158.453 311.141 158.453 311.141 158.453 311.141 158.453 311.141 158.453 311.141 158.453 311.141 158.453 311.141 158.453 311.141 158.453 311.141 158.453 311.141 158.453 311.141 158.453 311.141 158.453 311.141 158.453 311.141 158.453 311.141 158.453 311.141 158.453 311.141 158.453 311.141 158.453 311.141 158.453 311.141 158.453 311.141 158.453 311.141 158.453 311.141 158.453 311.141 158.453 311.141 158.453 311.141 158.453 311.141 158.453 311.141 158.453 311.141 158.453 311.141 158.453 311.141 158.453 311.141 158.453 311.141 158.453 311.141 158.453 311.141 158.453 311.141 158.453 311.141 158.453 311.141 158.453 311.141 158.453 311.141 158.453 311.141 158.453 311.141 158.453 311.141 158.453 311.141 158.453 311.141 158.453 311.141 158.453 311.141 158.453 311.141 158.453 311.141 158.453 311.141 158.453 311.141 158.453 311.141 158.453 311.141 158.453 311.141 158.453 311.141 158.453 311.141 158.453 311.141 158.453 311.141 158.453 311.141 158.453 311.141 158.453 311.141 158.453 311.141 158.453 311.141 158.453 311.141 158.453 311.141 158.453 311.141 158.453 311.141 158.453 311.141 158.453 311.141 158.453 311.141 158.453 311.141 158.453 311.141 158.453 311.141 158.453 311.141 158.453 311.141 158.453 311.141 158.453 311.141 158.453 311.141 158.453 311.141 158.453 311.141"/>
  <g class="cls-24">
    <path class="cls-10" d="m149.72,275.51c-.503.467-1.688,1.472-1.688,2.119,0,.359.359.719.717.719.324,0,.503-.251.683-.467.431-.539,1.258-1.544,2.838-2.334.252-.144.611-.324.611-.755,0-.359-.252-.539-.503-.719-.791-.538-1.186-1.184-1.473-2.047-.07-.323-.214-.789-.717-.789s-.719.466-.719.753c0,.18.288,1.33.862,2.083h-12.103c-.611,0-1.258,0-1.258.719s.647.719,1.258.719h11.492"/>
    <path class="cls-10" d="m136.016,294.207h3.484c2.694,0,2.981.575,2.981,1.616,0,.252,0,.683-.252,1.759-.072.18-.108.323-.108.395,0,.288.216.431.431.431.359,0,.359-.108.539-.755l1.975-7.792c.108-.395.108-.467.108-.575,0-.072-.072-.395-.431-.395s-.395.18-.539.755c-.755,2.802-1.58,3.447-4.633,3.447h-3.269l2.298-9.122c.323-1.256.359-1.4,1.941-1.4h4.741c4.417,0,5.242,1.184,5.242,3.95,0,.826,0,.97-.108,1.939-.07.467-.07.539-.07.647,0,.18.106.431.43.431.395,0,.431-.216.503-.899l.719-6.212c.108-.97-.072-.97-.97-.97h-17.597c-.719,0-1.078,0-1.078.719,0,.395.323.395,1.006.395,1.328,0,2.334,0,2.334.645,0,.144,0,.216-.18.862l-4.741,18.998c-.359,1.402-.431,1.687-3.269,1.687-.611,0-1.006,0-1.006.683,0,.431.431.431.539.431,1.042,0,3.7-.108,4.741-.108,1.186,0,4.167.108,5.352.108.324,0,.755,0,.755-.683,0-.287-.216-.359-.216-.395-.108-.036-.18-.036-1.006-.036-.789,0-.969,0-1.867-.072-1.042-.106-1.15-.25-1.15-.717,0-.072,0-.287.144-.827l2.227-8.942"/>
    <path class="cls-10" d="m155.803,310.377c-.777,0-.802-.027-.802-.252,0-.025,0-.15.1-.527l1.73-6.867h5.314c2.355,0,3.258,1.555,3.258,3.008,0,2.481-2.531,4.638-5.564,4.638h-4.036m1.203-8.347l1.53-6.116c.2-.776.225-.852,1.278-.852h3.809c2.556,0,3.133,1.678,3.133,2.631,0,2.03-2.281,4.336-5.639,4.336h-4.111Zm-4.009,7.294c-.227.852-.277,1.053-2.206,1.053-.427,0-.752,0-.752.525,0,.377.3.377.752.377h9.7c4.211,0,7.444-2.883,7.444-5.364,0-1.78-1.63-3.308-4.286-3.584,3.033-.55,5.564-2.455,5.564-4.611,0-1.905-1.93-3.559-5.188-3.559h-9.123c-.477,0-.802,0-.802.552,0,.352.3.352.802.352.025,0,.502,0,.952.05.527.05.576.1.576.35,0,.05,0,.177-.1.552l-3.333,13.309Z"/>
  </g>
  <polygon class="cls-8" points="185.129 328.126 185.129 328.126 185.129 328.126 185.129 328.126 185.129 328.126 185.129 328.126 185.129 328.126 185.129 328.126 185.129 328.126 185.129 328.126 185.129 328.126 185.129 328.126 185.129 328.126 185.129 328.126 185.129 328.126 185.129 328.126 185.129 328.126 185.129 328.126 185.129 328.126 185.129 328.126 185.129 328.126 185.129 328.126 185.129 328.126 185.129 328.126 185.129 328.126 185.129 328.126 185.129 328.126 185.129 328.126 185.129 328.126 185.129 328.126 185.129 328.126 185.129 328.126 185.129 328.126 185.129 328.126 185.129 328.126 185.129 328.126 185.129 328.126 185.129 328.126 185.129 328.126 185.129 328.126 185.129 328.126 185.129 328.126 185.129 328.126 185.129 328.126 185.129 328.126 185.129 328.126 185.129 328.126 185.129 328.126 185.129 328.126 185.129 328.126 185.129 328.126 185.129 328.126 185.129 328.126 185.129 328.126 185.129 328.126 185.129 328.126 185.129 328.126 185.129 328.126 185.129 328.126 185.129 328.126 185.129 328.126 185.129 328.126 185.129 328.126 185.129 328.126 185.129 328.126 185.129 328.126 185.129 328.126 185.129 328.126 185.129 328.126 185.129 328.126 185.129 328.126 185.129 328.126 185.129 328.126 185.129 328.126 185.129 328.126 185.129 328.126 185.129 328.126 185.129 328.126 185.129 328.126 185.129 328.126 185.129 328.126 185.129 328.126 185.129 328.126 185.129 328.126 185.129 328.126 185.129 328.126 185.129 328.126"/>
  <g class="cls-28">
    <path class="cls-10" d="m186.37,321.416l-7.183-7.147c-.431-.431-.503-.503-.789-.503-.359,0-.719.323-.719.719,0,.252.072.323.467.719l7.183,7.219-7.183,7.219c-.395.395-.467.467-.467.717,0,.395.359.719.719.719.286,0,.358-.072.789-.503l7.147-7.147,7.434,7.434c.072.036.323.216.539.216.431,0,.719-.323.719-.719,0-.072,0-.214-.108-.394-.036-.072-5.747-5.711-7.542-7.542l6.572-6.573c.18-.214.719-.681.898-.897.036-.072.18-.216.18-.467,0-.395-.288-.719-.719-.719-.288,0-.431.144-.826.539l-7.111,7.111"/>
  </g>
  <polygon class="cls-8" points="174.811 348.238 174.812 348.238 174.812 348.238 174.812 348.238 174.812 348.238 174.812 348.238 174.812 348.238 174.812 348.238 174.812 348.238 174.812 348.238 174.812 348.238 174.812 348.238 174.812 348.238 174.812 348.238 174.812 348.238 174.812 348.238 174.812 348.238 174.812 348.238 174.812 348.238 174.812 348.238 174.812 348.238 174.812 348.238 174.812 348.238 174.812 348.238 174.812 348.238 174.812 348.238 174.812 348.238 174.812 348.238 174.812 348.238 174.812 348.238 174.812 348.238 174.812 348.238 174.812 348.238 174.812 348.238 174.812 348.238 174.812 348.238 174.812 348.238 174.812 348.238 174.812 348.238 174.812 348.238 174.812 348.238 174.812 348.238 174.812 348.238 174.812 348.238 174.812 348.238 174.812 348.238 174.812 348.238 174.812 348.238 174.812 348.238 174.812 348.238 174.812 348.238 174.812 348.238 174.812 348.238 174.812 348.238 174.812 348.238 174.812 348.238 174.812 348.238 174.812 348.238 174.812 348.238 174.812 348.238 174.812 348.238 174.812 348.238 174.812 348.238 174.812 348.238 174.812 348.238 174.812 348.238 174.812 348.238 174.812 348.238 174.812 348.238 174.812 348.238 174.812 348.238 174.812 348.238 174.812 348.238 174.812 348.238 174.812 348.238 174.812 348.238 174.812 348.238 174.812 348.238 174.812 348.238 174.812 348.238 174.812 348.238 174.812 348.238 174.812 348.238 174.812 348.238 174.812 348.238 174.812 348.238 174.811 348.238"/>
  <g class="cls-29">
    <path class="cls-10" d="m192.603,341.711c-.503.467-1.688,1.472-1.688,2.119,0,.359.359.719.717.719.323,0,.503-.251.683-.467.431-.539,1.258-1.544,2.837-2.334.252-.144.611-.323.611-.755,0-.359-.252-.539-.503-.719-.791-.538-1.186-1.184-1.474-2.047-.07-.323-.214-.789-.717-.789s-.719.466-.719.753c0,.18.288,1.33.862,2.083h-12.103c-.611,0-1.258,0-1.258.719s.647.719,1.258.719h11.492"/>
    <path class="cls-10" d="m177.07,370.966c-.503,0-.575,0-.791-.036-.358-.036-.466-.07-.466-.358,0-.108,0-.18.178-.827l2.478-10.02h6.789c3.447,0,4.13,2.658,4.13,4.202,0,3.556-3.197,7.039-7.434,7.039h-4.884m1.616-12.031l2.226-8.906c.324-1.256.395-1.364,1.941-1.364h4.633c3.159,0,3.914,2.119,3.914,3.698,0,3.161-3.089,6.572-7.47,6.572h-5.244Zm-5.422,10.344c-.359,1.402-.431,1.688-3.269,1.688-.611,0-.97,0-.97.719,0,.395.323.395.97.395h12.822c5.673,0,9.912-4.238,9.912-7.758,0-2.586-2.084-4.669-5.567-5.064,3.734-.681,7.506-3.339,7.506-6.751,0-2.658-2.37-4.956-6.681-4.956h-12.066c-.683,0-1.042,0-1.042.719,0,.395.323.395,1.006.395.07,0,.753,0,1.364.072.647.072.97.108.97.573,0,.144-.036.252-.144.683l-4.813,19.286Z"/>
  </g>
  <g>
    <path class="cls-1" d="m304.5,764.5c-96.081-53.273-230.171-301.567-168.106-400.953"/>
    <polygon class="cls-12" points="140.415 377.19 134.424 366.711 122.723 363.749 147.5 349.5 140.415 377.19"/>
  </g>
  <g>
    <path class="cls-10" d="m21.121,20.853h1.793v10.268h5.676v1.524h-7.469v-11.792Z"/>
    <path class="cls-10" d="m30.989,30.322c0-1.973,1.79-2.944,6.231-3.277-.064-1.087-.647-1.961-2.212-1.961-1.063,0-2.113.487-2.973.991l-.685-1.196c.988-.61,2.451-1.247,3.978-1.247,2.425,0,3.686,1.392,3.686,3.715v5.298h-1.481l-.143-1.141h-.058c-.941.736-2.164,1.357-3.368,1.357-1.682,0-2.976-.989-2.976-2.539Zm6.231-.069v-2.06c-3.456.248-4.479.942-4.479,1.994,0,.883.793,1.249,1.734,1.249s1.835-.441,2.746-1.182Z"/>
    <path class="cls-10" d="m43.651,31.672h-.057l-.164.972h-1.417v-12.766h1.793v3.386l-.079,1.618h.057c.759-.766,1.821-1.251,2.807-1.251,2.325,0,3.627,1.756,3.627,4.467,0,3.013-1.873,4.763-3.923,4.763-.854,0-1.854-.44-2.645-1.188Zm4.732-3.549c0-1.843-.67-2.997-2.255-2.997-.72,0-1.523.356-2.321,1.175v4.163c.729.661,1.557.9,2.147.9,1.371,0,2.43-1.162,2.43-3.242Z"/>
    <path class="cls-10" d="m64.299,20.853h7.397v1.524h-5.589v3.653h4.741v1.523h-4.741v5.091h-1.808v-11.792Z"/>
    <path class="cls-10" d="m75.308,23.846h1.484l.161,2.041h.043c.908-1.433,2.263-2.256,3.833-2.256.682,0,1.192.1,1.725.36l-.393,1.524c-.599-.191-.933-.281-1.61-.281-1.261,0-2.476.643-3.45,2.418v4.993h-1.793v-8.798Z"/>
    <path class="cls-10" d="m84.988,30.322c0-1.973,1.79-2.944,6.231-3.277-.064-1.087-.647-1.961-2.212-1.961-1.063,0-2.113.487-2.973.991l-.685-1.196c.988-.61,2.451-1.247,3.978-1.247,2.425,0,3.686,1.392,3.686,3.715v5.298h-1.481l-.143-1.141h-.058c-.941.736-2.164,1.357-3.368,1.357-1.682,0-2.976-.989-2.976-2.539Zm6.231-.069v-2.06c-3.456.248-4.479.942-4.479,1.994,0,.883.793,1.249,1.734,1.249s1.835-.441,2.746-1.182Z"/>
    <path class="cls-10" d="m95.371,23.846h1.397l.143,1.139h.042c.42-.787.967-1.355,1.982-1.355.841,0,1.388.504,1.629,1.499.457-.903,1.021-1.499,2.033-1.499,1.238,0,1.958.991,1.958,2.748v6.266h-1.746v-6.138c0-.891-.248-1.346-.818-1.346-.542,0-.842.407-1.253,1.226v6.257h-1.55v-6.138c0-.891-.229-1.346-.799-1.346-.539,0-.891.407-1.272,1.226v6.257h-1.746v-8.798Z"/>
    <path class="cls-10" d="m106.398,28.23c0-2.865,2.158-4.6,4.512-4.6,2.581,0,4.051,1.696,4.051,4.152,0,.379-.046.743-.082.974h-7.239v-1.313h6.121l-.388.438c0-1.906-.922-2.862-2.414-2.862-1.54,0-2.803,1.137-2.803,3.211,0,2.161,1.355,3.226,3.246,3.226.984,0,1.778-.297,2.571-.774l.627,1.134c-.905.596-2.075,1.044-3.425,1.044-2.669,0-4.778-1.7-4.778-4.63Z"/>
    <path class="cls-10" d="m127.854,28.26c0-2.945,2.063-4.629,4.382-4.629s4.381,1.685,4.381,4.629c0,2.916-2.063,4.601-4.381,4.601s-4.382-1.685-4.382-4.601Zm6.927,0c0-1.896-.989-3.155-2.545-3.155s-2.546,1.26-2.546,3.155c0,1.881.989,3.126,2.546,3.126s2.545-1.245,2.545-3.126Z"/>
    <path class="cls-10" d="m139.391,23.94l2.516-.094h5.233v1.432h-7.749v-1.338Zm2.466-.701c0-2.104,1.137-3.577,3.65-3.577.904,0,1.76.179,2.568.497l-.386,1.332c-.68-.282-1.254-.397-1.991-.397-1.456,0-2.062.781-2.062,2.102v9.449h-1.779v-9.405Z"/>
    <path class="cls-10" d="m160.878,20.853h3.815c2.418,0,4.242.864,4.242,3.415,0,2.446-1.824,3.587-4.242,3.587h-1.992v4.789h-1.823v-11.792Zm3.6,5.549c1.722,0,2.663-.716,2.663-2.134,0-1.447-.941-1.962-2.663-1.962h-1.776v4.096h1.776Zm1.219-.062l3.638,6.305h-2.037l-2.958-5.277,1.356-1.027Z"/>
    <path class="cls-10" d="m171.198,28.23c0-2.865,2.158-4.6,4.512-4.6,2.581,0,4.051,1.696,4.051,4.152,0,.379-.046.743-.082.974h-7.239v-1.313h6.121l-.388.438c0-1.906-.922-2.862-2.414-2.862-1.54,0-2.803,1.137-2.803,3.211,0,2.161,1.355,3.226,3.246,3.226.984,0,1.778-.297,2.571-.774l.627,1.134c-.905.596-2.075,1.044-3.425,1.044-2.669,0-4.778-1.7-4.778-4.63Z"/>
    <path class="cls-10" d="m182.59,23.94l2.516-.094h5.233v1.432h-7.749v-1.338Zm2.466-.701c0-2.104,1.137-3.577,3.65-3.577.904,0,1.76.179,2.568.497l-.386,1.332c-.68-.282-1.254-.397-1.991-.397-1.456,0-2.062.781-2.062,2.102v9.449h-1.779v-9.405Z"/>
    <path class="cls-10" d="m192.797,28.23c0-2.865,2.158-4.6,4.512-4.6,2.581,0,4.051,1.696,4.051,4.152,0,.379-.046.743-.082.974h-7.239v-1.313h6.121l-.388.438c0-1.906-.922-2.862-2.414-2.862-1.54,0-2.803,1.137-2.803,3.211,0,2.161,1.355,3.226,3.246,3.226.984,0,1.778-.297,2.571-.774l.627,1.134c-.905.596-2.075,1.044-3.425,1.044-2.669,0-4.778-1.7-4.778-4.63Z"/>
    <path class="cls-10" d="m204.906,23.846h1.484l.161,2.041h.043c.908-1.433,2.263-2.256,3.833-2.256.682,0,1.192.1,1.725.36l-.393,1.524c-.599-.191-.933-.281-1.61-.281-1.261,0-2.476.643-3.45,2.418v4.993h-1.793v-8.798Z"/>
    <path class="cls-10" d="m214.397,28.23c0-2.865,2.158-4.6,4.512-4.6,2.581,0,4.051,1.696,4.051,4.152,0,.379-.046.743-.082.974h-7.239v-1.313h6.121l-.388.438c0-1.906-.922-2.862-2.414-2.862-1.54,0-2.803,1.137-2.803,3.211,0,2.161,1.355,3.226,3.246,3.226.984,0,1.778-.297,2.571-.774l.627,1.134c-.905.596-2.075,1.044-3.425,1.044-2.669,0-4.778-1.7-4.778-4.63Z"/>
    <path class="cls-10" d="m225.61,23.846h1.466l.143,1.403h.072c.881-.904,1.883-1.619,3.241-1.619,2.057,0,2.995,1.265,2.995,3.556v5.458h-1.793v-5.223c0-1.536-.516-2.246-1.821-2.246-.957,0-1.602.472-2.509,1.402v6.067h-1.793v-8.798Z"/>
    <path class="cls-10" d="m236.212,28.26c0-2.945,2.28-4.629,4.954-4.629,1.419,0,2.5.556,3.227,1.262l-.862,1.132c-.71-.582-1.433-.92-2.288-.92-1.892,0-3.194,1.26-3.194,3.155,0,1.881,1.284,3.126,3.145,3.126,1.043,0,1.91-.466,2.61-1.034l.77,1.154c-.999.874-2.249,1.355-3.525,1.355-2.757,0-4.836-1.685-4.836-4.601Z"/>
    <path class="cls-10" d="m246.796,28.23c0-2.865,2.158-4.6,4.512-4.6,2.581,0,4.051,1.696,4.051,4.152,0,.379-.046.743-.082.974h-7.239v-1.313h6.121l-.388.438c0-1.906-.922-2.862-2.414-2.862-1.54,0-2.803,1.137-2.803,3.211,0,2.161,1.355,3.226,3.246,3.226.984,0,1.778-.297,2.571-.774l.627,1.134c-.905.596-2.075,1.044-3.425,1.044-2.669,0-4.778-1.7-4.778-4.63Z"/>
  </g>
  <g>
    <path class="cls-10" d="m30.043,803.18h-3.807v-1.523h9.421v1.523h-3.806v10.268h-1.808v-10.268Z"/>
    <path class="cls-10" d="m37.509,809.034c0-2.865,2.158-4.601,4.512-4.601,2.581,0,4.051,1.695,4.051,4.152,0,.379-.046.743-.082.974h-7.239v-1.313h6.121l-.388.438c0-1.905-.922-2.861-2.414-2.861-1.54,0-2.803,1.137-2.803,3.212,0,2.161,1.355,3.226,3.246,3.226.984,0,1.778-.297,2.571-.774l.627,1.134c-.905.597-2.075,1.044-3.425,1.044-2.669,0-4.778-1.699-4.778-4.629Z"/>
    <path class="cls-10" d="m48.339,812.295l.798-1.162c1.032.711,2.23,1.155,3.749,1.155,1.349,0,1.995-.538,1.995-1.199,0-.623-.365-1.017-2.581-1.473-2.324-.481-3.415-1.286-3.415-2.617,0-1.472,1.323-2.565,3.758-2.565,1.399,0,2.735.549,3.616,1.144l-.841,1.118c-.833-.555-1.849-.901-2.931-.901-1.309,0-1.815.518-1.815,1.119,0,.689.702.96,2.429,1.328,2.862.626,3.581,1.363,3.581,2.741,0,1.473-1.427,2.681-4.023,2.681-1.681,0-3.241-.627-4.32-1.368Z"/>
    <path class="cls-10" d="m61.506,809.967v-3.886h-2.424v-1.338l2.495-.094.235-2.788h1.488v2.788h4.151v1.432h-4.151v3.891c0,1.513.536,2.245,2.127,2.245.773,0,1.401-.155,2.005-.376l.364,1.311c-.792.274-1.662.512-2.784.512-2.631,0-3.506-1.488-3.506-3.696Z"/>
    <path class="cls-10" d="m80.665,807.568c0-3.822,2.278-6.129,5.374-6.129,1.439,0,2.583.691,3.308,1.454l-1.019,1.133c-.599-.615-1.336-1.005-2.29-1.005-2.099,0-3.509,1.714-3.509,4.497,0,2.827,1.41,4.563,3.536,4.563,1.02,0,1.814-.454,2.509-1.229l1.019,1.096c-.928,1.094-2.136,1.714-3.706,1.714-2.917,0-5.223-2.215-5.223-6.095Z"/>
    <path class="cls-10" d="m91.921,800.682h1.793v3.385l-.107,1.98h.058c.825-.898,1.834-1.613,3.182-1.613,2.054,0,2.991,1.265,2.991,3.556v5.458h-1.793v-5.223c0-1.535-.516-2.246-1.821-2.246-.957,0-1.602.472-2.509,1.402v6.066h-1.793v-12.766Z"/>
    <path class="cls-10" d="m102.497,811.125c0-1.973,1.79-2.944,6.231-3.277-.064-1.087-.647-1.961-2.212-1.961-1.063,0-2.113.486-2.973.99l-.685-1.196c.988-.61,2.451-1.247,3.978-1.247,2.425,0,3.687,1.393,3.687,3.715v5.299h-1.481l-.143-1.142h-.058c-.941.736-2.164,1.357-3.368,1.357-1.682,0-2.976-.988-2.976-2.538Zm6.231-.068v-2.061c-3.456.248-4.479.942-4.479,1.994,0,.883.793,1.248,1.734,1.248s1.835-.441,2.746-1.182Z"/>
    <path class="cls-10" d="m114.417,804.649h1.484l.161,2.041h.043c.908-1.433,2.263-2.257,3.833-2.257.682,0,1.192.1,1.725.36l-.393,1.523c-.599-.191-.933-.281-1.61-.281-1.261,0-2.476.643-3.45,2.419v4.992h-1.793v-8.798Z"/>
    <path class="cls-10" d="m123.946,815.026c0-.709.498-1.385,1.427-1.904v-.072c-.475-.266-.9-.719-.9-1.46,0-.568.392-1.202,1.051-1.649v-.071c-.611-.447-1.107-1.231-1.107-2.275,0-1.97,1.642-3.16,3.54-3.16.511,0,.948.072,1.34.216h3.623v1.398h-2.148c.346.377.647.972.647,1.609,0,1.92-1.524,3.004-3.462,3.004-.427,0-.937-.095-1.413-.287-.392.25-.61.533-.61.917,0,.631.616.921,1.741.921h1.882c2.274,0,3.408.597,3.408,2.106,0,1.696-1.938,3.102-4.982,3.102-2.496,0-4.037-.832-4.037-2.394Zm7.285-.416c0-.762-.636-.965-1.888-.965h-1.559c-.542,0-.975-.036-1.339-.138-.731.406-.992.85-.992,1.307,0,.854.96,1.37,2.708,1.37,1.88,0,3.07-.748,3.07-1.574Zm-1.43-7.017c0-1.15-.826-1.898-1.845-1.898-1.004,0-1.842.748-1.842,1.898,0,1.186.837,1.919,1.842,1.919,1.019,0,1.845-.733,1.845-1.919Z"/>
    <path class="cls-10" d="m134.708,809.034c0-2.865,2.158-4.601,4.512-4.601,2.581,0,4.051,1.695,4.051,4.152,0,.379-.046.743-.082.974h-7.239v-1.313h6.121l-.388.438c0-1.905-.922-2.861-2.414-2.861-1.54,0-2.803,1.137-2.803,3.212,0,2.161,1.355,3.226,3.246,3.226.984,0,1.778-.297,2.571-.774l.627,1.134c-.905.597-2.075,1.044-3.425,1.044-2.669,0-4.778-1.699-4.778-4.629Z"/>
    <path class="cls-10" d="m148.18,806.437c1.24-.679,1.924-1.679,1.924-3.017l-.296-1.485,1.011,1.273c-.313.314-.761.562-1.17.562-.81,0-1.373-.57-1.373-1.387,0-.899.602-1.512,1.434-1.512,1.055,0,1.748.877,1.748,2.374,0,1.841-.978,3.331-2.723,4.193l-.555-1.003Z"/>
    <path class="cls-10" d="m156.338,812.295l.798-1.162c1.032.711,2.23,1.155,3.749,1.155,1.349,0,1.995-.538,1.995-1.199,0-.623-.365-1.017-2.581-1.473-2.324-.481-3.415-1.286-3.415-2.617,0-1.472,1.323-2.565,3.758-2.565,1.399,0,2.735.549,3.616,1.144l-.841,1.118c-.833-.555-1.849-.901-2.931-.901-1.309,0-1.815.518-1.815,1.119,0,.689.702.96,2.429,1.328,2.862.626,3.581,1.363,3.581,2.741,0,1.473-1.427,2.681-4.023,2.681-1.681,0-3.241-.627-4.32-1.368Z"/>
    <path class="cls-10" d="m27.809,818.057h7.397v1.523h-5.589v3.653h4.741v1.523h-4.741v5.091h-1.808v-11.791Z"/>
    <path class="cls-10" d="m38.818,821.05h1.484l.161,2.041h.043c.908-1.433,2.263-2.257,3.833-2.257.682,0,1.192.1,1.725.36l-.393,1.523c-.599-.191-.933-.281-1.61-.281-1.261,0-2.476.643-3.45,2.419v4.992h-1.793v-8.798Z"/>
    <path class="cls-10" d="m48.498,827.525c0-1.973,1.79-2.944,6.231-3.277-.064-1.087-.647-1.961-2.212-1.961-1.063,0-2.113.486-2.973.99l-.685-1.196c.988-.61,2.451-1.247,3.978-1.247,2.425,0,3.687,1.393,3.687,3.715v5.299h-1.481l-.143-1.142h-.058c-.941.736-2.164,1.357-3.368,1.357-1.682,0-2.976-.988-2.976-2.538Zm6.231-.068v-2.061c-3.456.248-4.479.942-4.479,1.994,0,.883.793,1.248,1.734,1.248s1.835-.441,2.746-1.182Z"/>
    <path class="cls-10" d="m58.881,821.05h1.397l.143,1.139h.042c.42-.786.967-1.354,1.982-1.354.841,0,1.388.504,1.629,1.499.457-.902,1.021-1.499,2.033-1.499,1.238,0,1.958.991,1.958,2.748v6.266h-1.746v-6.138c0-.891-.248-1.346-.818-1.346-.542,0-.842.406-1.253,1.227v6.257h-1.55v-6.138c0-.891-.229-1.346-.799-1.346-.539,0-.891.406-1.272,1.227v6.257h-1.746v-8.798Z"/>
    <path class="cls-10" d="m69.909,825.435c0-2.865,2.158-4.601,4.512-4.601,2.581,0,4.051,1.695,4.051,4.152,0,.379-.046.743-.082.974h-7.239v-1.313h6.121l-.388.438c0-1.905-.922-2.861-2.414-2.861-1.54,0-2.803,1.137-2.803,3.212,0,2.161,1.355,3.226,3.246,3.226.984,0,1.778-.297,2.571-.774l.627,1.134c-.905.597-2.075,1.044-3.425,1.044-2.669,0-4.778-1.699-4.778-4.629Z"/>
    <path class="cls-10" d="m91.364,825.464c0-2.945,2.063-4.63,4.382-4.63s4.381,1.685,4.381,4.63c0,2.915-2.063,4.6-4.381,4.6s-4.382-1.685-4.382-4.6Zm6.927,0c0-1.896-.989-3.155-2.545-3.155s-2.546,1.26-2.546,3.155c0,1.881.989,3.126,2.546,3.126s2.545-1.245,2.545-3.126Z"/>
    <path class="cls-10" d="m102.901,821.144l2.516-.094h5.233v1.432h-7.749v-1.338Zm2.466-.701c0-2.104,1.137-3.577,3.65-3.577.904,0,1.76.179,2.568.498l-.386,1.331c-.68-.282-1.254-.397-1.991-.397-1.456,0-2.062.781-2.062,2.102v9.449h-1.779v-9.405Z"/>
    <path class="cls-10" d="m124.389,818.057h3.815c2.418,0,4.242.864,4.242,3.415,0,2.445-1.824,3.587-4.242,3.587h-1.992v4.789h-1.823v-11.791Zm3.6,5.549c1.722,0,2.663-.716,2.663-2.134,0-1.448-.941-1.963-2.663-1.963h-1.776v4.097h1.776Zm1.219-.062l3.638,6.305h-2.037l-2.958-5.277,1.356-1.027Z"/>
    <path class="cls-10" d="m134.708,825.435c0-2.865,2.158-4.601,4.512-4.601,2.581,0,4.051,1.695,4.051,4.152,0,.379-.046.743-.082.974h-7.239v-1.313h6.121l-.388.438c0-1.905-.922-2.861-2.414-2.861-1.54,0-2.803,1.137-2.803,3.212,0,2.161,1.355,3.226,3.246,3.226.984,0,1.778-.297,2.571-.774l.627,1.134c-.905.597-2.075,1.044-3.425,1.044-2.669,0-4.778-1.699-4.778-4.629Z"/>
    <path class="cls-10" d="m146.101,821.144l2.516-.094h5.233v1.432h-7.749v-1.338Zm2.466-.701c0-2.104,1.137-3.577,3.65-3.577.904,0,1.76.179,2.568.498l-.386,1.331c-.68-.282-1.254-.397-1.991-.397-1.456,0-2.062.781-2.062,2.102v9.449h-1.779v-9.405Z"/>
    <path class="cls-10" d="m156.308,825.435c0-2.865,2.158-4.601,4.512-4.601,2.581,0,4.051,1.695,4.051,4.152,0,.379-.046.743-.082.974h-7.239v-1.313h6.121l-.388.438c0-1.905-.922-2.861-2.414-2.861-1.54,0-2.803,1.137-2.803,3.212,0,2.161,1.355,3.226,3.246,3.226.984,0,1.778-.297,2.571-.774l.627,1.134c-.905.597-2.075,1.044-3.425,1.044-2.669,0-4.778-1.699-4.778-4.629Z"/>
    <path class="cls-10" d="m168.417,821.05h1.484l.161,2.041h.043c.908-1.433,2.263-2.257,3.833-2.257.682,0,1.192.1,1.725.36l-.393,1.523c-.599-.191-.933-.281-1.61-.281-1.261,0-2.476.643-3.45,2.419v4.992h-1.793v-8.798Z"/>
    <path class="cls-10" d="m177.907,825.435c0-2.865,2.158-4.601,4.512-4.601,2.581,0,4.051,1.695,4.051,4.152,0,.379-.046.743-.082.974h-7.239v-1.313h6.121l-.388.438c0-1.905-.922-2.861-2.414-2.861-1.54,0-2.803,1.137-2.803,3.212,0,2.161,1.355,3.226,3.246,3.226.984,0,1.778-.297,2.571-.774l.627,1.134c-.905.597-2.075,1.044-3.425,1.044-2.669,0-4.778-1.699-4.778-4.629Z"/>
    <path class="cls-10" d="m189.12,821.05h1.466l.143,1.402h.072c.881-.903,1.883-1.618,3.241-1.618,2.057,0,2.995,1.265,2.995,3.556v5.458h-1.793v-5.223c0-1.535-.516-2.246-1.821-2.246-.957,0-1.602.472-2.509,1.402v6.066h-1.793v-8.798Z"/>
    <path class="cls-10" d="m199.723,825.464c0-2.945,2.28-4.63,4.954-4.63,1.419,0,2.5.556,3.227,1.262l-.862,1.132c-.71-.581-1.433-.919-2.288-.919-1.892,0-3.194,1.26-3.194,3.155,0,1.881,1.284,3.126,3.145,3.126,1.043,0,1.91-.467,2.61-1.035l.77,1.154c-.999.874-2.249,1.354-3.525,1.354-2.757,0-4.836-1.685-4.836-4.6Z"/>
    <path class="cls-10" d="m210.307,825.435c0-2.865,2.158-4.601,4.512-4.601,2.581,0,4.051,1.695,4.051,4.152,0,.379-.046.743-.082.974h-7.239v-1.313h6.121l-.388.438c0-1.905-.922-2.861-2.414-2.861-1.54,0-2.803,1.137-2.803,3.212,0,2.161,1.355,3.226,3.246,3.226.984,0,1.778-.297,2.571-.774l.627,1.134c-.905.597-2.075,1.044-3.425,1.044-2.669,0-4.778-1.699-4.778-4.629Z"/>
  </g>
  <path class="cls-10" d="m144.247,582.586h7.008v1.165h-7.008v-1.165Zm0,3.503h7.008v1.166h-7.008v-1.166Z"/>
</svg>