<?xml version="1.0" encoding="UTF-8"?>
<svg id="Layer_1" data-name="Layer 1" xmlns="http://www.w3.org/2000/svg" xmlns:xlink="http://www.w3.org/1999/xlink" viewBox="0 0 545.8 728.28">
  <defs>
    <style>
      .cls-1, .cls-2, .cls-3, .cls-4 {
        fill: none;
      }

      .cls-5 {
        letter-spacing: -.01em;
      }

      .cls-2, .cls-3 {
        stroke-width: 3px;
      }

      .cls-2, .cls-3, .cls-4 {
        stroke-miterlimit: 10;
      }

      .cls-2, .cls-4 {
        stroke: #000;
      }

      .cls-3 {
        stroke: #c1272d;
      }

      .cls-6 {
        clip-path: url(#clippath);
      }

      .cls-7 {
        letter-spacing: 0em;
      }

      .cls-8 {
        letter-spacing: 0em;
      }

      .cls-9 {
        fill: #fbb03b;
      }

      .cls-10 {
        fill: #57b9e6;
      }

      .cls-11 {
        letter-spacing: 0em;
      }

      .cls-12 {
        clip-path: url(#clippath-1);
      }

      .cls-13 {
        clip-path: url(#clippath-4);
      }

      .cls-14 {
        clip-path: url(#clippath-3);
      }

      .cls-15 {
        clip-path: url(#clippath-2);
      }

      .cls-16 {
        clip-path: url(#clippath-7);
      }

      .cls-17 {
        clip-path: url(#clippath-8);
      }

      .cls-18 {
        clip-path: url(#clippath-6);
      }

      .cls-19 {
        clip-path: url(#clippath-5);
      }

      .cls-20 {
        clip-path: url(#clippath-9);
      }

      .cls-21 {
        font-family: MyriadPro-Regular, 'Myriad Pro';
        font-size: 12px;
      }

      .cls-22 {
        clip-path: url(#clippath-20);
      }

      .cls-23 {
        clip-path: url(#clippath-14);
      }

      .cls-24 {
        clip-path: url(#clippath-13);
      }

      .cls-25 {
        clip-path: url(#clippath-12);
      }

      .cls-26 {
        clip-path: url(#clippath-10);
      }

      .cls-27 {
        clip-path: url(#clippath-15);
      }

      .cls-28 {
        clip-path: url(#clippath-17);
      }

      .cls-29 {
        clip-path: url(#clippath-16);
      }

      .cls-30 {
        clip-path: url(#clippath-19);
      }

      .cls-31 {
        clip-path: url(#clippath-11);
      }

      .cls-32 {
        clip-path: url(#clippath-18);
      }

      .cls-33 {
        letter-spacing: 0em;
      }

      .cls-34 {
        letter-spacing: 0em;
      }

      .cls-35 {
        letter-spacing: 0em;
      }

      .cls-36 {
        letter-spacing: 0em;
      }

      .cls-37 {
        letter-spacing: 0em;
      }

      .cls-38 {
        letter-spacing: 0em;
      }

      .cls-4 {
        opacity: 0;
        stroke-width: 0px;
      }

      .cls-39 {
        letter-spacing: -.07em;
      }

      .cls-40 {
        letter-spacing: 0em;
      }

      .cls-41 {
        letter-spacing: 0em;
      }

      .cls-42 {
        letter-spacing: -.03em;
      }
    </style>
    <clipPath id="clippath">
      <rect class="cls-1" x="140.52" y="579.29" width="20" height="16.28"/>
    </clipPath>
    <clipPath id="clippath-1">
      <rect class="cls-1" x="321.84" y="578.29" width="20" height="13.19"/>
    </clipPath>
    <clipPath id="clippath-2">
      <rect class="cls-1" x="506" y="577.72" width="20" height="14.09"/>
    </clipPath>
    <clipPath id="clippath-3">
      <rect class="cls-1" x="323.09" y="130.61" width="20" height="14.42"/>
    </clipPath>
    <clipPath id="clippath-4">
      <rect class="cls-1" x="135.47" y="603.45" width="30" height="13.45"/>
    </clipPath>
    <clipPath id="clippath-5">
      <rect class="cls-1" x="500.63" y="600.62" width="30" height="13.93"/>
    </clipPath>
    <clipPath id="clippath-6">
      <rect class="cls-1" x="316.92" y="600.93" width="30" height="13.45"/>
    </clipPath>
    <clipPath id="clippath-7">
      <rect class="cls-1" x="209.67" y="577.5" width="82.44" height="40"/>
    </clipPath>
    <clipPath id="clippath-8">
      <rect class="cls-1" x="34.6" y="577.79" width="77.56" height="40"/>
    </clipPath>
    <clipPath id="clippath-9">
      <rect class="cls-1" x="170.05" y="269.44" width="106.34" height="40"/>
    </clipPath>
    <clipPath id="clippath-10">
      <rect class="cls-1" x="205.64" y="127.31" width="85.85" height="40"/>
    </clipPath>
    <clipPath id="clippath-11">
      <rect class="cls-1" x="283.01" y="505.84" width="92.31" height="16"/>
    </clipPath>
    <clipPath id="clippath-12">
      <rect class="cls-1" x="380.29" y="368.13" width="88.62" height="16"/>
    </clipPath>
    <clipPath id="clippath-13">
      <rect class="cls-1" x="108.44" y="507.7" width="82.42" height="20"/>
    </clipPath>
    <clipPath id="clippath-14">
      <rect class="cls-1" x="301.53" y="675.11" width="59.5" height="40"/>
    </clipPath>
    <clipPath id="clippath-15">
      <rect class="cls-1" x="392.9" y="575.5" width="82.44" height="40"/>
    </clipPath>
    <clipPath id="clippath-16">
      <rect class="cls-1" x="85.43" y="416.17" width="100.98" height="40"/>
    </clipPath>
    <clipPath id="clippath-17">
      <rect class="cls-1" x="192.23" y="365.39" width="96.62" height="16"/>
    </clipPath>
    <clipPath id="clippath-18">
      <rect class="cls-1" x="295.15" y="216.38" width="80" height="16"/>
    </clipPath>
    <clipPath id="clippath-19">
      <rect class="cls-1" x="302.21" y="61.67" width="65.45" height="20"/>
    </clipPath>
    <clipPath id="clippath-20">
      <rect class="cls-1" x="317.69" y="149.88" width="30.15" height="14"/>
    </clipPath>
  </defs>
  <path class="cls-2" d="m517.12,626.63c2,67-180-20-179,73"/>
  <path class="cls-2" d="m513.34,567.5c0-87-89-87-89-173.5"/>
  <path class="cls-2" d="m424.34,394.5c0-109-92.19-58.53-92.19-88.53"/>
  <line class="cls-2" x1="334.34" y1="678" x2="334.34" y2="614.5"/>
  <path class="cls-2" d="m331.63,570.34c-.02-144.91-89.42-85.09-90.97-115.4"/>
  <line class="cls-2" x1="332.34" y1="273" x2="332.34" y2="17"/>
  <path class="cls-2" d="m240.34,420.5c0-139,92-85,92-115"/>
  <path class="cls-2" d="m148.38,569.9c.02-144.91,89.42-85.09,90.97-115.4"/>
  <path class="cls-9" d="m119.84,620.5c0,3.13,1.73,5.7,3.85,5.7h52.31c2.12,0,3.85-2.56,3.85-5.7v-44.66c0-3.13-1.73-5.7-3.85-5.7h-52.31c-2.12,0-3.85,2.56-3.85,5.7v44.66Z"/>
  <path class="cls-10" d="m94.76,536.18c0,3.75,2.71,6.82,6.01,6.82h97.05c3.31,0,6.01-3.07,6.01-6.82v-36.54c0-3.75-2.71-6.82-6.01-6.82h-97.05c-3.31,0-6.01,3.07-6.01,6.82v36.54Z"/>
  <path class="cls-10" d="m275.3,533.27c0,3.75,2.71,6.82,6.01,6.82h97.05c3.31,0,6.01-3.07,6.01-6.82v-36.54c0-3.75-2.71-6.82-6.01-6.82h-97.05c-3.31,0-6.01,3.07-6.01,6.82v36.54Z"/>
  <path class="cls-10" d="m186.3,391.27c0,3.75,2.71,6.82,6.01,6.82h97.05c3.31,0,6.01-3.07,6.01-6.82v-36.54c0-3.75-2.71-6.82-6.01-6.82h-97.05c-3.31,0-6.01,3.07-6.01,6.82v36.54Z"/>
  <path class="cls-3" d="m223.84,450.65c0,1.84.95,3.35,2.12,3.35h28.77c1.16,0,2.12-1.51,2.12-3.35v-26.27c0-1.84-.95-3.35-2.12-3.35h-28.77c-1.16,0-2.12,1.51-2.12,3.35v26.27Z"/>
  <path class="cls-10" d="m369.3,392.27c0,3.75,2.71,6.82,6.01,6.82h97.05c3.31,0,6.01-3.07,6.01-6.82v-36.54c0-3.75-2.71-6.82-6.01-6.82h-97.05c-3.31,0-6.01,3.07-6.01,6.82v36.54Z"/>
  <path class="cls-10" d="m278.3,242.27c0,3.75,2.71,6.82,6.01,6.82h97.05c3.31,0,6.01-3.07,6.01-6.82v-36.54c0-3.75-2.71-6.82-6.01-6.82h-97.05c-3.31,0-6.01,3.07-6.01,6.82v36.54Z"/>
  <path class="cls-3" d="m315.34,302.14c0,1.84.95,3.35,2.12,3.35h28.77c1.16,0,2.12-1.51,2.12-3.35v-26.27c0-1.84-.95-3.35-2.12-3.35h-28.77c-1.16,0-2.12,1.51-2.12,3.35v26.27Z"/>
  <path class="cls-9" d="m302.79,616.93c0,3.13,1.73,5.7,3.85,5.7h52.31c2.12,0,3.85-2.56,3.85-5.7v-44.66c0-3.13-1.73-5.7-3.85-5.7h-52.31c-2.12,0-3.85,2.56-3.85,5.7v44.66Z"/>
  <path class="cls-9" d="m485.79,618.93c0,3.13,1.73,5.7,3.85,5.7h52.31c2.12,0,3.85-2.56,3.85-5.7v-44.66c0-3.13-1.73-5.7-3.85-5.7h-52.31c-2.12,0-3.85,2.56-3.85,5.7v44.66Z"/>
  <path class="cls-9" d="m302.79,169.93c0,3.13,1.73,5.7,3.85,5.7h52.31c2.12,0,3.85-2.56,3.85-5.7v-44.66c0-3.13-1.73-5.7-3.85-5.7h-52.31c-2.12,0-3.85,2.56-3.85,5.7v44.66Z"/>
  <path class="cls-2" d="m151.34,626.5c-2,67,180-20,179,73"/>
  <polygon class="cls-4" points="50.99 704.54 50.99 704.54 50.99 704.54 50.99 704.54 50.99 704.54 50.99 704.54 50.99 704.54 50.99 704.54 50.99 704.54 50.99 704.54 50.99 704.54 50.99 704.54 50.99 704.54 50.99 704.54 50.99 704.54 50.99 704.54 50.99 704.54 50.99 704.54 50.99 704.54 50.99 704.54 50.99 704.54 50.99 704.54 50.99 704.54 50.99 704.54 50.99 704.54 50.99 704.54 50.99 704.54 50.99 704.54 50.99 704.54 50.99 704.54 50.99 704.54 50.99 704.54 50.99 704.54 50.99 704.54 50.99 704.54 50.99 704.54 50.99 704.54 50.99 704.54 50.99 704.54 50.99 704.54 50.99 704.54 50.99 704.54 50.99 704.54 50.99 704.54 50.99 704.54 50.99 704.54 50.99 704.54 50.99 704.54 50.99 704.54 50.99 704.54 50.99 704.54 50.99 704.54 50.99 704.54 50.99 704.54 50.99 704.54 50.99 704.54 50.99 704.54 50.99 704.54 50.99 704.54 50.99 704.54 50.99 704.54 50.99 704.54 50.99 704.54 50.99 704.54 50.99 704.54 50.99 704.54 50.99 704.54 50.99 704.54 50.99 704.54 50.99 704.54 50.99 704.54 50.99 704.54 50.99 704.54 50.99 704.54 50.99 704.54 50.99 704.54 50.99 704.54 50.99 704.54 50.99 704.54 50.99 704.54 50.99 704.54 50.99 704.54 50.99 704.54 50.99 704.54 50.99 704.54 50.99 704.54"/>
  <g class="cls-6">
    <path d="m146.36,580.48c.15-.58.18-.63.9-.63h1.6c1.39,0,2.27.45,2.27,1.6,0,.65-.33,2.09-.99,2.69-.84.75-1.84.89-2.57.89h-2.36l1.14-4.54m-1.2,4.98h2.84c2.37,0,4.69-1.74,4.69-3.61,0-1.29-1.1-2.52-3.29-2.52h-5.41c-.32,0-.5,0-.5.32,0,.2.15.2.48.2.22,0,.52.02.72.03.27.03.37.08.37.27,0,.07-.02.12-.07.32l-2.24,8.97c-.17.65-.2.78-1.52.78-.28,0-.47,0-.47.32,0,.2.2.2.25.2.47,0,1.65-.05,2.12-.05.35,0,.72.02,1.07.02.37,0,.74.03,1.09.03.12,0,.33,0,.33-.33,0-.18-.15-.18-.47-.18-.62,0-1.09,0-1.09-.3,0-.1.03-.18.05-.28l1.04-4.18Z"/>
    <path d="m156.22,592.89c-.26.09-.69.21-1.14.21-.19,0-.59,0-.59-.45s.48-.84.97-.84c.42,0,.73.19.77,1.08m-2.02.06c-.61-.21-1.47-.82-1.47-2.38,0-.75.24-2.3,1.31-3.61.73-.9,1.87-1.54,2.95-1.54,1.27,0,2.34.85,2.34,2.55,0,1.17-.57,3.67-2.7,4.73-.19-.73-.49-1.22-1.18-1.22-.65,0-1.29.55-1.29,1.17,0,.21.01.22.05.3Zm2.02.99c0,.76.15,1.56,1.11,1.56,1.41,0,2.09-2.01,2.09-2.26,0-.08-.07-.16-.16-.16-.12,0-.15.11-.16.15-.28.82-1.05,1.05-1.45,1.05-.47,0-.71-.2-.92-1.13,2.07-.73,3.74-2.8,3.74-4.86,0-1.83-1.32-3.24-3.38-3.24-2.79,0-5.48,2.61-5.48,5.23,0,1.88,1.39,3.19,3.39,3.19.22,0,.62-.01,1.22-.16v.63Z"/>
  </g>
  <g class="cls-12">
    <path d="m327.19,579.37c.14-.53.17-.58.83-.58h1.47c1.27,0,2.08.41,2.08,1.47,0,.6-.31,1.91-.9,2.46-.76.69-1.68.81-2.35.81h-2.15l1.04-4.16m-1.1,4.55h2.6c2.17,0,4.29-1.59,4.29-3.3,0-1.18-1.01-2.31-3.01-2.31h-4.95c-.29,0-.46,0-.46.29,0,.18.14.18.44.18.2,0,.47.02.66.03.24.03.34.08.34.24,0,.06-.02.11-.06.29l-2.05,8.21c-.15.6-.18.72-1.39.72-.26,0-.43,0-.43.29,0,.18.18.18.23.18.43,0,1.51-.05,1.94-.05.32,0,.66.02.98.02.34,0,.67.03.99.03.11,0,.31,0,.31-.31,0-.17-.14-.17-.43-.17-.57,0-.99,0-.99-.27,0-.09.03-.17.05-.26l.95-3.82Z"/>
    <path d="m337.34,586.77c-.04-.09-.06-.12-.06-.13,0-.02.01-.03.26-.2l1.08-.76c1.41-.99,2.07-1.46,2.83-1.53.12-.01.25-.02.25-.23,0-.09-.07-.14-.14-.14-.22,0-.5.03-.74.03-.29,0-1-.04-1.29-.04-.06,0-.22,0-.22.23,0,.01,0,.14.16.15.13.01.27.03.27.15,0,.19-.33.43-.47.52l-4.45,3.14.84-3.36c.1-.36.11-.45.94-.45.17,0,.32,0,.32-.22,0-.1-.06-.16-.17-.16-.31,0-1.09.04-1.4.04-.18,0-.56,0-.74-.01-.21-.01-.47-.03-.67-.03-.06,0-.22,0-.22.23,0,.15.12.15.35.15.17,0,.21,0,.4.02.21.02.23.04.23.15,0,.02,0,.08-.04.23l-1.42,5.66c-.09.36-.11.45-.94.45-.19,0-.32,0-.32.23,0,.01,0,.15.17.15.31,0,1.08-.04,1.39-.04.18,0,.55,0,.74.01.21.01.48.03.68.03.06,0,.22,0,.22-.23,0-.15-.13-.15-.34-.15-.01,0-.21,0-.41-.02-.25-.02-.25-.05-.25-.16,0-.09.11-.48.5-2.05l1.77-1.25,1.55,3c.07.14.07.15.07.2,0,.25-.3.28-.49.28-.13,0-.28,0-.28.23,0,.01.01.15.18.15.3,0,1.07-.04,1.37-.04.32,0,.75.04,1.05.04.14,0,.21-.07.21-.22,0-.16-.14-.16-.25-.16-.19,0-.52-.01-.7-.35l-1.82-3.55"/>
  </g>
  <polygon class="cls-4" points="62.74 373.24 62.74 373.24 62.74 373.24 62.74 373.24 62.74 373.24 62.74 373.24 62.74 373.24 62.74 373.24 62.74 373.24 62.74 373.24 62.74 373.24 62.74 373.24 62.74 373.24 62.74 373.24 62.74 373.24 62.74 373.24 62.74 373.24 62.74 373.24 62.74 373.24 62.74 373.24 62.74 373.24 62.74 373.24 62.74 373.24 62.74 373.24 62.74 373.24 62.74 373.24 62.74 373.24 62.74 373.24 62.74 373.24 62.74 373.24 62.74 373.24 62.74 373.24 62.74 373.24 62.74 373.24 62.74 373.24 62.74 373.24 62.74 373.24 62.74 373.24 62.74 373.24 62.74 373.24 62.74 373.24 62.74 373.24 62.74 373.24 62.74 373.24 62.74 373.24 62.74 373.24 62.74 373.24 62.74 373.24 62.74 373.24 62.74 373.24 62.74 373.24 62.74 373.24 62.74 373.24 62.74 373.24 62.74 373.24 62.74 373.24 62.74 373.24 62.74 373.24 62.74 373.24 62.74 373.24 62.74 373.24 62.74 373.24 62.74 373.24 62.74 373.24 62.74 373.24 62.74 373.24 62.74 373.24 62.74 373.24 62.74 373.24 62.74 373.24 62.74 373.24 62.74 373.24 62.74 373.24 62.74 373.24 62.74 373.24 62.74 373.24 62.74 373.24 62.74 373.24 62.74 373.24 62.74 373.24 62.74 373.24 62.74 373.24 62.74 373.24 62.74 373.24 62.74 373.24 62.74 373.24"/>
  <g class="cls-15">
    <path d="m511.58,578.88c.15-.57.18-.62.88-.62h1.57c1.36,0,2.22.44,2.22,1.57,0,.64-.33,2.04-.96,2.63-.82.73-1.8.87-2.51.87h-2.3l1.11-4.44m-1.18,4.87h2.78c2.32,0,4.59-1.7,4.59-3.53,0-1.26-1.08-2.47-3.22-2.47h-5.29c-.31,0-.49,0-.49.31,0,.2.15.2.47.2.21,0,.51.02.7.03.26.03.36.08.36.26,0,.07-.02.11-.07.31l-2.19,8.77c-.16.64-.2.77-1.49.77-.28,0-.46,0-.46.31,0,.2.2.2.25.2.46,0,1.62-.05,2.07-.05.34,0,.7.02,1.04.02.36,0,.72.03,1.06.03.11,0,.33,0,.33-.33,0-.18-.15-.18-.46-.18-.6,0-1.06,0-1.06-.29,0-.1.03-.18.05-.28l1.01-4.08Z"/>
    <path d="m524.1,584.93c.42-.62.79-.9,1.4-.95.14-.01.26-.02.26-.25,0-.03-.02-.16-.16-.16-.27,0-.63.05-.91.05-.36,0-.84-.05-1.18-.05-.1,0-.23.03-.23.25,0,.15.16.16.21.16.36.02.47.16.47.33,0,.16-.08.27-.21.46l-3.74,5.51-1.04-5.82c-.02-.1-.02-.13-.02-.17,0-.31.64-.31.72-.31.19,0,.34,0,.34-.25,0-.01-.01-.16-.19-.16-.33,0-1.14.05-1.47.05-.28,0-.98-.05-1.26-.05-.1,0-.23.03-.23.25,0,.16.16.16.28.16.64,0,.65.07.71.36l1.24,6.93c.05.24.06.31.27.31s.27-.08.39-.25l4.35-6.4"/>
  </g>
  <g class="cls-14">
    <path d="m328.94,131.8c.15-.58.18-.63.9-.63h1.6c1.39,0,2.27.45,2.27,1.6,0,.65-.33,2.09-.99,2.69-.84.75-1.84.89-2.57.89h-2.36l1.14-4.54m-1.2,4.98h2.84c2.37,0,4.69-1.74,4.69-3.61,0-1.29-1.1-2.52-3.29-2.52h-5.41c-.32,0-.5,0-.5.32,0,.2.15.2.48.2.22,0,.52.02.72.03.27.03.37.08.37.27,0,.07-.02.12-.07.32l-2.24,8.97c-.17.65-.2.78-1.52.78-.28,0-.47,0-.47.32,0,.2.2.2.25.2.47,0,1.65-.05,2.12-.05.35,0,.72.02,1.07.02.37,0,.74.03,1.09.03.12,0,.33,0,.33-.33,0-.18-.15-.18-.47-.18-.62,0-1.09,0-1.09-.3,0-.1.03-.18.05-.28l1.04-4.18Z"/>
    <path d="m337.66,144.41c-1.24,0-2.28-.84-2.28-2.56,0-.6.16-2.25,1.24-3.58.78-.96,1.91-1.53,2.95-1.53,1.21,0,2.33.77,2.33,2.46,0,.85-.36,2.55-1.45,3.8-.82.93-1.88,1.41-2.79,1.41m5.37-4.8c0-1.83-1.32-3.24-3.38-3.24-2.79,0-5.48,2.61-5.48,5.23,0,1.88,1.39,3.19,3.39,3.19,2.77,0,5.47-2.54,5.47-5.19Z"/>
  </g>
  <g class="cls-13">
    <path d="m141.96,610.64v3.81c0,.33,0,.37-.2.69-.56.89-1.39,1.3-2.19,1.3s-1.5-.48-1.95-1.19c-.48-.76-.54-1.82-.54-2.58,0-.69.04-1.8.58-2.64.39-.58,1.1-1.19,2.1-1.19.65,0,1.43.28,2.01,1.11.2.32.2.35.2.69m0,4.98v1.23l2.73-.2v-.58c-1.3,0-1.45-.13-1.45-1.04v-11.28l-2.68.2v.58c1.3,0,1.45.13,1.45,1.04v4.01c-.54-.67-1.34-1.15-2.34-1.15-2.19,0-4.14,1.82-4.14,4.22s1.82,4.2,3.94,4.2c1.19,0,2.03-.63,2.49-1.23Z"/>
    <path d="m147.23,615.23c0,.84-.2.84-1.45.84v.58c.65-.02,1.6-.06,2.1-.06s1.45.04,2.08.06v-.58c-1.24,0-1.45,0-1.45-.84v-3.42c0-1.93,1.32-2.97,2.51-2.97s1.37,1,1.37,2.06v4.33c0,.84-.2.84-1.45.84v.58c.65-.02,1.6-.06,2.1-.06s1.45.04,2.08.06v-.58c-.97,0-1.43,0-1.45-.56v-3.55c0-1.6,0-2.17-.58-2.84-.26-.32-.87-.69-1.95-.69-1.56,0-2.38,1.11-2.69,1.82v-6.5l-2.67.2v.58c1.3,0,1.45.13,1.45,1.04v9.66"/>
    <path d="m157.5,615.23c0,.84-.2.84-1.45.84v.58c.61-.02,1.49-.06,2.02-.06s1.3.02,2.04.06v-.58c-1.24,0-1.45,0-1.45-.84v-1.91l1.19-1.02c1.43,1.97,2.21,3.01,2.21,3.34,0,.35-.32.43-.67.43v.58c.52-.02,1.62-.06,2.01-.06.54,0,1.08.02,1.62.06v-.58c-.69,0-1.1,0-1.8-.98l-2.36-3.32s-.11-.15-.11-.2c0-.07,1.32-1.19,1.5-1.34,1.17-.95,1.95-.98,2.34-1v-.58c-.54.06-.78.06-1.3.06-.67,0-1.82-.04-2.08-.06v.58c.35.02.54.22.54.46,0,.37-.26.59-.41.72l-2.62,2.27v-8.92l-2.67.2v.58c1.3,0,1.45.13,1.45,1.04v9.66"/>
  </g>
  <g class="cls-19">
    <path d="m507.35,608.06v3.94c0,.35,0,.38-.21.71-.58.92-1.44,1.35-2.27,1.35s-1.56-.5-2.02-1.23c-.5-.79-.56-1.89-.56-2.67,0-.71.04-1.87.6-2.73.4-.6,1.14-1.23,2.17-1.23.67,0,1.48.29,2.08,1.15.21.33.21.37.21.71m0,5.16v1.27l2.83-.21v-.6c-1.35,0-1.5-.13-1.5-1.08v-11.68l-2.77.21v.6c1.35,0,1.5.13,1.5,1.08v4.16c-.56-.69-1.39-1.19-2.42-1.19-2.27,0-4.29,1.89-4.29,4.37s1.89,4.35,4.08,4.35c1.23,0,2.1-.65,2.58-1.27Z"/>
    <path d="m512.81,612.82c0,.87-.21.87-1.5.87v.6c.67-.02,1.65-.06,2.17-.06s1.5.04,2.15.06v-.6c-1.29,0-1.5,0-1.5-.87v-3.54c0-2,1.37-3.08,2.6-3.08s1.42,1.04,1.42,2.14v4.48c0,.87-.21.87-1.5.87v.6c.67-.02,1.65-.06,2.17-.06s1.5.04,2.15.06v-.6c-1,0-1.48,0-1.5-.58v-3.67c0-1.65,0-2.25-.6-2.94-.27-.33-.9-.71-2.02-.71-1.62,0-2.46,1.15-2.79,1.89v-6.73l-2.77.21v.6c1.35,0,1.5.13,1.5,1.08v10"/>
    <path d="m528.88,607.87c.17-.44.5-1.27,1.77-1.29v-.6c-.44.04-1,.06-1.44.06s-1.35-.04-1.67-.06v.6c.71.02.92.46.92.83,0,.17-.04.25-.12.46l-1.96,4.91-2.16-5.37c-.12-.25-.12-.29-.12-.33,0-.5.75-.5,1.1-.5v-.6c-.58.02-1.65.06-2.1.06-.52,0-1.29-.02-1.87-.06v.6c1.21,0,1.29.12,1.54.71l2.77,6.83c.12.27.15.37.4.37s.33-.17.4-.37l2.52-6.25"/>
  </g>
  <g class="cls-18">
    <path d="m323.41,608.12v3.81c0,.33,0,.37-.2.69-.56.89-1.39,1.3-2.19,1.3s-1.5-.48-1.95-1.19c-.48-.76-.54-1.82-.54-2.58,0-.69.04-1.8.58-2.64.39-.58,1.1-1.19,2.1-1.19.65,0,1.43.28,2.01,1.11.2.32.2.35.2.69m0,4.98v1.23l2.73-.2v-.58c-1.3,0-1.45-.13-1.45-1.04v-11.28l-2.68.2v.58c1.3,0,1.45.13,1.45,1.04v4.01c-.54-.67-1.34-1.15-2.34-1.15-2.19,0-4.14,1.82-4.14,4.22s1.82,4.2,3.94,4.2c1.19,0,2.03-.63,2.49-1.23Z"/>
    <path d="m328.68,612.71c0,.84-.2.84-1.45.84v.58c.65-.02,1.6-.06,2.1-.06s1.45.04,2.08.06v-.58c-1.24,0-1.45,0-1.45-.84v-3.42c0-1.93,1.32-2.97,2.51-2.97s1.37,1,1.37,2.06v4.33c0,.84-.2.84-1.45.84v.58c.65-.02,1.6-.06,2.1-.06s1.45.04,2.08.06v-.58c-.97,0-1.43,0-1.45-.56v-3.55c0-1.6,0-2.17-.58-2.84-.26-.32-.87-.69-1.95-.69-1.56,0-2.38,1.11-2.69,1.82v-6.5l-2.67.2v.58c1.3,0,1.45.13,1.45,1.04v9.66"/>
    <path d="m338.95,612.71c0,.84-.2.84-1.45.84v.58c.61-.02,1.49-.06,2.02-.06s1.3.02,2.04.06v-.58c-1.24,0-1.45,0-1.45-.84v-1.91l1.19-1.02c1.43,1.97,2.21,3.01,2.21,3.34,0,.35-.32.43-.67.43v.58c.52-.02,1.62-.06,2.01-.06.54,0,1.08.02,1.62.06v-.58c-.69,0-1.1,0-1.8-.98l-2.36-3.32s-.11-.15-.11-.2c0-.07,1.32-1.19,1.5-1.34,1.17-.95,1.95-.98,2.34-1v-.58c-.54.06-.78.06-1.3.06-.67,0-1.82-.04-2.08-.06v.58c.35.02.54.22.54.46,0,.37-.26.59-.41.72l-2.62,2.27v-8.92l-2.67.2v.58c1.3,0,1.45.13,1.45,1.04v9.66"/>
  </g>
  <polygon class="cls-4" points="364.22 447.35 364.22 447.35 364.22 447.35 364.22 447.35 364.22 447.35 364.22 447.35 364.22 447.35 364.22 447.35 364.22 447.35 364.22 447.35 364.22 447.35 364.22 447.35 364.22 447.35 364.22 447.35 364.22 447.35 364.22 447.35 364.22 447.35 364.22 447.35 364.22 447.35 364.22 447.35 364.22 447.35 364.22 447.35 364.22 447.35 364.22 447.35 364.22 447.35 364.22 447.35 364.22 447.35 364.22 447.35 364.22 447.35 364.22 447.35 364.22 447.35 364.22 447.35 364.22 447.35 364.22 447.35 364.22 447.35 364.22 447.35 364.22 447.35 364.22 447.35 364.22 447.35 364.22 447.35 364.22 447.35 364.22 447.35 364.22 447.35 364.22 447.35 364.22 447.35 364.22 447.35 364.22 447.35 364.22 447.35 364.22 447.35 364.22 447.35 364.22 447.35 364.22 447.35 364.22 447.35 364.22 447.35 364.22 447.35 364.22 447.35 364.22 447.35 364.22 447.35 364.22 447.35 364.22 447.35 364.22 447.35 364.22 447.35 364.22 447.35 364.22 447.35 364.22 447.35 364.22 447.35 364.22 447.35 364.22 447.35 364.22 447.35 364.22 447.35 364.22 447.35 364.22 447.35 364.22 447.35 364.22 447.35 364.22 447.35 364.22 447.35 364.22 447.35 364.22 447.35 364.22 447.35 364.22 447.35 364.22 447.35 364.22 447.35 364.22 447.35 364.22 447.35 364.22 447.35 364.22 447.35 364.22 447.35 364.22 447.35 364.22 447.35 364.22 447.35 364.22 447.35 364.22 447.35 364.22 447.35"/>
  <polygon class="cls-4" points="92.09 624.71 92.09 624.71 92.09 624.71 92.09 624.71 92.09 624.71 92.09 624.71 92.09 624.71 92.09 624.71 92.09 624.71 92.09 624.71 92.09 624.71 92.09 624.71 92.09 624.71 92.09 624.71 92.09 624.71 92.09 624.71 92.09 624.71 92.09 624.71 92.09 624.71 92.09 624.71 92.09 624.71 92.09 624.71 92.09 624.71 92.09 624.71 92.09 624.71 92.09 624.71 92.09 624.71 92.09 624.71 92.09 624.71 92.09 624.71 92.09 624.71 92.09 624.71 92.09 624.71 92.09 624.71 92.09 624.71 92.09 624.71 92.09 624.71 92.09 624.71 92.09 624.71 92.09 624.71 92.09 624.71 92.09 624.71 92.09 624.71 92.09 624.71 92.09 624.71 92.09 624.71 92.09 624.71 92.09 624.71 92.09 624.71 92.09 624.71 92.09 624.71 92.09 624.71 92.09 624.71 92.09 624.71 92.09 624.71 92.09 624.71 92.09 624.71 92.09 624.71 92.09 624.71 92.09 624.71 92.09 624.71 92.09 624.71 92.09 624.71 92.09 624.71 92.09 624.71 92.09 624.71 92.09 624.71 92.09 624.71 92.09 624.71 92.09 624.71 92.09 624.71 92.09 624.71 92.09 624.71 92.09 624.71 92.09 624.71 92.09 624.71 92.09 624.71 92.09 624.71 92.09 624.71 92.09 624.71 92.09 624.71 92.09 624.71 92.09 624.71 92.09 624.71 92.09 624.71 92.09 624.71 92.09 624.71 92.09 624.71 92.09 624.71 92.09 624.71 92.09 624.71 92.09 624.71 92.09 624.71"/>
  <polygon class="cls-4" points="29.13 689.77 29.13 689.77 29.13 689.77 29.13 689.77 29.13 689.77 29.13 689.77 29.13 689.77 29.13 689.77 29.13 689.77 29.13 689.77 29.13 689.77 29.13 689.77 29.13 689.77 29.13 689.77 29.13 689.77 29.13 689.77 29.13 689.77 29.13 689.77 29.13 689.77 29.13 689.77 29.13 689.77 29.13 689.77 29.13 689.77 29.13 689.77 29.13 689.77 29.13 689.77 29.13 689.77 29.13 689.77 29.13 689.77 29.13 689.77 29.13 689.77 29.13 689.77 29.13 689.77 29.13 689.77 29.13 689.77 29.13 689.77 29.13 689.77 29.13 689.77 29.13 689.77 29.13 689.77 29.13 689.77 29.13 689.77 29.13 689.77 29.13 689.77 29.13 689.77 29.13 689.77 29.13 689.77 29.13 689.77 29.13 689.77 29.13 689.77 29.13 689.77 29.13 689.77 29.13 689.77 29.13 689.77 29.13 689.77 29.13 689.77 29.13 689.77 29.13 689.77 29.13 689.77 29.13 689.77 29.13 689.77 29.13 689.77 29.13 689.77 29.13 689.77 29.13 689.77 29.13 689.77 29.13 689.77 29.13 689.77 29.13 689.77 29.13 689.77 29.13 689.77 29.13 689.77 29.13 689.77 29.13 689.77 29.13 689.77 29.13 689.77 29.13 689.77 29.13 689.77 29.13 689.77 29.13 689.77 29.13 689.77 29.13 689.77 29.13 689.77 29.13 689.77 29.13 689.77 29.13 689.77 29.13 689.77 29.13 689.77 29.13 689.77 29.13 689.77 29.13 689.77 29.13 689.77 29.13 689.77"/>
  <g class="cls-16">
    <path d="m213.85,578.3c.09-.19.09-.23.09-.32,0-.19-.16-.35-.35-.35-.16,0-.28.09-.4.4l-3.07,8.04c-.04.11-.09.21-.09.32,0,.05,0,.09.09.3l3.07,8.04c.07.19.16.42.4.42.19,0,.35-.16.35-.35,0-.05,0-.09-.09-.28l-3.1-8.13,3.1-8.09"/>
    <path d="m218,588.77v-3.61c0-.33,0-.35.19-.63.68-.98,1.65-1.12,2.07-1.12.79,0,1.42.46,1.84,1.12.46.72.51,1.72.51,2.44,0,.65-.04,1.7-.54,2.49-.37.54-1.03,1.12-1.98,1.12-.79,0-1.42-.42-1.84-1.07-.25-.37-.25-.42-.25-.74m-.05-4.61v-5.55l-2.52.19v.54c1.23,0,1.37.12,1.37.98v10.44h.44s.16-.26.63-1.09c.26.4,1,1.28,2.29,1.28,2.08,0,3.91-1.72,3.91-3.98s-1.72-3.96-3.71-3.96c-1.37,0-2.12.82-2.4,1.14Z"/>
    <path d="m226.57,584.74v4.7c0,.79-.19.79-1.37.79v.54c.61-.02,1.51-.05,1.98-.05s1.37.04,1.96.05v-.54c-1.17,0-1.37,0-1.37-.79v-3.22c0-1.82,1.24-2.8,2.37-2.8s1.3.95,1.3,1.95v4.08c0,.79-.19.79-1.37.79v.54c.61-.02,1.51-.05,1.98-.05s1.37.04,1.96.05v-.54c-1.17,0-1.37,0-1.37-.79v-3.22c0-1.82,1.24-2.8,2.37-2.8s1.3.95,1.3,1.95v4.08c0,.79-.19.79-1.37.79v.54c.61-.02,1.51-.05,1.98-.05s1.37.04,1.96.05v-.54c-.91,0-1.35,0-1.37-.53v-3.35c0-1.51,0-2.05-.54-2.68-.24-.3-.82-.65-1.84-.65-1.47,0-2.24,1.05-2.54,1.72-.25-1.52-1.54-1.72-2.33-1.72-1.28,0-2.1.75-2.59,1.84v-1.84l-2.47.19v.54c1.23,0,1.37.12,1.37.98"/>
    <path d="m245.89,585.11v3.59c0,.31,0,.35-.19.65-.53.84-1.31,1.23-2.07,1.23s-1.42-.46-1.84-1.12c-.46-.72-.51-1.72-.51-2.44,0-.65.04-1.7.54-2.49.37-.54,1.03-1.12,1.98-1.12.61,0,1.35.26,1.89,1.05.19.3.19.33.19.65m0,4.7v1.16l2.58-.19v-.54c-1.23,0-1.37-.12-1.37-.98v-10.63l-2.52.19v.54c1.23,0,1.37.12,1.37.98v3.78c-.51-.63-1.26-1.09-2.21-1.09-2.07,0-3.91,1.72-3.91,3.98s1.72,3.96,3.71,3.96c1.12,0,1.91-.6,2.35-1.16Z"/>
    <path d="m252.49,590.75c0-1.16-.44-1.84-1.12-1.84-.58,0-.93.44-.93.93s.35.93.93.93c.21,0,.44-.07.61-.23.05-.04.07-.05.09-.05s.04.02.04.26c0,1.3-.61,2.35-1.19,2.93-.19.19-.19.23-.19.28,0,.12.09.19.18.19.19,0,1.59-1.35,1.59-3.4"/>
    <path d="m263.35,585.11v3.59c0,.31,0,.35-.19.65-.53.84-1.31,1.23-2.07,1.23s-1.42-.46-1.84-1.12c-.46-.72-.51-1.72-.51-2.44,0-.65.03-1.7.54-2.49.37-.54,1.03-1.12,1.98-1.12.61,0,1.35.26,1.89,1.05.19.3.19.33.19.65m0,4.7v1.16l2.58-.19v-.54c-1.23,0-1.37-.12-1.37-.98v-10.63l-2.52.19v.54c1.23,0,1.37.12,1.37.98v3.78c-.51-.63-1.26-1.09-2.21-1.09-2.07,0-3.91,1.72-3.91,3.98s1.72,3.96,3.71,3.96c1.12,0,1.91-.6,2.35-1.16Z"/>
    <path d="m268.37,589.44c0,.79-.19.79-1.37.79v.54c.61-.02,1.51-.05,1.98-.05s1.37.04,1.96.05v-.54c-1.17,0-1.37,0-1.37-.79v-3.22c0-1.82,1.24-2.8,2.37-2.8s1.3.95,1.3,1.95v4.08c0,.79-.19.79-1.37.79v.54c.61-.02,1.51-.05,1.98-.05s1.37.04,1.96.05v-.54c-.91,0-1.35,0-1.37-.53v-3.35c0-1.51,0-2.05-.54-2.68-.25-.3-.82-.65-1.84-.65-1.47,0-2.24,1.05-2.54,1.72v-6.13l-2.52.19v.54c1.23,0,1.37.12,1.37.98v9.11"/>
    <path d="m278.01,589.44c0,.79-.19.79-1.37.79v.54c.58-.02,1.4-.05,1.91-.05s1.23.02,1.93.05v-.54c-1.17,0-1.37,0-1.37-.79v-1.8l1.12-.96c1.35,1.86,2.08,2.84,2.08,3.15,0,.33-.3.4-.63.4v.54c.49-.02,1.52-.05,1.89-.05.51,0,1.02.02,1.52.05v-.54c-.65,0-1.03,0-1.7-.93l-2.22-3.14s-.11-.14-.11-.19c0-.07,1.24-1.12,1.42-1.26,1.1-.89,1.84-.93,2.21-.95v-.54c-.51.05-.74.05-1.23.05-.63,0-1.72-.04-1.96-.05v.54c.33.02.51.21.51.44,0,.35-.25.56-.39.68l-2.47,2.14v-8.41l-2.52.19v.54c1.23,0,1.37.12,1.37.98v9.11"/>
    <path d="m290.16,586.69c.09-.21.09-.24.09-.3s0-.09-.09-.3l-3.07-8.06c-.1-.3-.21-.4-.4-.4s-.35.16-.35.35c0,.05,0,.09.09.28l3.1,8.13-3.1,8.09c-.09.19-.09.23-.09.32,0,.19.16.35.35.35.23,0,.3-.18.37-.35l3.1-8.11"/>
    <path d="m241.21,612.98c-.96.74-1.44,1.45-1.58,1.68-.79,1.21-.93,2.31-.93,2.33,0,.21.21.21.35.21.3,0,.32-.04.39-.35.4-1.72,1.44-3.19,3.42-3.99.21-.07.26-.11.26-.23s-.11-.18-.14-.19c-.77-.3-2.89-1.17-3.56-4.12-.05-.21-.07-.26-.37-.26-.14,0-.35,0-.35.21,0,.04.16,1.14.89,2.31.35.53.86,1.14,1.61,1.7h-13.02c-.32,0-.63,0-.63.35s.32.35.63.35h13.02"/>
    <path d="m252,615.02v-3.61c0-.33,0-.35.19-.63.68-.98,1.65-1.12,2.07-1.12.79,0,1.42.46,1.84,1.12.46.72.51,1.72.51,2.44,0,.65-.04,1.7-.54,2.49-.37.54-1.03,1.12-1.98,1.12-.79,0-1.42-.42-1.84-1.07-.25-.37-.25-.42-.25-.74m-.05-4.61v-5.55l-2.52.19v.54c1.23,0,1.37.12,1.37.98v10.44h.44s.16-.26.63-1.09c.26.4,1,1.28,2.29,1.28,2.08,0,3.91-1.72,3.91-3.98s-1.72-3.96-3.71-3.96c-1.37,0-2.12.82-2.4,1.14Z"/>
    <path d="m260.57,615.68c0,.79-.19.79-1.37.79v.54c.61-.02,1.51-.05,1.98-.05s1.37.04,1.96.05v-.54c-1.17,0-1.37,0-1.37-.79v-3.22c0-1.82,1.24-2.8,2.37-2.8s1.3.95,1.3,1.95v4.08c0,.79-.19.79-1.37.79v.54c.61-.02,1.51-.05,1.98-.05s1.37.04,1.96.05v-.54c-.91,0-1.35,0-1.37-.53v-3.35c0-1.51,0-2.05-.54-2.68-.25-.3-.82-.65-1.84-.65-1.47,0-2.24,1.05-2.54,1.72v-6.13l-2.52.19v.54c1.23,0,1.37.12,1.37.98v9.11"/>
    <path d="m270.33,610.99v4.7c0,.79-.19.79-1.37.79v.54c.61-.02,1.51-.05,1.98-.05s1.37.04,1.96.05v-.54c-1.17,0-1.37,0-1.37-.79v-3.22c0-1.82,1.24-2.8,2.37-2.8s1.3.95,1.3,1.95v4.08c0,.79-.19.79-1.37.79v.54c.61-.02,1.51-.05,1.98-.05s1.37.04,1.96.05v-.54c-1.17,0-1.37,0-1.37-.79v-3.22c0-1.82,1.24-2.8,2.36-2.8s1.3.95,1.3,1.95v4.08c0,.79-.19.79-1.37.79v.54c.61-.02,1.51-.05,1.98-.05s1.37.04,1.96.05v-.54c-.91,0-1.35,0-1.37-.53v-3.35c0-1.51,0-2.05-.54-2.68-.24-.3-.82-.65-1.84-.65-1.47,0-2.24,1.05-2.54,1.72-.25-1.52-1.54-1.72-2.33-1.72-1.28,0-2.1.75-2.59,1.84v-1.84l-2.47.19v.54c1.23,0,1.37.12,1.37.98"/>
    <path d="m284.84,615.68c0,.79-.19.79-1.37.79v.54c.58-.02,1.4-.05,1.91-.05s1.23.02,1.93.05v-.54c-1.17,0-1.37,0-1.37-.79v-1.8l1.12-.96c1.35,1.86,2.08,2.84,2.08,3.15,0,.33-.3.4-.63.4v.54c.49-.02,1.52-.05,1.89-.05.51,0,1.02.02,1.52.05v-.54c-.65,0-1.03,0-1.7-.93l-2.22-3.14s-.11-.14-.11-.19c0-.07,1.24-1.12,1.42-1.26,1.1-.89,1.84-.93,2.21-.95v-.54c-.51.05-.74.05-1.23.05-.63,0-1.72-.04-1.96-.05v.54c.33.02.51.21.51.44,0,.35-.25.56-.39.68l-2.47,2.14v-8.41l-2.52.19v.54c1.23,0,1.37.12,1.37.98v9.11"/>
  </g>
  <polygon class="cls-4" points="14.84 666.35 14.84 666.34 14.84 666.34 14.84 666.34 14.84 666.34 14.84 666.34 14.84 666.34 14.84 666.34 14.84 666.34 14.84 666.34 14.84 666.34 14.84 666.34 14.84 666.34 14.84 666.34 14.84 666.34 14.84 666.34 14.84 666.34 14.84 666.34 14.84 666.34 14.84 666.34 14.84 666.34 14.84 666.34 14.84 666.34 14.84 666.34 14.84 666.34 14.84 666.34 14.84 666.34 14.84 666.34 14.84 666.34 14.84 666.34 14.84 666.34 14.84 666.34 14.84 666.34 14.84 666.34 14.84 666.34 14.84 666.34 14.84 666.34 14.84 666.34 14.84 666.34 14.84 666.34 14.84 666.34 14.84 666.34 14.84 666.34 14.84 666.34 14.84 666.34 14.84 666.34 14.84 666.34 14.84 666.34 14.84 666.34 14.84 666.34 14.84 666.34 14.84 666.34 14.84 666.34 14.84 666.34 14.84 666.34 14.84 666.34 14.84 666.34 14.84 666.34 14.84 666.34 14.84 666.34 14.84 666.34 14.84 666.34 14.84 666.34 14.84 666.34 14.84 666.34 14.84 666.34 14.84 666.34 14.84 666.34 14.84 666.34 14.84 666.34 14.84 666.34 14.84 666.34 14.84 666.34 14.84 666.34 14.84 666.34 14.84 666.34 14.84 666.34 14.84 666.34 14.84 666.34 14.84 666.34 14.84 666.34 14.84 666.34 14.84 666.34 14.84 666.34 14.84 666.34 14.84 666.34 14.84 666.34 14.84 666.34 14.84 666.34 14.84 666.34 14.84 666.34 14.84 666.34 14.84 666.35"/>
  <g class="cls-17">
    <path d="m38.69,578.58c.09-.19.09-.23.09-.32,0-.19-.16-.35-.35-.35-.16,0-.28.09-.4.4l-3.07,8.04c-.04.11-.09.21-.09.32,0,.05,0,.09.09.3l3.07,8.04c.07.19.16.42.4.42.19,0,.35-.16.35-.35,0-.05,0-.09-.09-.28l-3.1-8.13,3.1-8.09"/>
    <path d="m42.79,589.06v-3.61c0-.33,0-.35.19-.63.68-.98,1.65-1.12,2.07-1.12.79,0,1.42.46,1.84,1.12.46.72.51,1.72.51,2.44,0,.65-.04,1.7-.54,2.49-.37.54-1.03,1.12-1.98,1.12-.79,0-1.42-.42-1.84-1.07-.25-.37-.25-.42-.25-.74m-.05-4.61v-5.55l-2.52.19v.54c1.23,0,1.37.12,1.37.98v10.44h.44s.16-.26.63-1.09c.26.4,1,1.28,2.29,1.28,2.08,0,3.91-1.72,3.91-3.98s-1.72-3.96-3.71-3.96c-1.37,0-2.12.82-2.4,1.14Z"/>
    <path d="m51.4,585.03v4.7c0,.79-.19.79-1.37.79v.54c.61-.02,1.51-.05,1.98-.05s1.37.04,1.96.05v-.54c-1.17,0-1.37,0-1.37-.79v-3.22c0-1.82,1.24-2.8,2.37-2.8s1.3.95,1.3,1.95v4.08c0,.79-.19.79-1.37.79v.54c.61-.02,1.51-.05,1.98-.05s1.37.04,1.96.05v-.54c-.91,0-1.35,0-1.37-.53v-3.35c0-1.51,0-2.05-.54-2.68-.25-.3-.82-.65-1.84-.65-1.28,0-2.1.75-2.59,1.84v-1.84l-2.47.19v.54c1.23,0,1.37.12,1.37.98"/>
    <path d="m65.84,585.4v3.59c0,.31,0,.35-.19.65-.53.84-1.31,1.23-2.07,1.23s-1.42-.46-1.84-1.12c-.46-.72-.51-1.72-.51-2.44,0-.65.04-1.7.54-2.49.37-.54,1.03-1.12,1.98-1.12.61,0,1.35.26,1.89,1.05.19.3.19.33.19.65m0,4.7v1.16l2.58-.19v-.54c-1.23,0-1.37-.12-1.37-.98v-10.63l-2.52.19v.54c1.23,0,1.37.12,1.37.98v3.78c-.51-.63-1.26-1.09-2.21-1.09-2.07,0-3.91,1.72-3.91,3.98s1.72,3.96,3.71,3.96c1.12,0,1.91-.6,2.35-1.16Z"/>
    <path d="m72.45,591.04c0-1.16-.44-1.84-1.12-1.84-.58,0-.93.44-.93.93s.35.93.93.93c.21,0,.44-.07.61-.23.05-.04.07-.05.09-.05s.04.02.04.26c0,1.3-.61,2.35-1.19,2.93-.19.19-.19.23-.19.28,0,.12.09.19.18.19.19,0,1.59-1.35,1.59-3.4"/>
    <path d="m83.35,585.4v3.59c0,.31,0,.35-.19.65-.53.84-1.31,1.23-2.07,1.23s-1.42-.46-1.84-1.12c-.46-.72-.51-1.72-.51-2.44,0-.65.04-1.7.54-2.49.37-.54,1.03-1.12,1.98-1.12.61,0,1.35.26,1.89,1.05.19.3.19.33.19.65m0,4.7v1.16l2.58-.19v-.54c-1.23,0-1.37-.12-1.37-.98v-10.63l-2.52.19v.54c1.23,0,1.37.12,1.37.98v3.78c-.51-.63-1.26-1.09-2.21-1.09-2.07,0-3.91,1.72-3.91,3.98s1.72,3.96,3.71,3.96c1.12,0,1.91-.6,2.35-1.16Z"/>
    <path d="m88.33,589.72c0,.79-.19.79-1.37.79v.54c.61-.02,1.51-.05,1.98-.05s1.37.04,1.96.05v-.54c-1.17,0-1.37,0-1.37-.79v-3.22c0-1.82,1.24-2.8,2.37-2.8s1.3.95,1.3,1.95v4.08c0,.79-.19.79-1.37.79v.54c.61-.02,1.51-.05,1.98-.05s1.37.04,1.96.05v-.54c-.91,0-1.35,0-1.37-.53v-3.35c0-1.51,0-2.05-.54-2.68-.25-.3-.82-.65-1.84-.65-1.47,0-2.24,1.05-2.54,1.72v-6.13l-2.52.19v.54c1.23,0,1.37.12,1.37.98v9.11"/>
    <path d="m97.97,589.72c0,.79-.19.79-1.37.79v.54c.58-.02,1.4-.05,1.91-.05s1.23.02,1.93.05v-.54c-1.17,0-1.37,0-1.37-.79v-1.8l1.12-.96c1.35,1.86,2.08,2.84,2.08,3.15,0,.33-.3.4-.63.4v.54c.49-.02,1.52-.05,1.89-.05.51,0,1.02.02,1.52.05v-.54c-.65,0-1.03,0-1.7-.93l-2.22-3.14s-.11-.14-.11-.19c0-.07,1.24-1.12,1.42-1.26,1.1-.89,1.84-.93,2.21-.95v-.54c-.51.05-.74.05-1.23.05-.63,0-1.72-.04-1.96-.05v.54c.33.02.51.21.51.44,0,.35-.25.56-.39.68l-2.47,2.14v-8.41l-2.52.19v.54c1.23,0,1.37.12,1.37.98v9.11"/>
    <path d="m110.11,586.97c.09-.21.09-.24.09-.3s0-.09-.09-.3l-3.07-8.06c-.1-.3-.21-.4-.4-.4s-.35.16-.35.35c0,.05,0,.09.09.28l3.1,8.13-3.1,8.09c-.09.19-.09.23-.09.32,0,.19.16.35.35.35.23,0,.3-.18.37-.35l3.1-8.11"/>
    <path d="m66.04,613.27c-.96.74-1.44,1.45-1.58,1.68-.79,1.21-.93,2.31-.93,2.33,0,.21.21.21.35.21.3,0,.32-.04.39-.35.4-1.72,1.44-3.19,3.42-3.99.21-.07.26-.11.26-.23s-.11-.18-.14-.19c-.77-.3-2.89-1.17-3.56-4.12-.05-.21-.07-.26-.37-.26-.14,0-.35,0-.35.21,0,.04.16,1.14.89,2.31.35.53.86,1.14,1.61,1.7h-13.02c-.32,0-.63,0-.63.35s.32.35.63.35h13.02"/>
    <path d="m76.84,615.3v-3.61c0-.33,0-.35.19-.63.68-.98,1.65-1.12,2.07-1.12.79,0,1.42.46,1.84,1.12.46.72.51,1.72.51,2.44,0,.65-.04,1.7-.54,2.49-.37.54-1.03,1.12-1.98,1.12-.79,0-1.42-.42-1.84-1.07-.25-.37-.25-.42-.25-.74m-.05-4.61v-5.55l-2.52.19v.54c1.23,0,1.37.12,1.37.98v10.44h.44s.16-.26.63-1.09c.26.4,1,1.28,2.29,1.28,2.08,0,3.91-1.72,3.91-3.98s-1.72-3.96-3.71-3.96c-1.37,0-2.12.82-2.4,1.14Z"/>
    <path d="m85.4,615.97c0,.79-.19.79-1.37.79v.54c.61-.02,1.51-.05,1.98-.05s1.37.04,1.96.05v-.54c-1.17,0-1.37,0-1.37-.79v-3.22c0-1.82,1.24-2.8,2.37-2.8s1.3.95,1.3,1.95v4.08c0,.79-.19.79-1.37.79v.54c.61-.02,1.51-.05,1.98-.05s1.37.04,1.96.05v-.54c-.91,0-1.35,0-1.37-.53v-3.35c0-1.51,0-2.05-.54-2.68-.25-.3-.82-.65-1.84-.65-1.47,0-2.24,1.05-2.54,1.72v-6.13l-2.52.19v.54c1.23,0,1.37.12,1.37.98v9.11"/>
    <path d="m95.11,611.27v4.7c0,.79-.19.79-1.37.79v.54c.61-.02,1.51-.05,1.98-.05s1.37.04,1.96.05v-.54c-1.17,0-1.37,0-1.37-.79v-3.22c0-1.82,1.24-2.8,2.37-2.8s1.3.95,1.3,1.95v4.08c0,.79-.19.79-1.37.79v.54c.61-.02,1.51-.05,1.98-.05s1.37.04,1.96.05v-.54c-.91,0-1.35,0-1.37-.53v-3.35c0-1.51,0-2.05-.54-2.68-.25-.3-.82-.65-1.84-.65-1.28,0-2.1.75-2.59,1.84v-1.84l-2.47.19v.54c1.23,0,1.37.12,1.37.98"/>
    <path d="m104.8,615.97c0,.79-.19.79-1.37.79v.54c.58-.02,1.4-.05,1.91-.05s1.23.02,1.93.05v-.54c-1.17,0-1.37,0-1.37-.79v-1.8l1.12-.96c1.35,1.86,2.08,2.84,2.08,3.15,0,.33-.3.4-.63.4v.54c.49-.02,1.52-.05,1.89-.05.51,0,1.02.02,1.52.05v-.54c-.65,0-1.03,0-1.7-.93l-2.22-3.14s-.11-.14-.11-.19c0-.07,1.24-1.12,1.42-1.26,1.1-.89,1.84-.93,2.21-.95v-.54c-.51.05-.74.05-1.23.05-.63,0-1.72-.04-1.96-.05v.54c.33.02.51.21.51.44,0,.35-.25.56-.39.68l-2.47,2.14v-8.41l-2.52.19v.54c1.23,0,1.37.12,1.37.98v9.11"/>
  </g>
  <polygon class="cls-4" points="109.9 237.76 109.9 237.76 109.9 237.76 109.9 237.76 109.9 237.76 109.9 237.76 109.9 237.76 109.9 237.76 109.9 237.76 109.9 237.76 109.9 237.76 109.9 237.76 109.9 237.76 109.9 237.76 109.9 237.76 109.9 237.76 109.9 237.76 109.9 237.76 109.9 237.76 109.9 237.76 109.9 237.76 109.9 237.76 109.9 237.76 109.9 237.76 109.9 237.76 109.9 237.76 109.9 237.76 109.9 237.76 109.9 237.76 109.9 237.76 109.9 237.76 109.9 237.76 109.9 237.76 109.9 237.76 109.9 237.76 109.9 237.76 109.9 237.76 109.9 237.76 109.9 237.76 109.9 237.76 109.9 237.76 109.9 237.76 109.9 237.76 109.9 237.76 109.9 237.76 109.9 237.76 109.9 237.76 109.9 237.76 109.9 237.76 109.9 237.76 109.9 237.76 109.9 237.76 109.9 237.76 109.9 237.76 109.9 237.76 109.9 237.76 109.9 237.76 109.9 237.76 109.9 237.76 109.9 237.76 109.9 237.76 109.9 237.76 109.9 237.76 109.9 237.76 109.9 237.76 109.9 237.76 109.9 237.76 109.9 237.76 109.9 237.76 109.9 237.76 109.9 237.76 109.9 237.76 109.9 237.76 109.9 237.76 109.9 237.76 109.9 237.76 109.9 237.76 109.9 237.76 109.9 237.76 109.9 237.76 109.9 237.76 109.9 237.76 109.9 237.76 109.9 237.76 109.9 237.76 109.9 237.76 109.9 237.76 109.9 237.76 109.9 237.76 109.9 237.76 109.9 237.76 109.9 237.76 109.9 237.76"/>
  <g class="cls-20">
    <path d="m174.14,270.23c.09-.19.09-.23.09-.32,0-.19-.16-.35-.35-.35-.16,0-.28.09-.4.4l-3.07,8.04c-.04.11-.09.21-.09.32,0,.05,0,.09.09.3l3.07,8.04c.07.19.16.42.4.42.19,0,.35-.16.35-.35,0-.05,0-.09-.09-.28l-3.1-8.13,3.1-8.09"/>
    <path d="m178.29,280.71v-3.61c0-.33,0-.35.19-.63.68-.98,1.65-1.12,2.07-1.12.79,0,1.42.46,1.84,1.12.46.72.51,1.72.51,2.44,0,.65-.04,1.7-.54,2.49-.37.54-1.03,1.12-1.98,1.12-.79,0-1.42-.42-1.84-1.07-.25-.37-.25-.42-.25-.74m-.05-4.61v-5.55l-2.52.19v.54c1.23,0,1.37.12,1.37.98v10.44h.44s.16-.26.63-1.09c.26.4,1,1.28,2.29,1.28,2.08,0,3.91-1.72,3.91-3.98s-1.72-3.96-3.71-3.96c-1.37,0-2.12.82-2.4,1.14Z"/>
    <path d="m186.86,281.37c0,.79-.19.79-1.37.79v.54c.61-.02,1.51-.05,1.98-.05s1.37.04,1.96.05v-.54c-1.17,0-1.37,0-1.37-.79v-3.22c0-1.82,1.24-2.8,2.37-2.8s1.3.95,1.3,1.95v4.08c0,.79-.19.79-1.37.79v.54c.61-.02,1.51-.05,1.98-.05s1.37.04,1.96.05v-.54c-.91,0-1.35,0-1.37-.53v-3.35c0-1.51,0-2.05-.54-2.68-.25-.3-.82-.65-1.84-.65-1.47,0-2.24,1.05-2.54,1.72v-6.13l-2.52.19v.54c1.23,0,1.37.12,1.37.98v9.11"/>
    <path d="m196.56,276.68v4.7c0,.79-.19.79-1.37.79v.54c.61-.02,1.51-.05,1.98-.05s1.37.04,1.96.05v-.54c-1.17,0-1.37,0-1.37-.79v-3.22c0-1.82,1.24-2.8,2.37-2.8s1.3.95,1.3,1.95v4.08c0,.79-.19.79-1.37.79v.54c.61-.02,1.51-.05,1.98-.05s1.37.04,1.96.05v-.54c-1.17,0-1.37,0-1.37-.79v-3.22c0-1.82,1.24-2.8,2.37-2.8s1.3.95,1.3,1.95v4.08c0,.79-.19.79-1.37.79v.54c.61-.02,1.51-.05,1.98-.05s1.37.04,1.96.05v-.54c-.91,0-1.35,0-1.37-.53v-3.35c0-1.51,0-2.05-.54-2.68-.24-.3-.82-.65-1.84-.65-1.47,0-2.24,1.05-2.54,1.72-.25-1.52-1.54-1.72-2.33-1.72-1.28,0-2.1.75-2.59,1.84v-1.84l-2.47.19v.54c1.23,0,1.37.12,1.37.98"/>
    <path d="m211.15,276.68v4.7c0,.79-.19.79-1.37.79v.54c.61-.02,1.51-.05,1.98-.05s1.37.04,1.96.05v-.54c-1.17,0-1.37,0-1.37-.79v-3.22c0-1.82,1.24-2.8,2.37-2.8s1.3.95,1.3,1.95v4.08c0,.79-.19.79-1.37.79v.54c.61-.02,1.51-.05,1.98-.05s1.37.04,1.96.05v-.54c-.91,0-1.35,0-1.37-.53v-3.35c0-1.51,0-2.05-.54-2.68-.25-.3-.82-.65-1.84-.65-1.28,0-2.1.75-2.59,1.84v-1.84l-2.47.19v.54c1.23,0,1.37.12,1.37.98"/>
    <path d="m222.49,282.69c0-1.16-.44-1.84-1.12-1.84-.58,0-.93.44-.93.93s.35.93.93.93c.21,0,.44-.07.61-.23.05-.04.07-.05.09-.05s.04.02.04.26c0,1.3-.61,2.35-1.19,2.93-.19.19-.19.23-.19.28,0,.12.09.19.18.19.19,0,1.59-1.35,1.59-3.4"/>
    <path d="m229.8,280.71v-3.61c0-.33,0-.35.19-.63.68-.98,1.65-1.12,2.07-1.12.79,0,1.42.46,1.84,1.12.46.72.51,1.72.51,2.44,0,.65-.04,1.7-.54,2.49-.37.54-1.03,1.12-1.98,1.12-.79,0-1.42-.42-1.84-1.07-.25-.37-.25-.42-.25-.74m-.05-4.61v-5.55l-2.52.19v.54c1.23,0,1.37.12,1.37.98v10.44h.44s.16-.26.63-1.09c.26.4,1,1.28,2.3,1.28,2.08,0,3.91-1.72,3.91-3.98s-1.72-3.96-3.71-3.96c-1.37,0-2.12.82-2.4,1.14Z"/>
    <path d="m238.37,281.37c0,.79-.19.79-1.37.79v.54c.61-.02,1.51-.05,1.98-.05s1.37.04,1.96.05v-.54c-1.17,0-1.37,0-1.37-.79v-3.22c0-1.82,1.24-2.8,2.37-2.8s1.3.95,1.3,1.95v4.08c0,.79-.19.79-1.37.79v.54c.61-.02,1.51-.05,1.98-.05s1.37.04,1.96.05v-.54c-.91,0-1.35,0-1.37-.53v-3.35c0-1.51,0-2.05-.54-2.68-.25-.3-.82-.65-1.84-.65-1.47,0-2.24,1.05-2.54,1.72v-6.13l-2.52.19v.54c1.23,0,1.37.12,1.37.98v9.11"/>
    <path d="m248.08,276.68v4.7c0,.79-.19.79-1.37.79v.54c.61-.02,1.51-.05,1.98-.05s1.37.04,1.96.05v-.54c-1.17,0-1.37,0-1.37-.79v-3.22c0-1.82,1.24-2.8,2.37-2.8s1.3.95,1.3,1.95v4.08c0,.79-.19.79-1.37.79v.54c.61-.02,1.51-.05,1.98-.05s1.37.04,1.96.05v-.54c-1.17,0-1.37,0-1.37-.79v-3.22c0-1.82,1.24-2.8,2.36-2.8s1.3.95,1.3,1.95v4.08c0,.79-.19.79-1.37.79v.54c.61-.02,1.51-.05,1.98-.05s1.37.04,1.96.05v-.54c-.91,0-1.35,0-1.37-.53v-3.35c0-1.51,0-2.05-.54-2.68-.24-.3-.82-.65-1.84-.65-1.47,0-2.24,1.05-2.54,1.72-.25-1.52-1.54-1.72-2.33-1.72-1.28,0-2.1.75-2.59,1.84v-1.84l-2.47.19v.54c1.23,0,1.37.12,1.37.98"/>
    <path d="m267.53,276.87c.16-.4.45-1.16,1.61-1.17v-.54c-.4.04-.91.05-1.31.05s-1.23-.04-1.52-.05v.54c.65.02.84.42.84.75,0,.16-.04.23-.11.42l-1.79,4.47-1.96-4.89c-.1-.23-.1-.26-.1-.3,0-.46.68-.46,1-.46v-.54c-.53.02-1.51.05-1.91.05-.47,0-1.17-.02-1.7-.05v.54c1.1,0,1.17.11,1.4.65l2.52,6.22c.1.25.14.33.37.33s.3-.16.37-.33l2.3-5.69"/>
    <path d="m274.25,278.62c.09-.21.09-.24.09-.3s0-.09-.09-.3l-3.07-8.06c-.1-.3-.21-.4-.4-.4s-.35.16-.35.35c0,.05,0,.09.09.28l3.1,8.13-3.1,8.09c-.09.19-.09.23-.09.32,0,.19.16.35.35.35.23,0,.3-.18.37-.35l3.1-8.11"/>
    <path d="m230.61,304.92c-.96.74-1.44,1.45-1.58,1.68-.79,1.21-.93,2.31-.93,2.33,0,.21.21.21.35.21.3,0,.32-.04.39-.35.4-1.72,1.44-3.19,3.42-3.99.21-.07.26-.11.26-.23s-.1-.18-.14-.19c-.77-.3-2.89-1.17-3.56-4.12-.05-.21-.07-.26-.37-.26-.14,0-.35,0-.35.21,0,.04.16,1.14.89,2.31.35.53.86,1.14,1.61,1.7h-13.02c-.32,0-.63,0-.63.35s.32.35.63.35h13.02"/>
    <path d="m241.46,306.95v-3.61c0-.33,0-.35.19-.63.68-.98,1.65-1.12,2.07-1.12.79,0,1.42.46,1.84,1.12.46.72.51,1.72.51,2.44,0,.65-.04,1.7-.54,2.49-.37.54-1.03,1.12-1.98,1.12-.79,0-1.42-.42-1.84-1.07-.25-.37-.25-.42-.25-.74m-.05-4.61v-5.55l-2.52.19v.54c1.23,0,1.37.12,1.37.98v10.44h.44s.16-.26.63-1.09c.26.4,1,1.28,2.3,1.28,2.08,0,3.91-1.72,3.91-3.98s-1.72-3.96-3.71-3.96c-1.37,0-2.12.82-2.4,1.14Z"/>
    <path d="m250.03,307.62c0,.79-.19.79-1.37.79v.54c.61-.02,1.51-.05,1.98-.05s1.37.04,1.96.05v-.54c-1.17,0-1.37,0-1.37-.79v-3.22c0-1.82,1.24-2.8,2.37-2.8s1.3.95,1.3,1.95v4.08c0,.79-.19.79-1.37.79v.54c.61-.02,1.51-.05,1.98-.05s1.37.04,1.96.05v-.54c-.91,0-1.35,0-1.37-.53v-3.35c0-1.51,0-2.05-.54-2.68-.25-.3-.82-.65-1.84-.65-1.47,0-2.24,1.05-2.54,1.72v-6.13l-2.52.19v.54c1.23,0,1.37.12,1.37.98v9.11"/>
    <path d="m259.73,302.92v4.7c0,.79-.19.79-1.37.79v.54c.61-.02,1.51-.05,1.98-.05s1.37.04,1.96.05v-.54c-1.17,0-1.37,0-1.37-.79v-3.22c0-1.82,1.24-2.8,2.37-2.8s1.3.95,1.3,1.95v4.08c0,.79-.19.79-1.37.79v.54c.61-.02,1.51-.05,1.98-.05s1.37.04,1.96.05v-.54c-.91,0-1.35,0-1.37-.53v-3.35c0-1.51,0-2.05-.54-2.68-.25-.3-.82-.65-1.84-.65-1.28,0-2.1.75-2.59,1.84v-1.84l-2.47.19v.54c1.23,0,1.37.12,1.37.98"/>
    <path d="m274.32,303.12c.16-.4.45-1.16,1.61-1.17v-.54c-.4.04-.91.05-1.31.05s-1.23-.04-1.52-.05v.54c.65.02.84.42.84.75,0,.16-.04.23-.11.42l-1.79,4.47-1.96-4.89c-.1-.23-.1-.26-.1-.3,0-.46.68-.46,1-.46v-.54c-.53.02-1.51.05-1.91.05-.47,0-1.17-.02-1.7-.05v.54c1.1,0,1.17.11,1.4.65l2.52,6.22c.1.25.14.33.37.33s.3-.16.37-.33l2.3-5.69"/>
  </g>
  <polygon class="cls-4" points="430.71 101.87 430.71 101.87 430.71 101.87 430.71 101.87 430.71 101.87 430.71 101.87 430.71 101.87 430.71 101.87 430.71 101.87 430.71 101.87 430.71 101.87 430.71 101.87 430.71 101.87 430.71 101.87 430.71 101.87 430.71 101.87 430.71 101.87 430.71 101.87 430.71 101.87 430.71 101.87 430.71 101.87 430.71 101.87 430.71 101.87 430.71 101.87 430.71 101.87 430.71 101.87 430.71 101.87 430.71 101.87 430.71 101.87 430.71 101.87 430.71 101.87 430.71 101.87 430.71 101.87 430.71 101.87 430.71 101.87 430.71 101.87 430.71 101.87 430.71 101.87 430.71 101.87 430.71 101.87 430.71 101.87 430.71 101.87 430.71 101.87 430.71 101.87 430.71 101.87 430.71 101.87 430.71 101.87 430.71 101.87 430.71 101.87 430.71 101.87 430.71 101.87 430.71 101.87 430.71 101.87 430.71 101.87 430.71 101.87 430.71 101.87 430.71 101.87 430.71 101.87 430.71 101.87 430.71 101.87 430.71 101.87 430.71 101.87 430.71 101.87 430.71 101.87 430.71 101.87 430.71 101.87 430.71 101.87 430.71 101.87 430.71 101.87 430.71 101.87 430.71 101.87 430.71 101.87 430.71 101.87 430.71 101.87 430.71 101.87 430.71 101.87 430.71 101.87 430.71 101.87 430.71 101.87 430.71 101.87 430.71 101.87 430.71 101.87 430.71 101.87 430.71 101.87 430.71 101.87 430.71 101.87 430.71 101.87 430.71 101.87 430.71 101.87 430.71 101.87 430.71 101.87 430.71 101.87 430.71 101.87"/>
  <g class="cls-26">
    <path d="m209.88,128.11c.09-.19.09-.23.09-.32,0-.19-.16-.35-.35-.35-.16,0-.28.09-.4.4l-3.07,8.04c-.04.11-.09.21-.09.32,0,.05,0,.09.09.3l3.07,8.04c.07.19.16.42.4.42.19,0,.35-.16.35-.35,0-.05,0-.09-.09-.28l-3.1-8.13,3.1-8.09"/>
    <path d="m214.03,138.58v-3.61c0-.33,0-.35.19-.63.68-.98,1.65-1.12,2.07-1.12.79,0,1.42.46,1.84,1.12.46.72.51,1.72.51,2.44,0,.65-.04,1.7-.54,2.49-.37.54-1.03,1.12-1.98,1.12-.79,0-1.42-.42-1.84-1.07-.25-.37-.25-.42-.25-.74m-.05-4.61v-5.55l-2.52.19v.54c1.23,0,1.37.12,1.37.98v10.44h.44s.16-.26.63-1.09c.26.4,1,1.28,2.29,1.28,2.08,0,3.91-1.72,3.91-3.98s-1.72-3.96-3.71-3.96c-1.37,0-2.12.82-2.4,1.14Z"/>
    <path d="m222.6,139.25c0,.79-.19.79-1.37.79v.54c.61-.02,1.51-.05,1.98-.05s1.37.04,1.96.05v-.54c-1.17,0-1.37,0-1.37-.79v-3.22c0-1.82,1.24-2.8,2.37-2.8s1.3.95,1.3,1.95v4.08c0,.79-.19.79-1.37.79v.54c.61-.02,1.51-.05,1.98-.05s1.37.04,1.96.05v-.54c-.91,0-1.35,0-1.37-.53v-3.35c0-1.51,0-2.05-.54-2.68-.25-.3-.82-.65-1.84-.65-1.47,0-2.24,1.05-2.54,1.72v-6.13l-2.52.19v.54c1.23,0,1.37.12,1.37.98v9.11"/>
    <path d="m232.3,134.55v4.7c0,.79-.19.79-1.37.79v.54c.61-.02,1.51-.05,1.98-.05s1.37.04,1.96.05v-.54c-1.17,0-1.37,0-1.37-.79v-3.22c0-1.82,1.24-2.8,2.37-2.8s1.3.95,1.3,1.95v4.08c0,.79-.19.79-1.37.79v.54c.61-.02,1.51-.05,1.98-.05s1.37.04,1.96.05v-.54c-.91,0-1.35,0-1.37-.53v-3.35c0-1.51,0-2.05-.54-2.68-.25-.3-.82-.65-1.84-.65-1.28,0-2.1.75-2.59,1.84v-1.84l-2.47.19v.54c1.23,0,1.37.12,1.37.98"/>
    <path d="m246.93,134.75c.16-.4.46-1.16,1.61-1.17v-.54c-.4.04-.91.05-1.31.05s-1.23-.04-1.52-.05v.54c.65.02.84.42.84.75,0,.16-.04.23-.11.42l-1.79,4.47-1.96-4.89c-.11-.23-.11-.26-.11-.3,0-.46.68-.46,1-.46v-.54c-.53.02-1.51.05-1.91.05-.47,0-1.17-.02-1.7-.05v.54c1.1,0,1.17.11,1.4.65l2.52,6.22c.11.25.14.33.37.33s.3-.16.37-.33l2.29-5.69"/>
    <path d="m252.42,140.56c0-1.16-.44-1.84-1.12-1.84-.58,0-.93.44-.93.93s.35.93.93.93c.21,0,.44-.07.61-.23.05-.04.07-.05.09-.05s.04.02.04.26c0,1.3-.61,2.35-1.19,2.93-.19.19-.19.23-.19.28,0,.12.09.19.18.19.19,0,1.59-1.35,1.59-3.4"/>
    <path d="m258.55,139.25c0,.79-.19.79-1.37.79v.54c.61-.02,1.51-.05,1.98-.05s1.37.04,1.96.05v-.54c-1.17,0-1.37,0-1.37-.79v-3.22c0-1.82,1.24-2.8,2.37-2.8s1.3.95,1.3,1.95v4.08c0,.79-.19.79-1.37.79v.54c.61-.02,1.51-.05,1.98-.05s1.37.04,1.96.05v-.54c-.91,0-1.35,0-1.37-.53v-3.35c0-1.51,0-2.05-.54-2.68-.25-.3-.82-.65-1.84-.65-1.47,0-2.24,1.05-2.54,1.72v-6.13l-2.52.19v.54c1.23,0,1.37.12,1.37.98v9.11"/>
    <path d="m273.13,134.75c.16-.4.45-1.16,1.61-1.17v-.54c-.4.04-.91.05-1.31.05s-1.23-.04-1.52-.05v.54c.65.02.84.42.84.75,0,.16-.04.23-.11.42l-1.79,4.47-1.96-4.89c-.1-.23-.1-.26-.1-.3,0-.46.68-.46,1-.46v-.54c-.53.02-1.51.05-1.91.05-.47,0-1.17-.02-1.7-.05v.54c1.1,0,1.17.11,1.4.65l2.52,6.22c.1.25.14.33.37.33s.3-.16.37-.33l2.3-5.69"/>
    <path d="m281.76,134.92v3.59c0,.31,0,.35-.19.65-.53.84-1.31,1.23-2.07,1.23s-1.42-.46-1.84-1.12c-.46-.72-.51-1.72-.51-2.44,0-.65.03-1.7.54-2.49.37-.54,1.03-1.12,1.98-1.12.61,0,1.35.26,1.89,1.05.19.3.19.33.19.65m0,4.7v1.16l2.58-.19v-.54c-1.23,0-1.37-.12-1.37-.98v-10.63l-2.52.19v.54c1.23,0,1.37.12,1.37.98v3.78c-.51-.63-1.26-1.09-2.21-1.09-2.07,0-3.91,1.72-3.91,3.98s1.72,3.96,3.71,3.96c1.12,0,1.91-.6,2.35-1.16Z"/>
    <path d="m289.6,136.5c.09-.21.09-.24.09-.3s0-.09-.09-.3l-3.07-8.06c-.1-.3-.21-.4-.4-.4s-.35.16-.35.35c0,.05,0,.09.09.28l3.1,8.13-3.1,8.09c-.09.19-.09.23-.09.32,0,.19.16.35.35.35.23,0,.3-.18.37-.35l3.1-8.11"/>
    <path d="m254.74,162.79c-.96.74-1.44,1.45-1.58,1.68-.79,1.21-.93,2.31-.93,2.33,0,.21.21.21.35.21.3,0,.32-.04.39-.35.4-1.72,1.44-3.19,3.42-3.99.21-.07.26-.11.26-.23s-.1-.18-.14-.19c-.77-.3-2.89-1.17-3.56-4.12-.05-.21-.07-.26-.37-.26-.14,0-.35,0-.35.21,0,.04.16,1.14.89,2.31.35.53.86,1.14,1.61,1.7h-13.02c-.32,0-.63,0-.63.35s.32.35.63.35h13.02"/>
    <path d="m265.54,164.83v-3.61c0-.33,0-.35.19-.63.68-.98,1.65-1.12,2.07-1.12.79,0,1.42.46,1.84,1.12.46.72.51,1.72.51,2.44,0,.65-.04,1.7-.54,2.49-.37.54-1.03,1.12-1.98,1.12-.79,0-1.42-.42-1.84-1.07-.25-.37-.25-.42-.25-.74m-.05-4.61v-5.55l-2.52.19v.54c1.23,0,1.37.12,1.37.98v10.44h.44s.16-.26.63-1.09c.26.4,1,1.28,2.3,1.28,2.08,0,3.91-1.72,3.91-3.98s-1.72-3.96-3.71-3.96c-1.37,0-2.12.82-2.4,1.14Z"/>
    <path d="m274.11,160.8v4.7c0,.79-.19.79-1.37.79v.54c.61-.02,1.51-.05,1.98-.05s1.37.04,1.96.05v-.54c-1.17,0-1.37,0-1.37-.79v-3.22c0-1.82,1.24-2.8,2.37-2.8s1.3.95,1.3,1.95v4.08c0,.79-.19.79-1.37.79v.54c.61-.02,1.51-.05,1.98-.05s1.37.04,1.96.05v-.54c-.91,0-1.35,0-1.37-.53v-3.35c0-1.51,0-2.05-.54-2.68-.25-.3-.82-.65-1.84-.65-1.28,0-2.1.75-2.59,1.84v-1.84l-2.47.19v.54c1.23,0,1.37.12,1.37.98"/>
    <path d="m288.54,161.16v3.59c0,.31,0,.35-.19.65-.53.84-1.31,1.23-2.07,1.23s-1.42-.46-1.84-1.12c-.46-.72-.51-1.72-.51-2.44,0-.65.03-1.7.54-2.49.37-.54,1.03-1.12,1.98-1.12.61,0,1.35.26,1.89,1.05.19.3.19.33.19.65m0,4.7v1.16l2.58-.19v-.54c-1.23,0-1.37-.12-1.37-.98v-10.63l-2.52.19v.54c1.23,0,1.37.12,1.37.98v3.78c-.51-.63-1.26-1.09-2.21-1.09-2.07,0-3.91,1.72-3.91,3.98s1.72,3.96,3.71,3.96c1.12,0,1.91-.6,2.35-1.16Z"/>
  </g>
  <polygon class="cls-4" points="0 488.77 0 488.77 0 488.77 0 488.77 0 488.77 0 488.77 0 488.77 0 488.77 0 488.77 0 488.77 0 488.77 0 488.77 0 488.77 0 488.77 0 488.77 0 488.77 0 488.77 0 488.77 0 488.77 0 488.77 0 488.77 0 488.77 0 488.77 0 488.77 0 488.77 0 488.77 0 488.77 0 488.77 0 488.77 0 488.77 0 488.77 0 488.77 0 488.77 0 488.77 0 488.77 0 488.77 0 488.77 0 488.77 0 488.77 0 488.77 0 488.77 0 488.77 0 488.77 0 488.77 0 488.77 0 488.77 0 488.77 0 488.77 0 488.77 0 488.77 0 488.77 0 488.77 0 488.77 0 488.77 0 488.77 0 488.77 0 488.77 0 488.77 0 488.77 0 488.77 0 488.77 0 488.77 0 488.77 0 488.77 0 488.77 0 488.77 0 488.77 0 488.77 0 488.77 0 488.77 0 488.77 0 488.77 0 488.77 0 488.77 0 488.77 0 488.77 0 488.77 0 488.77 0 488.77 0 488.77 0 488.77 0 488.77 0 488.77 0 488.77 0 488.77 0 488.77 0 488.77 0 488.77 0 488.77 0 488.77 0 488.77 0 488.77 0 488.77 0 488.77 0 488.77 0 488.77 0 488.77 0 488.77 0 488.77"/>
  <polygon class="cls-4" points="446.79 522.2 446.79 522.2 446.79 522.2 446.79 522.2 446.79 522.2 446.79 522.2 446.79 522.2 446.79 522.2 446.79 522.2 446.79 522.2 446.79 522.2 446.79 522.2 446.79 522.2 446.79 522.2 446.79 522.2 446.79 522.2 446.79 522.2 446.79 522.2 446.79 522.2 446.79 522.2 446.79 522.2 446.79 522.2 446.79 522.2 446.79 522.2 446.79 522.2 446.79 522.2 446.79 522.2 446.79 522.2 446.79 522.2 446.79 522.2 446.79 522.2 446.79 522.2 446.79 522.2 446.79 522.2 446.79 522.2 446.79 522.2 446.79 522.2 446.79 522.2 446.79 522.2 446.79 522.2 446.79 522.2 446.79 522.2 446.79 522.2 446.79 522.2 446.79 522.2 446.79 522.2 446.79 522.2 446.79 522.2 446.79 522.2 446.79 522.2 446.79 522.2 446.79 522.2 446.79 522.2 446.79 522.2 446.79 522.2 446.79 522.2 446.79 522.2 446.79 522.2 446.79 522.2 446.79 522.2 446.79 522.2 446.79 522.2 446.79 522.2 446.79 522.2 446.79 522.2 446.79 522.2 446.79 522.2 446.79 522.2 446.79 522.2 446.79 522.2 446.79 522.2 446.79 522.2 446.79 522.2 446.79 522.2 446.79 522.2 446.79 522.2 446.79 522.2 446.79 522.2 446.79 522.2 446.79 522.2 446.79 522.2 446.79 522.2 446.79 522.2 446.79 522.2 446.79 522.2 446.79 522.2 446.79 522.2 446.79 522.2 446.79 522.2 446.79 522.2 446.79 522.2 446.79 522.2 446.79 522.2 446.79 522.2 446.79 522.2 446.79 522.2 446.79 522.2 446.79 522.2 446.79 522.2 446.79 522.2"/>
  <g class="cls-31">
    <path d="m293.65,512.42c-.02-.07-.11-.24-.11-.31,0-.02.4-.33.64-.51l3.87-2.98c2.08-1.53,2.94-1.61,3.6-1.68.18-.02.4-.04.4-.44,0-.09-.07-.24-.24-.24-.49,0-1.04.07-1.57.07-.8,0-1.66-.07-2.45-.07-.15,0-.42,0-.42.44,0,.15.11.22.27.24.49.04.68.15.68.46,0,.4-.66.91-.8,1.02l-8.62,6.63,1.77-7.09c.2-.8.24-1.02,1.86-1.02.55,0,.75,0,.75-.44,0-.2-.18-.24-.31-.24-.62,0-2.21.07-2.83.07s-2.21-.07-2.85-.07c-.15,0-.44,0-.44.42,0,.27.2.27.64.27.29,0,.68.02.95.04.35.04.49.11.49.35,0,.09-.02.15-.09.42l-2.96,11.87c-.22.86-.27,1.04-2.01,1.04-.38,0-.62,0-.62.42,0,.27.27.27.33.27.62,0,2.19-.07,2.81-.07.46,0,.95.02,1.41.02.49,0,.97.04,1.44.04.15,0,.44,0,.44-.44,0-.24-.2-.24-.62-.24-.82,0-1.44,0-1.44-.4,0-.15.13-.64.2-.97.31-1.15.6-2.32.88-3.47l3.29-2.56,2.56,5.95c.27.6.27.64.27.77,0,.66-.95.68-1.15.68-.24,0-.49,0-.49.44,0,.24.27.24.31.24.88,0,1.81-.07,2.7-.07.49,0,1.68.07,2.17.07.11,0,.4,0,.4-.44,0-.24-.24-.24-.44-.24-.91-.02-1.19-.22-1.52-.99l-3.14-7.25"/>
    <path d="m313.1,520.18c0-.64-.53-1.17-1.17-1.17s-1.17.53-1.17,1.17.53,1.17,1.17,1.17,1.17-.53,1.17-1.17m0-7.18c0-.64-.53-1.17-1.17-1.17s-1.17.53-1.17,1.17.53,1.17,1.17,1.17,1.17-.53,1.17-1.17Z"/>
    <path d="m324.97,518.83v-4.55c0-.42,0-.44.24-.8.86-1.24,2.08-1.41,2.61-1.41,1,0,1.79.58,2.32,1.41.57.91.64,2.17.64,3.07,0,.82-.04,2.14-.68,3.14-.46.69-1.3,1.41-2.5,1.41-1,0-1.79-.53-2.32-1.35-.31-.46-.31-.53-.31-.93m-.07-5.81v-7.01l-3.18.24v.69c1.55,0,1.72.15,1.72,1.24v13.17h.55s.2-.33.8-1.37c.33.51,1.26,1.61,2.9,1.61,2.63,0,4.93-2.17,4.93-5.02s-2.17-4.99-4.69-4.99c-1.72,0-2.67,1.04-3.03,1.44Z"/>
    <path d="m335.84,519.67c0,.99-.24.99-1.72.99v.69c.77-.02,1.9-.07,2.5-.07s1.72.04,2.48.07v-.69c-1.48,0-1.72,0-1.72-.99v-4.07c0-2.3,1.57-3.54,2.98-3.54s1.64,1.19,1.64,2.45v5.15c0,.99-.24.99-1.72.99v.69c.77-.02,1.9-.07,2.5-.07s1.72.04,2.47.07v-.69c-1.15,0-1.7,0-1.72-.66v-4.22c0-1.9,0-2.59-.68-3.38-.31-.38-1.04-.82-2.32-.82-1.86,0-2.83,1.33-3.2,2.17v-7.74l-3.18.24v.69c1.55,0,1.72.15,1.72,1.24v11.49"/>
    <path d="m348.09,513.74v5.92c0,.99-.24.99-1.72.99v.69c.77-.02,1.9-.07,2.5-.07s1.72.04,2.48.07v-.69c-1.48,0-1.72,0-1.72-.99v-4.07c0-2.3,1.57-3.54,2.98-3.54s1.64,1.19,1.64,2.45v5.15c0,.99-.24.99-1.72.99v.69c.77-.02,1.9-.07,2.5-.07s1.72.04,2.48.07v-.69c-1.48,0-1.72,0-1.72-.99v-4.07c0-2.3,1.57-3.54,2.98-3.54s1.64,1.19,1.64,2.45v5.15c0,.99-.24.99-1.72.99v.69c.77-.02,1.9-.07,2.5-.07s1.72.04,2.47.07v-.69c-1.15,0-1.7,0-1.72-.66v-4.22c0-1.9,0-2.59-.69-3.38-.31-.38-1.04-.82-2.32-.82-1.86,0-2.83,1.33-3.2,2.17-.31-1.92-1.94-2.17-2.94-2.17-1.61,0-2.65.95-3.27,2.32v-2.32l-3.12.24v.69c1.55,0,1.72.15,1.72,1.24"/>
    <path d="m366.4,519.67c0,.99-.24.99-1.72.99v.69c.73-.02,1.77-.07,2.41-.07s1.55.02,2.43.07v-.69c-1.48,0-1.72,0-1.72-.99v-2.28l1.42-1.22c1.7,2.34,2.63,3.58,2.63,3.98,0,.42-.38.51-.8.51v.69c.62-.02,1.92-.07,2.39-.07.64,0,1.28.02,1.92.07v-.69c-.82,0-1.3,0-2.14-1.17l-2.81-3.96s-.13-.18-.13-.24c0-.09,1.57-1.41,1.79-1.59,1.39-1.13,2.32-1.17,2.78-1.19v-.69c-.64.07-.93.07-1.55.07-.8,0-2.17-.04-2.48-.07v.69c.42.02.64.27.64.55,0,.44-.31.71-.49.86l-3.12,2.7v-10.61l-3.18.24v.69c1.55,0,1.72.15,1.72,1.24v11.49"/>
  </g>
  <g class="cls-25">
    <path d="m392.94,371.06c1.08-1.72,2.01-1.79,2.83-1.83.27-.02.29-.4.29-.42,0-.18-.11-.27-.29-.27-.58,0-1.22.07-1.81.07-.73,0-1.48-.07-2.19-.07-.13,0-.42,0-.42.42,0,.24.2.27.35.27.6.04,1.02.27,1.02.73,0,.33-.33.82-.33.84l-6.78,10.78-1.5-11.69c0-.37.51-.66,1.53-.66.31,0,.55,0,.55-.44,0-.2-.18-.24-.31-.24-.88,0-1.83.07-2.74.07-.4,0-.82-.02-1.22-.02s-.82-.04-1.19-.04c-.15,0-.42,0-.42.42,0,.27.2.27.55.27,1.24,0,1.26.2,1.33.75l1.75,13.64c.07.44.15.51.44.51.35,0,.44-.11.62-.4l7.96-12.66"/>
    <path d="m407.18,382.47c0-.64-.53-1.17-1.17-1.17s-1.17.53-1.17,1.17.53,1.17,1.17,1.17,1.17-.53,1.17-1.17m0-7.18c0-.64-.53-1.17-1.17-1.17s-1.17.53-1.17,1.17.53,1.17,1.17,1.17,1.17-.53,1.17-1.17Z"/>
    <path d="m419.12,381.12v-4.55c0-.42,0-.44.24-.8.86-1.24,2.08-1.41,2.61-1.41,1,0,1.79.58,2.32,1.41.57.91.64,2.17.64,3.07,0,.82-.04,2.14-.68,3.14-.46.69-1.3,1.41-2.5,1.41-1,0-1.79-.53-2.32-1.35-.31-.46-.31-.53-.31-.93m-.07-5.81v-7.01l-3.18.24v.69c1.55,0,1.72.15,1.72,1.24v13.17h.55s.2-.33.8-1.37c.33.51,1.26,1.61,2.9,1.61,2.63,0,4.93-2.17,4.93-5.02s-2.17-4.99-4.69-4.99c-1.72,0-2.67,1.04-3.03,1.44Z"/>
    <path d="m429.93,381.96c0,.99-.24.99-1.72.99v.69c.77-.02,1.9-.07,2.5-.07s1.72.04,2.48.07v-.69c-1.48,0-1.72,0-1.72-.99v-4.07c0-2.3,1.57-3.54,2.98-3.54s1.64,1.19,1.64,2.45v5.15c0,.99-.24.99-1.72.99v.69c.77-.02,1.9-.07,2.5-.07s1.72.04,2.48.07v-.69c-1.15,0-1.7,0-1.72-.66v-4.22c0-1.9,0-2.59-.68-3.38-.31-.38-1.04-.82-2.32-.82-1.86,0-2.83,1.33-3.2,2.17v-7.74l-3.18.24v.69c1.55,0,1.72.15,1.72,1.24v11.49"/>
    <path d="m442.17,376.04v5.92c0,.99-.24.99-1.72.99v.69c.77-.02,1.9-.07,2.5-.07s1.72.04,2.48.07v-.69c-1.48,0-1.72,0-1.72-.99v-4.07c0-2.3,1.57-3.54,2.98-3.54s1.64,1.19,1.64,2.45v5.15c0,.99-.24.99-1.72.99v.69c.77-.02,1.9-.07,2.5-.07s1.72.04,2.48.07v-.69c-1.48,0-1.72,0-1.72-.99v-4.07c0-2.3,1.57-3.54,2.98-3.54s1.64,1.19,1.64,2.45v5.15c0,.99-.24.99-1.72.99v.69c.77-.02,1.9-.07,2.5-.07s1.72.04,2.47.07v-.69c-1.15,0-1.7,0-1.72-.66v-4.22c0-1.9,0-2.59-.69-3.38-.31-.38-1.04-.82-2.32-.82-1.86,0-2.83,1.33-3.2,2.17-.31-1.92-1.94-2.17-2.94-2.17-1.61,0-2.65.95-3.27,2.32v-2.32l-3.12.24v.69c1.55,0,1.72.15,1.72,1.24"/>
    <path d="m466.72,376.28c.2-.51.57-1.46,2.03-1.48v-.69c-.51.04-1.15.07-1.66.07s-1.55-.04-1.92-.07v.69c.82.02,1.06.53,1.06.95,0,.2-.04.29-.13.53l-2.25,5.64-2.48-6.17c-.13-.29-.13-.33-.13-.38,0-.57.86-.57,1.26-.57v-.69c-.66.02-1.9.07-2.41.07-.6,0-1.48-.02-2.14-.07v.69c1.39,0,1.48.13,1.77.82l3.18,7.85c.13.31.18.42.46.42s.38-.2.46-.42l2.9-7.18"/>
  </g>
  <polygon class="cls-4" points="27.12 462.94 27.12 462.94 27.12 462.94 27.12 462.94 27.12 462.94 27.12 462.94 27.12 462.94 27.12 462.94 27.12 462.94 27.12 462.94 27.12 462.94 27.12 462.94 27.12 462.94 27.12 462.94 27.12 462.94 27.12 462.94 27.12 462.94 27.12 462.94 27.12 462.94 27.12 462.94 27.12 462.94 27.12 462.94 27.12 462.94 27.12 462.94 27.12 462.94 27.12 462.94 27.12 462.94 27.12 462.94 27.12 462.94 27.12 462.94 27.12 462.94 27.12 462.94 27.12 462.94 27.12 462.94 27.12 462.94 27.12 462.94 27.12 462.94 27.12 462.94 27.12 462.94 27.12 462.94 27.12 462.94 27.12 462.94 27.12 462.94 27.12 462.94 27.12 462.94 27.12 462.94 27.12 462.94 27.12 462.94 27.12 462.94 27.12 462.94 27.12 462.94 27.12 462.94 27.12 462.94 27.12 462.94 27.12 462.94 27.12 462.94 27.12 462.94 27.12 462.94 27.12 462.94 27.12 462.94 27.12 462.94 27.12 462.94 27.12 462.94 27.12 462.94 27.12 462.94 27.12 462.94 27.12 462.94 27.12 462.94 27.12 462.94 27.12 462.94 27.12 462.94 27.12 462.94 27.12 462.94 27.12 462.94 27.12 462.94 27.12 462.94 27.12 462.94 27.12 462.94 27.12 462.94 27.12 462.94 27.12 462.94 27.12 462.94 27.12 462.94 27.12 462.94 27.12 462.94 27.12 462.94 27.12 462.94 27.12 462.94 27.12 462.94 27.12 462.94 27.12 462.94 27.12 462.94 27.12 462.94 27.12 462.94 27.12 462.94 27.12 462.94 27.12 462.94 27.12 462.94 27.12 462.94 27.12 462.94 27.12 462.94"/>
  <g class="cls-24">
    <path d="m114.66,523.15c-.3,0-1,0-1-.94,0-.87.83-1.74,1.74-1.74s1.33.52,1.33,1.85c0,.33-.02.35-.24.43-.57.24-1.22.39-1.83.39m-1.35-.24c-1.7-.67-2.44-2.37-2.44-4.33,0-1.5.57-4.59,2.22-6.94,1.59-2.22,3.64-3.22,5.22-3.22,2.18,0,3.77,1.7,3.77,4.61,0,2.18-1.11,7.27-4.77,9.32-.11-.76-.33-2.35-1.92-2.35-1.15,0-2.22,1.09-2.22,2.22,0,.43.13.67.13.7Zm4.11.17c3.37-1.28,6.57-5.16,6.57-9.36,0-3.5-2.31-5.86-5.55-5.86-4.7,0-9.49,4.94-9.49,10.01,0,3.61,2.44,5.81,5.57,5.81.54,0,1.29-.09,2.13-.33-.09,1.35-.09,1.39-.09,1.68,0,.7,0,2.39,1.81,2.39,2.59,0,3.63-3.98,3.63-4.22,0-.15-.15-.22-.24-.22-.17,0-.22.11-.26.24-.52,1.55-1.79,2.09-2.55,2.09-1,0-1.33-.59-1.55-2.24Z"/>
    <path d="m135.29,522.06c0-.63-.52-1.15-1.15-1.15s-1.15.52-1.15,1.15.52,1.15,1.15,1.15,1.15-.52,1.15-1.15m0-7.07c0-.63-.52-1.15-1.15-1.15s-1.15.52-1.15,1.15.52,1.15,1.15,1.15,1.15-.52,1.15-1.15Z"/>
    <path d="m147.04,520.74v-4.48c0-.41,0-.44.24-.78.85-1.22,2.05-1.39,2.57-1.39.98,0,1.76.57,2.29,1.39.57.89.63,2.13.63,3.03,0,.81-.04,2.11-.67,3.09-.46.68-1.28,1.39-2.46,1.39-.98,0-1.76-.52-2.29-1.33-.3-.46-.3-.52-.3-.91m-.07-5.72v-6.9l-3.13.24v.68c1.52,0,1.7.15,1.7,1.22v12.97h.54s.2-.33.78-1.35c.33.5,1.24,1.59,2.85,1.59,2.59,0,4.85-2.13,4.85-4.94s-2.13-4.92-4.61-4.92c-1.7,0-2.63,1.02-2.98,1.41Z"/>
    <path d="m157.68,521.56c0,.98-.24.98-1.7.98v.68c.76-.02,1.87-.07,2.46-.07s1.7.04,2.44.07v-.68c-1.46,0-1.7,0-1.7-.98v-4c0-2.26,1.55-3.48,2.94-3.48s1.61,1.18,1.61,2.42v5.07c0,.98-.24.98-1.7.98v.68c.76-.02,1.87-.07,2.46-.07s1.7.04,2.44.07v-.68c-1.13,0-1.68,0-1.7-.65v-4.16c0-1.87,0-2.55-.67-3.33-.3-.37-1.02-.8-2.29-.8-1.83,0-2.79,1.31-3.16,2.13v-7.62l-3.13.24v.68c1.52,0,1.7.15,1.7,1.22v11.32"/>
    <path d="m169.74,515.73v5.83c0,.98-.24.98-1.7.98v.68c.76-.02,1.87-.07,2.46-.07s1.7.04,2.44.07v-.68c-1.46,0-1.7,0-1.7-.98v-4c0-2.26,1.55-3.48,2.94-3.48s1.61,1.18,1.61,2.42v5.07c0,.98-.24.98-1.7.98v.68c.76-.02,1.87-.07,2.46-.07s1.7.04,2.44.07v-.68c-1.13,0-1.68,0-1.7-.65v-4.16c0-1.87,0-2.55-.67-3.33-.3-.37-1.02-.8-2.29-.8-1.59,0-2.61.94-3.22,2.29v-2.29l-3.07.24v.68c1.52,0,1.7.15,1.7,1.22"/>
    <path d="m181.78,521.56c0,.98-.24.98-1.7.98v.68c.72-.02,1.74-.07,2.37-.07s1.52.02,2.39.07v-.68c-1.46,0-1.7,0-1.7-.98v-2.24l1.39-1.2c1.68,2.31,2.59,3.53,2.59,3.92,0,.41-.37.5-.78.5v.68c.61-.02,1.89-.07,2.35-.07.63,0,1.26.02,1.89.07v-.68c-.81,0-1.28,0-2.11-1.15l-2.76-3.9s-.13-.17-.13-.24c0-.09,1.55-1.39,1.76-1.57,1.37-1.11,2.28-1.15,2.74-1.18v-.68c-.63.07-.92.07-1.52.07-.78,0-2.13-.04-2.44-.07v.68c.41.02.63.26.63.54,0,.43-.3.7-.48.85l-3.07,2.66v-10.45l-3.13.24v.68c1.52,0,1.7.15,1.7,1.22v11.32"/>
  </g>
  <polygon class="cls-4" points="106.48 342.68 106.48 342.68 106.48 342.68 106.48 342.68 106.48 342.68 106.48 342.68 106.48 342.68 106.48 342.68 106.48 342.68 106.48 342.68 106.48 342.68 106.48 342.68 106.48 342.68 106.48 342.68 106.48 342.68 106.48 342.68 106.48 342.68 106.48 342.68 106.48 342.68 106.48 342.68 106.48 342.68 106.48 342.68 106.48 342.68 106.48 342.68 106.48 342.68 106.48 342.68 106.48 342.68 106.48 342.68 106.48 342.68 106.48 342.68 106.48 342.68 106.48 342.68 106.48 342.68 106.48 342.68 106.48 342.68 106.48 342.68 106.48 342.68 106.48 342.68 106.48 342.68 106.48 342.68 106.48 342.68 106.48 342.68 106.48 342.68 106.48 342.68 106.48 342.68 106.48 342.68 106.48 342.68 106.48 342.68 106.48 342.68 106.48 342.68 106.48 342.68 106.48 342.68 106.48 342.68 106.48 342.68 106.48 342.68 106.48 342.68 106.48 342.68 106.48 342.68 106.48 342.68 106.48 342.68 106.48 342.68 106.48 342.68 106.48 342.68 106.48 342.68 106.48 342.68 106.48 342.68 106.48 342.68 106.48 342.68 106.48 342.68 106.48 342.68 106.48 342.68 106.48 342.68 106.48 342.68 106.48 342.68 106.48 342.68 106.48 342.68 106.48 342.68 106.48 342.68 106.48 342.68 106.48 342.68 106.48 342.68 106.48 342.68 106.48 342.68 106.48 342.68 106.48 342.68 106.48 342.68 106.48 342.68 106.48 342.68 106.48 342.68 106.48 342.68 106.48 342.68 106.48 342.68 106.48 342.68 106.48 342.68 106.48 342.68 106.48 342.68 106.48 342.68 106.48 342.68 106.48 342.68 106.48 342.68 106.48 342.68"/>
  <polygon class="cls-4" points="466.51 728.28 466.51 728.28 466.51 728.28 466.51 728.28 466.51 728.28 466.51 728.28 466.51 728.28 466.51 728.28 466.51 728.28 466.51 728.28 466.51 728.28 466.51 728.28 466.51 728.28 466.51 728.28 466.51 728.28 466.51 728.28 466.51 728.28 466.51 728.28 466.51 728.28 466.51 728.28 466.51 728.28 466.51 728.28 466.51 728.28 466.51 728.28 466.51 728.28 466.51 728.28 466.51 728.28 466.51 728.28 466.51 728.28 466.51 728.28 466.51 728.28 466.51 728.28 466.51 728.28 466.51 728.28 466.51 728.28 466.51 728.28 466.51 728.28 466.51 728.28 466.51 728.28 466.51 728.28 466.51 728.28 466.51 728.28 466.51 728.28 466.51 728.28 466.51 728.28 466.51 728.28 466.51 728.28 466.51 728.28 466.51 728.28 466.51 728.28 466.51 728.28 466.51 728.28 466.51 728.28 466.51 728.28 466.51 728.28 466.51 728.28 466.51 728.28 466.51 728.28 466.51 728.28 466.51 728.28 466.51 728.28 466.51 728.28 466.51 728.28 466.51 728.28 466.51 728.28 466.51 728.28 466.51 728.28 466.51 728.28 466.51 728.28 466.51 728.28 466.51 728.28 466.51 728.28 466.51 728.28 466.51 728.28 466.51 728.28 466.51 728.28 466.51 728.28 466.51 728.28 466.51 728.28 466.51 728.28 466.51 728.28 466.51 728.28 466.51 728.28 466.51 728.28 466.51 728.28 466.51 728.28 466.51 728.28 466.51 728.28 466.51 728.28 466.51 728.28 466.51 728.28 466.51 728.28 466.51 728.28 466.51 728.28 466.51 728.28 466.51 728.28 466.51 728.28 466.51 728.28 466.51 728.28 466.51 728.28 466.51 728.28"/>
  <path class="cls-10" d="m280.3,713.27c0,3.75,2.71,6.82,6.01,6.82h97.05c3.31,0,6.01-3.07,6.01-6.82v-36.54c0-3.75-2.71-6.82-6.01-6.82h-97.05c-3.31,0-6.01,3.07-6.01,6.82v36.54Z"/>
  <g class="cls-23">
    <path d="m307.37,682.49c.11-.47.52-2.12,1.78-2.12.09,0,.52,0,.9.23-.5.09-.86.54-.86.97,0,.29.2.63.68.63.4,0,.97-.32.97-1.04,0-.93-1.06-1.19-1.67-1.19-1.04,0-1.67.95-1.89,1.36-.45-1.19-1.42-1.36-1.94-1.36-1.87,0-2.89,2.32-2.89,2.76,0,.18.18.18.22.18.14,0,.2-.04.23-.2.61-1.9,1.8-2.35,2.41-2.35.34,0,.97.16.97,1.2,0,.56-.31,1.76-.97,4.27-.29,1.11-.92,1.87-1.71,1.87-.11,0-.52,0-.9-.23.45-.09.84-.47.84-.97s-.39-.63-.66-.63c-.54,0-.99.47-.99,1.04,0,.83.9,1.19,1.69,1.19,1.19,0,1.83-1.26,1.89-1.36.21.66.86,1.36,1.94,1.36,1.85,0,2.87-2.32,2.87-2.77,0-.18-.16-.18-.22-.18-.16,0-.2.07-.23.2-.59,1.92-1.81,2.35-2.39,2.35-.7,0-.99-.57-.99-1.19,0-.4.11-.79.31-1.58l.61-2.46"/>
    <path d="m320.07,686.96c0-.52-.43-.95-.95-.95s-.95.43-.95.95.43.95.95.95.95-.43.95-.95m0-5.84c0-.52-.43-.95-.95-.95s-.95.43-.95.95.43.95.95.95.95-.43.95-.95Z"/>
    <path d="m329.72,685.87v-3.7c0-.34,0-.36.2-.65.7-1.01,1.69-1.15,2.12-1.15.81,0,1.45.47,1.89,1.15.47.74.52,1.76.52,2.5,0,.66-.04,1.74-.56,2.55-.38.56-1.06,1.15-2.03,1.15-.81,0-1.45-.43-1.89-1.1-.25-.38-.25-.43-.25-.75m-.05-4.72v-5.69l-2.59.2v.56c1.26,0,1.4.13,1.4,1.01v10.7h.45s.16-.27.65-1.11c.27.41,1.02,1.31,2.35,1.31,2.14,0,4-1.76,4-4.08s-1.76-4.06-3.81-4.06c-1.4,0-2.17.84-2.46,1.17Z"/>
    <path d="m338.55,681.74v4.81c0,.81-.2.81-1.4.81v.56c.63-.02,1.54-.05,2.03-.05s1.4.04,2.01.05v-.56c-1.2,0-1.4,0-1.4-.81v-3.3c0-1.87,1.28-2.87,2.42-2.87s1.33.97,1.33,1.99v4.18c0,.81-.2.81-1.4.81v.56c.63-.02,1.54-.05,2.03-.05s1.4.04,2.01.05v-.56c-1.2,0-1.4,0-1.4-.81v-3.3c0-1.87,1.27-2.87,2.42-2.87s1.33.97,1.33,1.99v4.18c0,.81-.2.81-1.4.81v.56c.63-.02,1.54-.05,2.03-.05s1.4.04,2.01.05v-.56c-.93,0-1.38,0-1.4-.54v-3.43c0-1.54,0-2.1-.56-2.75-.25-.31-.84-.66-1.89-.66-1.51,0-2.3,1.08-2.6,1.76-.25-1.56-1.58-1.76-2.39-1.76-1.31,0-2.15.77-2.66,1.89v-1.89l-2.53.2v.56c1.26,0,1.4.13,1.4,1.01"/>
    <path d="m358.3,682.11v3.68c0,.32,0,.36-.2.66-.54.86-1.35,1.26-2.12,1.26s-1.45-.47-1.88-1.15c-.47-.74-.52-1.76-.52-2.5,0-.66.04-1.74.56-2.55.38-.56,1.06-1.15,2.03-1.15.63,0,1.38.27,1.94,1.08.2.31.2.34.2.66m0,4.81v1.19l2.64-.2v-.56c-1.26,0-1.4-.12-1.4-1.01v-10.9l-2.59.2v.56c1.26,0,1.4.13,1.4,1.01v3.88c-.52-.65-1.29-1.11-2.26-1.11-2.12,0-4.01,1.76-4.01,4.08s1.76,4.06,3.81,4.06c1.15,0,1.96-.61,2.41-1.19Z"/>
    <path d="m312.37,709.39c.11-.47.52-2.12,1.78-2.12.09,0,.52,0,.9.23-.5.09-.86.54-.86.97,0,.29.2.63.68.63.4,0,.97-.32.97-1.04,0-.93-1.06-1.19-1.67-1.19-1.04,0-1.67.95-1.89,1.36-.45-1.19-1.42-1.36-1.94-1.36-1.87,0-2.89,2.32-2.89,2.76,0,.18.18.18.22.18.14,0,.2-.04.23-.2.61-1.9,1.8-2.35,2.41-2.35.34,0,.97.16.97,1.2,0,.56-.31,1.76-.97,4.27-.29,1.11-.92,1.87-1.71,1.87-.11,0-.52,0-.9-.23.45-.09.84-.47.84-.97s-.39-.63-.66-.63c-.54,0-.99.47-.99,1.04,0,.83.9,1.19,1.69,1.19,1.19,0,1.83-1.26,1.89-1.36.21.66.86,1.36,1.94,1.36,1.85,0,2.87-2.32,2.87-2.77,0-.18-.16-.18-.22-.18-.16,0-.2.07-.23.2-.59,1.92-1.81,2.35-2.39,2.35-.7,0-.99-.57-.99-1.19,0-.4.11-.79.31-1.58l.61-2.46"/>
    <path d="m325.07,713.86c0-.52-.43-.95-.95-.95s-.95.43-.95.95.43.95.95.95.95-.43.95-.95m0-5.84c0-.52-.43-.95-.95-.95s-.95.43-.95.95.43.95.95.95.95-.43.95-.95Z"/>
    <path d="m334.72,712.77v-3.7c0-.34,0-.36.2-.65.7-1.01,1.69-1.15,2.12-1.15.81,0,1.45.47,1.89,1.15.47.74.52,1.76.52,2.5,0,.66-.04,1.74-.56,2.55-.38.56-1.06,1.15-2.03,1.15-.81,0-1.45-.43-1.89-1.1-.25-.38-.25-.43-.25-.75m-.05-4.72v-5.69l-2.59.2v.56c1.26,0,1.4.13,1.4,1.01v10.7h.45s.16-.27.65-1.11c.27.41,1.02,1.31,2.35,1.31,2.14,0,4-1.76,4-4.08s-1.76-4.06-3.81-4.06c-1.4,0-2.17.84-2.46,1.17Z"/>
    <path d="m343.5,708.64v4.81c0,.81-.2.81-1.4.81v.56c.63-.02,1.54-.05,2.03-.05s1.4.04,2.01.05v-.56c-1.2,0-1.4,0-1.4-.81v-3.3c0-1.87,1.28-2.87,2.42-2.87s1.33.97,1.33,1.99v4.18c0,.81-.2.81-1.4.81v.56c.63-.02,1.54-.05,2.03-.05s1.4.04,2.01.05v-.56c-.93,0-1.38,0-1.4-.54v-3.43c0-1.54,0-2.1-.56-2.75-.25-.31-.84-.66-1.89-.66-1.31,0-2.15.77-2.66,1.89v-1.89l-2.53.2v.56c1.26,0,1.4.13,1.4,1.01"/>
    <path d="m358.35,709.01v3.68c0,.32,0,.36-.2.66-.54.86-1.35,1.26-2.12,1.26s-1.45-.47-1.89-1.15c-.47-.74-.52-1.76-.52-2.5,0-.66.04-1.74.56-2.55.38-.56,1.06-1.15,2.03-1.15.63,0,1.38.27,1.94,1.08.2.31.2.34.2.66m0,4.81v1.19l2.64-.2v-.56c-1.26,0-1.4-.12-1.4-1.01v-10.9l-2.59.2v.56c1.26,0,1.4.13,1.4,1.01v3.88c-.52-.65-1.29-1.11-2.26-1.11-2.12,0-4.01,1.76-4.01,4.08s1.76,4.06,3.81,4.06c1.15,0,1.96-.61,2.41-1.19Z"/>
  </g>
  <polygon class="cls-4" points="469.75 533.77 469.75 533.77 469.75 533.77 469.75 533.77 469.75 533.77 469.75 533.77 469.75 533.77 469.75 533.77 469.75 533.77 469.75 533.77 469.75 533.77 469.75 533.77 469.75 533.77 469.75 533.77 469.75 533.77 469.75 533.77 469.75 533.77 469.75 533.77 469.75 533.77 469.75 533.77 469.75 533.77 469.75 533.77 469.75 533.77 469.75 533.77 469.75 533.77 469.75 533.77 469.75 533.77 469.75 533.77 469.75 533.77 469.75 533.77 469.75 533.77 469.75 533.77 469.75 533.77 469.75 533.77 469.75 533.77 469.75 533.77 469.75 533.77 469.75 533.77 469.75 533.77 469.75 533.77 469.75 533.77 469.75 533.77 469.75 533.77 469.75 533.77 469.75 533.77 469.75 533.77 469.75 533.77 469.75 533.77 469.75 533.77 469.75 533.77 469.75 533.77 469.75 533.77 469.75 533.77 469.75 533.77 469.75 533.77 469.75 533.77 469.75 533.77 469.75 533.77 469.75 533.77 469.75 533.77 469.75 533.77 469.75 533.77 469.75 533.77 469.75 533.77 469.75 533.77 469.75 533.77 469.75 533.77 469.75 533.77 469.75 533.77 469.75 533.77 469.75 533.77 469.75 533.77 469.75 533.77 469.75 533.77 469.75 533.77 469.75 533.77 469.75 533.77 469.75 533.77 469.75 533.77 469.75 533.77 469.75 533.77 469.75 533.77 469.75 533.77 469.75 533.77 469.75 533.77 469.75 533.77 469.75 533.77 469.75 533.77 469.75 533.77 469.75 533.77 469.75 533.77 469.75 533.77 469.75 533.77 469.75 533.77 469.75 533.77 469.75 533.77 469.75 533.77 469.75 533.77 469.75 533.77 469.75 533.77 469.75 533.77"/>
  <g class="cls-27">
    <path d="m397.09,576.3c.09-.19.09-.23.09-.32,0-.19-.16-.35-.35-.35-.16,0-.28.09-.4.4l-3.07,8.04c-.04.11-.09.21-.09.32,0,.05,0,.09.09.3l3.07,8.04c.07.19.16.42.4.42.19,0,.35-.16.35-.35,0-.05,0-.09-.09-.28l-3.1-8.13,3.1-8.09"/>
    <path d="m401.24,586.77v-3.61c0-.33,0-.35.19-.63.68-.98,1.65-1.12,2.07-1.12.79,0,1.42.46,1.84,1.12.46.72.51,1.72.51,2.44,0,.65-.04,1.7-.54,2.49-.37.54-1.03,1.12-1.98,1.12-.79,0-1.42-.42-1.84-1.07-.25-.37-.25-.42-.25-.74m-.05-4.61v-5.55l-2.52.19v.54c1.23,0,1.37.12,1.37.98v10.44h.44s.16-.26.63-1.09c.26.4,1,1.28,2.29,1.28,2.08,0,3.91-1.72,3.91-3.98s-1.72-3.96-3.71-3.96c-1.37,0-2.12.82-2.4,1.14Z"/>
    <path d="m409.81,582.74v4.7c0,.79-.19.79-1.37.79v.54c.61-.02,1.51-.05,1.98-.05s1.37.04,1.96.05v-.54c-1.17,0-1.37,0-1.37-.79v-3.22c0-1.82,1.24-2.8,2.37-2.8s1.3.95,1.3,1.95v4.08c0,.79-.19.79-1.37.79v.54c.61-.02,1.51-.05,1.98-.05s1.37.04,1.96.05v-.54c-1.17,0-1.37,0-1.37-.79v-3.22c0-1.82,1.24-2.8,2.37-2.8s1.3.95,1.3,1.95v4.08c0,.79-.19.79-1.37.79v.54c.61-.02,1.51-.05,1.98-.05s1.37.04,1.96.05v-.54c-.91,0-1.35,0-1.37-.53v-3.35c0-1.51,0-2.05-.54-2.68-.24-.3-.82-.65-1.84-.65-1.47,0-2.24,1.05-2.54,1.72-.25-1.52-1.54-1.72-2.33-1.72-1.28,0-2.1.75-2.59,1.84v-1.84l-2.47.19v.54c1.23,0,1.37.12,1.37.98"/>
    <path d="m429.12,583.11v3.59c0,.31,0,.35-.19.65-.53.84-1.31,1.23-2.07,1.23s-1.42-.46-1.84-1.12c-.46-.72-.51-1.72-.51-2.44,0-.65.04-1.7.54-2.49.37-.54,1.03-1.12,1.98-1.12.61,0,1.35.26,1.89,1.05.19.3.19.33.19.65m0,4.7v1.16l2.58-.19v-.54c-1.23,0-1.37-.12-1.37-.98v-10.63l-2.52.19v.54c1.23,0,1.37.12,1.37.98v3.78c-.51-.63-1.26-1.09-2.21-1.09-2.07,0-3.91,1.72-3.91,3.98s1.72,3.96,3.71,3.96c1.12,0,1.91-.6,2.35-1.16Z"/>
    <path d="m435.73,588.75c0-1.16-.44-1.84-1.12-1.84-.58,0-.93.44-.93.93s.35.93.93.93c.21,0,.44-.07.61-.23.05-.04.07-.05.09-.05s.04.02.04.26c0,1.3-.61,2.35-1.19,2.93-.19.19-.19.23-.19.28,0,.12.09.19.18.19.19,0,1.59-1.35,1.59-3.4"/>
    <path d="m441.85,587.44c0,.79-.19.79-1.37.79v.54c.61-.02,1.51-.05,1.98-.05s1.37.04,1.96.05v-.54c-1.17,0-1.37,0-1.37-.79v-3.22c0-1.82,1.24-2.8,2.37-2.8s1.3.95,1.3,1.95v4.08c0,.79-.19.79-1.37.79v.54c.61-.02,1.51-.05,1.98-.05s1.37.04,1.96.05v-.54c-.91,0-1.35,0-1.37-.53v-3.35c0-1.51,0-2.05-.54-2.68-.25-.3-.82-.65-1.84-.65-1.47,0-2.24,1.05-2.54,1.72v-6.13l-2.52.19v.54c1.23,0,1.37.12,1.37.98v9.11"/>
    <path d="m456.34,583.11v3.59c0,.31,0,.35-.19.65-.53.84-1.31,1.23-2.07,1.23s-1.42-.46-1.84-1.12c-.46-.72-.51-1.72-.51-2.44,0-.65.03-1.7.54-2.49.37-.54,1.03-1.12,1.98-1.12.61,0,1.35.26,1.89,1.05.19.3.19.33.19.65m0,4.7v1.16l2.58-.19v-.54c-1.23,0-1.37-.12-1.37-.98v-10.63l-2.52.19v.54c1.23,0,1.37.12,1.37.98v3.78c-.51-.63-1.26-1.09-2.21-1.09-2.07,0-3.91,1.72-3.91,3.98s1.72,3.96,3.71,3.96c1.12,0,1.91-.6,2.35-1.16Z"/>
    <path d="m466.68,582.93c.16-.4.45-1.16,1.61-1.17v-.54c-.4.04-.91.05-1.31.05s-1.23-.04-1.52-.05v.54c.65.02.84.42.84.75,0,.16-.04.23-.11.42l-1.79,4.47-1.96-4.89c-.1-.23-.1-.26-.1-.3,0-.46.68-.46,1-.46v-.54c-.53.02-1.51.05-1.91.05-.47,0-1.17-.02-1.7-.05v.54c1.1,0,1.17.11,1.4.65l2.52,6.22c.1.25.14.33.37.33s.3-.16.37-.33l2.3-5.69"/>
    <path d="m473.39,584.69c.09-.21.09-.24.09-.3s0-.09-.09-.3l-3.07-8.06c-.1-.3-.21-.4-.4-.4s-.35.16-.35.35c0,.05,0,.09.09.28l3.1,8.13-3.1,8.09c-.09.19-.09.23-.09.32,0,.19.16.35.35.35.23,0,.3-.18.37-.35l3.1-8.11"/>
    <path d="m424.93,610.98c-.96.74-1.44,1.45-1.58,1.68-.79,1.21-.93,2.31-.93,2.33,0,.21.21.21.35.21.3,0,.32-.04.39-.35.4-1.72,1.44-3.19,3.42-3.99.21-.07.26-.11.26-.23s-.11-.18-.14-.19c-.77-.3-2.89-1.17-3.56-4.12-.05-.21-.07-.26-.37-.26-.14,0-.35,0-.35.21,0,.04.16,1.14.89,2.31.35.53.86,1.14,1.61,1.7h-13.02c-.32,0-.63,0-.63.35s.32.35.63.35h13.02"/>
    <path d="m435.72,613.02v-3.61c0-.33,0-.35.19-.63.68-.98,1.65-1.12,2.07-1.12.79,0,1.42.46,1.84,1.12.46.72.51,1.72.51,2.44,0,.65-.04,1.7-.54,2.49-.37.54-1.03,1.12-1.98,1.12-.79,0-1.42-.42-1.84-1.07-.25-.37-.25-.42-.25-.74m-.05-4.61v-5.55l-2.52.19v.54c1.23,0,1.37.12,1.37.98v10.44h.44s.16-.26.63-1.09c.26.4,1,1.28,2.29,1.28,2.08,0,3.91-1.72,3.91-3.98s-1.72-3.96-3.71-3.96c-1.37,0-2.12.82-2.4,1.14Z"/>
    <path d="m444.29,613.68c0,.79-.19.79-1.37.79v.54c.61-.02,1.51-.05,1.98-.05s1.37.04,1.96.05v-.54c-1.17,0-1.37,0-1.37-.79v-3.22c0-1.82,1.24-2.8,2.37-2.8s1.3.95,1.3,1.95v4.08c0,.79-.19.79-1.37.79v.54c.61-.02,1.51-.05,1.98-.05s1.37.04,1.96.05v-.54c-.91,0-1.35,0-1.37-.53v-3.35c0-1.51,0-2.05-.54-2.68-.25-.3-.82-.65-1.84-.65-1.47,0-2.24,1.05-2.54,1.72v-6.13l-2.52.19v.54c1.23,0,1.37.12,1.37.98v9.11"/>
    <path d="m454.05,608.99v4.7c0,.79-.19.79-1.37.79v.54c.61-.02,1.51-.05,1.98-.05s1.37.04,1.96.05v-.54c-1.17,0-1.37,0-1.37-.79v-3.22c0-1.82,1.24-2.8,2.37-2.8s1.3.95,1.3,1.95v4.08c0,.79-.19.79-1.37.79v.54c.61-.02,1.51-.05,1.98-.05s1.37.04,1.96.05v-.54c-1.17,0-1.37,0-1.37-.79v-3.22c0-1.82,1.24-2.8,2.36-2.8s1.3.95,1.3,1.95v4.08c0,.79-.19.79-1.37.79v.54c.61-.02,1.51-.05,1.98-.05s1.37.04,1.96.05v-.54c-.91,0-1.35,0-1.37-.53v-3.35c0-1.51,0-2.05-.54-2.68-.24-.3-.82-.65-1.84-.65-1.47,0-2.24,1.05-2.54,1.72-.25-1.52-1.54-1.72-2.33-1.72-1.28,0-2.1.75-2.59,1.84v-1.84l-2.47.19v.54c1.23,0,1.37.12,1.37.98"/>
    <path d="m473.46,609.18c.16-.4.45-1.16,1.61-1.17v-.54c-.4.04-.91.05-1.31.05s-1.23-.04-1.52-.05v.54c.65.02.84.42.84.75,0,.16-.04.23-.11.42l-1.79,4.47-1.96-4.89c-.1-.23-.1-.26-.1-.3,0-.46.68-.46,1-.46v-.54c-.53.02-1.51.05-1.91.05-.47,0-1.17-.02-1.7-.05v.54c1.1,0,1.17.11,1.4.65l2.52,6.22c.1.25.14.33.37.33s.3-.16.37-.33l2.3-5.69"/>
  </g>
  <g class="cls-29">
    <path d="m89.42,416.96c.09-.19.09-.23.09-.32,0-.19-.16-.35-.35-.35-.16,0-.28.09-.4.4l-3.07,8.04c-.04.11-.09.21-.09.32,0,.05,0,.09.09.3l3.07,8.04c.07.19.16.42.4.42.19,0,.35-.16.35-.35,0-.05,0-.09-.09-.28l-3.1-8.13,3.1-8.09"/>
    <path d="m93.52,427.44v-3.61c0-.33,0-.35.19-.63.68-.98,1.65-1.12,2.07-1.12.79,0,1.42.46,1.84,1.12.46.72.51,1.72.51,2.44,0,.65-.04,1.7-.54,2.49-.37.54-1.03,1.12-1.98,1.12-.79,0-1.42-.42-1.84-1.07-.25-.37-.25-.42-.25-.74m-.05-4.61v-5.55l-2.52.19v.54c1.23,0,1.37.12,1.37.98v10.44h.44s.16-.26.63-1.09c.26.4,1,1.28,2.29,1.28,2.08,0,3.91-1.72,3.91-3.98s-1.72-3.96-3.71-3.96c-1.37,0-2.12.82-2.4,1.14Z"/>
    <path d="m102.14,428.11c0,.79-.19.79-1.37.79v.54c.61-.02,1.51-.05,1.98-.05s1.37.04,1.96.05v-.54c-1.17,0-1.37,0-1.37-.79v-3.22c0-1.82,1.24-2.8,2.37-2.8s1.3.95,1.3,1.95v4.08c0,.79-.19.79-1.37.79v.54c.61-.02,1.51-.05,1.98-.05s1.37.04,1.96.05v-.54c-.91,0-1.35,0-1.37-.53v-3.35c0-1.51,0-2.05-.54-2.68-.25-.3-.82-.65-1.84-.65-1.47,0-2.24,1.05-2.54,1.72v-6.13l-2.52.19v.54c1.23,0,1.37.12,1.37.98v9.11"/>
    <path d="m111.84,423.41v4.7c0,.79-.19.79-1.37.79v.54c.61-.02,1.51-.05,1.98-.05s1.37.04,1.96.05v-.54c-1.17,0-1.37,0-1.37-.79v-3.22c0-1.82,1.24-2.8,2.37-2.8s1.3.95,1.3,1.95v4.08c0,.79-.19.79-1.37.79v.54c.61-.02,1.51-.05,1.98-.05s1.37.04,1.96.05v-.54c-1.17,0-1.37,0-1.37-.79v-3.22c0-1.82,1.24-2.8,2.37-2.8s1.3.95,1.3,1.95v4.08c0,.79-.19.79-1.37.79v.54c.61-.02,1.51-.05,1.98-.05s1.37.04,1.96.05v-.54c-.91,0-1.35,0-1.37-.53v-3.35c0-1.51,0-2.05-.54-2.68-.24-.3-.82-.65-1.84-.65-1.47,0-2.24,1.05-2.54,1.72-.25-1.52-1.54-1.72-2.33-1.72-1.28,0-2.1.75-2.59,1.84v-1.84l-2.47.19v.54c1.23,0,1.37.12,1.37.98"/>
    <path d="m126.36,428.11c0,.79-.19.79-1.37.79v.54c.58-.02,1.4-.05,1.91-.05s1.23.02,1.93.05v-.54c-1.17,0-1.37,0-1.37-.79v-1.8l1.12-.96c1.35,1.86,2.08,2.84,2.08,3.15,0,.33-.3.4-.63.4v.54c.49-.02,1.52-.05,1.89-.05.51,0,1.02.02,1.52.05v-.54c-.65,0-1.03,0-1.7-.93l-2.22-3.14s-.11-.14-.11-.19c0-.07,1.24-1.12,1.42-1.26,1.1-.89,1.84-.93,2.21-.95v-.54c-.51.05-.74.05-1.23.05-.63,0-1.72-.04-1.96-.05v.54c.33.02.51.21.51.44,0,.35-.25.56-.39.68l-2.47,2.14v-8.41l-2.52.19v.54c1.23,0,1.37.12,1.37.98v9.11"/>
    <path d="m137.28,429.42c0-1.16-.44-1.84-1.12-1.84-.58,0-.93.44-.93.93s.35.93.93.93c.21,0,.44-.07.61-.23.05-.04.07-.05.09-.05s.04.02.04.26c0,1.3-.61,2.35-1.19,2.93-.19.19-.19.23-.19.28,0,.12.09.19.18.19.19,0,1.59-1.35,1.59-3.4"/>
    <path d="m144.54,427.44v-3.61c0-.33,0-.35.19-.63.68-.98,1.65-1.12,2.07-1.12.79,0,1.42.46,1.84,1.12.46.72.51,1.72.51,2.44,0,.65-.04,1.7-.54,2.49-.37.54-1.03,1.12-1.98,1.12-.79,0-1.42-.42-1.84-1.07-.25-.37-.25-.42-.25-.74m-.05-4.61v-5.55l-2.52.19v.54c1.23,0,1.37.12,1.37.98v10.44h.44s.16-.26.63-1.09c.26.4,1,1.28,2.3,1.28,2.08,0,3.91-1.72,3.91-3.98s-1.72-3.96-3.71-3.96c-1.37,0-2.12.82-2.4,1.14Z"/>
    <path d="m153.16,428.11c0,.79-.19.79-1.37.79v.54c.61-.02,1.51-.05,1.98-.05s1.37.04,1.96.05v-.54c-1.17,0-1.37,0-1.37-.79v-3.22c0-1.82,1.24-2.8,2.37-2.8s1.3.95,1.3,1.95v4.08c0,.79-.19.79-1.37.79v.54c.61-.02,1.51-.05,1.98-.05s1.37.04,1.96.05v-.54c-.91,0-1.35,0-1.37-.53v-3.35c0-1.51,0-2.05-.54-2.68-.25-.3-.82-.65-1.84-.65-1.47,0-2.24,1.05-2.54,1.72v-6.13l-2.52.19v.54c1.23,0,1.37.12,1.37.98v9.11"/>
    <path d="m162.87,423.41v4.7c0,.79-.19.79-1.37.79v.54c.61-.02,1.51-.05,1.98-.05s1.37.04,1.96.05v-.54c-1.17,0-1.37,0-1.37-.79v-3.22c0-1.82,1.24-2.8,2.37-2.8s1.3.95,1.3,1.95v4.08c0,.79-.19.79-1.37.79v.54c.61-.02,1.51-.05,1.98-.05s1.37.04,1.96.05v-.54c-.91,0-1.35,0-1.37-.53v-3.35c0-1.51,0-2.05-.54-2.68-.25-.3-.82-.65-1.84-.65-1.28,0-2.1.75-2.59,1.84v-1.84l-2.47.19v.54c1.23,0,1.37.12,1.37.98"/>
    <path d="m172.51,428.11c0,.79-.19.79-1.37.79v.54c.58-.02,1.4-.05,1.91-.05s1.23.02,1.93.05v-.54c-1.17,0-1.37,0-1.37-.79v-1.8l1.12-.96c1.35,1.86,2.08,2.84,2.08,3.15,0,.33-.3.4-.63.4v.54c.49-.02,1.52-.05,1.89-.05.51,0,1.02.02,1.52.05v-.54c-.65,0-1.03,0-1.7-.93l-2.22-3.14s-.11-.14-.11-.19c0-.07,1.24-1.12,1.42-1.26,1.1-.89,1.84-.93,2.21-.95v-.54c-.51.05-.74.05-1.23.05-.63,0-1.72-.04-1.96-.05v.54c.33.02.51.21.51.44,0,.35-.25.56-.39.68l-2.47,2.14v-8.41l-2.52.19v.54c1.23,0,1.37.12,1.37.98v9.11"/>
    <path d="m184.7,425.35c.09-.21.09-.24.09-.3s0-.09-.09-.3l-3.07-8.06c-.1-.3-.21-.4-.4-.4s-.35.16-.35.35c0,.05,0,.09.09.28l3.1,8.13-3.1,8.09c-.09.19-.09.23-.09.32,0,.19.16.35.35.35.23,0,.3-.18.37-.35l3.1-8.11"/>
    <path d="m135.21,451.65c-.96.74-1.44,1.45-1.58,1.68-.79,1.21-.93,2.31-.93,2.33,0,.21.21.21.35.21.3,0,.32-.04.39-.35.4-1.72,1.44-3.19,3.42-3.99.21-.07.26-.11.26-.23s-.1-.18-.14-.19c-.77-.3-2.89-1.17-3.56-4.12-.05-.21-.07-.26-.37-.26-.14,0-.35,0-.35.21,0,.04.16,1.14.89,2.31.35.53.86,1.14,1.61,1.7h-13.02c-.32,0-.63,0-.63.35s.32.35.63.35h13.02"/>
    <path d="m146.01,453.68v-3.61c0-.33,0-.35.19-.63.68-.98,1.65-1.12,2.07-1.12.79,0,1.42.46,1.84,1.12.46.72.51,1.72.51,2.44,0,.65-.04,1.7-.54,2.49-.37.54-1.03,1.12-1.98,1.12-.79,0-1.42-.42-1.84-1.07-.25-.37-.25-.42-.25-.74m-.05-4.61v-5.55l-2.52.19v.54c1.23,0,1.37.12,1.37.98v10.44h.44s.16-.26.63-1.09c.26.4,1,1.28,2.3,1.28,2.08,0,3.91-1.72,3.91-3.98s-1.72-3.96-3.71-3.96c-1.37,0-2.12.82-2.4,1.14Z"/>
    <path d="m154.62,454.35c0,.79-.19.79-1.37.79v.54c.61-.02,1.51-.05,1.98-.05s1.37.04,1.96.05v-.54c-1.17,0-1.37,0-1.37-.79v-3.22c0-1.82,1.24-2.8,2.37-2.8s1.3.95,1.3,1.95v4.08c0,.79-.19.79-1.37.79v.54c.61-.02,1.51-.05,1.98-.05s1.37.04,1.96.05v-.54c-.91,0-1.35,0-1.37-.53v-3.35c0-1.51,0-2.05-.54-2.68-.25-.3-.82-.65-1.84-.65-1.47,0-2.24,1.05-2.54,1.72v-6.13l-2.52.19v.54c1.23,0,1.37.12,1.37.98v9.11"/>
    <path d="m164.33,449.65v4.7c0,.79-.19.79-1.37.79v.54c.61-.02,1.51-.05,1.98-.05s1.37.04,1.96.05v-.54c-1.17,0-1.37,0-1.37-.79v-3.22c0-1.82,1.24-2.8,2.37-2.8s1.3.95,1.3,1.95v4.08c0,.79-.19.79-1.37.79v.54c.61-.02,1.51-.05,1.98-.05s1.37.04,1.96.05v-.54c-1.17,0-1.37,0-1.37-.79v-3.22c0-1.82,1.24-2.8,2.36-2.8s1.3.95,1.3,1.95v4.08c0,.79-.19.79-1.37.79v.54c.61-.02,1.51-.05,1.98-.05s1.37.04,1.96.05v-.54c-.91,0-1.35,0-1.37-.53v-3.35c0-1.51,0-2.05-.54-2.68-.24-.3-.82-.65-1.84-.65-1.47,0-2.24,1.05-2.54,1.72-.25-1.52-1.54-1.72-2.33-1.72-1.28,0-2.1.75-2.59,1.84v-1.84l-2.47.19v.54c1.23,0,1.37.12,1.37.98"/>
    <path d="m178.92,449.65v4.7c0,.79-.19.79-1.37.79v.54c.61-.02,1.51-.05,1.98-.05s1.37.04,1.96.05v-.54c-1.17,0-1.37,0-1.37-.79v-3.22c0-1.82,1.24-2.8,2.37-2.8s1.3.95,1.3,1.95v4.08c0,.79-.19.79-1.37.79v.54c.61-.02,1.51-.05,1.98-.05s1.37.04,1.96.05v-.54c-.91,0-1.35,0-1.37-.53v-3.35c0-1.51,0-2.05-.54-2.68-.25-.3-.82-.65-1.84-.65-1.28,0-2.1.75-2.59,1.84v-1.84l-2.47.19v.54c1.23,0,1.37.12,1.37.98"/>
  </g>
  <polygon class="cls-4" points="51.97 343.85 51.97 343.85 51.97 343.85 51.97 343.85 51.97 343.85 51.97 343.85 51.97 343.85 51.97 343.85 51.97 343.85 51.97 343.85 51.97 343.85 51.97 343.85 51.97 343.85 51.97 343.85 51.97 343.85 51.97 343.85 51.97 343.85 51.97 343.85 51.97 343.85 51.97 343.85 51.97 343.85 51.97 343.85 51.97 343.85 51.97 343.85 51.97 343.85 51.97 343.85 51.97 343.85 51.97 343.85 51.97 343.85 51.97 343.85 51.97 343.85 51.97 343.85 51.97 343.85 51.97 343.85 51.97 343.85 51.97 343.85 51.97 343.85 51.97 343.85 51.97 343.85 51.97 343.85 51.97 343.85 51.97 343.85 51.97 343.85 51.97 343.85 51.97 343.85 51.97 343.85 51.97 343.85 51.97 343.85 51.97 343.85 51.97 343.85 51.97 343.85 51.97 343.85 51.97 343.85 51.97 343.85 51.97 343.85 51.97 343.85 51.97 343.85 51.97 343.85 51.97 343.85 51.97 343.85 51.97 343.85 51.97 343.85 51.97 343.85 51.97 343.85 51.97 343.85 51.97 343.85 51.97 343.85 51.97 343.85 51.97 343.85 51.97 343.85 51.97 343.85 51.97 343.85 51.97 343.85 51.97 343.85 51.97 343.85 51.97 343.85 51.97 343.85 51.97 343.85 51.97 343.85 51.97 343.85 51.97 343.85 51.97 343.85 51.97 343.85 51.97 343.85 51.97 343.85 51.97 343.85 51.97 343.85 51.97 343.85 51.97 343.85 51.97 343.85 51.97 343.85 51.97 343.85 51.97 343.85 51.97 343.85 51.97 343.85 51.97 343.85 51.97 343.85 51.97 343.85 51.97 343.85 51.97 343.85 51.97 343.85 51.97 343.85 51.97 343.85"/>
  <g class="cls-28">
    <path d="m211.63,368.37c.55-.97,1.08-1.77,2.48-1.88.2-.02.42-.02.42-.44,0-.09-.09-.24-.26-.24-.53,0-1.15.07-1.7.07-.75,0-1.57-.07-2.3-.07-.13,0-.42,0-.42.42,0,.24.2.27.33.27.53.02,1.3.2,1.3.86,0,.24-.11.42-.29.73l-5.97,10.41-.82-10.96c-.02-.44-.07-1.02,1.55-1.04.38,0,.6,0,.6-.44,0-.22-.24-.24-.33-.24-.88,0-1.81.07-2.7.07-.51,0-1.81-.07-2.32-.07-.13,0-.42,0-.42.44,0,.24.22.24.53.24.97,0,1.13.13,1.17.55l.13,1.7-5.59,9.75-.84-11.21c0-.27,0-.77,1.68-.8.22,0,.46,0,.46-.44,0-.24-.27-.24-.31-.24-.88,0-1.81.07-2.72.07-.77,0-1.57-.07-2.32-.07-.11,0-.4,0-.4.42,0,.27.2.27.55.27,1.1,0,1.13.2,1.17.82l.99,13.5c.02.4.04.57.35.57.27,0,.33-.13.53-.46l6.5-11.27.82,11.16c.04.46.09.57.35.57.29,0,.42-.22.53-.42l7.25-12.6"/>
    <path d="m225.64,379.73c0-.64-.53-1.17-1.17-1.17s-1.17.53-1.17,1.17.53,1.17,1.17,1.17,1.17-.53,1.17-1.17m0-7.18c0-.64-.53-1.17-1.17-1.17s-1.17.53-1.17,1.17.53,1.17,1.17,1.17,1.17-.53,1.17-1.17Z"/>
    <path d="m237.51,378.38v-4.55c0-.42,0-.44.24-.8.86-1.24,2.08-1.41,2.61-1.41,1,0,1.79.58,2.32,1.41.57.91.64,2.17.64,3.07,0,.82-.04,2.14-.68,3.14-.46.69-1.3,1.41-2.5,1.41-1,0-1.79-.53-2.32-1.35-.31-.46-.31-.53-.31-.93m-.07-5.81v-7.01l-3.18.24v.69c1.55,0,1.72.15,1.72,1.24v13.17h.55s.2-.33.8-1.37c.33.51,1.26,1.61,2.9,1.61,2.63,0,4.93-2.17,4.93-5.02s-2.17-4.99-4.69-4.99c-1.72,0-2.67,1.04-3.03,1.44Z"/>
    <path d="m248.38,379.22c0,.99-.24.99-1.72.99v.69c.77-.02,1.9-.07,2.5-.07s1.72.04,2.48.07v-.69c-1.48,0-1.72,0-1.72-.99v-4.07c0-2.3,1.57-3.54,2.98-3.54s1.64,1.19,1.64,2.45v5.15c0,.99-.24.99-1.72.99v.69c.77-.02,1.9-.07,2.5-.07s1.72.04,2.48.07v-.69c-1.15,0-1.7,0-1.72-.66v-4.22c0-1.9,0-2.59-.68-3.38-.31-.38-1.04-.82-2.32-.82-1.86,0-2.83,1.33-3.2,2.17v-7.74l-3.18.24v.69c1.55,0,1.72.15,1.72,1.24v11.49"/>
    <path d="m260.63,373.3v5.92c0,.99-.24.99-1.72.99v.69c.77-.02,1.9-.07,2.5-.07s1.72.04,2.48.07v-.69c-1.48,0-1.72,0-1.72-.99v-4.07c0-2.3,1.57-3.54,2.98-3.54s1.64,1.19,1.64,2.45v5.15c0,.99-.24.99-1.72.99v.69c.77-.02,1.9-.07,2.5-.07s1.72.04,2.48.07v-.69c-1.48,0-1.72,0-1.72-.99v-4.07c0-2.3,1.57-3.54,2.98-3.54s1.64,1.19,1.64,2.45v5.15c0,.99-.24.99-1.72.99v.69c.77-.02,1.9-.07,2.5-.07s1.72.04,2.47.07v-.69c-1.15,0-1.7,0-1.72-.66v-4.22c0-1.9,0-2.59-.69-3.38-.31-.38-1.04-.82-2.32-.82-1.86,0-2.83,1.33-3.2,2.17-.31-1.92-1.94-2.17-2.94-2.17-1.61,0-2.65.95-3.27,2.32v-2.32l-3.12.24v.69c1.55,0,1.72.15,1.72,1.24"/>
    <path d="m279.03,373.3v5.92c0,.99-.24.99-1.72.99v.69c.77-.02,1.9-.07,2.5-.07s1.72.04,2.48.07v-.69c-1.48,0-1.72,0-1.72-.99v-4.07c0-2.3,1.57-3.54,2.98-3.54s1.64,1.19,1.64,2.45v5.15c0,.99-.24.99-1.72.99v.69c.77-.02,1.9-.07,2.5-.07s1.72.04,2.48.07v-.69c-1.15,0-1.7,0-1.72-.66v-4.22c0-1.9,0-2.59-.68-3.38-.31-.38-1.04-.82-2.32-.82-1.61,0-2.65.95-3.27,2.32v-2.32l-3.12.24v.69c1.55,0,1.72.15,1.72,1.24"/>
  </g>
  <g class="cls-32">
    <path d="m301.18,231.82c-2.11,0-3.6-1.72-3.6-4.53,0-.94.3-4.04,1.94-6.53,1.47-2.21,3.55-3.32,5.24-3.32s3.66,1.19,3.66,4.36c0,1.53-.57,4.85-2.68,7.47-1.02,1.3-2.77,2.55-4.55,2.55m9.13-9.19c0-3.43-2.26-5.73-5.43-5.73-4.6,0-9.28,4.83-9.28,9.79,0,3.53,2.38,5.68,5.45,5.68,4.51,0,9.26-4.66,9.26-9.75Z"/>
    <path d="m321.34,230.78c0-.62-.51-1.13-1.13-1.13s-1.13.51-1.13,1.13.51,1.13,1.13,1.13,1.13-.51,1.13-1.13m0-6.92c0-.62-.51-1.13-1.13-1.13s-1.13.51-1.13,1.13.51,1.13,1.13,1.13,1.13-.51,1.13-1.13Z"/>
    <path d="m332.83,229.48v-4.38c0-.4,0-.43.23-.77.83-1.19,2-1.36,2.51-1.36.96,0,1.72.55,2.24,1.36.55.87.62,2.09.62,2.96,0,.79-.04,2.06-.66,3.02-.45.66-1.26,1.36-2.4,1.36-.96,0-1.72-.51-2.24-1.3-.3-.45-.3-.51-.3-.89m-.06-5.6v-6.75l-3.06.23v.66c1.49,0,1.66.15,1.66,1.19v12.68h.53s.19-.32.77-1.32c.32.49,1.21,1.55,2.79,1.55,2.53,0,4.75-2.09,4.75-4.83s-2.09-4.81-4.51-4.81c-1.66,0-2.57,1-2.92,1.38Z"/>
    <path d="m343.24,230.29c0,.96-.23.96-1.66.96v.66c.74-.02,1.83-.06,2.4-.06s1.66.04,2.38.06v-.66c-1.43,0-1.66,0-1.66-.96v-3.92c0-2.21,1.51-3.41,2.87-3.41s1.57,1.15,1.57,2.36v4.96c0,.96-.23.96-1.66.96v.66c.75-.02,1.83-.06,2.41-.06s1.66.04,2.38.06v-.66c-1.11,0-1.64,0-1.66-.64v-4.06c0-1.83,0-2.49-.66-3.26-.3-.36-1-.79-2.24-.79-1.79,0-2.72,1.28-3.09,2.09v-7.45l-3.06.23v.66c1.49,0,1.66.15,1.66,1.19v11.07"/>
    <path d="m355.03,224.58v5.7c0,.96-.23.96-1.66.96v.66c.74-.02,1.83-.06,2.4-.06s1.66.04,2.38.06v-.66c-1.43,0-1.66,0-1.66-.96v-3.92c0-2.21,1.51-3.41,2.87-3.41s1.57,1.15,1.57,2.36v4.96c0,.96-.23.96-1.66.96v.66c.75-.02,1.83-.06,2.41-.06s1.66.04,2.38.06v-.66c-1.11,0-1.64,0-1.66-.64v-4.06c0-1.83,0-2.49-.66-3.26-.3-.36-1-.79-2.24-.79-1.55,0-2.55.91-3.15,2.23v-2.23l-3,.23v.66c1.49,0,1.66.15,1.66,1.19"/>
    <path d="m372.8,224.82c.19-.49.55-1.4,1.96-1.43v-.66c-.49.04-1.11.06-1.6.06s-1.49-.04-1.85-.06v.66c.79.02,1.02.51,1.02.91,0,.19-.04.28-.13.51l-2.17,5.43-2.38-5.94c-.13-.28-.13-.32-.13-.36,0-.55.83-.55,1.21-.55v-.66c-.64.02-1.83.06-2.32.06-.57,0-1.43-.02-2.06-.06v.66c1.34,0,1.43.13,1.7.79l3.06,7.56c.13.3.17.4.45.4s.36-.19.45-.4l2.79-6.92"/>
  </g>
  <path class="cls-10" d="m278.93,89.74c0,3.75,2.71,6.82,6.01,6.82h97.05c3.31,0,6.01-3.07,6.01-6.82v-36.54c0-3.75-2.71-6.82-6.01-6.82h-97.05c-3.31,0-6.01,3.07-6.01,6.82v36.54Z"/>
  <g class="cls-30">
    <path d="m312.73,68.89c.09-.3.09-.35.09-.5,0-.39-.3-.59-.63-.59-.22,0-.57.13-.76.46-.04.11-.22.78-.3,1.18-.15.57-.3,1.15-.44,1.74l-.98,3.92c-.09.33-1.02,1.85-2.46,1.85-1.11,0-1.35-.96-1.35-1.76,0-1,.37-2.35,1.11-4.27.35-.89.43-1.13.43-1.57,0-.98-.7-1.78-1.78-1.78-2.07,0-2.87,3.16-2.87,3.35,0,.22.22.22.26.22.22,0,.24-.04.35-.39.59-2.05,1.46-2.7,2.2-2.7.17,0,.54,0,.54.7,0,.54-.22,1.11-.37,1.52-.87,2.31-1.26,3.55-1.26,4.57,0,1.94,1.37,2.59,2.66,2.59.85,0,1.59-.37,2.2-.98-.28,1.13-.54,2.2-1.41,3.35-.57.74-1.39,1.37-2.39,1.37-.3,0-1.28-.07-1.65-.91.35,0,.63,0,.94-.26.22-.2.44-.48.44-.89,0-.68-.59-.76-.81-.76-.5,0-1.22.35-1.22,1.41s.96,1.89,2.31,1.89c2.24,0,4.48-1.98,5.09-4.44l2.09-8.31"/>
    <path d="m323.84,76.03c0-.63-.52-1.15-1.15-1.15s-1.15.52-1.15,1.15.52,1.15,1.15,1.15,1.15-.52,1.15-1.15m0-7.07c0-.63-.52-1.15-1.15-1.15s-1.15.52-1.15,1.15.52,1.15,1.15,1.15,1.15-.52,1.15-1.15Z"/>
    <path d="m335.53,74.7v-4.48c0-.41,0-.44.24-.78.85-1.22,2.05-1.39,2.57-1.39.98,0,1.76.57,2.29,1.39.57.89.63,2.13.63,3.03,0,.81-.04,2.11-.67,3.09-.46.68-1.28,1.39-2.46,1.39-.98,0-1.76-.52-2.29-1.33-.3-.46-.3-.52-.3-.91m-.07-5.72v-6.9l-3.13.24v.68c1.52,0,1.7.15,1.7,1.22v12.97h.54s.2-.33.78-1.35c.33.5,1.24,1.59,2.85,1.59,2.59,0,4.85-2.13,4.85-4.94s-2.13-4.92-4.61-4.92c-1.7,0-2.63,1.02-2.98,1.41Z"/>
    <path d="m346.18,69.69v5.83c0,.98-.24.98-1.7.98v.68c.76-.02,1.87-.07,2.46-.07s1.7.04,2.44.07v-.68c-1.46,0-1.7,0-1.7-.98v-4c0-2.26,1.55-3.48,2.94-3.48s1.61,1.18,1.61,2.42v5.07c0,.98-.24.98-1.7.98v.68c.76-.02,1.87-.07,2.46-.07s1.7.04,2.44.07v-.68c-1.13,0-1.68,0-1.7-.65v-4.16c0-1.87,0-2.55-.67-3.33-.3-.37-1.02-.8-2.29-.8-1.59,0-2.61.94-3.22,2.29v-2.29l-3.07.24v.68c1.52,0,1.7.15,1.7,1.22"/>
    <path d="m364.18,70.15v4.46c0,.39,0,.43-.24.8-.65,1.04-1.63,1.52-2.57,1.52s-1.76-.57-2.29-1.39c-.57-.89-.63-2.13-.63-3.03,0-.8.04-2.11.68-3.09.46-.67,1.28-1.39,2.46-1.39.76,0,1.68.33,2.35,1.31.24.37.24.41.24.81m0,5.83v1.44l3.2-.24v-.68c-1.52,0-1.7-.15-1.7-1.22v-13.21l-3.13.24v.68c1.52,0,1.7.15,1.7,1.22v4.7c-.63-.78-1.57-1.35-2.74-1.35-2.57,0-4.85,2.13-4.85,4.94s2.13,4.92,4.61,4.92c1.39,0,2.37-.74,2.92-1.44Z"/>
  </g>
  <polygon points="332.5 23 321.84 23 321.84 23 332.5 0 332.5 23"/>
  <polygon points="332.18 23 342.84 23 342.84 23 332.18 0 332.18 23"/>
  <g class="cls-22">
    <path d="m319.33,161.98c0,.87-.21.87-1.51.87v.6c.68-.02,1.66-.06,2.18-.06s1.51.04,2.17.06v-.6c-1.3,0-1.51,0-1.51-.87v-3.56c0-2.01,1.37-3.09,2.61-3.09s1.43,1.04,1.43,2.15v4.51c0,.87-.21.87-1.51.87v.6c.68-.02,1.66-.06,2.19-.06s1.51.04,2.17.06v-.6c-1.01,0-1.49,0-1.51-.58v-3.69c0-1.66,0-2.26-.6-2.96-.27-.33-.91-.72-2.03-.72-1.62,0-2.48,1.16-2.8,1.89v-6.77l-2.78.21v.6c1.35,0,1.51.14,1.51,1.08v10.06"/>
    <path d="m335.42,157.01c.17-.45.5-1.28,1.78-1.3v-.6c-.44.04-1.01.06-1.45.06s-1.35-.04-1.68-.06v.6c.72.02.93.46.93.83,0,.17-.04.25-.12.46l-1.97,4.93-2.17-5.4c-.12-.25-.12-.29-.12-.33,0-.5.75-.5,1.1-.5v-.6c-.58.02-1.66.06-2.11.06-.52,0-1.3-.02-1.88-.06v.6c1.22,0,1.3.12,1.55.72l2.78,6.87c.12.27.15.37.41.37s.33-.17.41-.37l2.53-6.28"/>
    <path d="m344.9,157.2v3.96c0,.35,0,.39-.21.72-.58.93-1.45,1.35-2.28,1.35s-1.57-.5-2.03-1.24c-.5-.79-.56-1.89-.56-2.69,0-.72.04-1.88.6-2.75.41-.6,1.14-1.24,2.18-1.24.68,0,1.49.29,2.09,1.16.21.33.21.37.21.72m0,5.18v1.28l2.84-.21v-.6c-1.35,0-1.51-.13-1.51-1.08v-11.74l-2.78.21v.6c1.35,0,1.51.14,1.51,1.08v4.18c-.56-.7-1.39-1.2-2.44-1.2-2.28,0-4.31,1.89-4.31,4.39s1.9,4.37,4.1,4.37c1.24,0,2.11-.66,2.59-1.28Z"/>
  </g>
  <path class="cls-9" d="m38.95,27.41c0,1.48.8,2.69,1.79,2.69h24.32c.98,0,1.79-1.21,1.79-2.69V6.3c0-1.48-.8-2.69-1.79-2.69h-24.32c-.98,0-1.79,1.21-1.79,2.69v21.11Z"/>
  <path class="cls-3" d="m40.45,58.99c0,1.3.7,2.36,1.56,2.36h21.27c.86,0,1.56-1.06,1.56-2.36v-18.48c0-1.3-.7-2.36-1.56-2.36h-21.27c-.86,0-1.56,1.06-1.56,2.36v18.48Z"/>
  <text class="cls-21" transform="translate(85.37 19.63)"><tspan class="cls-38" x="0" y="0">M</tspan><tspan x="9.72" y="0">odel </tspan><tspan class="cls-42" x="34.46" y="0">P</tspan><tspan class="cls-34" x="40.54" y="0">a</tspan><tspan class="cls-41" x="46.32" y="0">r</tspan><tspan class="cls-34" x="50.18" y="0">ame</tspan><tspan class="cls-7" x="71.99" y="0">t</tspan><tspan class="cls-11" x="75.89" y="0">ers</tspan></text>
  <text class="cls-21" transform="translate(85.6 52.72)"><tspan class="cls-5" x="0" y="0">A</tspan><tspan x="7.22" y="0">t</tspan><tspan class="cls-8" x="11.2" y="0">t</tspan><tspan x="15.1" y="0">e</tspan><tspan class="cls-35" x="21.11" y="0">n</tspan><tspan class="cls-11" x="27.72" y="0">tion ope</tspan><tspan class="cls-40" x="69.72" y="0">r</tspan><tspan class="cls-36" x="73.58" y="0">a</tspan><tspan class="cls-11" x="79.32" y="0">tion</tspan></text>
  <path class="cls-10" d="m39.48,90.56c0,1.89.63,3.44,1.4,3.44h22.56c.77,0,1.4-1.55,1.4-3.44v-18.45c0-1.89-.63-3.44-1.4-3.44h-22.56c-.77,0-1.4,1.55-1.4,3.44v18.45Z"/>
  <text class="cls-21" transform="translate(85.58 84.28)"><tspan class="cls-33" x="0" y="0">I</tspan><tspan class="cls-11" x="2.99" y="0">nput or output </tspan><tspan class="cls-7" x="79.79" y="0">t</tspan><tspan x="83.69" y="0">ensors</tspan></text>
  <line class="cls-2" x1="65.34" y1="109.5" x2="38.84" y2="109.5"/>
  <text class="cls-21" transform="translate(85.82 113.6)"><tspan class="cls-39" x="0" y="0">T</tspan><tspan class="cls-11" x="5.11" y="0">ensor fl</tspan><tspan class="cls-37" x="41.87" y="0">o</tspan><tspan x="48.37" y="0">w</tspan></text>
</svg>