<?xml version="1.0" encoding="UTF-8"?>
<svg id="Layer_1" data-name="Layer 1" xmlns="http://www.w3.org/2000/svg" xmlns:xlink="http://www.w3.org/1999/xlink" viewBox="0 0 1465 454">
  <defs>
    <style>
      .cls-1 {
        stroke-width: 3px;
      }

      .cls-1, .cls-2, .cls-3, .cls-4, .cls-5 {
        fill: none;
      }

      .cls-1, .cls-6, .cls-7, .cls-8, .cls-3, .cls-4, .cls-5 {
        stroke-miterlimit: 10;
      }

      .cls-1, .cls-6, .cls-7, .cls-8, .cls-3, .cls-5 {
        stroke: #000;
      }

      .cls-9 {
        clip-path: url(#clippath);
      }

      .cls-2, .cls-10, .cls-11 {
        stroke-width: 0px;
      }

      .cls-12 {
        letter-spacing: 0em;
      }

      .cls-6 {
        fill: #e6f1ff;
      }

      .cls-6, .cls-7, .cls-8, .cls-3, .cls-4 {
        stroke-width: 2px;
      }

      .cls-7 {
        fill: #ffd7a5;
      }

      .cls-8 {
        fill: #d0ffb9;
      }

      .cls-13 {
        clip-path: url(#clippath-1);
      }

      .cls-14 {
        clip-path: url(#clippath-4);
      }

      .cls-15 {
        clip-path: url(#clippath-3);
      }

      .cls-16 {
        clip-path: url(#clippath-2);
      }

      .cls-17 {
        clip-path: url(#clippath-7);
      }

      .cls-18 {
        clip-path: url(#clippath-8);
      }

      .cls-19 {
        clip-path: url(#clippath-6);
      }

      .cls-20 {
        clip-path: url(#clippath-5);
      }

      .cls-21 {
        clip-path: url(#clippath-9);
      }

      .cls-22 {
        clip-path: url(#clippath-12);
      }

      .cls-23 {
        clip-path: url(#clippath-10);
      }

      .cls-24 {
        clip-path: url(#clippath-11);
      }

      .cls-4 {
        stroke: gray;
      }

      .cls-25 {
        font-family: Avenir-Heavy, Avenir;
        font-size: 50px;
        font-weight: 800;
      }

      .cls-26 {
        font-family: Avenir-Book, Avenir;
        font-size: 20px;
      }

      .cls-5 {
        opacity: 0;
        stroke-width: 0px;
      }

      .cls-11 {
        fill: gray;
      }
    </style>
    <clipPath id="clippath">
      <rect class="cls-2" x="174.156" y="230.269" width="30.404" height="30.404"/>
    </clipPath>
    <clipPath id="clippath-1">
      <rect class="cls-2" x="1060.689" y="56.25" width="152" height="33"/>
    </clipPath>
    <clipPath id="clippath-2">
      <rect class="cls-2" x="1060.689" y="204.933" width="269" height="33"/>
    </clipPath>
    <clipPath id="clippath-3">
      <rect class="cls-2" x="1060.689" y="338.247" width="387" height="33"/>
    </clipPath>
    <clipPath id="clippath-4">
      <rect class="cls-2" x="65.586" y="184.739" width="22" height="27"/>
    </clipPath>
    <clipPath id="clippath-5">
      <rect class="cls-2" x="67.155" y="268.157" width="19" height="36"/>
    </clipPath>
    <clipPath id="clippath-6">
      <rect class="cls-2" x="404.783" y="165.585" width="154" height="43"/>
    </clipPath>
    <clipPath id="clippath-7">
      <rect class="cls-2" x="776.05" y="29.233" width="22" height="27"/>
    </clipPath>
    <clipPath id="clippath-8">
      <rect class="cls-2" x="858.55" y="94.733" width="19" height="36"/>
    </clipPath>
    <clipPath id="clippath-9">
      <rect class="cls-2" x="775.984" y="171.508" width="22" height="27"/>
    </clipPath>
    <clipPath id="clippath-10">
      <rect class="cls-2" x="886.484" y="238.008" width="19" height="36"/>
    </clipPath>
    <clipPath id="clippath-11">
      <rect class="cls-2" x="775.984" y="310.508" width="22" height="27"/>
    </clipPath>
    <clipPath id="clippath-12">
      <rect class="cls-2" x="912.812" y="374.552" width="19" height="36"/>
    </clipPath>
  </defs>
  <g>
    <rect class="cls-6" x="175.802" y="121.093" width="28" height="168" transform="translate(-15.291 394.894) rotate(-90)"/>
    <rect class="cls-6" x="105.802" y="191.093" width="28" height="28" transform="translate(-85.291 324.894) rotate(-90)"/>
    <rect class="cls-6" x="133.802" y="191.093" width="28" height="28" transform="translate(-57.291 352.894) rotate(-90)"/>
    <rect class="cls-6" x="161.802" y="191.093" width="28" height="28" transform="translate(-29.291 380.894) rotate(-90)"/>
    <rect class="cls-6" x="189.802" y="191.093" width="28" height="28" transform="translate(-1.291 408.894) rotate(-90)"/>
    <rect class="cls-6" x="217.802" y="191.093" width="28" height="28" transform="translate(26.709 436.894) rotate(-90)"/>
    <rect class="cls-6" x="245.802" y="191.093" width="28" height="28" transform="translate(54.709 464.894) rotate(-90)"/>
  </g>
  <g>
    <rect class="cls-8" x="175.802" y="202.093" width="28" height="168" transform="translate(-96.291 475.894) rotate(-90)"/>
    <rect class="cls-8" x="105.802" y="272.093" width="28" height="28" transform="translate(-166.291 405.894) rotate(-90)"/>
    <rect class="cls-8" x="133.802" y="272.093" width="28" height="28" transform="translate(-138.291 433.894) rotate(-90)"/>
    <rect class="cls-8" x="161.802" y="272.093" width="28" height="28" transform="translate(-110.291 461.894) rotate(-90)"/>
    <rect class="cls-8" x="189.802" y="272.093" width="28" height="28" transform="translate(-82.291 489.894) rotate(-90)"/>
    <rect class="cls-8" x="217.802" y="272.093" width="28" height="28" transform="translate(-54.291 517.894) rotate(-90)"/>
    <rect class="cls-8" x="245.802" y="272.093" width="28" height="28" transform="translate(-26.291 545.894) rotate(-90)"/>
  </g>
  <polygon class="cls-5" points="81.868 215.373 81.868 215.373 81.868 215.373 81.868 215.373 81.868 215.373 81.868 215.373 81.868 215.373 81.868 215.373 81.868 215.373 81.868 215.373 81.868 215.373 81.868 215.373 81.868 215.373 81.868 215.373 81.868 215.373 81.868 215.373 81.868 215.373 81.868 215.373 81.868 215.373 81.868 215.373 81.868 215.373 81.868 215.373 81.868 215.373 81.868 215.373 81.868 215.373 81.868 215.373 81.868 215.373 81.868 215.373 81.868 215.373 81.868 215.373 81.868 215.373 81.868 215.373 81.868 215.373 81.868 215.373 81.868 215.373 81.868 215.373 81.868 215.373 81.868 215.373 81.868 215.373 81.868 215.373 81.868 215.373 81.868 215.373 81.868 215.373 81.868 215.373 81.868 215.373 81.868 215.373 81.868 215.373 81.868 215.373 81.868 215.373 81.868 215.373 81.868 215.373 81.868 215.373 81.868 215.373 81.868 215.373 81.868 215.373 81.868 215.373 81.868 215.373 81.868 215.373 81.868 215.373 81.868 215.373 81.868 215.373 81.868 215.373 81.868 215.373 81.868 215.373 81.868 215.373 81.868 215.373 81.868 215.373 81.868 215.373 81.868 215.373 81.868 215.373 81.868 215.373 81.868 215.373 81.868 215.373 81.868 215.373 81.868 215.373 81.868 215.373 81.868 215.373 81.868 215.373 81.868 215.373 81.868 215.373 81.868 215.373 81.868 215.373 81.868 215.373 81.868 215.373 81.868 215.373 81.868 215.373 81.868 215.373 81.868 215.373 81.868 215.373 81.868 215.373 81.868 215.373 81.868 215.373 81.868 215.373 81.868 215.373 81.868 215.373 81.868 215.373 81.868 215.373 81.868 215.373 81.868 215.373 81.868 215.373 81.868 215.373 81.868 215.373 81.868 215.373 81.868 215.373 81.868 215.373 81.868 215.373 81.868 215.373 81.868 215.373 81.868 215.373 81.868 215.373 81.868 215.373 81.868 215.373 81.868 215.373 81.868 215.373 81.868 215.373 81.868 215.373 81.868 215.373 81.868 215.373 81.868 215.373 81.868 215.373 81.868 215.373 81.868 215.373 81.868 215.373 81.868 215.373 81.868 215.373 81.868 215.373 81.868 215.373 81.868 215.373 81.868 215.373 81.868 215.373 81.868 215.373 81.868 215.373 81.868 215.373 81.868 215.373 81.868 215.373 81.868 215.373 81.868 215.373 81.868 215.373 81.868 215.373 81.868 215.373 81.868 215.373 81.868 215.373 81.868 215.373 81.868 215.373 81.868 215.373 81.868 215.373 81.868 215.373 81.868 215.373 81.868 215.373 81.868 215.373"/>
  <polygon class="cls-5" points="77.496 279.296 77.496 279.295 77.496 279.295 77.496 279.295 77.496 279.295 77.496 279.295 77.496 279.295 77.496 279.295 77.496 279.295 77.496 279.295 77.496 279.295 77.496 279.296 77.496 279.295 77.496 279.295 77.496 279.295 77.496 279.295 77.496 279.295 77.496 279.295 77.496 279.295 77.496 279.295 77.496 279.295 77.496 279.295 77.496 279.295 77.496 279.296 77.496 279.296 77.496 279.295 77.496 279.296 77.496 279.296 77.496 279.295 77.496 279.295 77.496 279.295 77.496 279.295 77.496 279.295 77.496 279.295 77.496 279.295 77.496 279.295 77.496 279.295 77.496 279.295 77.496 279.295 77.496 279.295 77.496 279.295 77.496 279.295 77.496 279.295 77.496 279.295 77.496 279.295 77.496 279.295 77.496 279.296 77.496 279.295 77.496 279.295 77.496 279.296 77.496 279.295 77.496 279.295 77.496 279.295 77.496 279.295 77.496 279.295 77.496 279.295 77.496 279.295 77.496 279.295 77.496 279.296 77.496 279.295 77.496 279.295 77.496 279.295 77.496 279.295 77.496 279.295 77.496 279.295 77.496 279.295 77.496 279.295 77.496 279.295 77.496 279.295 77.496 279.295 77.496 279.295 77.496 279.295 77.496 279.295 77.496 279.295 77.496 279.295 77.496 279.296 77.496 279.295 77.496 279.295 77.496 279.295 77.496 279.295 77.496 279.295 77.496 279.295 77.496 279.295 77.496 279.295 77.496 279.296 77.496 279.295 77.496 279.295 77.496 279.296 77.496 279.295 77.496 279.296 77.496 279.295 77.496 279.295 77.496 279.295 77.496 279.296 77.496 279.295 77.496 279.295 77.496 279.295 77.496 279.296 77.496 279.295 77.496 279.296 77.496 279.295 77.496 279.295 77.496 279.295 77.496 279.295 77.496 279.296 77.496 279.295 77.496 279.295 77.496 279.296 77.496 279.295 77.496 279.295 77.496 279.296 77.496 279.296 77.496 279.295 77.496 279.295 77.496 279.295 77.496 279.296 77.496 279.295 77.496 279.295 77.496 279.295 77.496 279.295 77.496 279.295 77.496 279.295 77.496 279.295 77.496 279.296 77.496 279.295 77.496 279.295 77.496 279.295 77.496 279.295 77.496 279.295 77.496 279.295 77.496 279.295 77.496 279.295 77.496 279.295 77.496 279.295 77.496 279.295 77.496 279.295 77.496 279.295 77.496 279.295 77.496 279.296 77.496 279.295 77.496 279.295 77.496 279.296 77.496 279.296 77.496 279.296 77.496 279.295 77.496 279.295 77.496 279.295 77.496 279.296 77.496 279.295 77.496 279.296"/>
  <g>
    <rect class="cls-7" x="480.802" y="162.093" width="28" height="168" transform="translate(248.709 740.894) rotate(-90)"/>
    <rect class="cls-7" x="410.802" y="232.093" width="28" height="28" transform="translate(178.709 670.894) rotate(-90)"/>
    <rect class="cls-7" x="438.802" y="232.093" width="28" height="28" transform="translate(206.709 698.894) rotate(-90)"/>
    <rect class="cls-7" x="466.802" y="232.093" width="28" height="28" transform="translate(234.709 726.894) rotate(-90)"/>
    <rect class="cls-7" x="494.802" y="232.093" width="28" height="28" transform="translate(262.709 754.894) rotate(-90)"/>
    <rect class="cls-7" x="522.802" y="232.093" width="28" height="28" transform="translate(290.709 782.894) rotate(-90)"/>
    <rect class="cls-7" x="550.802" y="232.093" width="28" height="28" transform="translate(318.709 810.894) rotate(-90)"/>
  </g>
  <g>
    <line class="cls-3" x1="305" y1="245.093" x2="377.847" y2="245.093"/>
    <polygon class="cls-10" points="373.634 250.647 375.994 245.093 373.634 239.538 386.802 245.093 373.634 250.647"/>
  </g>
  <g class="cls-9">
    <path class="cls-10" d="m194.825,250.048c.546.364,1.275.956,1.639.956.683,0,1.227-.637,1.227-1.275,0-.681-.317-.818-1.045-1.182-.592-.319-3.412-1.593-6.279-3.048l6.37-3.048c.637-.364.954-.501.954-1.184,0-.637-.544-1.273-1.227-1.273-.41,0-.683.226-.82.317l-5.778,4.277.637-7.144c.045-.635.045-1.774-1.184-1.774-.683,0-1.318.592-1.182,1.184v.59l.635,7.098-4.959-3.595c-.546-.364-1.275-.954-1.637-.954-.683,0-1.229.635-1.229,1.273,0,.683.455.911.911,1.138l6.415,3.094-6.37,3.048c-.637.364-.956.501-.956,1.182,0,.637.546,1.275,1.229,1.275.317,0,1.045-.546,1.546-.911l5.05-3.64-.681,7.645c0,.819.726,1.184,1.227,1.184s1.229-.364,1.229-1.184c0-.137-.228-2.274-.228-2.456,0-.046-.182-1.821-.228-2.73l-.228-2.458,4.958,3.595m-5.505,9.464c-7.734,0-14.012-6.279-14.012-14.012s6.279-14.014,14.012-14.014,14.014,6.279,14.014,14.014-6.279,14.012-14.014,14.012Zm15.151-14.012c0-8.373-6.825-15.151-15.151-15.151-8.371,0-15.151,6.823-15.151,15.151,0,8.371,6.825,15.151,15.151,15.151,8.371,0,15.151-6.825,15.151-15.151Z"/>
  </g>
  <g>
    <g>
      <rect class="cls-6" x="884.802" y="-39.907" width="28" height="168" transform="translate(854.709 942.894) rotate(-90)"/>
      <rect class="cls-6" x="814.802" y="30.093" width="28" height="28" transform="translate(784.709 872.894) rotate(-90)"/>
      <rect class="cls-6" x="842.802" y="30.093" width="28" height="28" transform="translate(812.709 900.894) rotate(-90)"/>
      <rect class="cls-6" x="870.802" y="30.093" width="28" height="28" transform="translate(840.709 928.894) rotate(-90)"/>
      <rect class="cls-6" x="898.802" y="30.093" width="28" height="28" transform="translate(868.709 956.894) rotate(-90)"/>
      <rect class="cls-6" x="926.802" y="30.093" width="28" height="28" transform="translate(896.709 984.894) rotate(-90)"/>
      <rect class="cls-6" x="954.802" y="30.093" width="28" height="28" transform="translate(924.709 1012.894) rotate(-90)"/>
    </g>
    <text class="cls-26" transform="translate(823.061 52.191)"><tspan x="0" y="0">0</tspan></text>
    <text class="cls-26" transform="translate(851.699 52.191)"><tspan x="0" y="0">1</tspan></text>
    <text class="cls-26" transform="translate(879.7 52.191)"><tspan x="0" y="0">2</tspan></text>
    <text class="cls-26" transform="translate(907.7 52.191)"><tspan x="0" y="0">3</tspan></text>
    <text class="cls-26" transform="translate(935.699 52.191)"><tspan x="0" y="0">4</tspan></text>
    <text class="cls-26" transform="translate(963.699 52.191)"><tspan x="0" y="0">5</tspan></text>
  </g>
  <g>
    <g>
      <rect class="cls-8" x="744.802" y="32.093" width="28" height="168" transform="translate(642.709 874.894) rotate(-90)"/>
      <rect class="cls-8" x="674.802" y="102.093" width="28" height="28" transform="translate(572.709 804.894) rotate(-90)"/>
      <rect class="cls-8" x="702.802" y="102.093" width="28" height="28" transform="translate(600.709 832.894) rotate(-90)"/>
      <rect class="cls-8" x="730.802" y="102.093" width="28" height="28" transform="translate(628.709 860.894) rotate(-90)"/>
      <rect class="cls-8" x="758.802" y="102.093" width="28" height="28" transform="translate(656.709 888.894) rotate(-90)"/>
      <rect class="cls-8" x="786.802" y="102.093" width="28" height="28" transform="translate(684.709 916.894) rotate(-90)"/>
      <rect class="cls-8" x="814.802" y="102.093" width="28" height="28" transform="translate(712.709 944.894) rotate(-90)"/>
    </g>
    <text class="cls-26" transform="translate(822.938 123.332)"><tspan x="0" y="0">0</tspan></text>
    <text class="cls-26" transform="translate(795.576 123.332)"><tspan x="0" y="0">1</tspan></text>
    <text class="cls-26" transform="translate(767.576 123.332)"><tspan x="0" y="0">2</tspan></text>
    <text class="cls-26" transform="translate(739.577 123.332)"><tspan x="0" y="0">3</tspan></text>
    <text class="cls-26" transform="translate(711.576 123.331)"><tspan x="0" y="0">4</tspan></text>
    <text class="cls-26" transform="translate(683.576 123.332)"><tspan x="0" y="0">5</tspan></text>
  </g>
  <g>
    <line class="cls-4" x1="828.802" y1="69.335" x2="828.802" y2="89.85"/>
    <path class="cls-11" d="m828.802,62.093c-1.264,3.408-3.422,7.636-5.707,10.257l5.707-2.064,5.706,2.064c-2.285-2.621-4.443-6.849-5.706-10.257Z"/>
    <path class="cls-11" d="m828.802,97.093c-1.264-3.408-3.422-7.636-5.707-10.257l5.707,2.064,5.706-2.064c-2.285,2.621-4.443,6.849-5.706,10.257Z"/>
  </g>
  <g>
    <g>
      <rect class="cls-6" x="884.526" y="104.439" width="28" height="168" transform="translate(710.087 1086.966) rotate(-90)"/>
      <rect class="cls-6" x="814.526" y="174.439" width="28" height="28" transform="translate(640.087 1016.966) rotate(-90)"/>
      <rect class="cls-6" x="842.526" y="174.439" width="28" height="28" transform="translate(668.087 1044.966) rotate(-90)"/>
      <rect class="cls-6" x="870.526" y="174.439" width="28" height="28" transform="translate(696.087 1072.966) rotate(-90)"/>
      <rect class="cls-6" x="898.526" y="174.439" width="28" height="28" transform="translate(724.087 1100.966) rotate(-90)"/>
      <rect class="cls-6" x="926.526" y="174.439" width="28" height="28" transform="translate(752.087 1128.966) rotate(-90)"/>
      <rect class="cls-6" x="954.526" y="174.439" width="28" height="28" transform="translate(780.087 1156.966) rotate(-90)"/>
    </g>
    <text class="cls-26" transform="translate(822.785 196.538)"><tspan x="0" y="0">0</tspan></text>
    <text class="cls-26" transform="translate(851.424 196.538)"><tspan x="0" y="0">1</tspan></text>
    <text class="cls-26" transform="translate(879.424 196.538)"><tspan x="0" y="0">2</tspan></text>
    <text class="cls-26" transform="translate(907.424 196.538)"><tspan x="0" y="0">3</tspan></text>
    <text class="cls-26" transform="translate(935.424 196.538)"><tspan x="0" y="0">4</tspan></text>
    <text class="cls-26" transform="translate(963.424 196.538)"><tspan x="0" y="0">5</tspan></text>
  </g>
  <g>
    <g>
      <rect class="cls-8" x="772.526" y="176.439" width="28" height="168" transform="translate(526.087 1046.966) rotate(-90)"/>
      <rect class="cls-8" x="702.526" y="246.439" width="28" height="28" transform="translate(456.087 976.966) rotate(-90)"/>
      <rect class="cls-8" x="730.526" y="246.439" width="28" height="28" transform="translate(484.087 1004.966) rotate(-90)"/>
      <rect class="cls-8" x="758.526" y="246.439" width="28" height="28" transform="translate(512.087 1032.966) rotate(-90)"/>
      <rect class="cls-8" x="786.526" y="246.439" width="28" height="28" transform="translate(540.087 1060.966) rotate(-90)"/>
      <rect class="cls-8" x="814.526" y="246.439" width="28" height="28" transform="translate(568.087 1088.966) rotate(-90)"/>
      <rect class="cls-8" x="842.526" y="246.439" width="28" height="28" transform="translate(596.087 1116.966) rotate(-90)"/>
    </g>
    <text class="cls-26" transform="translate(850.662 267.679)"><tspan x="0" y="0">0</tspan></text>
    <text class="cls-26" transform="translate(823.301 267.679)"><tspan x="0" y="0">1</tspan></text>
    <text class="cls-26" transform="translate(795.301 267.679)"><tspan x="0" y="0">2</tspan></text>
    <text class="cls-26" transform="translate(767.301 267.678)"><tspan x="0" y="0">3</tspan></text>
    <text class="cls-26" transform="translate(739.3 267.678)"><tspan x="0" y="0">4</tspan></text>
    <text class="cls-26" transform="translate(711.3 267.679)"><tspan x="0" y="0">5</tspan></text>
  </g>
  <g>
    <line class="cls-4" x1="828.526" y1="213.682" x2="828.526" y2="234.197"/>
    <path class="cls-11" d="m828.526,206.439c-1.264,3.408-3.422,7.636-5.707,10.257l5.707-2.064,5.706,2.064c-2.285-2.621-4.443-6.849-5.706-10.257Z"/>
    <path class="cls-11" d="m828.526,241.439c-1.264-3.408-3.422-7.636-5.707-10.257l5.707,2.064,5.706-2.064c-2.285,2.621-4.443,6.849-5.706,10.257Z"/>
  </g>
  <g>
    <line class="cls-4" x1="856.802" y1="214.335" x2="856.802" y2="234.85"/>
    <path class="cls-11" d="m856.802,207.093c-1.264,3.408-3.422,7.636-5.707,10.257l5.707-2.064,5.706,2.064c-2.285-2.621-4.443-6.849-5.706-10.257Z"/>
    <path class="cls-11" d="m856.802,242.093c-1.264-3.408-3.422-7.636-5.707-10.257l5.707,2.064,5.706-2.064c-2.285,2.621-4.443,6.849-5.706,10.257Z"/>
  </g>
  <g>
    <g>
      <rect class="cls-6" x="884.625" y="240.129" width="28" height="168" transform="translate(574.496 1222.753) rotate(-90)"/>
      <rect class="cls-6" x="814.625" y="310.129" width="28" height="28" transform="translate(504.496 1152.753) rotate(-90)"/>
      <rect class="cls-6" x="842.625" y="310.129" width="28" height="28" transform="translate(532.496 1180.753) rotate(-90)"/>
      <rect class="cls-6" x="870.625" y="310.129" width="28" height="28" transform="translate(560.496 1208.753) rotate(-90)"/>
      <rect class="cls-6" x="898.625" y="310.129" width="28" height="28" transform="translate(588.496 1236.753) rotate(-90)"/>
      <rect class="cls-6" x="926.625" y="310.129" width="28" height="28" transform="translate(616.496 1264.753) rotate(-90)"/>
      <rect class="cls-6" x="954.625" y="310.129" width="28" height="28" transform="translate(644.496 1292.753) rotate(-90)"/>
    </g>
    <text class="cls-26" transform="translate(822.883 332.227)"><tspan x="0" y="0">0</tspan></text>
    <text class="cls-26" transform="translate(851.522 332.227)"><tspan x="0" y="0">1</tspan></text>
    <text class="cls-26" transform="translate(879.522 332.227)"><tspan x="0" y="0">2</tspan></text>
    <text class="cls-26" transform="translate(907.522 332.228)"><tspan x="0" y="0">3</tspan></text>
    <text class="cls-26" transform="translate(935.522 332.228)"><tspan x="0" y="0">4</tspan></text>
    <text class="cls-26" transform="translate(963.522 332.227)"><tspan x="0" y="0">5</tspan></text>
  </g>
  <g>
    <g>
      <rect class="cls-8" x="800.625" y="312.129" width="28" height="168" transform="translate(418.496 1210.753) rotate(-90)"/>
      <rect class="cls-8" x="730.625" y="382.129" width="28" height="28" transform="translate(348.496 1140.753) rotate(-90)"/>
      <rect class="cls-8" x="758.625" y="382.129" width="28" height="28" transform="translate(376.496 1168.753) rotate(-90)"/>
      <rect class="cls-8" x="786.625" y="382.129" width="28" height="28" transform="translate(404.496 1196.753) rotate(-90)"/>
      <rect class="cls-8" x="814.625" y="382.129" width="28" height="28" transform="translate(432.496 1224.753) rotate(-90)"/>
      <rect class="cls-8" x="842.625" y="382.129" width="28" height="28" transform="translate(460.496 1252.753) rotate(-90)"/>
      <rect class="cls-8" x="870.625" y="382.129" width="28" height="28" transform="translate(488.496 1280.753) rotate(-90)"/>
    </g>
    <text class="cls-26" transform="translate(878.76 403.368)"><tspan x="0" y="0">0</tspan></text>
    <text class="cls-26" transform="translate(851.399 403.368)"><tspan x="0" y="0">1</tspan></text>
    <text class="cls-26" transform="translate(823.399 403.368)"><tspan x="0" y="0">2</tspan></text>
    <text class="cls-26" transform="translate(795.399 403.368)"><tspan x="0" y="0">3</tspan></text>
    <text class="cls-26" transform="translate(767.399 403.367)"><tspan x="0" y="0">4</tspan></text>
    <text class="cls-26" transform="translate(739.399 403.368)"><tspan x="0" y="0">5</tspan></text>
  </g>
  <g>
    <line class="cls-4" x1="828.625" y1="349.371" x2="828.625" y2="369.887"/>
    <path class="cls-11" d="m828.625,342.129c-1.264,3.408-3.422,7.636-5.707,10.257l5.707-2.064,5.706,2.064c-2.285-2.621-4.443-6.849-5.706-10.257Z"/>
    <path class="cls-11" d="m828.625,377.129c-1.264-3.408-3.422-7.636-5.707-10.257l5.707,2.064,5.706-2.064c-2.285,2.621-4.443,6.849-5.706,10.257Z"/>
  </g>
  <g>
    <line class="cls-4" x1="856.9" y1="350.024" x2="856.9" y2="370.54"/>
    <path class="cls-11" d="m856.9,342.782c-1.264,3.408-3.422,7.636-5.707,10.257l5.707-2.064,5.706,2.064c-2.285-2.621-4.443-6.849-5.706-10.257Z"/>
    <path class="cls-11" d="m856.9,377.782c-1.264-3.408-3.422-7.636-5.707-10.257l5.707,2.064,5.706-2.064c-2.285,2.621-4.443,6.849-5.706,10.257Z"/>
  </g>
  <g>
    <line class="cls-4" x1="884.802" y1="350.335" x2="884.802" y2="370.85"/>
    <path class="cls-11" d="m884.802,343.093c-1.264,3.408-3.422,7.636-5.707,10.257l5.707-2.064,5.706,2.064c-2.285-2.621-4.443-6.849-5.706-10.257Z"/>
    <path class="cls-11" d="m884.802,378.093c-1.264-3.408-3.422-7.636-5.707-10.257l5.707,2.064,5.706-2.064c-2.285,2.621-4.443,6.849-5.706,10.257Z"/>
  </g>
  <polygon class="cls-5" points="1054.948 82.422 1054.948 82.422 1054.948 82.422 1054.948 82.422 1054.948 82.422 1054.948 82.422 1054.948 82.422 1054.948 82.422 1054.948 82.422 1054.948 82.422 1054.948 82.422 1054.948 82.422 1054.948 82.422 1054.948 82.422 1054.948 82.422 1054.948 82.422 1054.948 82.422 1054.948 82.422 1054.948 82.422 1054.948 82.422 1054.948 82.422 1054.948 82.422 1054.948 82.422 1054.948 82.422 1054.948 82.422 1054.948 82.422 1054.948 82.422 1054.948 82.422 1054.948 82.422 1054.948 82.422 1054.948 82.422 1054.948 82.422 1054.948 82.422 1054.948 82.422 1054.948 82.422 1054.948 82.422 1054.948 82.422 1054.948 82.422 1054.948 82.422 1054.948 82.422 1054.948 82.422 1054.948 82.422 1054.948 82.422 1054.948 82.422 1054.948 82.422 1054.948 82.422 1054.948 82.422 1054.948 82.422 1054.948 82.422 1054.948 82.422 1054.948 82.422 1054.948 82.422 1054.948 82.422 1054.948 82.422 1054.948 82.422 1054.948 82.422 1054.948 82.422 1054.948 82.422 1054.948 82.422 1054.948 82.422 1054.948 82.422 1054.948 82.422 1054.948 82.422 1054.948 82.422 1054.948 82.422 1054.948 82.422 1054.948 82.422 1054.948 82.422 1054.948 82.422 1054.948 82.422 1054.948 82.422 1054.948 82.422 1054.948 82.422 1054.948 82.422 1054.948 82.422 1054.948 82.422 1054.948 82.422 1054.948 82.422 1054.948 82.422 1054.948 82.422 1054.948 82.422 1054.948 82.422 1054.948 82.422 1054.948 82.422 1054.948 82.422 1054.948 82.422 1054.948 82.422 1054.948 82.422 1054.948 82.422 1054.948 82.422 1054.948 82.422 1054.948 82.422 1054.948 82.422 1054.948 82.422 1054.948 82.422 1054.948 82.422 1054.948 82.422 1054.948 82.422 1054.948 82.422 1054.948 82.422 1054.948 82.422 1054.948 82.422 1054.948 82.422 1054.948 82.422 1054.948 82.422 1054.948 82.422 1054.948 82.422 1054.948 82.422 1054.948 82.422 1054.948 82.422 1054.948 82.422 1054.948 82.422 1054.948 82.422 1054.948 82.422 1054.948 82.422 1054.948 82.422 1054.948 82.422 1054.948 82.422 1054.948 82.422 1054.948 82.422 1054.948 82.422 1054.948 82.422 1054.948 82.422 1054.948 82.422 1054.948 82.422 1054.948 82.422 1054.948 82.422 1054.948 82.422 1054.948 82.422 1054.948 82.422 1054.948 82.422 1054.948 82.422 1054.948 82.422 1054.948 82.422 1054.948 82.422 1054.948 82.422 1054.948 82.422 1054.948 82.422 1054.948 82.422 1054.948 82.422 1054.948 82.422 1054.948 82.422 1054.948 82.422 1054.948 82.422 1054.948 82.422 1054.948 82.422 1054.948 82.422 1054.948 82.422 1054.948 82.422 1054.948 82.422 1054.948 82.422 1054.948 82.422 1054.948 82.422"/>
  <polygon class="cls-5" points="1059.097 221.411 1059.097 221.411 1059.097 221.411 1059.097 221.411 1059.097 221.411 1059.097 221.411 1059.097 221.411 1059.097 221.411 1059.097 221.411 1059.097 221.411 1059.097 221.411 1059.097 221.411 1059.097 221.411 1059.097 221.411 1059.097 221.411 1059.097 221.411 1059.097 221.411 1059.097 221.411 1059.097 221.411 1059.097 221.411 1059.097 221.411 1059.097 221.411 1059.097 221.411 1059.097 221.411 1059.097 221.411 1059.097 221.411 1059.097 221.411 1059.097 221.411 1059.097 221.411 1059.097 221.411 1059.097 221.411 1059.097 221.411 1059.097 221.411 1059.097 221.411 1059.097 221.411 1059.097 221.411 1059.097 221.411 1059.097 221.411 1059.097 221.411 1059.097 221.411 1059.097 221.411 1059.097 221.411 1059.097 221.411 1059.097 221.411 1059.097 221.411 1059.097 221.411 1059.097 221.411 1059.097 221.411 1059.097 221.411 1059.097 221.411 1059.097 221.411 1059.097 221.411 1059.097 221.411 1059.097 221.411 1059.097 221.411 1059.097 221.411 1059.097 221.411 1059.097 221.411 1059.097 221.411 1059.097 221.411 1059.097 221.411 1059.097 221.411 1059.097 221.411 1059.097 221.411 1059.097 221.411 1059.097 221.411 1059.097 221.411 1059.097 221.411 1059.097 221.411 1059.097 221.411 1059.097 221.411 1059.097 221.411 1059.097 221.411 1059.097 221.411 1059.097 221.411 1059.097 221.411 1059.097 221.411 1059.097 221.411 1059.097 221.411 1059.097 221.411 1059.097 221.411 1059.097 221.411 1059.097 221.411 1059.097 221.411 1059.097 221.411 1059.097 221.411 1059.097 221.411 1059.097 221.411 1059.097 221.411 1059.097 221.411 1059.097 221.411 1059.097 221.411 1059.097 221.411 1059.097 221.411 1059.097 221.411 1059.097 221.411 1059.097 221.411 1059.097 221.411 1059.097 221.411 1059.097 221.411 1059.097 221.411 1059.097 221.411 1059.097 221.411 1059.097 221.411 1059.097 221.411 1059.097 221.411 1059.097 221.411 1059.097 221.411 1059.097 221.411 1059.097 221.411 1059.097 221.411 1059.097 221.411 1059.097 221.411 1059.097 221.411 1059.097 221.411 1059.097 221.411 1059.097 221.411 1059.097 221.411 1059.097 221.411 1059.097 221.411 1059.097 221.411 1059.097 221.411 1059.097 221.411 1059.097 221.411 1059.097 221.411 1059.097 221.411 1059.097 221.411 1059.097 221.411 1059.097 221.411 1059.097 221.411 1059.097 221.411 1059.097 221.411 1059.097 221.411 1059.097 221.411 1059.097 221.411 1059.097 221.411 1059.097 221.411 1059.097 221.411 1059.097 221.411 1059.097 221.411 1059.097 221.411 1059.097 221.411 1059.097 221.411 1059.097 221.411 1059.097 221.411 1059.097 221.411 1059.097 221.411 1059.097 221.411 1059.097 221.411 1059.097 221.411 1059.097 221.411 1059.097 221.411 1059.097 221.411"/>
  <polygon class="cls-5" points="1095.054 342.422 1095.054 342.422 1095.054 342.422 1095.054 342.422 1095.054 342.422 1095.054 342.422 1095.054 342.422 1095.054 342.422 1095.054 342.422 1095.054 342.422 1095.054 342.422 1095.054 342.422 1095.054 342.422 1095.054 342.422 1095.054 342.422 1095.054 342.422 1095.054 342.422 1095.054 342.422 1095.054 342.422 1095.054 342.422 1095.054 342.422 1095.054 342.422 1095.054 342.422 1095.054 342.422 1095.054 342.422 1095.054 342.422 1095.054 342.422 1095.054 342.422 1095.054 342.422 1095.054 342.422 1095.054 342.422 1095.054 342.422 1095.054 342.422 1095.054 342.422 1095.054 342.422 1095.054 342.422 1095.054 342.422 1095.054 342.422 1095.054 342.422 1095.054 342.422 1095.054 342.422 1095.054 342.422 1095.054 342.422 1095.054 342.422 1095.054 342.422 1095.054 342.422 1095.054 342.422 1095.054 342.422 1095.054 342.422 1095.054 342.422 1095.054 342.422 1095.054 342.422 1095.054 342.422 1095.054 342.422 1095.054 342.422 1095.054 342.422 1095.054 342.422 1095.054 342.422 1095.054 342.422 1095.054 342.422 1095.054 342.422 1095.054 342.422 1095.054 342.422 1095.054 342.422 1095.054 342.422 1095.054 342.422 1095.054 342.422 1095.054 342.422 1095.054 342.422 1095.054 342.422 1095.054 342.422 1095.054 342.422 1095.054 342.422 1095.054 342.422 1095.054 342.422 1095.054 342.422 1095.054 342.422 1095.054 342.422 1095.054 342.422 1095.054 342.422 1095.054 342.422 1095.054 342.422 1095.054 342.422 1095.054 342.422 1095.054 342.422 1095.054 342.422 1095.054 342.422 1095.054 342.422 1095.054 342.422 1095.054 342.422 1095.054 342.422 1095.054 342.422 1095.054 342.422 1095.054 342.422 1095.054 342.422 1095.054 342.422 1095.054 342.422 1095.054 342.422 1095.054 342.422 1095.054 342.422 1095.054 342.422 1095.054 342.422 1095.054 342.422 1095.054 342.422 1095.054 342.422 1095.054 342.422 1095.054 342.422 1095.054 342.422 1095.054 342.422 1095.054 342.422 1095.054 342.422 1095.054 342.422 1095.054 342.422 1095.054 342.422 1095.054 342.422 1095.054 342.422 1095.054 342.422 1095.054 342.422 1095.054 342.422 1095.054 342.422 1095.054 342.422 1095.054 342.422 1095.054 342.422 1095.054 342.422 1095.054 342.422 1095.054 342.422 1095.054 342.422 1095.054 342.422 1095.054 342.422 1095.054 342.422 1095.054 342.422 1095.054 342.422 1095.054 342.422 1095.054 342.422 1095.054 342.422 1095.054 342.422 1095.054 342.422 1095.054 342.422 1095.054 342.422 1095.054 342.422 1095.054 342.422 1095.054 342.422 1095.054 342.422 1095.054 342.422 1095.054 342.422 1095.054 342.422 1095.054 342.422 1095.054 342.422 1095.054 342.422 1095.054 342.422 1095.054 342.422 1095.054 342.422 1095.054 342.422"/>
  <g>
    <line class="cls-3" x1="1002.802" y1="79.093" x2="1032.847" y2="79.093"/>
    <polygon class="cls-10" points="1028.635 84.647 1030.994 79.093 1028.635 73.538 1041.802 79.093 1028.635 84.647"/>
  </g>
  <polygon class="cls-5" points="279.293 359.75 279.293 359.749 279.293 359.75 279.293 359.749 279.293 359.75 279.293 359.75 279.293 359.75 279.293 359.749 279.293 359.75 279.293 359.75 279.293 359.749 279.293 359.75 279.293 359.75 279.293 359.749 279.293 359.75 279.293 359.749 279.293 359.749 279.293 359.749 279.293 359.75 279.293 359.75 279.293 359.749 279.293 359.75 279.293 359.749 279.293 359.75 279.293 359.749 279.293 359.75 279.293 359.75 279.293 359.75 279.293 359.75 279.293 359.749 279.293 359.749 279.293 359.749 279.293 359.75 279.293 359.75 279.293 359.75 279.293 359.75 279.293 359.75 279.293 359.75 279.293 359.749 279.293 359.75 279.293 359.75 279.293 359.75 279.293 359.75 279.293 359.75 279.293 359.75 279.293 359.75 279.293 359.75 279.293 359.75 279.293 359.75 279.293 359.75 279.293 359.75 279.293 359.749 279.293 359.749 279.293 359.75 279.293 359.749 279.293 359.749 279.293 359.749 279.293 359.749 279.293 359.75 279.293 359.75 279.293 359.75 279.293 359.749 279.293 359.75 279.293 359.75 279.293 359.75 279.293 359.749 279.293 359.749 279.293 359.749 279.293 359.75 279.293 359.75 279.293 359.75 279.293 359.749 279.293 359.75 279.293 359.75 279.293 359.749 279.293 359.749 279.293 359.75 279.293 359.75 279.293 359.749 279.293 359.749 279.293 359.75 279.293 359.75 279.293 359.749 279.293 359.749 279.293 359.749 279.293 359.75 279.293 359.749 279.293 359.749 279.293 359.75 279.293 359.749 279.293 359.75 279.293 359.75 279.293 359.75 279.293 359.749 279.293 359.749 279.293 359.749 279.293 359.749 279.293 359.75 279.293 359.749 279.293 359.75 279.293 359.749 279.293 359.749 279.293 359.75 279.293 359.75 279.293 359.749 279.293 359.75 279.293 359.75 279.293 359.75 279.293 359.75 279.293 359.75 279.293 359.75 279.293 359.75 279.293 359.75 279.293 359.749 279.293 359.75 279.293 359.75 279.293 359.75 279.293 359.75 279.293 359.749 279.293 359.749 279.293 359.75 279.293 359.75 279.293 359.749 279.293 359.75 279.293 359.75 279.293 359.749 279.293 359.749 279.293 359.75 279.293 359.75 279.293 359.749 279.293 359.75 279.293 359.75 279.293 359.749 279.293 359.749 279.293 359.749 279.293 359.749 279.293 359.75 279.293 359.75 279.293 359.75 279.293 359.749 279.293 359.749 279.293 359.75 279.293 359.749 279.293 359.749 279.293 359.749 279.293 359.75 279.293 359.749 279.293 359.75 279.293 359.749 279.293 359.75 279.293 359.75 279.293 359.75 279.293 359.75 279.293 359.75 279.293 359.75"/>
  <g class="cls-13">
    <path class="cls-10" d="m1077.544,68.167c.144-.503.144-.575.144-.827,0-.647-.503-.97-1.042-.97-.359,0-.933.216-1.256.755-.072.18-.359,1.294-.503,1.939-.252.934-.503,1.905-.719,2.873l-1.616,6.464c-.144.539-1.688,3.053-4.058,3.053-1.833,0-2.228-1.58-2.228-2.909,0-1.652.611-3.878,1.833-7.039.573-1.472.717-1.867.717-2.586,0-1.616-1.148-2.944-2.944-2.944-3.413,0-4.741,5.206-4.741,5.53,0,.359.358.359.43.359.359,0,.395-.072.575-.647.97-3.375,2.406-4.453,3.628-4.453.287,0,.897,0,.897,1.15,0,.897-.359,1.831-.609,2.514-1.438,3.806-2.084,5.853-2.084,7.542,0,3.195,2.262,4.273,4.383,4.273,1.4,0,2.62-.611,3.627-1.616-.467,1.867-.898,3.627-2.334,5.53-.934,1.222-2.298,2.263-3.95,2.263-.503,0-2.119-.108-2.73-1.508.575,0,1.041,0,1.544-.431.359-.323.719-.791.719-1.472,0-1.114-.97-1.258-1.33-1.258-.825,0-2.011.575-2.011,2.334,0,1.795,1.581,3.125,3.808,3.125,3.698,0,7.398-3.269,8.403-7.327l3.448-13.719"/>
    <path class="cls-10" d="m1084.708,87.05c-1.153,0-2.683-.677-3.184-2.733-.35-1.478-.35-3.533-.35-5.387,0-1.83,0-3.736.375-5.114.527-1.98,2.131-2.506,3.159-2.506,1.353,0,2.656.826,3.108,2.281.4,1.353.425,3.158.425,5.339,0,1.855,0,3.709-.325,5.287-.502,2.281-2.206,2.833-3.208,2.833m5.814-7.795c0-2.756-.326-4.737-1.478-6.491-.778-1.153-2.331-2.156-4.336-2.156-5.816,0-5.816,6.842-5.816,8.647s0,8.497,5.816,8.497,5.814-6.692,5.814-8.497Z"/>
    <path class="cls-10" d="m1128.399,77.073c.503,0,1.184,0,1.184-.719s-.681-.717-1.22-.717h-21.441c-.539,0-1.222,0-1.222.717s.683.719,1.186.719h21.513m-.036-6.967c.539,0,1.22,0,1.22-.719s-.681-.719-1.184-.719h-21.513c-.503,0-1.186,0-1.186.719s.683.719,1.222.719h21.441Z"/>
    <path class="cls-10" d="m1154.16,79.839c.395,1.472,1.652,2.406,3.195,2.406,1.258,0,2.084-.827,2.658-1.975.611-1.294,1.079-3.484,1.079-3.556,0-.359-.324-.359-.432-.359-.359,0-.395.144-.503.647-.503,2.011-1.184,4.453-2.694,4.453-.753,0-1.113-.467-1.113-1.652,0-.791.431-2.478.719-3.736l1.005-3.878c.108-.539.467-1.903.611-2.442.18-.827.539-2.191.539-2.406,0-.647-.503-.97-1.042-.97-.18,0-1.112.036-1.4,1.258-.683,2.622-2.262,8.906-2.694,10.809-.036.144-1.473,3.017-4.094,3.017-1.869,0-2.228-1.616-2.228-2.945,0-2.011,1.006-4.849,1.941-7.327.43-1.077.609-1.58.609-2.263,0-1.616-1.148-2.944-2.944-2.944-3.412,0-4.741,5.206-4.741,5.53,0,.359.358.359.43.359.359,0,.395-.072.575-.647.898-3.123,2.262-4.453,3.628-4.453.323,0,.897.036.897,1.186,0,.861-.395,1.903-.609,2.442-1.33,3.555-2.084,5.781-2.084,7.542,0,3.411,2.478,4.309,4.419,4.309,2.37,0,3.662-1.616,4.273-2.406"/>
    <path class="cls-10" d="m1169.208,87.05c-1.153,0-2.683-.677-3.185-2.733-.35-1.478-.35-3.533-.35-5.387,0-1.83,0-3.736.375-5.114.527-1.98,2.132-2.506,3.16-2.506,1.353,0,2.656.826,3.108,2.281.4,1.353.425,3.158.425,5.339,0,1.855,0,3.709-.325,5.287-.502,2.281-2.207,2.833-3.208,2.833m5.814-7.795c0-2.756-.327-4.737-1.478-6.491-.778-1.153-2.332-2.156-4.336-2.156-5.816,0-5.816,6.842-5.816,8.647s0,8.497,5.816,8.497,5.814-6.692,5.814-8.497Z"/>
    <path class="cls-10" d="m1188.497,57.32c0-.036,0-.395-.467-.395-.827,0-3.449.288-4.382.359-.287.036-.682.072-.682.719,0,.431.323.431.862.431,1.724,0,1.795.251,1.795.609l-.107.719-5.208,20.687c-.144.502-.144.573-.144.789,0,.827.719,1.006,1.042,1.006.575,0,1.149-.431,1.328-.934l.683-2.73.791-3.231c.214-.791.429-1.581.609-2.406.072-.216.36-1.402.395-1.617.108-.322,1.222-2.334,2.443-3.303.79-.575,1.903-1.258,3.448-1.258s1.939,1.222,1.939,2.514c0,1.939-1.365,5.855-2.226,8.045-.288.827-.468,1.256-.468,1.975,0,1.688,1.258,2.945,2.946,2.945,3.375,0,4.704-5.244,4.704-5.531,0-.359-.323-.359-.431-.359-.359,0-.359.108-.539.647-.539,1.903-1.687,4.453-3.662,4.453-.611,0-.863-.359-.863-1.184,0-.898.324-1.761.647-2.55.575-1.545,2.191-5.819,2.191-7.902,0-2.334-1.436-3.842-4.13-3.842-2.263,0-3.988,1.112-5.316,2.764l2.802-11.42"/>
    <path class="cls-10" d="m1205.908,87.05c-1.153,0-2.683-.677-3.185-2.733-.35-1.478-.35-3.533-.35-5.387,0-1.83,0-3.736.375-5.114.527-1.98,2.132-2.506,3.16-2.506,1.353,0,2.656.826,3.108,2.281.4,1.353.425,3.158.425,5.339,0,1.855,0,3.709-.325,5.287-.502,2.281-2.207,2.833-3.208,2.833m5.814-7.795c0-2.756-.327-4.737-1.478-6.491-.778-1.153-2.332-2.156-4.336-2.156-5.816,0-5.816,6.842-5.816,8.647s0,8.497,5.816,8.497,5.814-6.692,5.814-8.497Z"/>
  </g>
  <polygon class="cls-5" points="1060.689 122.433 1060.689 122.433 1060.689 122.433 1060.689 122.433 1060.689 122.433 1060.689 122.433 1060.689 122.433 1060.689 122.433 1060.689 122.433 1060.689 122.433 1060.689 122.433 1060.689 122.433 1060.689 122.433 1060.689 122.433 1060.689 122.433 1060.689 122.433 1060.689 122.433 1060.689 122.433 1060.689 122.433 1060.689 122.433 1060.689 122.433 1060.689 122.433 1060.689 122.433 1060.689 122.433 1060.689 122.433 1060.689 122.433 1060.689 122.433 1060.689 122.433 1060.689 122.433 1060.689 122.433 1060.689 122.433 1060.689 122.433 1060.689 122.433 1060.689 122.433 1060.689 122.433 1060.689 122.433 1060.689 122.433 1060.689 122.433 1060.689 122.433 1060.689 122.433 1060.689 122.433 1060.689 122.433 1060.689 122.433 1060.689 122.433 1060.689 122.433 1060.689 122.433 1060.689 122.433 1060.689 122.433 1060.689 122.433 1060.689 122.433 1060.689 122.433 1060.689 122.433 1060.689 122.433 1060.689 122.433 1060.689 122.433 1060.689 122.433 1060.689 122.433 1060.689 122.433 1060.689 122.433 1060.689 122.433 1060.689 122.433 1060.689 122.433 1060.689 122.433 1060.689 122.433 1060.689 122.433 1060.689 122.433 1060.689 122.433 1060.689 122.433 1060.689 122.433 1060.689 122.433 1060.689 122.433 1060.689 122.433 1060.689 122.433 1060.689 122.433 1060.689 122.433 1060.689 122.433 1060.689 122.433 1060.689 122.433 1060.689 122.433 1060.689 122.433 1060.689 122.433 1060.689 122.433 1060.689 122.433 1060.689 122.433 1060.689 122.433 1060.689 122.433 1060.689 122.433 1060.689 122.433 1060.689 122.433 1060.689 122.433 1060.689 122.433 1060.689 122.433 1060.689 122.433 1060.689 122.433 1060.689 122.433 1060.689 122.433 1060.689 122.433 1060.689 122.433 1060.689 122.433 1060.689 122.433 1060.689 122.433 1060.689 122.433 1060.689 122.433 1060.689 122.433 1060.689 122.433 1060.689 122.433 1060.689 122.433 1060.689 122.433 1060.689 122.433 1060.689 122.433 1060.689 122.433 1060.689 122.433 1060.689 122.433 1060.689 122.433 1060.689 122.433 1060.689 122.433 1060.689 122.433 1060.689 122.433 1060.689 122.433 1060.689 122.433 1060.689 122.433 1060.689 122.433 1060.689 122.433 1060.689 122.433 1060.689 122.433 1060.689 122.433 1060.689 122.433 1060.689 122.433 1060.689 122.433 1060.689 122.433 1060.689 122.433 1060.689 122.433 1060.689 122.433 1060.689 122.433 1060.689 122.433 1060.689 122.433 1060.689 122.433 1060.689 122.433 1060.689 122.433 1060.689 122.433 1060.689 122.433 1060.689 122.433 1060.689 122.433 1060.689 122.433 1060.689 122.433 1060.689 122.433 1060.689 122.433 1060.689 122.433 1060.689 122.433 1060.689 122.433 1060.689 122.433 1060.689 122.433 1060.689 122.433 1060.689 122.433 1060.689 122.433 1060.689 122.433 1060.689 122.433"/>
  <g class="cls-16">
    <path class="cls-10" d="m1077.544,216.85c.144-.503.144-.575.144-.827,0-.647-.503-.97-1.042-.97-.359,0-.933.216-1.256.755-.072.18-.359,1.294-.503,1.939-.252.934-.503,1.905-.719,2.873l-1.616,6.464c-.144.539-1.688,3.053-4.058,3.053-1.833,0-2.228-1.58-2.228-2.909,0-1.652.611-3.878,1.833-7.039.573-1.472.717-1.867.717-2.586,0-1.616-1.148-2.944-2.944-2.944-3.413,0-4.741,5.206-4.741,5.53,0,.359.358.359.43.359.359,0,.395-.072.575-.647.97-3.375,2.406-4.453,3.628-4.453.287,0,.897,0,.897,1.15,0,.897-.359,1.831-.609,2.514-1.438,3.806-2.084,5.853-2.084,7.542,0,3.195,2.262,4.273,4.383,4.273,1.4,0,2.62-.611,3.627-1.616-.467,1.867-.898,3.627-2.334,5.53-.934,1.222-2.298,2.263-3.95,2.263-.503,0-2.119-.108-2.73-1.508.575,0,1.041,0,1.544-.431.359-.323.719-.791.719-1.472,0-1.114-.97-1.258-1.33-1.258-.825,0-2.011.575-2.011,2.334,0,1.795,1.581,3.125,3.808,3.125,3.698,0,7.398-3.269,8.403-7.327l3.448-13.719"/>
    <path class="cls-10" d="m1085.986,219.992c0-.677-.05-.702-.753-.702-1.603,1.58-3.884,1.605-4.913,1.605v.902c.601,0,2.256,0,3.634-.702v12.783c0,.827,0,1.153-2.506,1.153h-.952v.902c.45-.025,3.533-.1,4.461-.1.776,0,3.934.075,4.486.1v-.902h-.952c-2.506,0-2.506-.327-2.506-1.153v-13.886"/>
    <path class="cls-10" d="m1128.399,225.756c.503,0,1.184,0,1.184-.719s-.681-.717-1.22-.717h-21.441c-.539,0-1.222,0-1.222.717s.683.719,1.186.719h21.513m-.036-6.967c.539,0,1.22,0,1.22-.719s-.681-.719-1.184-.719h-21.513c-.503,0-1.186,0-1.186.719s.683.719,1.222.719h21.441Z"/>
    <path class="cls-10" d="m1154.06,228.522c.395,1.472,1.652,2.406,3.195,2.406,1.258,0,2.084-.827,2.658-1.975.611-1.294,1.079-3.484,1.079-3.556,0-.359-.324-.359-.432-.359-.359,0-.395.144-.503.647-.503,2.011-1.184,4.453-2.694,4.453-.753,0-1.112-.467-1.112-1.652,0-.791.431-2.478.719-3.736l1.005-3.878c.108-.539.467-1.903.611-2.442.18-.827.539-2.191.539-2.406,0-.647-.503-.97-1.042-.97-.18,0-1.113.036-1.4,1.258-.683,2.622-2.262,8.906-2.694,10.809-.036.144-1.473,3.017-4.094,3.017-1.869,0-2.228-1.616-2.228-2.945,0-2.011,1.006-4.849,1.941-7.327.43-1.077.609-1.58.609-2.263,0-1.616-1.148-2.944-2.944-2.944-3.412,0-4.741,5.206-4.741,5.53,0,.359.358.359.43.359.359,0,.395-.072.575-.647.898-3.123,2.263-4.453,3.628-4.453.323,0,.897.036.897,1.186,0,.861-.395,1.903-.609,2.442-1.33,3.555-2.084,5.781-2.084,7.542,0,3.411,2.478,4.309,4.419,4.309,2.37,0,3.663-1.616,4.273-2.406"/>
    <path class="cls-10" d="m1169.208,235.733c-1.153,0-2.683-.677-3.185-2.733-.35-1.478-.35-3.533-.35-5.387,0-1.83,0-3.736.375-5.114.527-1.98,2.132-2.506,3.16-2.506,1.353,0,2.656.826,3.108,2.281.4,1.353.425,3.158.425,5.339,0,1.855,0,3.709-.325,5.287-.502,2.281-2.207,2.833-3.208,2.833m5.814-7.795c0-2.756-.327-4.737-1.478-6.491-.778-1.153-2.332-2.156-4.336-2.156-5.816,0-5.816,6.842-5.816,8.647s0,8.497,5.816,8.497,5.814-6.692,5.814-8.497Z"/>
    <path class="cls-10" d="m1188.497,206.003c0-.036,0-.395-.467-.395-.827,0-3.449.288-4.382.359-.287.036-.682.072-.682.719,0,.431.323.431.862.431,1.724,0,1.795.251,1.795.609l-.107.719-5.208,20.687c-.144.502-.144.573-.144.789,0,.827.719,1.006,1.042,1.006.575,0,1.149-.431,1.328-.934l.683-2.73.791-3.231c.214-.791.429-1.581.609-2.406.072-.216.36-1.402.395-1.617.108-.322,1.222-2.334,2.443-3.303.79-.575,1.903-1.258,3.448-1.258s1.939,1.222,1.939,2.514c0,1.939-1.365,5.855-2.226,8.045-.288.827-.468,1.256-.468,1.975,0,1.688,1.258,2.945,2.946,2.945,3.375,0,4.704-5.244,4.704-5.531,0-.359-.323-.359-.431-.359-.359,0-.359.108-.539.647-.539,1.903-1.687,4.453-3.662,4.453-.611,0-.863-.359-.863-1.184,0-.898.324-1.761.647-2.55.575-1.545,2.191-5.819,2.191-7.902,0-2.334-1.436-3.842-4.13-3.842-2.263,0-3.988,1.112-5.316,2.764l2.802-11.42"/>
    <path class="cls-10" d="m1207.186,219.992c0-.677-.05-.702-.753-.702-1.603,1.58-3.885,1.605-4.913,1.605v.902c.602,0,2.257,0,3.635-.702v12.783c0,.827,0,1.153-2.507,1.153h-.951v.902c.45-.025,3.533-.1,4.461-.1.776,0,3.934.075,4.486.1v-.902h-.952c-2.506,0-2.506-.327-2.506-1.153v-13.886"/>
    <path class="cls-10" d="m1237.578,222.272h10.02c.504,0,1.185,0,1.185-.717s-.681-.719-1.185-.719h-10.02v-10.056c0-.503,0-1.184-.719-1.184s-.718.681-.718,1.184v10.056h-10.055c-.503,0-1.186,0-1.186.719s.683.717,1.186.717h10.055v10.056c0,.503,0,1.186.718,1.186s.719-.683.719-1.186v-10.056"/>
    <path class="cls-10" d="m1271.359,228.522c.396,1.472,1.652,2.406,3.196,2.406,1.257,0,2.084-.827,2.657-1.975.611-1.294,1.079-3.484,1.079-3.556,0-.359-.324-.359-.432-.359-.359,0-.395.144-.503.647-.503,2.011-1.184,4.453-2.694,4.453-.753,0-1.112-.467-1.112-1.652,0-.791.431-2.478.719-3.736l1.004-3.878c.108-.539.468-1.903.611-2.442.18-.827.539-2.191.539-2.406,0-.647-.503-.97-1.042-.97-.179,0-1.112.036-1.4,1.258-.683,2.622-2.262,8.906-2.694,10.809-.035.144-1.473,3.017-4.093,3.017-1.869,0-2.228-1.616-2.228-2.945,0-2.011,1.006-4.849,1.94-7.327.43-1.077.61-1.58.61-2.263,0-1.616-1.149-2.944-2.944-2.944-3.413,0-4.741,5.206-4.741,5.53,0,.359.358.359.43.359.359,0,.395-.072.575-.647.898-3.123,2.262-4.453,3.628-4.453.323,0,.897.036.897,1.186,0,.861-.395,1.903-.609,2.442-1.33,3.555-2.085,5.781-2.085,7.542,0,3.411,2.478,4.309,4.419,4.309,2.37,0,3.662-1.616,4.273-2.406"/>
    <path class="cls-10" d="m1287.686,219.992c0-.677-.05-.702-.753-.702-1.603,1.58-3.885,1.605-4.913,1.605v.902c.602,0,2.257,0,3.635-.702v12.783c0,.827,0,1.153-2.507,1.153h-.951v.902c.45-.025,3.533-.1,4.461-.1.776,0,3.934.075,4.486.1v-.902h-.952c-2.506,0-2.506-.327-2.506-1.153v-13.886"/>
    <path class="cls-10" d="m1305.697,206.003c0-.036,0-.395-.467-.395-.827,0-3.449.288-4.382.359-.287.036-.682.072-.682.719,0,.431.323.431.862.431,1.724,0,1.795.251,1.795.609l-.107.719-5.208,20.687c-.144.502-.144.573-.144.789,0,.827.719,1.006,1.042,1.006.575,0,1.149-.431,1.328-.934l.683-2.73.791-3.231c.214-.791.429-1.581.609-2.406.072-.216.36-1.402.395-1.617.108-.322,1.222-2.334,2.443-3.303.79-.575,1.903-1.258,3.448-1.258s1.939,1.222,1.939,2.514c0,1.939-1.365,5.855-2.226,8.045-.288.827-.468,1.256-.468,1.975,0,1.688,1.258,2.945,2.946,2.945,3.375,0,4.704-5.244,4.704-5.531,0-.359-.323-.359-.431-.359-.359,0-.359.108-.539.647-.539,1.903-1.687,4.453-3.662,4.453-.611,0-.863-.359-.863-1.184,0-.898.324-1.761.647-2.55.575-1.545,2.191-5.819,2.191-7.902,0-2.334-1.436-3.842-4.13-3.842-2.263,0-3.988,1.112-5.316,2.764l2.802-11.42"/>
    <path class="cls-10" d="m1323.108,235.733c-1.153,0-2.683-.677-3.185-2.733-.35-1.478-.35-3.533-.35-5.387,0-1.83,0-3.736.375-5.114.527-1.98,2.132-2.506,3.16-2.506,1.353,0,2.656.826,3.108,2.281.4,1.353.425,3.158.425,5.339,0,1.855,0,3.709-.325,5.287-.502,2.281-2.207,2.833-3.208,2.833m5.814-7.795c0-2.756-.327-4.737-1.478-6.491-.778-1.153-2.332-2.156-4.336-2.156-5.816,0-5.816,6.842-5.816,8.647s0,8.497,5.816,8.497,5.814-6.692,5.814-8.497Z"/>
  </g>
  <g class="cls-15">
    <path class="cls-10" d="m1078.044,350.164c.144-.503.144-.575.144-.827,0-.647-.503-.97-1.042-.97-.359,0-.933.216-1.256.755-.072.18-.359,1.294-.503,1.939-.252.934-.503,1.905-.719,2.873l-1.616,6.464c-.144.539-1.688,3.053-4.058,3.053-1.833,0-2.228-1.58-2.228-2.909,0-1.652.611-3.878,1.833-7.039.573-1.472.717-1.867.717-2.586,0-1.616-1.148-2.944-2.944-2.944-3.413,0-4.741,5.206-4.741,5.53,0,.359.358.359.43.359.359,0,.395-.072.575-.647.97-3.375,2.406-4.453,3.628-4.453.287,0,.897,0,.897,1.15,0,.897-.359,1.831-.609,2.514-1.438,3.806-2.084,5.853-2.084,7.542,0,3.195,2.263,4.273,4.383,4.273,1.4,0,2.62-.611,3.627-1.616-.467,1.867-.898,3.627-2.334,5.53-.934,1.222-2.298,2.263-3.95,2.263-.503,0-2.119-.108-2.73-1.508.575,0,1.041,0,1.544-.431.359-.323.719-.791.719-1.472,0-1.114-.97-1.258-1.33-1.258-.825,0-2.011.575-2.011,2.334,0,1.795,1.581,3.125,3.808,3.125,3.698,0,7.398-3.269,8.403-7.327l3.448-13.719"/>
    <path class="cls-10" d="m1090.847,364.686h-.853c-.075.55-.325,2.03-.652,2.28-.2.152-2.13.152-2.481.152h-4.611c2.631-2.331,3.508-3.033,5.013-4.211,1.855-1.48,3.584-3.033,3.584-5.414,0-3.033-2.658-4.888-5.866-4.888-3.108,0-5.212,2.181-5.212,4.486,0,1.278,1.077,1.405,1.328,1.405.602,0,1.328-.426,1.328-1.33,0-.45-.175-1.328-1.48-1.328.778-1.78,2.481-2.331,3.659-2.331,2.506,0,3.811,1.956,3.811,3.986,0,2.18-1.555,3.909-2.356,4.813l-6.041,5.964c-.25.227-.25.277-.25.978h10.325l.753-4.561"/>
    <path class="cls-10" d="m1128.999,359.07c.503,0,1.184,0,1.184-.719s-.681-.717-1.22-.717h-21.441c-.539,0-1.222,0-1.222.717s.683.719,1.186.719h21.513m-.036-6.967c.539,0,1.22,0,1.22-.719s-.681-.719-1.184-.719h-21.513c-.503,0-1.186,0-1.186.719s.683.719,1.222.719h21.441Z"/>
    <path class="cls-10" d="m1154.66,361.836c.395,1.472,1.652,2.406,3.195,2.406,1.258,0,2.084-.827,2.658-1.975.611-1.294,1.079-3.484,1.079-3.556,0-.359-.324-.359-.432-.359-.359,0-.395.144-.503.647-.503,2.011-1.184,4.453-2.694,4.453-.753,0-1.112-.467-1.112-1.652,0-.791.431-2.478.719-3.736l1.005-3.878c.108-.539.467-1.903.611-2.442.18-.827.539-2.191.539-2.406,0-.647-.503-.97-1.042-.97-.18,0-1.113.036-1.4,1.258-.683,2.622-2.262,8.906-2.694,10.809-.036.144-1.473,3.017-4.094,3.017-1.869,0-2.228-1.616-2.228-2.945,0-2.011,1.006-4.849,1.941-7.327.43-1.077.609-1.58.609-2.263,0-1.616-1.148-2.944-2.944-2.944-3.412,0-4.741,5.206-4.741,5.53,0,.359.358.359.43.359.359,0,.395-.072.575-.647.898-3.123,2.263-4.453,3.628-4.453.323,0,.897.036.897,1.186,0,.861-.395,1.903-.609,2.442-1.33,3.555-2.084,5.781-2.084,7.542,0,3.411,2.478,4.309,4.419,4.309,2.37,0,3.663-1.616,4.273-2.406"/>
    <path class="cls-10" d="m1169.808,369.047c-1.153,0-2.683-.677-3.185-2.733-.35-1.478-.35-3.533-.35-5.387,0-1.83,0-3.736.375-5.114.527-1.98,2.132-2.506,3.16-2.506,1.353,0,2.656.826,3.108,2.281.4,1.353.425,3.158.425,5.339,0,1.855,0,3.709-.325,5.287-.502,2.281-2.207,2.833-3.208,2.833m5.814-7.795c0-2.756-.327-4.737-1.478-6.491-.778-1.153-2.332-2.156-4.336-2.156-5.816,0-5.816,6.842-5.816,8.647s0,8.497,5.816,8.497,5.814-6.692,5.814-8.497Z"/>
    <path class="cls-10" d="m1189.097,339.317c0-.036,0-.395-.467-.395-.827,0-3.449.288-4.382.359-.287.036-.682.072-.682.719,0,.431.323.431.862.431,1.724,0,1.795.251,1.795.609l-.107.719-5.208,20.687c-.144.502-.144.573-.144.789,0,.827.719,1.006,1.042,1.006.575,0,1.149-.431,1.328-.934l.683-2.73.791-3.231c.214-.791.429-1.581.609-2.406.072-.216.36-1.402.395-1.617.108-.322,1.222-2.334,2.443-3.303.79-.575,1.903-1.258,3.448-1.258s1.939,1.222,1.939,2.514c0,1.939-1.365,5.855-2.226,8.045-.288.827-.468,1.256-.468,1.975,0,1.688,1.258,2.945,2.946,2.945,3.375,0,4.704-5.244,4.704-5.531,0-.359-.323-.359-.431-.359-.359,0-.359.108-.539.647-.539,1.903-1.687,4.453-3.662,4.453-.611,0-.863-.359-.863-1.184,0-.898.324-1.761.647-2.55.575-1.545,2.191-5.819,2.191-7.902,0-2.334-1.436-3.842-4.13-3.842-2.263,0-3.988,1.112-5.316,2.764l2.802-11.42"/>
    <path class="cls-10" d="m1212.047,364.686h-.853c-.075.55-.325,2.03-.652,2.28-.2.152-2.13.152-2.481.152h-4.611c2.631-2.331,3.508-3.033,5.012-4.211,1.855-1.48,3.585-3.033,3.585-5.414,0-3.033-2.658-4.888-5.866-4.888-3.108,0-5.212,2.181-5.212,4.486,0,1.278,1.076,1.405,1.328,1.405.601,0,1.328-.426,1.328-1.33,0-.45-.175-1.328-1.48-1.328.778-1.78,2.482-2.331,3.66-2.331,2.506,0,3.811,1.956,3.811,3.986,0,2.18-1.555,3.909-2.357,4.813l-6.04,5.964c-.25.227-.25.277-.25.978h10.325l.753-4.561"/>
    <path class="cls-10" d="m1238.178,355.586h10.02c.504,0,1.185,0,1.185-.717s-.681-.719-1.185-.719h-10.02v-10.056c0-.503,0-1.184-.719-1.184s-.718.681-.718,1.184v10.056h-10.055c-.503,0-1.186,0-1.186.719s.683.717,1.186.717h10.055v10.056c0,.503,0,1.186.718,1.186s.719-.683.719-1.186v-10.056"/>
    <path class="cls-10" d="m1271.959,361.836c.396,1.472,1.652,2.406,3.196,2.406,1.257,0,2.084-.827,2.657-1.975.611-1.294,1.079-3.484,1.079-3.556,0-.359-.324-.359-.432-.359-.359,0-.395.144-.503.647-.503,2.011-1.184,4.453-2.694,4.453-.753,0-1.112-.467-1.112-1.652,0-.791.431-2.478.719-3.736l1.004-3.878c.108-.539.468-1.903.611-2.442.18-.827.539-2.191.539-2.406,0-.647-.503-.97-1.042-.97-.179,0-1.112.036-1.4,1.258-.683,2.622-2.262,8.906-2.694,10.809-.035.144-1.473,3.017-4.093,3.017-1.869,0-2.228-1.616-2.228-2.945,0-2.011,1.006-4.849,1.94-7.327.43-1.077.61-1.58.61-2.263,0-1.616-1.149-2.944-2.944-2.944-3.413,0-4.741,5.206-4.741,5.53,0,.359.358.359.43.359.359,0,.395-.072.575-.647.898-3.123,2.262-4.453,3.628-4.453.323,0,.897.036.897,1.186,0,.861-.395,1.903-.609,2.442-1.33,3.555-2.085,5.781-2.085,7.542,0,3.411,2.478,4.309,4.419,4.309,2.37,0,3.662-1.616,4.273-2.406"/>
    <path class="cls-10" d="m1288.286,353.306c0-.677-.05-.702-.753-.702-1.603,1.58-3.885,1.605-4.913,1.605v.902c.602,0,2.257,0,3.635-.702v12.783c0,.827,0,1.153-2.507,1.153h-.951v.902c.45-.025,3.533-.1,4.461-.1.776,0,3.934.075,4.486.1v-.902h-.952c-2.506,0-2.506-.327-2.506-1.153v-13.886"/>
    <path class="cls-10" d="m1306.297,339.317c0-.036,0-.395-.467-.395-.827,0-3.449.288-4.382.359-.287.036-.682.072-.682.719,0,.431.323.431.862.431,1.724,0,1.795.251,1.795.609l-.107.719-5.208,20.687c-.144.502-.144.573-.144.789,0,.827.719,1.006,1.042,1.006.575,0,1.149-.431,1.328-.934l.683-2.73.791-3.231c.214-.791.429-1.581.609-2.406.072-.216.36-1.402.395-1.617.108-.322,1.222-2.334,2.443-3.303.79-.575,1.903-1.258,3.448-1.258s1.939,1.222,1.939,2.514c0,1.939-1.365,5.855-2.226,8.045-.288.827-.468,1.256-.468,1.975,0,1.688,1.258,2.945,2.946,2.945,3.375,0,4.704-5.244,4.704-5.531,0-.359-.323-.359-.431-.359-.359,0-.359.108-.539.647-.539,1.903-1.687,4.453-3.662,4.453-.611,0-.863-.359-.863-1.184,0-.898.324-1.761.647-2.55.575-1.545,2.191-5.819,2.191-7.902,0-2.334-1.436-3.842-4.13-3.842-2.263,0-3.988,1.112-5.316,2.764l2.802-11.42"/>
    <path class="cls-10" d="m1324.986,353.306c0-.677-.05-.702-.753-.702-1.603,1.58-3.885,1.605-4.913,1.605v.902c.602,0,2.257,0,3.635-.702v12.783c0,.827,0,1.153-2.507,1.153h-.951v.902c.45-.025,3.533-.1,4.461-.1.776,0,3.934.075,4.486.1v-.902h-.952c-2.506,0-2.506-.327-2.506-1.153v-13.886"/>
    <path class="cls-10" d="m1355.378,355.586h10.02c.504,0,1.185,0,1.185-.717s-.681-.719-1.185-.719h-10.02v-10.056c0-.503,0-1.184-.719-1.184s-.718.681-.718,1.184v10.056h-10.055c-.503,0-1.186,0-1.186.719s.683.717,1.186.717h10.055v10.056c0,.503,0,1.186.718,1.186s.719-.683.719-1.186v-10.056"/>
    <path class="cls-10" d="m1389.159,361.836c.396,1.472,1.652,2.406,3.196,2.406,1.257,0,2.084-.827,2.657-1.975.611-1.294,1.079-3.484,1.079-3.556,0-.359-.324-.359-.432-.359-.359,0-.395.144-.503.647-.503,2.011-1.184,4.453-2.694,4.453-.753,0-1.112-.467-1.112-1.652,0-.791.431-2.478.719-3.736l1.004-3.878c.108-.539.468-1.903.611-2.442.18-.827.539-2.191.539-2.406,0-.647-.503-.97-1.042-.97-.179,0-1.112.036-1.4,1.258-.683,2.622-2.262,8.906-2.694,10.809-.035.144-1.473,3.017-4.093,3.017-1.869,0-2.228-1.616-2.228-2.945,0-2.011,1.006-4.849,1.94-7.327.43-1.077.61-1.58.61-2.263,0-1.616-1.149-2.944-2.944-2.944-3.413,0-4.741,5.206-4.741,5.53,0,.359.358.359.43.359.359,0,.395-.072.575-.647.898-3.123,2.262-4.453,3.628-4.453.323,0,.897.036.897,1.186,0,.861-.395,1.903-.609,2.442-1.33,3.555-2.085,5.781-2.085,7.542,0,3.411,2.478,4.309,4.419,4.309,2.37,0,3.662-1.616,4.273-2.406"/>
    <path class="cls-10" d="m1409.747,364.686h-.853c-.075.55-.325,2.03-.652,2.28-.2.152-2.13.152-2.481.152h-4.611c2.631-2.331,3.508-3.033,5.012-4.211,1.855-1.48,3.585-3.033,3.585-5.414,0-3.033-2.658-4.888-5.866-4.888-3.108,0-5.212,2.181-5.212,4.486,0,1.278,1.076,1.405,1.328,1.405.601,0,1.328-.426,1.328-1.33,0-.45-.175-1.328-1.48-1.328.778-1.78,2.482-2.331,3.66-2.331,2.506,0,3.811,1.956,3.811,3.986,0,2.18-1.555,3.909-2.357,4.813l-6.04,5.964c-.25.227-.25.277-.25.978h10.325l.753-4.561"/>
    <path class="cls-10" d="m1423.497,339.317c0-.036,0-.395-.467-.395-.827,0-3.449.288-4.382.359-.287.036-.682.072-.682.719,0,.431.323.431.862.431,1.724,0,1.795.251,1.795.609l-.107.719-5.208,20.687c-.144.502-.144.573-.144.789,0,.827.719,1.006,1.042,1.006.575,0,1.149-.431,1.328-.934l.683-2.73.791-3.231c.214-.791.429-1.581.609-2.406.072-.216.36-1.402.395-1.617.108-.322,1.222-2.334,2.443-3.303.79-.575,1.903-1.258,3.448-1.258s1.939,1.222,1.939,2.514c0,1.939-1.365,5.855-2.226,8.045-.288.827-.468,1.256-.468,1.975,0,1.688,1.258,2.945,2.946,2.945,3.375,0,4.704-5.244,4.704-5.531,0-.359-.323-.359-.431-.359-.359,0-.359.108-.539.647-.539,1.903-1.687,4.453-3.662,4.453-.611,0-.863-.359-.863-1.184,0-.898.324-1.761.647-2.55.575-1.545,2.191-5.819,2.191-7.902,0-2.334-1.436-3.842-4.13-3.842-2.263,0-3.988,1.112-5.316,2.764l2.802-11.42"/>
    <path class="cls-10" d="m1441.008,369.047c-1.153,0-2.683-.677-3.185-2.733-.35-1.478-.35-3.533-.35-5.387,0-1.83,0-3.736.375-5.114.527-1.98,2.132-2.506,3.16-2.506,1.353,0,2.656.826,3.108,2.281.4,1.353.425,3.158.425,5.339,0,1.855,0,3.709-.325,5.287-.502,2.281-2.207,2.833-3.208,2.833m5.814-7.795c0-2.756-.327-4.737-1.478-6.491-.778-1.153-2.332-2.156-4.336-2.156-5.816,0-5.816,6.842-5.816,8.647s0,8.497,5.816,8.497,5.814-6.692,5.814-8.497Z"/>
  </g>
  <g>
    <line class="cls-3" x1="1001.802" y1="224.093" x2="1031.847" y2="224.093"/>
    <polygon class="cls-10" points="1027.635 229.647 1029.994 224.093 1027.635 218.538 1040.802 224.093 1027.635 229.647"/>
  </g>
  <g>
    <line class="cls-3" x1="1001.802" y1="360.093" x2="1031.847" y2="360.093"/>
    <polygon class="cls-10" points="1027.635 365.647 1029.994 360.093 1027.635 354.538 1040.802 360.093 1027.635 365.647"/>
  </g>
  <polygon class="cls-5" points="697.219 444.907 697.219 444.907 697.219 444.907 697.219 444.907 697.219 444.907 697.219 444.907 697.219 444.907 697.219 444.907 697.219 444.907 697.219 444.907 697.219 444.907 697.219 444.907 697.219 444.907 697.219 444.907 697.219 444.907 697.219 444.907 697.219 444.907 697.219 444.907 697.219 444.907 697.219 444.907 697.219 444.907 697.219 444.907 697.219 444.907 697.219 444.907 697.219 444.907 697.219 444.907 697.219 444.907 697.219 444.907 697.219 444.907 697.219 444.907 697.219 444.907 697.219 444.907 697.219 444.907 697.219 444.907 697.219 444.907 697.219 444.907 697.219 444.907 697.219 444.907 697.219 444.907 697.219 444.907 697.219 444.907 697.219 444.907 697.219 444.907 697.219 444.907 697.219 444.907 697.219 444.907 697.219 444.907 697.219 444.907 697.219 444.907 697.219 444.907 697.219 444.907 697.219 444.907 697.219 444.907 697.219 444.907 697.219 444.907 697.219 444.907 697.219 444.907 697.219 444.907 697.219 444.907 697.219 444.907 697.219 444.907 697.219 444.907 697.219 444.907 697.219 444.907 697.219 444.907 697.219 444.907 697.219 444.907 697.219 444.907 697.219 444.907 697.219 444.907 697.219 444.907 697.219 444.907 697.219 444.907 697.219 444.907 697.219 444.907 697.219 444.907 697.219 444.907 697.219 444.907 697.219 444.907 697.219 444.907 697.219 444.907 697.219 444.907 697.219 444.907 697.219 444.907 697.219 444.907 697.219 444.907 697.219 444.907 697.219 444.907 697.219 444.907 697.219 444.907 697.219 444.907 697.219 444.907 697.219 444.907 697.219 444.907 697.219 444.907 697.219 444.907 697.219 444.907 697.219 444.907 697.219 444.907 697.219 444.907 697.219 444.907 697.219 444.907 697.219 444.907 697.219 444.907 697.219 444.907 697.219 444.907 697.219 444.907 697.219 444.907 697.219 444.907 697.219 444.907 697.219 444.907 697.219 444.907 697.219 444.907 697.219 444.907 697.219 444.907 697.219 444.907 697.219 444.907 697.219 444.907 697.219 444.907 697.219 444.907 697.219 444.907 697.219 444.907 697.219 444.907 697.219 444.907 697.219 444.907 697.219 444.907 697.219 444.907 697.219 444.907 697.219 444.907 697.219 444.907 697.219 444.907 697.219 444.907 697.219 444.907 697.219 444.907 697.219 444.907 697.219 444.907 697.219 444.907 697.219 444.907 697.219 444.907 697.219 444.907 697.219 444.907 697.219 444.907 697.219 444.907 697.219 444.907 697.219 444.907 697.219 444.907 697.219 444.907 697.219 444.907 697.219 444.907 697.219 444.907 697.219 444.907 697.219 444.907 697.219 444.907 697.219 444.907 697.219 444.907 697.219 444.907 697.219 444.907 697.219 444.907 697.219 444.907"/>
  <polygon class="cls-5" points="642.592 222.125 642.592 222.125 642.592 222.125 642.592 222.125 642.592 222.125 642.592 222.125 642.592 222.125 642.592 222.125 642.592 222.125 642.592 222.125 642.592 222.125 642.592 222.125 642.592 222.125 642.592 222.125 642.592 222.125 642.592 222.125 642.592 222.125 642.592 222.125 642.592 222.125 642.592 222.125 642.592 222.125 642.592 222.125 642.592 222.125 642.592 222.125 642.592 222.125 642.592 222.125 642.592 222.125 642.592 222.125 642.592 222.125 642.592 222.125 642.592 222.125 642.592 222.125 642.592 222.125 642.592 222.125 642.592 222.125 642.592 222.125 642.592 222.125 642.592 222.125 642.592 222.125 642.592 222.125 642.592 222.125 642.592 222.125 642.592 222.125 642.592 222.125 642.592 222.125 642.592 222.125 642.592 222.125 642.592 222.125 642.592 222.125 642.592 222.125 642.592 222.125 642.592 222.125 642.592 222.125 642.592 222.125 642.592 222.125 642.592 222.125 642.592 222.125 642.592 222.125 642.592 222.125 642.592 222.125 642.592 222.125 642.592 222.125 642.592 222.125 642.592 222.125 642.592 222.125 642.592 222.125 642.592 222.125 642.592 222.125 642.592 222.125 642.592 222.125 642.592 222.125 642.592 222.125 642.592 222.125 642.592 222.125 642.592 222.125 642.592 222.125 642.592 222.125 642.592 222.125 642.592 222.125 642.592 222.125 642.592 222.125 642.592 222.125 642.592 222.125 642.592 222.125 642.592 222.125 642.592 222.125 642.592 222.125 642.592 222.125 642.592 222.125 642.592 222.125 642.592 222.125 642.592 222.125 642.592 222.125 642.592 222.125 642.592 222.125 642.592 222.125 642.592 222.125 642.592 222.125 642.592 222.125 642.592 222.125 642.592 222.125 642.592 222.125 642.592 222.125 642.592 222.125 642.592 222.125 642.592 222.125 642.592 222.125 642.592 222.125 642.592 222.125 642.592 222.125 642.592 222.125 642.592 222.125 642.592 222.125 642.592 222.125 642.592 222.125 642.592 222.125 642.592 222.125 642.592 222.125 642.592 222.125 642.592 222.125 642.592 222.125 642.592 222.125 642.592 222.125 642.592 222.125 642.592 222.125 642.592 222.125 642.592 222.125 642.592 222.125 642.592 222.125 642.592 222.125 642.592 222.125 642.592 222.125 642.592 222.125 642.592 222.125 642.592 222.125 642.592 222.125 642.592 222.125 642.592 222.125 642.592 222.125 642.592 222.125 642.592 222.125 642.592 222.125 642.592 222.125 642.592 222.125 642.592 222.125 642.592 222.125 642.592 222.125 642.592 222.125 642.592 222.125 642.592 222.125 642.592 222.125 642.592 222.125 642.592 222.125 642.592 222.125 642.592 222.125 642.592 222.125 642.592 222.125 642.592 222.125 642.592 222.125 642.592 222.125 642.592 222.125 642.592 222.125 642.592 222.125 642.592 222.125 642.592 222.125 642.592 222.125 642.592 222.125 642.592 222.125 642.592 222.125 642.592 222.125 642.592 222.125 642.592 222.125 642.592 222.125 642.592 222.125 642.592 222.125 642.592 222.125"/>
  <line class="cls-1" x1="633.5" y1="31" x2="633.5" y2="399"/>
  <text class="cls-25" transform="translate(48.706 72.878)"><tspan x="0" y="0">Convolu</tspan><tspan class="cls-12" x="191.597" y="0">t</tspan><tspan x="211.096" y="0">ion</tspan></text>
  <polygon class="cls-5" points="35.41 198.599 35.41 198.598 35.41 198.598 35.41 198.598 35.41 198.598 35.41 198.598 35.41 198.598 35.41 198.598 35.41 198.599 35.41 198.598 35.41 198.598 35.41 198.598 35.41 198.598 35.41 198.598 35.41 198.598 35.41 198.599 35.41 198.598 35.41 198.598 35.41 198.598 35.41 198.598 35.41 198.598 35.41 198.598 35.41 198.599 35.41 198.598 35.41 198.598 35.41 198.598 35.41 198.599 35.41 198.598 35.41 198.599 35.41 198.599 35.41 198.598 35.41 198.598 35.41 198.598 35.41 198.598 35.41 198.598 35.41 198.598 35.41 198.598 35.41 198.598 35.41 198.598 35.41 198.599 35.41 198.598 35.41 198.598 35.41 198.598 35.41 198.598 35.41 198.598 35.41 198.598 35.41 198.598 35.41 198.598 35.41 198.598 35.41 198.599 35.41 198.598 35.41 198.599 35.41 198.598 35.41 198.598 35.41 198.598 35.41 198.598 35.41 198.598 35.41 198.599 35.41 198.598 35.41 198.599 35.41 198.598 35.41 198.598 35.41 198.598 35.41 198.598 35.41 198.598 35.41 198.598 35.41 198.598 35.41 198.598 35.41 198.598 35.41 198.598 35.41 198.598 35.41 198.598 35.41 198.598 35.41 198.598 35.41 198.598 35.41 198.598 35.41 198.598 35.41 198.598 35.41 198.598 35.41 198.598 35.41 198.598 35.41 198.598 35.41 198.598 35.41 198.598 35.41 198.598 35.41 198.598 35.41 198.599"/>
  <g class="cls-14">
    <path class="cls-10" d="m83.572,189.57c-.503.467-1.688,1.472-1.688,2.119,0,.359.359.719.717.719.323,0,.503-.252.683-.467.431-.539,1.258-1.544,2.837-2.334.252-.144.611-.323.611-.755,0-.359-.252-.539-.503-.719-.791-.538-1.186-1.184-1.474-2.047-.07-.323-.214-.789-.717-.789s-.719.466-.719.753c0,.18.288,1.33.863,2.083h-12.103c-.611,0-1.258,0-1.258.719s.647.719,1.258.719h11.492"/>
    <path class="cls-10" d="m77.257,208.928c.395,1.472,1.652,2.406,3.195,2.406,1.258,0,2.084-.827,2.658-1.975.611-1.294,1.078-3.484,1.078-3.556,0-.359-.323-.359-.431-.359-.359,0-.395.144-.503.647-.503,2.011-1.184,4.453-2.694,4.453-.753,0-1.113-.467-1.113-1.652,0-.791.431-2.478.719-3.736l1.005-3.878c.108-.539.467-1.903.611-2.442.18-.827.539-2.191.539-2.406,0-.647-.503-.97-1.042-.97-.18,0-1.113.036-1.4,1.258-.683,2.622-2.262,8.906-2.694,10.809-.036.144-1.473,3.017-4.094,3.017-1.869,0-2.228-1.616-2.228-2.945,0-2.011,1.006-4.848,1.941-7.327.43-1.077.609-1.58.609-2.262,0-1.616-1.148-2.944-2.944-2.944-3.413,0-4.741,5.206-4.741,5.53,0,.359.358.359.43.359.359,0,.395-.072.575-.647.898-3.123,2.263-4.453,3.628-4.453.323,0,.897.036.897,1.186,0,.861-.395,1.903-.609,2.442-1.33,3.555-2.084,5.781-2.084,7.542,0,3.411,2.478,4.309,4.419,4.309,2.37,0,3.663-1.616,4.273-2.406"/>
  </g>
  <polygon class="cls-5" points="54.628 343.319 54.628 343.319 54.628 343.319 54.628 343.319 54.628 343.319 54.628 343.319 54.628 343.319 54.628 343.319 54.628 343.319 54.628 343.319 54.628 343.319 54.628 343.319 54.628 343.319 54.628 343.319 54.628 343.319 54.628 343.319 54.628 343.319 54.628 343.319 54.628 343.319 54.628 343.319 54.628 343.319 54.628 343.319 54.628 343.319 54.628 343.319 54.628 343.319 54.628 343.319 54.628 343.319 54.628 343.319 54.628 343.319 54.628 343.319 54.628 343.319 54.628 343.319 54.628 343.319 54.628 343.319 54.628 343.319 54.628 343.319 54.628 343.319 54.628 343.319 54.628 343.319 54.628 343.319 54.628 343.319 54.628 343.319 54.628 343.319 54.628 343.319 54.628 343.319 54.628 343.319 54.628 343.319 54.628 343.319 54.628 343.319 54.628 343.319 54.628 343.319 54.628 343.319 54.628 343.319 54.628 343.319 54.628 343.319 54.628 343.319 54.628 343.319 54.628 343.319 54.628 343.319 54.628 343.319 54.628 343.319 54.628 343.319 54.628 343.319 54.628 343.319 54.628 343.319 54.628 343.319 54.628 343.319 54.628 343.319 54.628 343.319 54.628 343.319 54.628 343.319 54.628 343.319 54.628 343.319 54.628 343.319 54.628 343.319 54.628 343.319 54.628 343.319 54.628 343.319 54.628 343.319 54.628 343.319 54.628 343.319 54.628 343.319 54.628 343.319 54.628 343.319 54.628 343.319 54.628 343.319 54.628 343.319 54.628 343.319"/>
  <g class="cls-20">
    <path class="cls-10" d="m82.14,272.788c-.503.467-1.688,1.472-1.688,2.119,0,.359.359.719.717.719.324,0,.503-.251.683-.467.431-.539,1.258-1.544,2.838-2.334.252-.144.611-.323.611-.755,0-.359-.252-.539-.503-.719-.791-.537-1.186-1.184-1.473-2.047-.07-.324-.214-.789-.717-.789s-.719.466-.719.753c0,.18.287,1.33.863,2.083h-12.103c-.611,0-1.258,0-1.258.719s.647.719,1.258.719h11.492"/>
    <path class="cls-10" d="m75.562,279.028c0-.036,0-.395-.467-.395-.827,0-3.448.288-4.381.359-.287.036-.683.072-.683.719,0,.431.323.431.863.431,1.723,0,1.795.252,1.795.609l-.108.719-5.208,20.688c-.144.502-.144.573-.144.789,0,.827.719,1.006,1.042,1.006.575,0,1.148-.431,1.328-.934l.683-2.73.791-3.231c.214-.791.43-1.581.609-2.406.072-.216.359-1.402.395-1.617.108-.322,1.222-2.334,2.442-3.303.791-.575,1.903-1.258,3.448-1.258s1.939,1.222,1.939,2.514c0,1.939-1.366,5.855-2.226,8.045-.288.827-.467,1.256-.467,1.975,0,1.688,1.258,2.945,2.945,2.945,3.375,0,4.705-5.244,4.705-5.531,0-.359-.323-.359-.431-.359-.359,0-.359.108-.539.647-.539,1.903-1.688,4.453-3.663,4.453-.611,0-.862-.359-.862-1.184,0-.898.323-1.761.647-2.55.575-1.545,2.191-5.819,2.191-7.902,0-2.334-1.436-3.842-4.13-3.842-2.263,0-3.988,1.113-5.316,2.764l2.802-11.42"/>
  </g>
  <polygon class="cls-5" points="480.815 174.301 480.815 174.301 480.815 174.301 480.815 174.301 480.815 174.301 480.815 174.301 480.815 174.301 480.815 174.301 480.815 174.301 480.815 174.301 480.815 174.301 480.815 174.301 480.815 174.301 480.815 174.301 480.815 174.301 480.815 174.301 480.815 174.301 480.815 174.301 480.815 174.301 480.815 174.301 480.815 174.301 480.815 174.301 480.815 174.301 480.815 174.301 480.815 174.301 480.815 174.301 480.815 174.301 480.815 174.301 480.815 174.301 480.815 174.301 480.815 174.301 480.815 174.301 480.815 174.301 480.815 174.301 480.815 174.301 480.815 174.301 480.815 174.301 480.815 174.301 480.815 174.301 480.815 174.301 480.815 174.301 480.815 174.301 480.815 174.301 480.815 174.301 480.815 174.301 480.815 174.301 480.815 174.301 480.815 174.301 480.815 174.301 480.815 174.301 480.815 174.301 480.815 174.301 480.815 174.301 480.815 174.301 480.815 174.301 480.815 174.301 480.815 174.301 480.815 174.301 480.815 174.301 480.815 174.301 480.815 174.301 480.815 174.301 480.815 174.301 480.815 174.301 480.815 174.301 480.815 174.301 480.815 174.301 480.815 174.301 480.815 174.301 480.815 174.301 480.815 174.301 480.815 174.301 480.815 174.301 480.815 174.301 480.815 174.301 480.815 174.301 480.815 174.301 480.815 174.301 480.815 174.301 480.815 174.301 480.815 174.301 480.815 174.301 480.815 174.301 480.815 174.301 480.815 174.301 480.815 174.301 480.815 174.301 480.815 174.301 480.815 174.301 480.815 174.301 480.815 174.301 480.815 174.301 480.815 174.301"/>
  <g class="cls-19">
    <path class="cls-10" d="m423.669,179.617c-.503.467-1.688,1.472-1.688,2.119,0,.359.359.719.717.719.324,0,.503-.252.683-.467.431-.539,1.258-1.544,2.837-2.334.252-.144.611-.323.611-.755,0-.359-.252-.539-.503-.719-.791-.538-1.186-1.184-1.473-2.047-.07-.323-.214-.789-.717-.789s-.719.466-.719.753c0,.18.287,1.33.862,2.083h-12.103c-.611,0-1.258,0-1.258.719s.647.719,1.258.719h11.492"/>
    <path class="cls-10" d="m422.138,187.303c.144-.503.144-.575.144-.827,0-.647-.503-.97-1.042-.97-.359,0-.933.216-1.256.755-.072.18-.359,1.294-.503,1.939-.252.934-.503,1.905-.719,2.873l-1.616,6.464c-.144.539-1.688,3.053-4.058,3.053-1.833,0-2.228-1.58-2.228-2.909,0-1.652.611-3.878,1.833-7.039.573-1.472.717-1.867.717-2.586,0-1.616-1.148-2.944-2.944-2.944-3.413,0-4.741,5.206-4.741,5.53,0,.359.358.359.43.359.359,0,.395-.072.575-.647.97-3.375,2.406-4.453,3.628-4.453.287,0,.897,0,.897,1.15,0,.897-.359,1.831-.609,2.514-1.438,3.806-2.084,5.853-2.084,7.542,0,3.195,2.262,4.273,4.383,4.273,1.4,0,2.62-.611,3.627-1.616-.467,1.867-.898,3.627-2.334,5.53-.934,1.222-2.298,2.262-3.95,2.262-.503,0-2.119-.108-2.73-1.508.575,0,1.041,0,1.544-.431.359-.323.719-.791.719-1.472,0-1.114-.97-1.258-1.33-1.258-.825,0-2.011.575-2.011,2.334,0,1.795,1.581,3.125,3.808,3.125,3.698,0,7.398-3.269,8.403-7.327l3.448-13.719"/>
    <path class="cls-10" d="m458.293,196.209c.503,0,1.184,0,1.184-.719s-.681-.717-1.22-.717h-21.441c-.539,0-1.222,0-1.222.717s.683.719,1.186.719h21.513m-.036-6.967c.539,0,1.22,0,1.22-.719s-.681-.719-1.184-.719h-21.513c-.503,0-1.186,0-1.186.719s.683.719,1.222.719h21.441Z"/>
    <path class="cls-10" d="m488.269,170.217c-.503.467-1.688,1.472-1.688,2.119,0,.359.359.719.717.719.324,0,.503-.251.683-.467.431-.539,1.258-1.544,2.838-2.334.252-.144.611-.323.611-.755,0-.359-.252-.539-.503-.719-.791-.537-1.186-1.184-1.474-2.047-.07-.324-.214-.789-.717-.789s-.719.466-.719.753c0,.18.287,1.33.862,2.083h-12.103c-.611,0-1.258,0-1.258.719s.647.719,1.258.719h11.492"/>
    <path class="cls-10" d="m481.691,176.456c0-.036,0-.395-.467-.395-.826,0-3.448.288-4.381.359-.287.036-.683.072-.683.719,0,.431.323.431.863.431,1.723,0,1.795.251,1.795.609l-.108.719-5.208,20.688c-.144.502-.144.573-.144.789,0,.827.719,1.006,1.042,1.006.575,0,1.148-.431,1.328-.934l.683-2.73.791-3.231c.214-.791.43-1.581.609-2.406.072-.216.359-1.402.395-1.617.108-.322,1.222-2.334,2.442-3.303.791-.575,1.903-1.258,3.449-1.258s1.939,1.222,1.939,2.514c0,1.939-1.366,5.855-2.227,8.045-.287.827-.467,1.256-.467,1.975,0,1.688,1.258,2.945,2.945,2.945,3.375,0,4.705-5.244,4.705-5.531,0-.359-.324-.359-.431-.359-.359,0-.359.108-.539.647-.539,1.903-1.688,4.453-3.662,4.453-.611,0-.863-.359-.863-1.184,0-.898.323-1.761.647-2.55.575-1.545,2.191-5.819,2.191-7.902,0-2.334-1.436-3.842-4.13-3.842-2.263,0-3.988,1.112-5.316,2.764l2.801-11.42"/>
    <path class="cls-10" d="m518.399,195.598c.431.287,1.006.755,1.293.755.539,0,.969-.503.969-1.006,0-.538-.25-.645-.825-.933-.467-.251-2.694-1.258-4.956-2.406l5.028-2.406c.503-.288.753-.395.753-.934,0-.503-.43-1.005-.969-1.005-.323,0-.539.178-.646.25l-4.561,3.377.503-5.639c.036-.502.036-1.4-.935-1.4-.539,0-1.04.467-.932.934v.466l.501,5.603-3.914-2.837c-.431-.288-1.006-.753-1.292-.753-.539,0-.97.502-.97,1.005,0,.539.359.719.718.899l5.064,2.442-5.028,2.406c-.503.288-.754.395-.754.933,0,.503.431,1.006.97,1.006.25,0,.825-.431,1.22-.719l3.986-2.873-.537,6.034c0,.647.573.934.968.934s.971-.287.971-.934c0-.108-.18-1.795-.18-1.939,0-.036-.144-1.438-.18-2.155l-.179-1.941,3.914,2.838m-4.346,7.47c-6.104,0-11.061-4.956-11.061-11.061s4.957-11.062,11.061-11.062,11.063,4.956,11.063,11.062-4.956,11.061-11.063,11.061Zm11.96-11.061c0-6.609-5.388-11.959-11.96-11.959-6.607,0-11.959,5.386-11.959,11.959,0,6.608,5.387,11.959,11.959,11.959,6.608,0,11.96-5.388,11.96-11.959Z"/>
    <path class="cls-10" d="m554.769,179.617c-.503.467-1.688,1.472-1.688,2.119,0,.359.36.719.718.719.323,0,.503-.252.682-.467.432-.539,1.258-1.544,2.838-2.334.252-.144.611-.323.611-.755,0-.359-.252-.539-.503-.719-.791-.538-1.186-1.184-1.474-2.047-.07-.323-.214-.789-.717-.789s-.719.466-.719.753c0,.18.288,1.33.863,2.083h-12.103c-.611,0-1.258,0-1.258.719s.647.719,1.258.719h11.492"/>
    <path class="cls-10" d="m548.453,198.974c.396,1.472,1.652,2.406,3.196,2.406,1.257,0,2.084-.827,2.657-1.975.611-1.294,1.079-3.484,1.079-3.556,0-.359-.324-.359-.432-.359-.359,0-.395.144-.503.647-.503,2.011-1.184,4.453-2.694,4.453-.753,0-1.112-.467-1.112-1.652,0-.791.431-2.478.719-3.736l1.004-3.878c.108-.539.468-1.903.611-2.442.18-.827.539-2.191.539-2.406,0-.647-.503-.97-1.042-.97-.179,0-1.112.036-1.4,1.258-.683,2.622-2.262,8.906-2.694,10.809-.035.144-1.473,3.017-4.093,3.017-1.869,0-2.228-1.616-2.228-2.945,0-2.011,1.006-4.849,1.94-7.327.43-1.077.61-1.58.61-2.263,0-1.616-1.149-2.944-2.944-2.944-3.413,0-4.741,5.206-4.741,5.53,0,.359.358.359.43.359.359,0,.395-.072.575-.647.898-3.123,2.262-4.453,3.628-4.453.323,0,.897.036.897,1.186,0,.861-.395,1.903-.609,2.442-1.33,3.555-2.085,5.781-2.085,7.542,0,3.411,2.478,4.309,4.419,4.309,2.37,0,3.662-1.616,4.273-2.406"/>
  </g>
  <g class="cls-17">
    <path class="cls-10" d="m794.036,34.064c-.503.467-1.688,1.472-1.688,2.119,0,.359.359.719.717.719.323,0,.503-.252.683-.467.431-.539,1.258-1.544,2.837-2.334.252-.144.611-.323.611-.755,0-.359-.252-.539-.503-.719-.791-.538-1.186-1.184-1.474-2.047-.07-.323-.214-.789-.717-.789s-.719.466-.719.753c0,.18.288,1.33.863,2.083h-12.103c-.611,0-1.258,0-1.258.719s.647.719,1.258.719h11.492"/>
    <path class="cls-10" d="m787.72,53.422c.395,1.472,1.652,2.406,3.195,2.406,1.258,0,2.084-.827,2.658-1.975.611-1.294,1.078-3.484,1.078-3.556,0-.359-.323-.359-.431-.359-.359,0-.395.144-.503.647-.503,2.011-1.184,4.453-2.694,4.453-.753,0-1.113-.467-1.113-1.652,0-.791.431-2.478.719-3.736l1.005-3.878c.108-.539.467-1.903.611-2.442.18-.827.539-2.191.539-2.406,0-.647-.503-.97-1.042-.97-.18,0-1.113.036-1.4,1.258-.683,2.622-2.262,8.906-2.694,10.809-.036.144-1.473,3.017-4.094,3.017-1.869,0-2.228-1.616-2.228-2.945,0-2.011,1.006-4.848,1.941-7.327.43-1.077.609-1.58.609-2.262,0-1.616-1.148-2.944-2.944-2.944-3.413,0-4.741,5.206-4.741,5.53,0,.359.358.359.43.359.359,0,.395-.072.575-.647.898-3.123,2.263-4.453,3.628-4.453.323,0,.897.036.897,1.186,0,.861-.395,1.903-.609,2.442-1.33,3.555-2.084,5.781-2.084,7.542,0,3.411,2.478,4.309,4.419,4.309,2.37,0,3.663-1.616,4.273-2.406"/>
  </g>
  <g class="cls-18">
    <path class="cls-10" d="m873.536,99.364c-.503.467-1.688,1.472-1.688,2.119,0,.359.359.719.717.719.324,0,.503-.251.683-.467.431-.539,1.258-1.544,2.838-2.334.252-.144.611-.323.611-.755,0-.359-.252-.539-.503-.719-.791-.537-1.186-1.184-1.473-2.047-.07-.324-.214-.789-.717-.789s-.719.466-.719.753c0,.18.287,1.33.863,2.083h-12.103c-.611,0-1.258,0-1.258.719s.647.719,1.258.719h11.492"/>
    <path class="cls-10" d="m866.958,105.603c0-.036,0-.395-.467-.395-.827,0-3.448.288-4.381.359-.287.036-.683.072-.683.719,0,.431.323.431.863.431,1.723,0,1.795.252,1.795.609l-.108.719-5.208,20.688c-.144.502-.144.573-.144.789,0,.827.719,1.006,1.042,1.006.575,0,1.148-.431,1.328-.934l.683-2.73.791-3.231c.214-.791.43-1.581.609-2.406.072-.216.359-1.402.395-1.617.108-.322,1.222-2.334,2.442-3.303.791-.575,1.903-1.258,3.448-1.258s1.939,1.222,1.939,2.514c0,1.939-1.366,5.855-2.226,8.045-.288.827-.467,1.256-.467,1.975,0,1.688,1.258,2.945,2.945,2.945,3.375,0,4.705-5.244,4.705-5.531,0-.359-.323-.359-.431-.359-.359,0-.359.108-.539.647-.539,1.903-1.688,4.453-3.663,4.453-.611,0-.862-.359-.862-1.184,0-.898.323-1.761.647-2.55.575-1.545,2.191-5.819,2.191-7.902,0-2.334-1.436-3.842-4.13-3.842-2.263,0-3.988,1.113-5.316,2.764l2.802-11.42"/>
  </g>
  <g class="cls-21">
    <path class="cls-10" d="m793.97,176.34c-.503.467-1.688,1.472-1.688,2.119,0,.359.359.719.717.719.323,0,.503-.252.683-.467.431-.539,1.258-1.544,2.837-2.334.252-.144.611-.323.611-.755,0-.359-.252-.539-.503-.719-.791-.538-1.186-1.184-1.474-2.047-.07-.323-.214-.789-.717-.789s-.719.466-.719.753c0,.18.288,1.33.863,2.083h-12.103c-.611,0-1.258,0-1.258.719s.647.719,1.258.719h11.492"/>
    <path class="cls-10" d="m787.654,195.697c.395,1.472,1.652,2.406,3.195,2.406,1.258,0,2.084-.827,2.658-1.975.611-1.294,1.078-3.484,1.078-3.556,0-.359-.323-.359-.431-.359-.359,0-.395.144-.503.647-.503,2.011-1.184,4.453-2.694,4.453-.753,0-1.113-.467-1.113-1.652,0-.791.431-2.478.719-3.736l1.005-3.878c.108-.539.467-1.903.611-2.442.18-.827.539-2.191.539-2.406,0-.647-.503-.97-1.042-.97-.18,0-1.113.036-1.4,1.258-.683,2.622-2.262,8.906-2.694,10.809-.036.144-1.473,3.017-4.094,3.017-1.869,0-2.228-1.616-2.228-2.945,0-2.011,1.006-4.848,1.941-7.327.43-1.077.609-1.58.609-2.262,0-1.616-1.148-2.944-2.944-2.944-3.413,0-4.741,5.206-4.741,5.53,0,.359.358.359.43.359.359,0,.395-.072.575-.647.898-3.123,2.263-4.453,3.628-4.453.323,0,.897.036.897,1.186,0,.861-.395,1.903-.609,2.442-1.33,3.555-2.084,5.781-2.084,7.542,0,3.411,2.478,4.309,4.419,4.309,2.37,0,3.663-1.616,4.273-2.406"/>
  </g>
  <g class="cls-23">
    <path class="cls-10" d="m901.47,242.64c-.503.467-1.688,1.472-1.688,2.119,0,.359.359.719.717.719.324,0,.503-.251.683-.467.431-.539,1.258-1.544,2.838-2.334.252-.144.611-.323.611-.755,0-.359-.252-.539-.503-.719-.791-.537-1.186-1.184-1.473-2.047-.07-.324-.214-.789-.717-.789s-.719.466-.719.753c0,.18.287,1.33.863,2.083h-12.103c-.611,0-1.258,0-1.258.719s.647.719,1.258.719h11.492"/>
    <path class="cls-10" d="m894.892,248.879c0-.036,0-.395-.467-.395-.827,0-3.448.288-4.381.359-.287.036-.683.072-.683.719,0,.431.323.431.863.431,1.723,0,1.795.252,1.795.609l-.108.719-5.208,20.688c-.144.502-.144.573-.144.789,0,.827.719,1.006,1.042,1.006.575,0,1.148-.431,1.328-.934l.683-2.73.791-3.231c.214-.791.43-1.581.609-2.406.072-.216.359-1.402.395-1.617.108-.322,1.222-2.334,2.442-3.303.791-.575,1.903-1.258,3.448-1.258s1.939,1.222,1.939,2.514c0,1.939-1.366,5.855-2.226,8.045-.288.827-.467,1.256-.467,1.975,0,1.688,1.258,2.945,2.945,2.945,3.375,0,4.705-5.244,4.705-5.531,0-.359-.323-.359-.431-.359-.359,0-.359.108-.539.647-.539,1.903-1.688,4.453-3.663,4.453-.611,0-.862-.359-.862-1.184,0-.898.323-1.761.647-2.55.575-1.545,2.191-5.819,2.191-7.902,0-2.334-1.436-3.842-4.13-3.842-2.263,0-3.988,1.113-5.316,2.764l2.802-11.42"/>
  </g>
  <g class="cls-24">
    <path class="cls-10" d="m793.97,315.34c-.503.467-1.688,1.472-1.688,2.119,0,.359.359.719.717.719.323,0,.503-.252.683-.467.431-.539,1.258-1.544,2.837-2.334.252-.144.611-.323.611-.755,0-.359-.252-.539-.503-.719-.791-.538-1.186-1.184-1.474-2.047-.07-.323-.214-.789-.717-.789s-.719.466-.719.753c0,.18.288,1.33.863,2.083h-12.103c-.611,0-1.258,0-1.258.719s.647.719,1.258.719h11.492"/>
    <path class="cls-10" d="m787.654,334.697c.395,1.472,1.652,2.406,3.195,2.406,1.258,0,2.084-.827,2.658-1.975.611-1.294,1.078-3.484,1.078-3.556,0-.359-.323-.359-.431-.359-.359,0-.395.144-.503.647-.503,2.011-1.184,4.453-2.694,4.453-.753,0-1.113-.467-1.113-1.652,0-.791.431-2.478.719-3.736l1.005-3.878c.108-.539.467-1.903.611-2.442.18-.827.539-2.191.539-2.406,0-.647-.503-.97-1.042-.97-.18,0-1.113.036-1.4,1.258-.683,2.622-2.262,8.906-2.694,10.809-.036.144-1.473,3.017-4.094,3.017-1.869,0-2.228-1.616-2.228-2.945,0-2.011,1.006-4.848,1.941-7.327.43-1.077.609-1.58.609-2.262,0-1.616-1.148-2.944-2.944-2.944-3.413,0-4.741,5.206-4.741,5.53,0,.359.358.359.43.359.359,0,.395-.072.575-.647.898-3.123,2.263-4.453,3.628-4.453.323,0,.897.036.897,1.186,0,.861-.395,1.903-.609,2.442-1.33,3.555-2.084,5.781-2.084,7.542,0,3.411,2.478,4.309,4.419,4.309,2.37,0,3.663-1.616,4.273-2.406"/>
  </g>
  <g class="cls-22">
    <path class="cls-10" d="m927.798,379.183c-.503.467-1.688,1.472-1.688,2.119,0,.359.359.719.717.719.324,0,.503-.251.683-.467.431-.539,1.258-1.544,2.838-2.334.252-.144.611-.323.611-.755,0-.359-.252-.539-.503-.719-.791-.537-1.186-1.184-1.473-2.047-.07-.324-.214-.789-.717-.789s-.719.466-.719.753c0,.18.287,1.33.863,2.083h-12.103c-.611,0-1.258,0-1.258.719s.647.719,1.258.719h11.492"/>
    <path class="cls-10" d="m921.22,385.423c0-.036,0-.395-.467-.395-.827,0-3.448.288-4.381.359-.287.036-.683.072-.683.719,0,.431.323.431.863.431,1.723,0,1.795.252,1.795.609l-.108.719-5.208,20.688c-.144.502-.144.573-.144.789,0,.827.719,1.006,1.042,1.006.575,0,1.148-.431,1.328-.934l.683-2.73.791-3.231c.214-.791.43-1.581.609-2.406.072-.216.359-1.402.395-1.617.108-.322,1.222-2.334,2.442-3.303.791-.575,1.903-1.258,3.448-1.258s1.939,1.222,1.939,2.514c0,1.939-1.366,5.855-2.226,8.045-.288.827-.467,1.256-.467,1.975,0,1.688,1.258,2.945,2.945,2.945,3.375,0,4.705-5.244,4.705-5.531,0-.359-.323-.359-.431-.359-.359,0-.359.108-.539.647-.539,1.903-1.688,4.453-3.663,4.453-.611,0-.862-.359-.862-1.184,0-.898.323-1.761.647-2.55.575-1.545,2.191-5.819,2.191-7.902,0-2.334-1.436-3.842-4.13-3.842-2.263,0-3.988,1.113-5.316,2.764l2.802-11.42"/>
  </g>
</svg>