<?xml version="1.0" encoding="UTF-8"?>
<svg id="Layer_1" data-name="Layer 1" xmlns="http://www.w3.org/2000/svg" xmlns:xlink="http://www.w3.org/1999/xlink" viewBox="0 0 1412.279 415.815">
  <defs>
    <style>
      .cls-1 {
        stroke-width: 3px;
      }

      .cls-1, .cls-2, .cls-3, .cls-4, .cls-5 {
        fill: none;
      }

      .cls-1, .cls-6, .cls-7, .cls-8, .cls-3, .cls-4, .cls-5 {
        stroke-miterlimit: 10;
      }

      .cls-1, .cls-6, .cls-7, .cls-8, .cls-3, .cls-5 {
        stroke: #000;
      }

      .cls-9 {
        clip-path: url(#clippath);
      }

      .cls-2, .cls-10, .cls-11 {
        stroke-width: 0px;
      }

      .cls-12 {
        letter-spacing: 0em;
      }

      .cls-6 {
        fill: #e6f1ff;
      }

      .cls-6, .cls-7, .cls-8, .cls-3, .cls-4 {
        stroke-width: 2px;
      }

      .cls-7 {
        fill: #ffd7a5;
      }

      .cls-8 {
        fill: #d0ffb9;
      }

      .cls-13 {
        clip-path: url(#clippath-1);
      }

      .cls-14 {
        clip-path: url(#clippath-4);
      }

      .cls-15 {
        clip-path: url(#clippath-3);
      }

      .cls-16 {
        clip-path: url(#clippath-2);
      }

      .cls-17 {
        clip-path: url(#clippath-7);
      }

      .cls-18 {
        clip-path: url(#clippath-8);
      }

      .cls-19 {
        clip-path: url(#clippath-6);
      }

      .cls-20 {
        clip-path: url(#clippath-5);
      }

      .cls-21 {
        clip-path: url(#clippath-9);
      }

      .cls-22 {
        clip-path: url(#clippath-12);
      }

      .cls-23 {
        clip-path: url(#clippath-10);
      }

      .cls-24 {
        clip-path: url(#clippath-11);
      }

      .cls-4 {
        stroke: gray;
      }

      .cls-25 {
        font-family: Avenir-Heavy, Avenir;
        font-size: 50px;
        font-weight: 800;
      }

      .cls-26 {
        font-family: Avenir-Book, Avenir;
        font-size: 20px;
      }

      .cls-5 {
        opacity: 0;
        stroke-width: 0px;
      }

      .cls-11 {
        fill: gray;
      }
    </style>
    <clipPath id="clippath">
      <rect class="cls-2" x="138.745" y="201.177" width="30.404" height="30.404"/>
    </clipPath>
    <clipPath id="clippath-1">
      <rect class="cls-2" x="1025.279" y="27.157" width="152" height="33"/>
    </clipPath>
    <clipPath id="clippath-2">
      <rect class="cls-2" x="1025.279" y="175.84" width="269" height="33"/>
    </clipPath>
    <clipPath id="clippath-3">
      <rect class="cls-2" x="1025.279" y="309.154" width="387" height="33"/>
    </clipPath>
    <clipPath id="clippath-4">
      <rect class="cls-2" x="30.176" y="155.646" width="22" height="27"/>
    </clipPath>
    <clipPath id="clippath-5">
      <rect class="cls-2" x="31.744" y="239.065" width="19" height="36"/>
    </clipPath>
    <clipPath id="clippath-6">
      <rect class="cls-2" x="369.373" y="136.493" width="154" height="43"/>
    </clipPath>
    <clipPath id="clippath-7">
      <rect class="cls-2" x="740.64" y=".14" width="22" height="27"/>
    </clipPath>
    <clipPath id="clippath-8">
      <rect class="cls-2" x="823.14" y="65.64" width="19" height="36"/>
    </clipPath>
    <clipPath id="clippath-9">
      <rect class="cls-2" x="740.574" y="142.416" width="22" height="27"/>
    </clipPath>
    <clipPath id="clippath-10">
      <rect class="cls-2" x="851.074" y="208.916" width="19" height="36"/>
    </clipPath>
    <clipPath id="clippath-11">
      <rect class="cls-2" x="740.574" y="281.416" width="22" height="27"/>
    </clipPath>
    <clipPath id="clippath-12">
      <rect class="cls-2" x="877.402" y="345.46" width="19" height="36"/>
    </clipPath>
  </defs>
  <g>
    <rect class="cls-6" x="140.392" y="92" width="28" height="168" transform="translate(-21.608 330.392) rotate(-90)"/>
    <rect class="cls-6" x="70.392" y="162" width="28" height="28" transform="translate(-91.608 260.392) rotate(-90)"/>
    <rect class="cls-6" x="98.392" y="162" width="28" height="28" transform="translate(-63.608 288.392) rotate(-90)"/>
    <rect class="cls-6" x="126.392" y="162" width="28" height="28" transform="translate(-35.608 316.392) rotate(-90)"/>
    <rect class="cls-6" x="154.392" y="162" width="28" height="28" transform="translate(-7.608 344.392) rotate(-90)"/>
    <rect class="cls-6" x="182.392" y="162" width="28" height="28" transform="translate(20.392 372.392) rotate(-90)"/>
    <rect class="cls-6" x="210.392" y="162" width="28" height="28" transform="translate(48.392 400.392) rotate(-90)"/>
  </g>
  <g>
    <rect class="cls-8" x="140.392" y="173" width="28" height="168" transform="translate(-102.608 411.392) rotate(-90)"/>
    <rect class="cls-8" x="70.392" y="243" width="28" height="28" transform="translate(-172.608 341.392) rotate(-90)"/>
    <rect class="cls-8" x="98.392" y="243" width="28" height="28" transform="translate(-144.608 369.392) rotate(-90)"/>
    <rect class="cls-8" x="126.392" y="243" width="28" height="28" transform="translate(-116.608 397.392) rotate(-90)"/>
    <rect class="cls-8" x="154.392" y="243" width="28" height="28" transform="translate(-88.608 425.392) rotate(-90)"/>
    <rect class="cls-8" x="182.392" y="243" width="28" height="28" transform="translate(-60.608 453.392) rotate(-90)"/>
    <rect class="cls-8" x="210.392" y="243" width="28" height="28" transform="translate(-32.608 481.392) rotate(-90)"/>
  </g>
  <polygon class="cls-5" points="46.458 186.281 46.458 186.28 46.458 186.28 46.458 186.28 46.458 186.28 46.458 186.28 46.458 186.28 46.458 186.28 46.458 186.28 46.458 186.28 46.458 186.28 46.458 186.28 46.458 186.28 46.458 186.28 46.458 186.28 46.458 186.28 46.458 186.28 46.458 186.28 46.458 186.28 46.458 186.28 46.458 186.28 46.458 186.28 46.458 186.28 46.458 186.28 46.458 186.28 46.458 186.28 46.458 186.28 46.458 186.28 46.458 186.28 46.458 186.28 46.458 186.28 46.458 186.28 46.458 186.28 46.458 186.28 46.458 186.28 46.458 186.28 46.458 186.28 46.458 186.28 46.458 186.28 46.458 186.28 46.458 186.28 46.458 186.28 46.458 186.28 46.458 186.28 46.458 186.28 46.458 186.28 46.458 186.28 46.458 186.28 46.458 186.28 46.458 186.28 46.458 186.28 46.458 186.28 46.458 186.28 46.458 186.28 46.458 186.28 46.458 186.28 46.458 186.28 46.458 186.28 46.458 186.28 46.458 186.28 46.458 186.28 46.458 186.28 46.458 186.28 46.458 186.28 46.458 186.28 46.458 186.28 46.458 186.28 46.458 186.28 46.458 186.28 46.458 186.28 46.458 186.28 46.458 186.28 46.458 186.28 46.458 186.28 46.458 186.28 46.458 186.28 46.458 186.28 46.458 186.28 46.458 186.28 46.458 186.28 46.458 186.28 46.458 186.28 46.458 186.28 46.458 186.28 46.458 186.28 46.458 186.28 46.458 186.28 46.458 186.28 46.458 186.28 46.458 186.28 46.458 186.28 46.458 186.28 46.458 186.28 46.458 186.28 46.458 186.28 46.458 186.28 46.458 186.28 46.458 186.28 46.458 186.28 46.458 186.28 46.458 186.28 46.458 186.28 46.458 186.28 46.458 186.28 46.458 186.28 46.458 186.28 46.458 186.28 46.458 186.28 46.458 186.28 46.458 186.28 46.458 186.28 46.458 186.28 46.458 186.28 46.458 186.28 46.458 186.28 46.458 186.28 46.458 186.28 46.458 186.28 46.458 186.28 46.458 186.28 46.458 186.28 46.458 186.28 46.458 186.28 46.458 186.28 46.458 186.28 46.458 186.28 46.458 186.28 46.458 186.28 46.458 186.28 46.458 186.28 46.458 186.28 46.458 186.28 46.458 186.28 46.458 186.28 46.458 186.28 46.458 186.28 46.458 186.28 46.458 186.28 46.458 186.28 46.458 186.28 46.458 186.28 46.458 186.28 46.458 186.28 46.458 186.28 46.458 186.28 46.458 186.28 46.458 186.28 46.458 186.28 46.458 186.28 46.458 186.281"/>
  <polygon class="cls-5" points="42.086 250.203 42.086 250.203 42.086 250.203 42.086 250.203 42.086 250.203 42.086 250.203 42.086 250.203 42.086 250.203 42.086 250.203 42.086 250.203 42.086 250.203 42.086 250.203 42.086 250.203 42.086 250.203 42.086 250.203 42.086 250.203 42.086 250.203 42.086 250.203 42.086 250.203 42.086 250.203 42.086 250.203 42.086 250.203 42.086 250.203 42.086 250.203 42.086 250.203 42.086 250.203 42.086 250.203 42.086 250.203 42.086 250.203 42.086 250.203 42.086 250.203 42.086 250.203 42.086 250.203 42.086 250.203 42.086 250.203 42.086 250.203 42.086 250.203 42.086 250.203 42.086 250.203 42.086 250.203 42.086 250.203 42.086 250.203 42.086 250.203 42.086 250.203 42.086 250.203 42.086 250.203 42.086 250.203 42.086 250.203 42.086 250.203 42.086 250.203 42.086 250.203 42.086 250.203 42.086 250.203 42.086 250.203 42.086 250.203 42.086 250.203 42.086 250.203 42.086 250.203 42.086 250.203 42.086 250.203 42.086 250.203 42.086 250.203 42.086 250.203 42.086 250.203 42.086 250.203 42.086 250.203 42.086 250.203 42.086 250.203 42.086 250.203 42.086 250.203 42.086 250.203 42.086 250.203 42.086 250.203 42.086 250.203 42.086 250.203 42.086 250.203 42.086 250.203 42.086 250.203 42.086 250.203 42.086 250.203 42.086 250.203 42.086 250.203 42.086 250.203 42.086 250.203 42.086 250.203 42.086 250.203 42.086 250.203 42.086 250.203 42.086 250.203 42.086 250.203 42.086 250.203 42.086 250.203 42.086 250.203 42.086 250.203 42.086 250.203 42.086 250.203 42.086 250.203 42.086 250.203 42.086 250.203 42.086 250.203 42.086 250.203 42.086 250.203 42.086 250.203 42.086 250.203 42.086 250.203 42.086 250.203 42.086 250.203 42.086 250.203 42.086 250.203 42.086 250.203 42.086 250.203 42.086 250.203 42.086 250.203 42.086 250.203 42.086 250.203 42.086 250.203 42.086 250.203 42.086 250.203 42.086 250.203 42.086 250.203 42.086 250.203 42.086 250.203 42.086 250.203 42.086 250.203 42.086 250.203 42.086 250.203 42.086 250.203 42.086 250.203 42.086 250.203 42.086 250.203 42.086 250.203 42.086 250.203 42.086 250.203 42.086 250.203 42.086 250.203 42.086 250.203 42.086 250.203 42.086 250.203 42.086 250.203 42.086 250.203 42.086 250.203 42.086 250.203 42.086 250.203 42.086 250.203 42.086 250.203 42.086 250.203 42.086 250.203 42.086 250.203 42.086 250.203 42.086 250.203"/>
  <g>
    <rect class="cls-7" x="445.392" y="133" width="28" height="168" transform="translate(242.392 676.392) rotate(-90)"/>
    <rect class="cls-7" x="375.392" y="203" width="28" height="28" transform="translate(172.392 606.392) rotate(-90)"/>
    <rect class="cls-7" x="403.392" y="203" width="28" height="28" transform="translate(200.392 634.392) rotate(-90)"/>
    <rect class="cls-7" x="431.392" y="203" width="28" height="28" transform="translate(228.392 662.392) rotate(-90)"/>
    <rect class="cls-7" x="459.392" y="203" width="28" height="28" transform="translate(256.392 690.392) rotate(-90)"/>
    <rect class="cls-7" x="487.392" y="203" width="28" height="28" transform="translate(284.392 718.392) rotate(-90)"/>
    <rect class="cls-7" x="515.392" y="203" width="28" height="28" transform="translate(312.392 746.392) rotate(-90)"/>
  </g>
  <g>
    <line class="cls-3" x1="269.59" y1="216" x2="342.437" y2="216"/>
    <polygon class="cls-10" points="338.224 221.555 340.584 216 338.224 210.445 351.392 216 338.224 221.555"/>
  </g>
  <g class="cls-9">
    <path class="cls-10" d="m159.415,220.955c.546.364,1.275.956,1.639.956.683,0,1.227-.637,1.227-1.275,0-.681-.317-.818-1.045-1.182-.592-.319-3.412-1.593-6.279-3.048l6.37-3.048c.637-.364.954-.501.954-1.184,0-.637-.544-1.273-1.227-1.273-.41,0-.683.226-.82.317l-5.778,4.277.637-7.144c.045-.635.045-1.774-1.184-1.774-.683,0-1.318.592-1.182,1.184v.59l.635,7.098-4.959-3.595c-.546-.364-1.275-.954-1.637-.954-.683,0-1.229.635-1.229,1.273,0,.683.455.911.911,1.138l6.415,3.094-6.37,3.048c-.637.364-.956.501-.956,1.182,0,.637.546,1.275,1.229,1.275.317,0,1.045-.546,1.546-.911l5.05-3.64-.681,7.645c0,.819.726,1.184,1.227,1.184s1.229-.364,1.229-1.184c0-.137-.228-2.274-.228-2.456,0-.046-.182-1.821-.228-2.73l-.228-2.458,4.958,3.595m-5.505,9.464c-7.734,0-14.012-6.279-14.012-14.012s6.279-14.014,14.012-14.014,14.014,6.279,14.014,14.014-6.279,14.012-14.014,14.012Zm15.151-14.012c0-8.373-6.825-15.151-15.151-15.151-8.371,0-15.151,6.823-15.151,15.151,0,8.371,6.825,15.151,15.151,15.151,8.371,0,15.151-6.825,15.151-15.151Z"/>
  </g>
  <g>
    <g>
      <rect class="cls-6" x="849.392" y="-69" width="28" height="168" transform="translate(848.392 878.392) rotate(-90)"/>
      <rect class="cls-6" x="779.392" y="1" width="28" height="28" transform="translate(778.392 808.392) rotate(-90)"/>
      <rect class="cls-6" x="807.392" y="1" width="28" height="28" transform="translate(806.392 836.392) rotate(-90)"/>
      <rect class="cls-6" x="835.392" y="1" width="28" height="28" transform="translate(834.392 864.392) rotate(-90)"/>
      <rect class="cls-6" x="863.392" y="1" width="28" height="28" transform="translate(862.392 892.392) rotate(-90)"/>
      <rect class="cls-6" x="891.392" y="1" width="28" height="28" transform="translate(890.392 920.392) rotate(-90)"/>
      <rect class="cls-6" x="919.392" y="1" width="28" height="28" transform="translate(918.392 948.392) rotate(-90)"/>
    </g>
    <text class="cls-26" transform="translate(787.651 23.099)"><tspan x="0" y="0">0</tspan></text>
    <text class="cls-26" transform="translate(816.289 23.098)"><tspan x="0" y="0">1</tspan></text>
    <text class="cls-26" transform="translate(844.289 23.098)"><tspan x="0" y="0">2</tspan></text>
    <text class="cls-26" transform="translate(872.289 23.099)"><tspan x="0" y="0">3</tspan></text>
    <text class="cls-26" transform="translate(900.289 23.099)"><tspan x="0" y="0">4</tspan></text>
    <text class="cls-26" transform="translate(928.289 23.099)"><tspan x="0" y="0">5</tspan></text>
  </g>
  <g>
    <g>
      <rect class="cls-8" x="709.392" y="3" width="28" height="168" transform="translate(636.392 810.392) rotate(-90)"/>
      <rect class="cls-8" x="639.392" y="73" width="28" height="28" transform="translate(566.392 740.392) rotate(-90)"/>
      <rect class="cls-8" x="667.392" y="73" width="28" height="28" transform="translate(594.392 768.392) rotate(-90)"/>
      <rect class="cls-8" x="695.392" y="73" width="28" height="28" transform="translate(622.392 796.392) rotate(-90)"/>
      <rect class="cls-8" x="723.392" y="73" width="28" height="28" transform="translate(650.392 824.392) rotate(-90)"/>
      <rect class="cls-8" x="751.392" y="73" width="28" height="28" transform="translate(678.392 852.392) rotate(-90)"/>
      <rect class="cls-8" x="779.392" y="73" width="28" height="28" transform="translate(706.392 880.392) rotate(-90)"/>
    </g>
    <text class="cls-26" transform="translate(787.527 94.24)"><tspan x="0" y="0">0</tspan></text>
    <text class="cls-26" transform="translate(760.166 94.239)"><tspan x="0" y="0">1</tspan></text>
    <text class="cls-26" transform="translate(732.166 94.239)"><tspan x="0" y="0">2</tspan></text>
    <text class="cls-26" transform="translate(704.166 94.239)"><tspan x="0" y="0">3</tspan></text>
    <text class="cls-26" transform="translate(676.166 94.239)"><tspan x="0" y="0">4</tspan></text>
    <text class="cls-26" transform="translate(648.166 94.24)"><tspan x="0" y="0">5</tspan></text>
  </g>
  <g>
    <line class="cls-4" x1="793.392" y1="40.242" x2="793.392" y2="60.758"/>
    <path class="cls-11" d="m793.392,33c-1.264,3.408-3.422,7.636-5.707,10.257l5.707-2.064,5.706,2.064c-2.285-2.621-4.443-6.849-5.706-10.257Z"/>
    <path class="cls-11" d="m793.392,68c-1.264-3.408-3.422-7.636-5.707-10.257l5.707,2.064,5.706-2.064c-2.285,2.621-4.443,6.849-5.706,10.257Z"/>
  </g>
  <g>
    <g>
      <rect class="cls-6" x="849.116" y="75.347" width="28" height="168" transform="translate(703.769 1022.463) rotate(-90)"/>
      <rect class="cls-6" x="779.116" y="145.347" width="28" height="28" transform="translate(633.769 952.463) rotate(-90)"/>
      <rect class="cls-6" x="807.116" y="145.347" width="28" height="28" transform="translate(661.769 980.463) rotate(-90)"/>
      <rect class="cls-6" x="835.116" y="145.347" width="28" height="28" transform="translate(689.769 1008.463) rotate(-90)"/>
      <rect class="cls-6" x="863.116" y="145.347" width="28" height="28" transform="translate(717.769 1036.463) rotate(-90)"/>
      <rect class="cls-6" x="891.116" y="145.347" width="28" height="28" transform="translate(745.769 1064.463) rotate(-90)"/>
      <rect class="cls-6" x="919.116" y="145.347" width="28" height="28" transform="translate(773.769 1092.463) rotate(-90)"/>
    </g>
    <text class="cls-26" transform="translate(787.375 167.446)"><tspan x="0" y="0">0</tspan></text>
    <text class="cls-26" transform="translate(816.013 167.445)"><tspan x="0" y="0">1</tspan></text>
    <text class="cls-26" transform="translate(844.014 167.445)"><tspan x="0" y="0">2</tspan></text>
    <text class="cls-26" transform="translate(872.014 167.446)"><tspan x="0" y="0">3</tspan></text>
    <text class="cls-26" transform="translate(900.013 167.446)"><tspan x="0" y="0">4</tspan></text>
    <text class="cls-26" transform="translate(928.013 167.446)"><tspan x="0" y="0">5</tspan></text>
  </g>
  <g>
    <g>
      <rect class="cls-8" x="737.116" y="147.347" width="28" height="168" transform="translate(519.769 982.463) rotate(-90)"/>
      <rect class="cls-8" x="667.116" y="217.347" width="28" height="28" transform="translate(449.769 912.463) rotate(-90)"/>
      <rect class="cls-8" x="695.116" y="217.347" width="28" height="28" transform="translate(477.769 940.463) rotate(-90)"/>
      <rect class="cls-8" x="723.116" y="217.347" width="28" height="28" transform="translate(505.769 968.463) rotate(-90)"/>
      <rect class="cls-8" x="751.116" y="217.347" width="28" height="28" transform="translate(533.769 996.463) rotate(-90)"/>
      <rect class="cls-8" x="779.116" y="217.347" width="28" height="28" transform="translate(561.769 1024.463) rotate(-90)"/>
      <rect class="cls-8" x="807.116" y="217.347" width="28" height="28" transform="translate(589.769 1052.463) rotate(-90)"/>
    </g>
    <text class="cls-26" transform="translate(815.251 238.586)"><tspan x="0" y="0">0</tspan></text>
    <text class="cls-26" transform="translate(787.89 238.586)"><tspan x="0" y="0">1</tspan></text>
    <text class="cls-26" transform="translate(759.89 238.586)"><tspan x="0" y="0">2</tspan></text>
    <text class="cls-26" transform="translate(731.89 238.586)"><tspan x="0" y="0">3</tspan></text>
    <text class="cls-26" transform="translate(703.89 238.586)"><tspan x="0" y="0">4</tspan></text>
    <text class="cls-26" transform="translate(675.89 238.586)"><tspan x="0" y="0">5</tspan></text>
  </g>
  <g>
    <line class="cls-4" x1="793.116" y1="184.589" x2="793.116" y2="205.105"/>
    <path class="cls-11" d="m793.116,177.347c-1.264,3.408-3.422,7.636-5.707,10.257l5.707-2.064,5.706,2.064c-2.285-2.621-4.443-6.849-5.706-10.257Z"/>
    <path class="cls-11" d="m793.116,212.347c-1.264-3.408-3.422-7.636-5.707-10.257l5.707,2.064,5.706-2.064c-2.285,2.621-4.443,6.849-5.706,10.257Z"/>
  </g>
  <g>
    <line class="cls-4" x1="821.392" y1="185.242" x2="821.392" y2="205.758"/>
    <path class="cls-11" d="m821.392,178c-1.264,3.408-3.422,7.636-5.707,10.257l5.707-2.064,5.706,2.064c-2.285-2.621-4.443-6.849-5.706-10.257Z"/>
    <path class="cls-11" d="m821.392,213c-1.264-3.408-3.422-7.636-5.707-10.257l5.707,2.064,5.706-2.064c-2.285,2.621-4.443,6.849-5.706,10.257Z"/>
  </g>
  <g>
    <g>
      <rect class="cls-6" x="849.214" y="211.036" width="28" height="168" transform="translate(568.178 1158.25) rotate(-90)"/>
      <rect class="cls-6" x="779.214" y="281.036" width="28" height="28" transform="translate(498.178 1088.25) rotate(-90)"/>
      <rect class="cls-6" x="807.214" y="281.036" width="28" height="28" transform="translate(526.178 1116.25) rotate(-90)"/>
      <rect class="cls-6" x="835.214" y="281.036" width="28" height="28" transform="translate(554.178 1144.25) rotate(-90)"/>
      <rect class="cls-6" x="863.214" y="281.036" width="28" height="28" transform="translate(582.178 1172.25) rotate(-90)"/>
      <rect class="cls-6" x="891.214" y="281.036" width="28" height="28" transform="translate(610.178 1200.25) rotate(-90)"/>
      <rect class="cls-6" x="919.214" y="281.036" width="28" height="28" transform="translate(638.178 1228.25) rotate(-90)"/>
    </g>
    <text class="cls-26" transform="translate(787.473 303.135)"><tspan x="0" y="0">0</tspan></text>
    <text class="cls-26" transform="translate(816.112 303.135)"><tspan x="0" y="0">1</tspan></text>
    <text class="cls-26" transform="translate(844.112 303.134)"><tspan x="0" y="0">2</tspan></text>
    <text class="cls-26" transform="translate(872.112 303.135)"><tspan x="0" y="0">3</tspan></text>
    <text class="cls-26" transform="translate(900.112 303.135)"><tspan x="0" y="0">4</tspan></text>
    <text class="cls-26" transform="translate(928.112 303.135)"><tspan x="0" y="0">5</tspan></text>
  </g>
  <g>
    <g>
      <rect class="cls-8" x="765.214" y="283.036" width="28" height="168" transform="translate(412.178 1146.25) rotate(-90)"/>
      <rect class="cls-8" x="695.214" y="353.036" width="28" height="28" transform="translate(342.178 1076.25) rotate(-90)"/>
      <rect class="cls-8" x="723.214" y="353.036" width="28" height="28" transform="translate(370.178 1104.25) rotate(-90)"/>
      <rect class="cls-8" x="751.214" y="353.036" width="28" height="28" transform="translate(398.178 1132.25) rotate(-90)"/>
      <rect class="cls-8" x="779.214" y="353.036" width="28" height="28" transform="translate(426.178 1160.25) rotate(-90)"/>
      <rect class="cls-8" x="807.214" y="353.036" width="28" height="28" transform="translate(454.178 1188.25) rotate(-90)"/>
      <rect class="cls-8" x="835.214" y="353.036" width="28" height="28" transform="translate(482.178 1216.25) rotate(-90)"/>
    </g>
    <text class="cls-26" transform="translate(843.35 374.276)"><tspan x="0" y="0">0</tspan></text>
    <text class="cls-26" transform="translate(815.989 374.276)"><tspan x="0" y="0">1</tspan></text>
    <text class="cls-26" transform="translate(787.989 374.275)"><tspan x="0" y="0">2</tspan></text>
    <text class="cls-26" transform="translate(759.989 374.275)"><tspan x="0" y="0">3</tspan></text>
    <text class="cls-26" transform="translate(731.988 374.275)"><tspan x="0" y="0">4</tspan></text>
    <text class="cls-26" transform="translate(703.989 374.276)"><tspan x="0" y="0">5</tspan></text>
  </g>
  <g>
    <line class="cls-4" x1="793.214" y1="320.278" x2="793.214" y2="340.794"/>
    <path class="cls-11" d="m793.214,313.036c-1.264,3.408-3.422,7.636-5.707,10.257l5.707-2.064,5.706,2.064c-2.285-2.621-4.443-6.849-5.706-10.257Z"/>
    <path class="cls-11" d="m793.214,348.036c-1.264-3.408-3.422-7.636-5.707-10.257l5.707,2.064,5.706-2.064c-2.285,2.621-4.443,6.849-5.706,10.257Z"/>
  </g>
  <g>
    <line class="cls-4" x1="821.49" y1="320.931" x2="821.49" y2="341.447"/>
    <path class="cls-11" d="m821.49,313.689c-1.264,3.408-3.422,7.636-5.707,10.257l5.707-2.064,5.706,2.064c-2.285-2.621-4.443-6.849-5.706-10.257Z"/>
    <path class="cls-11" d="m821.49,348.689c-1.264-3.408-3.422-7.636-5.707-10.257l5.707,2.064,5.706-2.064c-2.285,2.621-4.443,6.849-5.706,10.257Z"/>
  </g>
  <g>
    <line class="cls-4" x1="849.392" y1="321.242" x2="849.392" y2="341.758"/>
    <path class="cls-11" d="m849.392,314c-1.264,3.408-3.422,7.636-5.707,10.257l5.707-2.064,5.706,2.064c-2.285-2.621-4.443-6.849-5.706-10.257Z"/>
    <path class="cls-11" d="m849.392,349c-1.264-3.408-3.422-7.636-5.707-10.257l5.707,2.064,5.706-2.064c-2.285,2.621-4.443,6.849-5.706,10.257Z"/>
  </g>
  <polygon class="cls-5" points="1019.537 53.329 1019.537 53.329 1019.537 53.329 1019.537 53.329 1019.537 53.329 1019.537 53.329 1019.537 53.329 1019.537 53.329 1019.537 53.329 1019.537 53.329 1019.537 53.329 1019.537 53.329 1019.537 53.329 1019.537 53.329 1019.537 53.329 1019.537 53.329 1019.537 53.329 1019.537 53.329 1019.537 53.329 1019.537 53.329 1019.537 53.329 1019.537 53.329 1019.537 53.329 1019.537 53.329 1019.537 53.329 1019.537 53.329 1019.537 53.329 1019.537 53.329 1019.537 53.329 1019.537 53.329 1019.537 53.329 1019.537 53.329 1019.537 53.329 1019.537 53.329 1019.537 53.329 1019.537 53.329 1019.537 53.329 1019.537 53.329 1019.537 53.329 1019.537 53.329 1019.537 53.329 1019.537 53.329 1019.537 53.329 1019.537 53.329 1019.537 53.329 1019.537 53.329 1019.537 53.329 1019.537 53.329 1019.537 53.329 1019.537 53.329 1019.537 53.329 1019.537 53.329 1019.537 53.329 1019.537 53.329 1019.537 53.329 1019.537 53.329 1019.537 53.329 1019.537 53.329 1019.537 53.329 1019.537 53.329 1019.537 53.329 1019.537 53.329 1019.537 53.329 1019.537 53.329 1019.537 53.329 1019.537 53.329 1019.537 53.329 1019.537 53.329 1019.537 53.329 1019.537 53.329 1019.537 53.329 1019.537 53.329 1019.537 53.329 1019.537 53.329 1019.537 53.329 1019.537 53.329 1019.537 53.329 1019.537 53.329 1019.537 53.329 1019.537 53.329 1019.537 53.329 1019.537 53.329 1019.537 53.329 1019.537 53.329 1019.537 53.329 1019.537 53.329 1019.537 53.329 1019.537 53.329 1019.537 53.329 1019.537 53.329 1019.537 53.329 1019.537 53.329 1019.537 53.329 1019.537 53.329 1019.537 53.329 1019.537 53.329 1019.537 53.329 1019.537 53.329 1019.537 53.329 1019.537 53.329 1019.537 53.329 1019.537 53.329 1019.537 53.329 1019.537 53.329 1019.537 53.329 1019.537 53.329 1019.537 53.329 1019.537 53.329 1019.537 53.329 1019.537 53.329 1019.537 53.329 1019.537 53.329 1019.537 53.329 1019.537 53.329 1019.537 53.329 1019.537 53.329 1019.537 53.329 1019.537 53.329 1019.537 53.329 1019.537 53.329 1019.537 53.329 1019.537 53.329 1019.537 53.329 1019.537 53.329 1019.537 53.329 1019.537 53.329 1019.537 53.329 1019.537 53.329 1019.537 53.329 1019.537 53.329 1019.537 53.329 1019.537 53.329 1019.537 53.329 1019.537 53.329 1019.537 53.329 1019.537 53.329 1019.537 53.329 1019.537 53.329 1019.537 53.329 1019.537 53.329 1019.537 53.329 1019.537 53.329 1019.537 53.329 1019.537 53.329 1019.537 53.329 1019.537 53.329 1019.537 53.329 1019.537 53.329 1019.537 53.329 1019.537 53.329 1019.537 53.329 1019.537 53.329 1019.537 53.329"/>
  <polygon class="cls-5" points="1023.686 192.319 1023.686 192.319 1023.686 192.319 1023.686 192.319 1023.686 192.319 1023.686 192.319 1023.686 192.319 1023.686 192.319 1023.686 192.319 1023.686 192.319 1023.686 192.319 1023.686 192.319 1023.686 192.319 1023.686 192.319 1023.686 192.319 1023.686 192.319 1023.686 192.319 1023.686 192.319 1023.686 192.319 1023.686 192.319 1023.686 192.319 1023.686 192.319 1023.686 192.319 1023.686 192.319 1023.686 192.319 1023.686 192.319 1023.686 192.319 1023.686 192.319 1023.686 192.319 1023.686 192.319 1023.686 192.319 1023.686 192.319 1023.686 192.319 1023.686 192.319 1023.686 192.319 1023.686 192.319 1023.686 192.319 1023.686 192.319 1023.686 192.319 1023.686 192.319 1023.686 192.319 1023.686 192.319 1023.686 192.319 1023.686 192.319 1023.686 192.319 1023.686 192.319 1023.686 192.319 1023.686 192.319 1023.686 192.319 1023.686 192.319 1023.686 192.319 1023.686 192.319 1023.686 192.319 1023.686 192.319 1023.686 192.319 1023.686 192.319 1023.686 192.319 1023.686 192.319 1023.686 192.319 1023.686 192.319 1023.686 192.319 1023.686 192.319 1023.686 192.319 1023.686 192.319 1023.686 192.319 1023.686 192.319 1023.686 192.319 1023.686 192.319 1023.686 192.319 1023.686 192.319 1023.686 192.319 1023.686 192.319 1023.686 192.319 1023.686 192.319 1023.686 192.319 1023.686 192.319 1023.686 192.319 1023.686 192.319 1023.686 192.319 1023.686 192.319 1023.686 192.319 1023.686 192.319 1023.686 192.319 1023.686 192.319 1023.686 192.319 1023.686 192.319 1023.686 192.319 1023.686 192.319 1023.686 192.319 1023.686 192.319 1023.686 192.319 1023.686 192.319 1023.686 192.319 1023.686 192.319 1023.686 192.319 1023.686 192.319 1023.686 192.319 1023.686 192.319 1023.686 192.319 1023.686 192.319 1023.686 192.319 1023.686 192.319 1023.686 192.319 1023.686 192.319 1023.686 192.319 1023.686 192.319 1023.686 192.319 1023.686 192.319 1023.686 192.319 1023.686 192.319 1023.686 192.319 1023.686 192.319 1023.686 192.319 1023.686 192.319 1023.686 192.319 1023.686 192.319 1023.686 192.319 1023.686 192.319 1023.686 192.319 1023.686 192.319 1023.686 192.319 1023.686 192.319 1023.686 192.319 1023.686 192.319 1023.686 192.319 1023.686 192.319 1023.686 192.319 1023.686 192.319 1023.686 192.319 1023.686 192.319 1023.686 192.319 1023.686 192.319 1023.686 192.319 1023.686 192.319 1023.686 192.319 1023.686 192.319 1023.686 192.319 1023.686 192.319 1023.686 192.319 1023.686 192.319 1023.686 192.319 1023.686 192.319 1023.686 192.319 1023.686 192.319 1023.686 192.319 1023.686 192.319 1023.686 192.319 1023.686 192.319 1023.686 192.319 1023.686 192.319 1023.686 192.319 1023.686 192.319 1023.686 192.319"/>
  <polygon class="cls-5" points="1059.644 313.33 1059.644 313.33 1059.644 313.33 1059.644 313.33 1059.644 313.33 1059.644 313.33 1059.644 313.33 1059.644 313.33 1059.644 313.33 1059.644 313.33 1059.644 313.33 1059.644 313.33 1059.644 313.33 1059.644 313.33 1059.644 313.33 1059.644 313.33 1059.644 313.33 1059.644 313.33 1059.644 313.33 1059.644 313.33 1059.644 313.33 1059.644 313.33 1059.644 313.33 1059.644 313.33 1059.644 313.33 1059.644 313.33 1059.644 313.33 1059.644 313.33 1059.644 313.33 1059.644 313.33 1059.644 313.33 1059.644 313.33 1059.644 313.33 1059.644 313.33 1059.644 313.33 1059.644 313.33 1059.644 313.33 1059.644 313.33 1059.644 313.33 1059.644 313.33 1059.644 313.33 1059.644 313.33 1059.644 313.33 1059.644 313.33 1059.644 313.33 1059.644 313.33 1059.644 313.33 1059.644 313.33 1059.644 313.33 1059.644 313.33 1059.644 313.33 1059.644 313.33 1059.644 313.33 1059.644 313.33 1059.644 313.33 1059.644 313.33 1059.644 313.33 1059.644 313.33 1059.644 313.33 1059.644 313.33 1059.644 313.33 1059.644 313.33 1059.644 313.33 1059.644 313.33 1059.644 313.33 1059.644 313.33 1059.644 313.33 1059.644 313.33 1059.644 313.33 1059.644 313.33 1059.644 313.33 1059.644 313.33 1059.644 313.33 1059.644 313.33 1059.644 313.33 1059.644 313.33 1059.644 313.33 1059.644 313.33 1059.644 313.33 1059.644 313.33 1059.644 313.33 1059.644 313.33 1059.644 313.33 1059.644 313.33 1059.644 313.33 1059.644 313.33 1059.644 313.33 1059.644 313.33 1059.644 313.33 1059.644 313.33 1059.644 313.33 1059.644 313.33 1059.644 313.33 1059.644 313.33 1059.644 313.33 1059.644 313.33 1059.644 313.33 1059.644 313.33 1059.644 313.33 1059.644 313.33 1059.644 313.33 1059.644 313.33 1059.644 313.33 1059.644 313.33 1059.644 313.33 1059.644 313.33 1059.644 313.33 1059.644 313.33 1059.644 313.33 1059.644 313.33 1059.644 313.33 1059.644 313.33 1059.644 313.33 1059.644 313.33 1059.644 313.33 1059.644 313.33 1059.644 313.33 1059.644 313.33 1059.644 313.33 1059.644 313.33 1059.644 313.33 1059.644 313.33 1059.644 313.33 1059.644 313.33 1059.644 313.33 1059.644 313.33 1059.644 313.33 1059.644 313.33 1059.644 313.33 1059.644 313.33 1059.644 313.33 1059.644 313.33 1059.644 313.33 1059.644 313.33 1059.644 313.33 1059.644 313.33 1059.644 313.33 1059.644 313.33 1059.644 313.33 1059.644 313.33 1059.644 313.33 1059.644 313.33 1059.644 313.33 1059.644 313.33 1059.644 313.33 1059.644 313.33 1059.644 313.33 1059.644 313.33 1059.644 313.33 1059.644 313.33 1059.644 313.33 1059.644 313.33 1059.644 313.33"/>
  <g>
    <line class="cls-3" x1="967.392" y1="50" x2="997.437" y2="50"/>
    <polygon class="cls-10" points="993.224 55.555 995.584 50 993.224 44.445 1006.392 50 993.224 55.555"/>
  </g>
  <polygon class="cls-5" points="243.883 330.657 243.883 330.657 243.883 330.657 243.883 330.657 243.883 330.657 243.883 330.657 243.883 330.657 243.883 330.657 243.883 330.657 243.883 330.657 243.883 330.657 243.883 330.657 243.883 330.657 243.883 330.657 243.883 330.657 243.883 330.657 243.883 330.657 243.883 330.657 243.883 330.657 243.883 330.657 243.883 330.657 243.883 330.657 243.883 330.657 243.883 330.657 243.883 330.657 243.883 330.657 243.883 330.657 243.883 330.657 243.883 330.657 243.883 330.657 243.883 330.657 243.883 330.657 243.883 330.657 243.883 330.657 243.883 330.657 243.883 330.657 243.883 330.657 243.883 330.657 243.883 330.657 243.883 330.657 243.883 330.657 243.883 330.657 243.883 330.657 243.883 330.657 243.883 330.657 243.883 330.657 243.883 330.657 243.883 330.657 243.883 330.657 243.883 330.657 243.883 330.657 243.883 330.657 243.883 330.657 243.883 330.657 243.883 330.657 243.883 330.657 243.883 330.657 243.883 330.657 243.883 330.657 243.883 330.657 243.883 330.657 243.883 330.657 243.883 330.657 243.883 330.657 243.883 330.657 243.883 330.657 243.883 330.657 243.883 330.657 243.883 330.657 243.883 330.657 243.883 330.657 243.883 330.657 243.883 330.657 243.883 330.657 243.883 330.657 243.883 330.657 243.883 330.657 243.883 330.657 243.883 330.657 243.883 330.657 243.883 330.657 243.883 330.657 243.883 330.657 243.883 330.657 243.883 330.657 243.883 330.657 243.883 330.657 243.883 330.657 243.883 330.657 243.883 330.657 243.883 330.657 243.883 330.657 243.883 330.657 243.883 330.657 243.883 330.657 243.883 330.657 243.883 330.657 243.883 330.657 243.883 330.657 243.883 330.657 243.883 330.657 243.883 330.657 243.883 330.657 243.883 330.657 243.883 330.657 243.883 330.657 243.883 330.657 243.883 330.657 243.883 330.657 243.883 330.657 243.883 330.657 243.883 330.657 243.883 330.657 243.883 330.657 243.883 330.657 243.883 330.657 243.883 330.657 243.883 330.657 243.883 330.657 243.883 330.657 243.883 330.657 243.883 330.657 243.883 330.657 243.883 330.657 243.883 330.657 243.883 330.657 243.883 330.657 243.883 330.657 243.883 330.657 243.883 330.657 243.883 330.657 243.883 330.657 243.883 330.657 243.883 330.657 243.883 330.657 243.883 330.657 243.883 330.657 243.883 330.657 243.883 330.657 243.883 330.657 243.883 330.657 243.883 330.657 243.883 330.657 243.883 330.657 243.883 330.657 243.883 330.657 243.883 330.657 243.883 330.657 243.883 330.657 243.883 330.657 243.883 330.657 243.883 330.657 243.883 330.657 243.883 330.657 243.883 330.657"/>
  <g class="cls-13">
    <path class="cls-10" d="m1042.134,39.074c.144-.503.144-.575.144-.827,0-.647-.503-.97-1.042-.97-.359,0-.933.216-1.256.755-.072.18-.359,1.294-.503,1.939-.252.934-.503,1.905-.719,2.873l-1.616,6.464c-.144.539-1.688,3.053-4.058,3.053-1.833,0-2.228-1.58-2.228-2.909,0-1.652.611-3.878,1.833-7.039.573-1.472.717-1.867.717-2.586,0-1.616-1.148-2.944-2.944-2.944-3.413,0-4.741,5.206-4.741,5.53,0,.359.358.359.43.359.359,0,.395-.072.575-.647.97-3.375,2.406-4.453,3.628-4.453.287,0,.897,0,.897,1.15,0,.897-.359,1.831-.609,2.514-1.438,3.806-2.084,5.853-2.084,7.542,0,3.195,2.262,4.273,4.383,4.273,1.4,0,2.62-.611,3.627-1.616-.467,1.867-.898,3.627-2.334,5.53-.934,1.222-2.298,2.263-3.95,2.263-.503,0-2.119-.108-2.73-1.508.575,0,1.041,0,1.544-.431.359-.323.719-.791.719-1.472,0-1.114-.97-1.258-1.33-1.258-.825,0-2.011.575-2.011,2.334,0,1.795,1.581,3.125,3.808,3.125,3.698,0,7.398-3.269,8.403-7.327l3.448-13.719"/>
    <path class="cls-10" d="m1049.298,57.957c-1.153,0-2.683-.677-3.184-2.733-.35-1.478-.35-3.533-.35-5.387,0-1.83,0-3.736.375-5.114.527-1.98,2.131-2.506,3.159-2.506,1.353,0,2.656.826,3.108,2.281.4,1.353.425,3.158.425,5.339,0,1.855,0,3.709-.325,5.287-.502,2.281-2.206,2.833-3.208,2.833m5.814-7.795c0-2.756-.326-4.737-1.478-6.491-.778-1.153-2.331-2.156-4.336-2.156-5.816,0-5.816,6.842-5.816,8.647s0,8.497,5.816,8.497,5.814-6.692,5.814-8.497Z"/>
    <path class="cls-10" d="m1092.988,47.98c.503,0,1.184,0,1.184-.719s-.681-.717-1.22-.717h-21.441c-.539,0-1.222,0-1.222.717s.683.719,1.186.719h21.513m-.036-6.967c.539,0,1.22,0,1.22-.719s-.681-.719-1.184-.719h-21.513c-.503,0-1.186,0-1.186.719s.683.719,1.222.719h21.441Z"/>
    <path class="cls-10" d="m1118.749,50.746c.395,1.472,1.652,2.406,3.195,2.406,1.258,0,2.084-.827,2.658-1.975.611-1.294,1.079-3.484,1.079-3.556,0-.359-.324-.359-.432-.359-.359,0-.395.144-.503.647-.503,2.011-1.184,4.453-2.694,4.453-.753,0-1.113-.467-1.113-1.652,0-.791.431-2.478.719-3.736l1.005-3.878c.108-.539.467-1.903.611-2.442.18-.827.539-2.191.539-2.406,0-.647-.503-.97-1.042-.97-.18,0-1.112.036-1.4,1.258-.683,2.622-2.262,8.906-2.694,10.809-.036.144-1.473,3.017-4.094,3.017-1.869,0-2.228-1.616-2.228-2.945,0-2.011,1.006-4.849,1.941-7.327.43-1.077.609-1.58.609-2.263,0-1.616-1.148-2.944-2.944-2.944-3.412,0-4.741,5.206-4.741,5.53,0,.359.358.359.43.359.359,0,.395-.072.575-.647.898-3.123,2.262-4.453,3.628-4.453.323,0,.897.036.897,1.186,0,.861-.395,1.903-.609,2.442-1.33,3.555-2.084,5.781-2.084,7.542,0,3.411,2.478,4.309,4.419,4.309,2.37,0,3.662-1.616,4.273-2.406"/>
    <path class="cls-10" d="m1133.798,57.957c-1.153,0-2.683-.677-3.185-2.733-.35-1.478-.35-3.533-.35-5.387,0-1.83,0-3.736.375-5.114.527-1.98,2.132-2.506,3.16-2.506,1.353,0,2.656.826,3.108,2.281.4,1.353.425,3.158.425,5.339,0,1.855,0,3.709-.325,5.287-.502,2.281-2.207,2.833-3.208,2.833m5.814-7.795c0-2.756-.327-4.737-1.478-6.491-.778-1.153-2.332-2.156-4.336-2.156-5.816,0-5.816,6.842-5.816,8.647s0,8.497,5.816,8.497,5.814-6.692,5.814-8.497Z"/>
    <path class="cls-10" d="m1153.087,28.227c0-.036,0-.395-.467-.395-.827,0-3.449.288-4.382.359-.287.036-.682.072-.682.719,0,.431.323.431.862.431,1.724,0,1.795.251,1.795.609l-.107.719-5.208,20.687c-.144.502-.144.573-.144.789,0,.827.719,1.006,1.042,1.006.575,0,1.149-.431,1.328-.934l.683-2.73.791-3.231c.214-.791.429-1.581.609-2.406.072-.216.36-1.402.395-1.617.108-.322,1.222-2.334,2.443-3.303.79-.575,1.903-1.258,3.448-1.258s1.939,1.222,1.939,2.514c0,1.939-1.365,5.855-2.226,8.045-.288.827-.468,1.256-.468,1.975,0,1.688,1.258,2.945,2.946,2.945,3.375,0,4.704-5.244,4.704-5.531,0-.359-.323-.359-.431-.359-.359,0-.359.108-.539.647-.539,1.903-1.687,4.453-3.662,4.453-.611,0-.863-.359-.863-1.184,0-.898.324-1.761.647-2.55.575-1.545,2.191-5.819,2.191-7.902,0-2.334-1.436-3.842-4.13-3.842-2.263,0-3.988,1.112-5.316,2.764l2.802-11.42"/>
    <path class="cls-10" d="m1170.498,57.957c-1.153,0-2.683-.677-3.185-2.733-.35-1.478-.35-3.533-.35-5.387,0-1.83,0-3.736.375-5.114.527-1.98,2.132-2.506,3.16-2.506,1.353,0,2.656.826,3.108,2.281.4,1.353.425,3.158.425,5.339,0,1.855,0,3.709-.325,5.287-.502,2.281-2.207,2.833-3.208,2.833m5.814-7.795c0-2.756-.327-4.737-1.478-6.491-.778-1.153-2.332-2.156-4.336-2.156-5.816,0-5.816,6.842-5.816,8.647s0,8.497,5.816,8.497,5.814-6.692,5.814-8.497Z"/>
  </g>
  <polygon class="cls-5" points="1025.279 93.34 1025.279 93.34 1025.279 93.34 1025.279 93.34 1025.279 93.34 1025.279 93.34 1025.279 93.34 1025.279 93.34 1025.279 93.34 1025.279 93.34 1025.279 93.34 1025.279 93.34 1025.279 93.34 1025.279 93.34 1025.279 93.34 1025.279 93.34 1025.279 93.34 1025.279 93.34 1025.279 93.34 1025.279 93.34 1025.279 93.34 1025.279 93.34 1025.279 93.34 1025.279 93.34 1025.279 93.34 1025.279 93.34 1025.279 93.34 1025.279 93.34 1025.279 93.34 1025.279 93.34 1025.279 93.34 1025.279 93.34 1025.279 93.34 1025.279 93.34 1025.279 93.34 1025.279 93.34 1025.279 93.34 1025.279 93.34 1025.279 93.34 1025.279 93.34 1025.279 93.34 1025.279 93.34 1025.279 93.34 1025.279 93.34 1025.279 93.34 1025.279 93.34 1025.279 93.34 1025.279 93.34 1025.279 93.34 1025.279 93.34 1025.279 93.34 1025.279 93.34 1025.279 93.34 1025.279 93.34 1025.279 93.34 1025.279 93.34 1025.279 93.34 1025.279 93.34 1025.279 93.34 1025.279 93.34 1025.279 93.34 1025.279 93.34 1025.279 93.34 1025.279 93.34 1025.279 93.34 1025.279 93.34 1025.279 93.34 1025.279 93.34 1025.279 93.34 1025.279 93.34 1025.279 93.34 1025.279 93.34 1025.279 93.34 1025.279 93.34 1025.279 93.34 1025.279 93.34 1025.279 93.34 1025.279 93.34 1025.279 93.34 1025.279 93.34 1025.279 93.34 1025.279 93.34 1025.279 93.34 1025.279 93.34 1025.279 93.34 1025.279 93.34 1025.279 93.34 1025.279 93.34 1025.279 93.34 1025.279 93.34 1025.279 93.34 1025.279 93.34 1025.279 93.34 1025.279 93.34 1025.279 93.34 1025.279 93.34 1025.279 93.34 1025.279 93.34 1025.279 93.34 1025.279 93.34 1025.279 93.34 1025.279 93.34 1025.279 93.34 1025.279 93.34 1025.279 93.34 1025.279 93.34 1025.279 93.34 1025.279 93.34 1025.279 93.34 1025.279 93.34 1025.279 93.34 1025.279 93.34 1025.279 93.34 1025.279 93.34 1025.279 93.34 1025.279 93.34 1025.279 93.34 1025.279 93.34 1025.279 93.34 1025.279 93.34 1025.279 93.34 1025.279 93.34 1025.279 93.34 1025.279 93.34 1025.279 93.34 1025.279 93.34 1025.279 93.34 1025.279 93.34 1025.279 93.34 1025.279 93.34 1025.279 93.34 1025.279 93.34 1025.279 93.34 1025.279 93.34 1025.279 93.34 1025.279 93.34 1025.279 93.34 1025.279 93.34 1025.279 93.34 1025.279 93.34 1025.279 93.34 1025.279 93.34 1025.279 93.34 1025.279 93.34 1025.279 93.34 1025.279 93.34 1025.279 93.34 1025.279 93.34 1025.279 93.34 1025.279 93.34 1025.279 93.34 1025.279 93.34 1025.279 93.34 1025.279 93.34 1025.279 93.34 1025.279 93.34 1025.279 93.34"/>
  <g class="cls-16">
    <path class="cls-10" d="m1042.134,187.757c.144-.503.144-.575.144-.827,0-.647-.503-.97-1.042-.97-.359,0-.933.216-1.256.755-.072.18-.359,1.294-.503,1.939-.252.934-.503,1.905-.719,2.873l-1.616,6.464c-.144.539-1.688,3.053-4.058,3.053-1.833,0-2.228-1.58-2.228-2.909,0-1.652.611-3.878,1.833-7.039.573-1.472.717-1.867.717-2.586,0-1.616-1.148-2.944-2.944-2.944-3.413,0-4.741,5.206-4.741,5.53,0,.359.358.359.43.359.359,0,.395-.072.575-.647.97-3.375,2.406-4.453,3.628-4.453.287,0,.897,0,.897,1.15,0,.897-.359,1.831-.609,2.514-1.438,3.806-2.084,5.853-2.084,7.542,0,3.195,2.262,4.273,4.383,4.273,1.4,0,2.62-.611,3.627-1.616-.467,1.867-.898,3.627-2.334,5.53-.934,1.222-2.298,2.263-3.95,2.263-.503,0-2.119-.108-2.73-1.508.575,0,1.041,0,1.544-.431.359-.323.719-.791.719-1.472,0-1.114-.97-1.258-1.33-1.258-.825,0-2.011.575-2.011,2.334,0,1.795,1.581,3.125,3.808,3.125,3.698,0,7.398-3.269,8.403-7.327l3.448-13.719"/>
    <path class="cls-10" d="m1050.576,190.9c0-.677-.05-.702-.753-.702-1.603,1.58-3.884,1.605-4.913,1.605v.902c.601,0,2.256,0,3.634-.702v12.783c0,.827,0,1.153-2.506,1.153h-.952v.902c.45-.025,3.533-.1,4.461-.1.776,0,3.934.075,4.486.1v-.902h-.952c-2.506,0-2.506-.327-2.506-1.153v-13.886"/>
    <path class="cls-10" d="m1092.988,196.664c.503,0,1.184,0,1.184-.719s-.681-.717-1.22-.717h-21.441c-.539,0-1.222,0-1.222.717s.683.719,1.186.719h21.513m-.036-6.967c.539,0,1.22,0,1.22-.719s-.681-.719-1.184-.719h-21.513c-.503,0-1.186,0-1.186.719s.683.719,1.222.719h21.441Z"/>
    <path class="cls-10" d="m1118.649,199.429c.395,1.472,1.652,2.406,3.195,2.406,1.258,0,2.084-.827,2.658-1.975.611-1.294,1.079-3.484,1.079-3.556,0-.359-.324-.359-.432-.359-.359,0-.395.144-.503.647-.503,2.011-1.184,4.453-2.694,4.453-.753,0-1.112-.467-1.112-1.652,0-.791.431-2.478.719-3.736l1.005-3.878c.108-.539.467-1.903.611-2.442.18-.827.539-2.191.539-2.406,0-.647-.503-.97-1.042-.97-.18,0-1.113.036-1.4,1.258-.683,2.622-2.262,8.906-2.694,10.809-.036.144-1.473,3.017-4.094,3.017-1.869,0-2.228-1.616-2.228-2.945,0-2.011,1.006-4.849,1.941-7.327.43-1.077.609-1.58.609-2.263,0-1.616-1.148-2.944-2.944-2.944-3.412,0-4.741,5.206-4.741,5.53,0,.359.358.359.43.359.359,0,.395-.072.575-.647.898-3.123,2.263-4.453,3.628-4.453.323,0,.897.036.897,1.186,0,.861-.395,1.903-.609,2.442-1.33,3.555-2.084,5.781-2.084,7.542,0,3.411,2.478,4.309,4.419,4.309,2.37,0,3.663-1.616,4.273-2.406"/>
    <path class="cls-10" d="m1133.798,206.64c-1.153,0-2.683-.677-3.185-2.733-.35-1.478-.35-3.533-.35-5.387,0-1.83,0-3.736.375-5.114.527-1.98,2.132-2.506,3.16-2.506,1.353,0,2.656.826,3.108,2.281.4,1.353.425,3.158.425,5.339,0,1.855,0,3.709-.325,5.287-.502,2.281-2.207,2.833-3.208,2.833m5.814-7.795c0-2.756-.327-4.737-1.478-6.491-.778-1.153-2.332-2.156-4.336-2.156-5.816,0-5.816,6.842-5.816,8.647s0,8.497,5.816,8.497,5.814-6.692,5.814-8.497Z"/>
    <path class="cls-10" d="m1153.087,176.91c0-.036,0-.395-.467-.395-.827,0-3.449.288-4.382.359-.287.036-.682.072-.682.719,0,.431.323.431.862.431,1.724,0,1.795.251,1.795.609l-.107.719-5.208,20.687c-.144.502-.144.573-.144.789,0,.827.719,1.006,1.042,1.006.575,0,1.149-.431,1.328-.934l.683-2.73.791-3.231c.214-.791.429-1.581.609-2.406.072-.216.36-1.402.395-1.617.108-.322,1.222-2.334,2.443-3.303.79-.575,1.903-1.258,3.448-1.258s1.939,1.222,1.939,2.514c0,1.939-1.365,5.855-2.226,8.045-.288.827-.468,1.256-.468,1.975,0,1.688,1.258,2.945,2.946,2.945,3.375,0,4.704-5.244,4.704-5.531,0-.359-.323-.359-.431-.359-.359,0-.359.108-.539.647-.539,1.903-1.687,4.453-3.662,4.453-.611,0-.863-.359-.863-1.184,0-.898.324-1.761.647-2.55.575-1.545,2.191-5.819,2.191-7.902,0-2.334-1.436-3.842-4.13-3.842-2.263,0-3.988,1.112-5.316,2.764l2.802-11.42"/>
    <path class="cls-10" d="m1171.776,190.9c0-.677-.05-.702-.753-.702-1.603,1.58-3.885,1.605-4.913,1.605v.902c.602,0,2.257,0,3.635-.702v12.783c0,.827,0,1.153-2.507,1.153h-.951v.902c.45-.025,3.533-.1,4.461-.1.776,0,3.934.075,4.486.1v-.902h-.952c-2.506,0-2.506-.327-2.506-1.153v-13.886"/>
    <path class="cls-10" d="m1202.168,193.179h10.02c.504,0,1.185,0,1.185-.717s-.681-.719-1.185-.719h-10.02v-10.056c0-.503,0-1.184-.719-1.184s-.718.681-.718,1.184v10.056h-10.055c-.503,0-1.186,0-1.186.719s.683.717,1.186.717h10.055v10.056c0,.503,0,1.186.718,1.186s.719-.683.719-1.186v-10.056"/>
    <path class="cls-10" d="m1235.949,199.429c.396,1.472,1.652,2.406,3.196,2.406,1.257,0,2.084-.827,2.657-1.975.611-1.294,1.079-3.484,1.079-3.556,0-.359-.324-.359-.432-.359-.359,0-.395.144-.503.647-.503,2.011-1.184,4.453-2.694,4.453-.753,0-1.112-.467-1.112-1.652,0-.791.431-2.478.719-3.736l1.004-3.878c.108-.539.468-1.903.611-2.442.18-.827.539-2.191.539-2.406,0-.647-.503-.97-1.042-.97-.179,0-1.112.036-1.4,1.258-.683,2.622-2.262,8.906-2.694,10.809-.035.144-1.473,3.017-4.093,3.017-1.869,0-2.228-1.616-2.228-2.945,0-2.011,1.006-4.849,1.94-7.327.43-1.077.61-1.58.61-2.263,0-1.616-1.149-2.944-2.944-2.944-3.413,0-4.741,5.206-4.741,5.53,0,.359.358.359.43.359.359,0,.395-.072.575-.647.898-3.123,2.262-4.453,3.628-4.453.323,0,.897.036.897,1.186,0,.861-.395,1.903-.609,2.442-1.33,3.555-2.085,5.781-2.085,7.542,0,3.411,2.478,4.309,4.419,4.309,2.37,0,3.662-1.616,4.273-2.406"/>
    <path class="cls-10" d="m1252.276,190.9c0-.677-.05-.702-.753-.702-1.603,1.58-3.885,1.605-4.913,1.605v.902c.602,0,2.257,0,3.635-.702v12.783c0,.827,0,1.153-2.507,1.153h-.951v.902c.45-.025,3.533-.1,4.461-.1.776,0,3.934.075,4.486.1v-.902h-.952c-2.506,0-2.506-.327-2.506-1.153v-13.886"/>
    <path class="cls-10" d="m1270.287,176.91c0-.036,0-.395-.467-.395-.827,0-3.449.288-4.382.359-.287.036-.682.072-.682.719,0,.431.323.431.862.431,1.724,0,1.795.251,1.795.609l-.107.719-5.208,20.687c-.144.502-.144.573-.144.789,0,.827.719,1.006,1.042,1.006.575,0,1.149-.431,1.328-.934l.683-2.73.791-3.231c.214-.791.429-1.581.609-2.406.072-.216.36-1.402.395-1.617.108-.322,1.222-2.334,2.443-3.303.79-.575,1.903-1.258,3.448-1.258s1.939,1.222,1.939,2.514c0,1.939-1.365,5.855-2.226,8.045-.288.827-.468,1.256-.468,1.975,0,1.688,1.258,2.945,2.946,2.945,3.375,0,4.704-5.244,4.704-5.531,0-.359-.323-.359-.431-.359-.359,0-.359.108-.539.647-.539,1.903-1.687,4.453-3.662,4.453-.611,0-.863-.359-.863-1.184,0-.898.324-1.761.647-2.55.575-1.545,2.191-5.819,2.191-7.902,0-2.334-1.436-3.842-4.13-3.842-2.263,0-3.988,1.112-5.316,2.764l2.802-11.42"/>
    <path class="cls-10" d="m1287.698,206.64c-1.153,0-2.683-.677-3.185-2.733-.35-1.478-.35-3.533-.35-5.387,0-1.83,0-3.736.375-5.114.527-1.98,2.132-2.506,3.16-2.506,1.353,0,2.656.826,3.108,2.281.4,1.353.425,3.158.425,5.339,0,1.855,0,3.709-.325,5.287-.502,2.281-2.207,2.833-3.208,2.833m5.814-7.795c0-2.756-.327-4.737-1.478-6.491-.778-1.153-2.332-2.156-4.336-2.156-5.816,0-5.816,6.842-5.816,8.647s0,8.497,5.816,8.497,5.814-6.692,5.814-8.497Z"/>
  </g>
  <g class="cls-15">
    <path class="cls-10" d="m1042.634,321.071c.144-.503.144-.575.144-.827,0-.647-.503-.97-1.042-.97-.359,0-.933.216-1.256.755-.072.18-.359,1.294-.503,1.939-.252.934-.503,1.905-.719,2.873l-1.616,6.464c-.144.539-1.688,3.053-4.058,3.053-1.833,0-2.228-1.58-2.228-2.909,0-1.652.611-3.878,1.833-7.039.573-1.472.717-1.867.717-2.586,0-1.616-1.148-2.944-2.944-2.944-3.413,0-4.741,5.206-4.741,5.53,0,.359.358.359.43.359.359,0,.395-.072.575-.647.97-3.375,2.406-4.453,3.628-4.453.287,0,.897,0,.897,1.15,0,.897-.359,1.831-.609,2.514-1.438,3.806-2.084,5.853-2.084,7.542,0,3.195,2.263,4.273,4.383,4.273,1.4,0,2.62-.611,3.627-1.616-.467,1.867-.898,3.627-2.334,5.53-.934,1.222-2.298,2.263-3.95,2.263-.503,0-2.119-.108-2.73-1.508.575,0,1.041,0,1.544-.431.359-.323.719-.791.719-1.472,0-1.114-.97-1.258-1.33-1.258-.825,0-2.011.575-2.011,2.334,0,1.795,1.581,3.125,3.808,3.125,3.698,0,7.398-3.269,8.403-7.327l3.448-13.719"/>
    <path class="cls-10" d="m1055.437,335.593h-.853c-.075.55-.325,2.03-.652,2.28-.2.152-2.13.152-2.481.152h-4.611c2.631-2.331,3.508-3.033,5.013-4.211,1.855-1.48,3.584-3.033,3.584-5.414,0-3.033-2.658-4.888-5.866-4.888-3.108,0-5.212,2.181-5.212,4.486,0,1.278,1.077,1.405,1.328,1.405.602,0,1.328-.426,1.328-1.33,0-.45-.175-1.328-1.48-1.328.778-1.78,2.481-2.331,3.659-2.331,2.506,0,3.811,1.956,3.811,3.986,0,2.18-1.555,3.909-2.356,4.813l-6.041,5.964c-.25.227-.25.277-.25.978h10.325l.753-4.561"/>
    <path class="cls-10" d="m1093.588,329.977c.503,0,1.184,0,1.184-.719s-.681-.717-1.22-.717h-21.441c-.539,0-1.222,0-1.222.717s.683.719,1.186.719h21.513m-.036-6.967c.539,0,1.22,0,1.22-.719s-.681-.719-1.184-.719h-21.513c-.503,0-1.186,0-1.186.719s.683.719,1.222.719h21.441Z"/>
    <path class="cls-10" d="m1119.249,332.743c.395,1.472,1.652,2.406,3.195,2.406,1.258,0,2.084-.827,2.658-1.975.611-1.294,1.079-3.484,1.079-3.556,0-.359-.324-.359-.432-.359-.359,0-.395.144-.503.647-.503,2.011-1.184,4.453-2.694,4.453-.753,0-1.112-.467-1.112-1.652,0-.791.431-2.478.719-3.736l1.005-3.878c.108-.539.467-1.903.611-2.442.18-.827.539-2.191.539-2.406,0-.647-.503-.97-1.042-.97-.18,0-1.113.036-1.4,1.258-.683,2.622-2.262,8.906-2.694,10.809-.036.144-1.473,3.017-4.094,3.017-1.869,0-2.228-1.616-2.228-2.945,0-2.011,1.006-4.849,1.941-7.327.43-1.077.609-1.58.609-2.263,0-1.616-1.148-2.944-2.944-2.944-3.412,0-4.741,5.206-4.741,5.53,0,.359.358.359.43.359.359,0,.395-.072.575-.647.898-3.123,2.263-4.453,3.628-4.453.323,0,.897.036.897,1.186,0,.861-.395,1.903-.609,2.442-1.33,3.555-2.084,5.781-2.084,7.542,0,3.411,2.478,4.309,4.419,4.309,2.37,0,3.663-1.616,4.273-2.406"/>
    <path class="cls-10" d="m1134.398,339.954c-1.153,0-2.683-.677-3.185-2.733-.35-1.478-.35-3.533-.35-5.387,0-1.83,0-3.736.375-5.114.527-1.98,2.132-2.506,3.16-2.506,1.353,0,2.656.826,3.108,2.281.4,1.353.425,3.158.425,5.339,0,1.855,0,3.709-.325,5.287-.502,2.281-2.207,2.833-3.208,2.833m5.814-7.795c0-2.756-.327-4.737-1.478-6.491-.778-1.153-2.332-2.156-4.336-2.156-5.816,0-5.816,6.842-5.816,8.647s0,8.497,5.816,8.497,5.814-6.692,5.814-8.497Z"/>
    <path class="cls-10" d="m1153.687,310.224c0-.036,0-.395-.467-.395-.827,0-3.449.288-4.382.359-.287.036-.682.072-.682.719,0,.431.323.431.862.431,1.724,0,1.795.251,1.795.609l-.107.719-5.208,20.687c-.144.502-.144.573-.144.789,0,.827.719,1.006,1.042,1.006.575,0,1.149-.431,1.328-.934l.683-2.73.791-3.231c.214-.791.429-1.581.609-2.406.072-.216.36-1.402.395-1.617.108-.322,1.222-2.334,2.443-3.303.79-.575,1.903-1.258,3.448-1.258s1.939,1.222,1.939,2.514c0,1.939-1.365,5.855-2.226,8.045-.288.827-.468,1.256-.468,1.975,0,1.688,1.258,2.945,2.946,2.945,3.375,0,4.704-5.244,4.704-5.531,0-.359-.323-.359-.431-.359-.359,0-.359.108-.539.647-.539,1.903-1.687,4.453-3.662,4.453-.611,0-.863-.359-.863-1.184,0-.898.324-1.761.647-2.55.575-1.545,2.191-5.819,2.191-7.902,0-2.334-1.436-3.842-4.13-3.842-2.263,0-3.988,1.112-5.316,2.764l2.802-11.42"/>
    <path class="cls-10" d="m1176.637,335.593h-.853c-.075.55-.325,2.03-.652,2.28-.2.152-2.13.152-2.481.152h-4.611c2.631-2.331,3.508-3.033,5.012-4.211,1.855-1.48,3.585-3.033,3.585-5.414,0-3.033-2.658-4.888-5.866-4.888-3.108,0-5.212,2.181-5.212,4.486,0,1.278,1.076,1.405,1.328,1.405.601,0,1.328-.426,1.328-1.33,0-.45-.175-1.328-1.48-1.328.778-1.78,2.482-2.331,3.66-2.331,2.506,0,3.811,1.956,3.811,3.986,0,2.18-1.555,3.909-2.357,4.813l-6.04,5.964c-.25.227-.25.277-.25.978h10.325l.753-4.561"/>
    <path class="cls-10" d="m1202.768,326.493h10.02c.504,0,1.185,0,1.185-.717s-.681-.719-1.185-.719h-10.02v-10.056c0-.503,0-1.184-.719-1.184s-.718.681-.718,1.184v10.056h-10.055c-.503,0-1.186,0-1.186.719s.683.717,1.186.717h10.055v10.056c0,.503,0,1.186.718,1.186s.719-.683.719-1.186v-10.056"/>
    <path class="cls-10" d="m1236.549,332.743c.396,1.472,1.652,2.406,3.196,2.406,1.257,0,2.084-.827,2.657-1.975.611-1.294,1.079-3.484,1.079-3.556,0-.359-.324-.359-.432-.359-.359,0-.395.144-.503.647-.503,2.011-1.184,4.453-2.694,4.453-.753,0-1.112-.467-1.112-1.652,0-.791.431-2.478.719-3.736l1.004-3.878c.108-.539.468-1.903.611-2.442.18-.827.539-2.191.539-2.406,0-.647-.503-.97-1.042-.97-.179,0-1.112.036-1.4,1.258-.683,2.622-2.262,8.906-2.694,10.809-.035.144-1.473,3.017-4.093,3.017-1.869,0-2.228-1.616-2.228-2.945,0-2.011,1.006-4.849,1.94-7.327.43-1.077.61-1.58.61-2.263,0-1.616-1.149-2.944-2.944-2.944-3.413,0-4.741,5.206-4.741,5.53,0,.359.358.359.43.359.359,0,.395-.072.575-.647.898-3.123,2.262-4.453,3.628-4.453.323,0,.897.036.897,1.186,0,.861-.395,1.903-.609,2.442-1.33,3.555-2.085,5.781-2.085,7.542,0,3.411,2.478,4.309,4.419,4.309,2.37,0,3.662-1.616,4.273-2.406"/>
    <path class="cls-10" d="m1252.876,324.213c0-.677-.05-.702-.753-.702-1.603,1.58-3.885,1.605-4.913,1.605v.902c.602,0,2.257,0,3.635-.702v12.783c0,.827,0,1.153-2.507,1.153h-.951v.902c.45-.025,3.533-.1,4.461-.1.776,0,3.934.075,4.486.1v-.902h-.952c-2.506,0-2.506-.327-2.506-1.153v-13.886"/>
    <path class="cls-10" d="m1270.887,310.224c0-.036,0-.395-.467-.395-.827,0-3.449.288-4.382.359-.287.036-.682.072-.682.719,0,.431.323.431.862.431,1.724,0,1.795.251,1.795.609l-.107.719-5.208,20.687c-.144.502-.144.573-.144.789,0,.827.719,1.006,1.042,1.006.575,0,1.149-.431,1.328-.934l.683-2.73.791-3.231c.214-.791.429-1.581.609-2.406.072-.216.36-1.402.395-1.617.108-.322,1.222-2.334,2.443-3.303.79-.575,1.903-1.258,3.448-1.258s1.939,1.222,1.939,2.514c0,1.939-1.365,5.855-2.226,8.045-.288.827-.468,1.256-.468,1.975,0,1.688,1.258,2.945,2.946,2.945,3.375,0,4.704-5.244,4.704-5.531,0-.359-.323-.359-.431-.359-.359,0-.359.108-.539.647-.539,1.903-1.687,4.453-3.662,4.453-.611,0-.863-.359-.863-1.184,0-.898.324-1.761.647-2.55.575-1.545,2.191-5.819,2.191-7.902,0-2.334-1.436-3.842-4.13-3.842-2.263,0-3.988,1.112-5.316,2.764l2.802-11.42"/>
    <path class="cls-10" d="m1289.576,324.213c0-.677-.05-.702-.753-.702-1.603,1.58-3.885,1.605-4.913,1.605v.902c.602,0,2.257,0,3.635-.702v12.783c0,.827,0,1.153-2.507,1.153h-.951v.902c.45-.025,3.533-.1,4.461-.1.776,0,3.934.075,4.486.1v-.902h-.952c-2.506,0-2.506-.327-2.506-1.153v-13.886"/>
    <path class="cls-10" d="m1319.968,326.493h10.02c.504,0,1.185,0,1.185-.717s-.681-.719-1.185-.719h-10.02v-10.056c0-.503,0-1.184-.719-1.184s-.718.681-.718,1.184v10.056h-10.055c-.503,0-1.186,0-1.186.719s.683.717,1.186.717h10.055v10.056c0,.503,0,1.186.718,1.186s.719-.683.719-1.186v-10.056"/>
    <path class="cls-10" d="m1353.749,332.743c.396,1.472,1.652,2.406,3.196,2.406,1.257,0,2.084-.827,2.657-1.975.611-1.294,1.079-3.484,1.079-3.556,0-.359-.324-.359-.432-.359-.359,0-.395.144-.503.647-.503,2.011-1.184,4.453-2.694,4.453-.753,0-1.112-.467-1.112-1.652,0-.791.431-2.478.719-3.736l1.004-3.878c.108-.539.468-1.903.611-2.442.18-.827.539-2.191.539-2.406,0-.647-.503-.97-1.042-.97-.179,0-1.112.036-1.4,1.258-.683,2.622-2.262,8.906-2.694,10.809-.035.144-1.473,3.017-4.093,3.017-1.869,0-2.228-1.616-2.228-2.945,0-2.011,1.006-4.849,1.94-7.327.43-1.077.61-1.58.61-2.263,0-1.616-1.149-2.944-2.944-2.944-3.413,0-4.741,5.206-4.741,5.53,0,.359.358.359.43.359.359,0,.395-.072.575-.647.898-3.123,2.262-4.453,3.628-4.453.323,0,.897.036.897,1.186,0,.861-.395,1.903-.609,2.442-1.33,3.555-2.085,5.781-2.085,7.542,0,3.411,2.478,4.309,4.419,4.309,2.37,0,3.662-1.616,4.273-2.406"/>
    <path class="cls-10" d="m1374.337,335.593h-.853c-.075.55-.325,2.03-.652,2.28-.2.152-2.13.152-2.481.152h-4.611c2.631-2.331,3.508-3.033,5.012-4.211,1.855-1.48,3.585-3.033,3.585-5.414,0-3.033-2.658-4.888-5.866-4.888-3.108,0-5.212,2.181-5.212,4.486,0,1.278,1.076,1.405,1.328,1.405.601,0,1.328-.426,1.328-1.33,0-.45-.175-1.328-1.48-1.328.778-1.78,2.482-2.331,3.66-2.331,2.506,0,3.811,1.956,3.811,3.986,0,2.18-1.555,3.909-2.357,4.813l-6.04,5.964c-.25.227-.25.277-.25.978h10.325l.753-4.561"/>
    <path class="cls-10" d="m1388.087,310.224c0-.036,0-.395-.467-.395-.827,0-3.449.288-4.382.359-.287.036-.682.072-.682.719,0,.431.323.431.862.431,1.724,0,1.795.251,1.795.609l-.107.719-5.208,20.687c-.144.502-.144.573-.144.789,0,.827.719,1.006,1.042,1.006.575,0,1.149-.431,1.328-.934l.683-2.73.791-3.231c.214-.791.429-1.581.609-2.406.072-.216.36-1.402.395-1.617.108-.322,1.222-2.334,2.443-3.303.79-.575,1.903-1.258,3.448-1.258s1.939,1.222,1.939,2.514c0,1.939-1.365,5.855-2.226,8.045-.288.827-.468,1.256-.468,1.975,0,1.688,1.258,2.945,2.946,2.945,3.375,0,4.704-5.244,4.704-5.531,0-.359-.323-.359-.431-.359-.359,0-.359.108-.539.647-.539,1.903-1.687,4.453-3.662,4.453-.611,0-.863-.359-.863-1.184,0-.898.324-1.761.647-2.55.575-1.545,2.191-5.819,2.191-7.902,0-2.334-1.436-3.842-4.13-3.842-2.263,0-3.988,1.112-5.316,2.764l2.802-11.42"/>
    <path class="cls-10" d="m1405.598,339.954c-1.153,0-2.683-.677-3.185-2.733-.35-1.478-.35-3.533-.35-5.387,0-1.83,0-3.736.375-5.114.527-1.98,2.132-2.506,3.16-2.506,1.353,0,2.656.826,3.108,2.281.4,1.353.425,3.158.425,5.339,0,1.855,0,3.709-.325,5.287-.502,2.281-2.207,2.833-3.208,2.833m5.814-7.795c0-2.756-.327-4.737-1.478-6.491-.778-1.153-2.332-2.156-4.336-2.156-5.816,0-5.816,6.842-5.816,8.647s0,8.497,5.816,8.497,5.814-6.692,5.814-8.497Z"/>
  </g>
  <g>
    <line class="cls-3" x1="966.392" y1="195" x2="996.437" y2="195"/>
    <polygon class="cls-10" points="992.224 200.555 994.584 195 992.224 189.445 1005.392 195 992.224 200.555"/>
  </g>
  <g>
    <line class="cls-3" x1="966.392" y1="331" x2="996.437" y2="331"/>
    <polygon class="cls-10" points="992.224 336.555 994.584 331 992.224 325.445 1005.392 331 992.224 336.555"/>
  </g>
  <polygon class="cls-5" points="661.809 415.815 661.809 415.815 661.809 415.815 661.809 415.815 661.809 415.815 661.809 415.815 661.809 415.815 661.809 415.815 661.809 415.815 661.809 415.815 661.809 415.815 661.809 415.815 661.809 415.815 661.809 415.815 661.809 415.815 661.809 415.815 661.809 415.815 661.809 415.815 661.809 415.815 661.809 415.815 661.809 415.815 661.809 415.815 661.809 415.815 661.809 415.815 661.809 415.815 661.809 415.815 661.809 415.815 661.809 415.815 661.809 415.815 661.809 415.815 661.809 415.815 661.809 415.815 661.809 415.815 661.809 415.815 661.809 415.815 661.809 415.815 661.809 415.815 661.809 415.815 661.809 415.815 661.809 415.815 661.809 415.815 661.809 415.815 661.809 415.815 661.809 415.815 661.809 415.815 661.809 415.815 661.809 415.815 661.809 415.815 661.809 415.815 661.809 415.815 661.809 415.815 661.809 415.815 661.809 415.815 661.809 415.815 661.809 415.815 661.809 415.815 661.809 415.815 661.809 415.815 661.809 415.815 661.809 415.815 661.809 415.815 661.809 415.815 661.809 415.815 661.809 415.815 661.809 415.815 661.809 415.815 661.809 415.815 661.809 415.815 661.809 415.815 661.809 415.815 661.809 415.815 661.809 415.815 661.809 415.815 661.809 415.815 661.809 415.815 661.809 415.815 661.809 415.815 661.809 415.815 661.809 415.815 661.809 415.815 661.809 415.815 661.809 415.815 661.809 415.815 661.809 415.815 661.809 415.815 661.809 415.815 661.809 415.815 661.809 415.815 661.809 415.815 661.809 415.815 661.809 415.815 661.809 415.815 661.809 415.815 661.809 415.815 661.809 415.815 661.809 415.815 661.809 415.815 661.809 415.815 661.809 415.815 661.809 415.815 661.809 415.815 661.809 415.815 661.809 415.815 661.809 415.815 661.809 415.815 661.809 415.815 661.809 415.815 661.809 415.815 661.809 415.815 661.809 415.815 661.809 415.815 661.809 415.815 661.809 415.815 661.809 415.815 661.809 415.815 661.809 415.815 661.809 415.815 661.809 415.815 661.809 415.815 661.809 415.815 661.809 415.815 661.809 415.815 661.809 415.815 661.809 415.815 661.809 415.815 661.809 415.815 661.809 415.815 661.809 415.815 661.809 415.815 661.809 415.815 661.809 415.815 661.809 415.815 661.809 415.815 661.809 415.815 661.809 415.815 661.809 415.815 661.809 415.815 661.809 415.815 661.809 415.815 661.809 415.815 661.809 415.815 661.809 415.815 661.809 415.815 661.809 415.815 661.809 415.815 661.809 415.815 661.809 415.815 661.809 415.815 661.809 415.815 661.809 415.815 661.809 415.815 661.809 415.815 661.809 415.815 661.809 415.815 661.809 415.815 661.809 415.815 661.809 415.815 661.809 415.815 661.809 415.815"/>
  <polygon class="cls-5" points="607.182 193.033 607.182 193.033 607.182 193.033 607.182 193.033 607.182 193.033 607.182 193.033 607.182 193.033 607.182 193.033 607.182 193.033 607.182 193.033 607.182 193.033 607.182 193.033 607.182 193.033 607.182 193.033 607.182 193.033 607.182 193.033 607.182 193.033 607.182 193.033 607.182 193.033 607.182 193.033 607.182 193.033 607.182 193.033 607.182 193.033 607.182 193.033 607.182 193.033 607.182 193.033 607.182 193.033 607.182 193.033 607.182 193.033 607.182 193.033 607.182 193.033 607.182 193.033 607.182 193.033 607.182 193.033 607.182 193.033 607.182 193.033 607.182 193.033 607.182 193.033 607.182 193.033 607.182 193.033 607.182 193.033 607.182 193.033 607.182 193.033 607.182 193.033 607.182 193.033 607.182 193.033 607.182 193.033 607.182 193.033 607.182 193.033 607.182 193.033 607.182 193.033 607.182 193.033 607.182 193.033 607.182 193.033 607.182 193.033 607.182 193.033 607.182 193.033 607.182 193.033 607.182 193.033 607.182 193.033 607.182 193.033 607.182 193.033 607.182 193.033 607.182 193.033 607.182 193.033 607.182 193.033 607.182 193.033 607.182 193.033 607.182 193.033 607.182 193.033 607.182 193.033 607.182 193.033 607.182 193.033 607.182 193.033 607.182 193.033 607.182 193.033 607.182 193.033 607.182 193.033 607.182 193.033 607.182 193.033 607.182 193.033 607.182 193.033 607.182 193.033 607.182 193.033 607.182 193.033 607.182 193.033 607.182 193.033 607.182 193.033 607.182 193.033 607.182 193.033 607.182 193.033 607.182 193.033 607.182 193.033 607.182 193.033 607.182 193.033 607.182 193.033 607.182 193.033 607.182 193.033 607.182 193.033 607.182 193.033 607.182 193.033 607.182 193.033 607.182 193.033 607.182 193.033 607.182 193.033 607.182 193.033 607.182 193.033 607.182 193.033 607.182 193.033 607.182 193.033 607.182 193.033 607.182 193.033 607.182 193.033 607.182 193.033 607.182 193.033 607.182 193.033 607.182 193.033 607.182 193.033 607.182 193.033 607.182 193.033 607.182 193.033 607.182 193.033 607.182 193.033 607.182 193.033 607.182 193.033 607.182 193.033 607.182 193.033 607.182 193.033 607.182 193.033 607.182 193.033 607.182 193.033 607.182 193.033 607.182 193.033 607.182 193.033 607.182 193.033 607.182 193.033 607.182 193.033 607.182 193.033 607.182 193.033 607.182 193.033 607.182 193.033 607.182 193.033 607.182 193.033 607.182 193.033 607.182 193.033 607.182 193.033 607.182 193.033 607.182 193.033 607.182 193.033 607.182 193.033 607.182 193.033 607.182 193.033 607.182 193.033 607.182 193.033 607.182 193.033 607.182 193.033 607.182 193.033 607.182 193.033 607.182 193.033 607.182 193.033 607.182 193.033 607.182 193.033 607.182 193.033 607.182 193.033 607.182 193.033 607.182 193.033 607.182 193.033 607.182 193.033 607.182 193.033 607.182 193.033 607.182 193.033 607.182 193.033 607.182 193.033 607.182 193.033 607.182 193.033 607.182 193.033"/>
  <line class="cls-1" x1="598.09" y1="1.907" x2="598.09" y2="369.907"/>
  <text class="cls-25" transform="translate(13.296 43.785)"><tspan x="0" y="0">Convolu</tspan><tspan class="cls-12" x="191.597" y="0">t</tspan><tspan x="211.096" y="0">ion</tspan></text>
  <polygon class="cls-5" points="0 169.506 0 169.506 0 169.506 0 169.506 0 169.506 0 169.506 0 169.506 0 169.506 0 169.506 0 169.506 0 169.506 0 169.506 0 169.506 0 169.506 0 169.506 0 169.506 0 169.506 0 169.506 0 169.506 0 169.506 0 169.506 0 169.506 0 169.506 0 169.506 0 169.506 0 169.506 0 169.506 0 169.506 0 169.506 0 169.506 0 169.506 0 169.506 0 169.506 0 169.506 0 169.506 0 169.506 0 169.506 0 169.506 0 169.506 0 169.506 0 169.506 0 169.506 0 169.506 0 169.506 0 169.506 0 169.506 0 169.506 0 169.506 0 169.506 0 169.506 0 169.506 0 169.506 0 169.506 0 169.506 0 169.506 0 169.506 0 169.506 0 169.506 0 169.506 0 169.506 0 169.506 0 169.506 0 169.506 0 169.506 0 169.506 0 169.506 0 169.506 0 169.506 0 169.506 0 169.506 0 169.506 0 169.506 0 169.506 0 169.506 0 169.506 0 169.506 0 169.506 0 169.506 0 169.506 0 169.506 0 169.506 0 169.506 0 169.506 0 169.506 0 169.506 0 169.506 0 169.506"/>
  <g class="cls-14">
    <path class="cls-10" d="m48.162,160.477c-.503.467-1.688,1.472-1.688,2.119,0,.359.359.719.717.719.323,0,.503-.252.683-.467.431-.539,1.258-1.544,2.837-2.334.252-.144.611-.323.611-.755,0-.359-.252-.539-.503-.719-.791-.538-1.186-1.184-1.474-2.047-.07-.323-.214-.789-.717-.789s-.719.466-.719.753c0,.18.288,1.33.863,2.083h-12.103c-.611,0-1.258,0-1.258.719s.647.719,1.258.719h11.492"/>
    <path class="cls-10" d="m41.846,179.835c.395,1.472,1.652,2.406,3.195,2.406,1.258,0,2.084-.827,2.658-1.975.611-1.294,1.078-3.484,1.078-3.556,0-.359-.323-.359-.431-.359-.359,0-.395.144-.503.647-.503,2.011-1.184,4.453-2.694,4.453-.753,0-1.113-.467-1.113-1.652,0-.791.431-2.478.719-3.736l1.005-3.878c.108-.539.467-1.903.611-2.442.18-.827.539-2.191.539-2.406,0-.647-.503-.97-1.042-.97-.18,0-1.113.036-1.4,1.258-.683,2.622-2.262,8.906-2.694,10.809-.036.144-1.473,3.017-4.094,3.017-1.869,0-2.228-1.616-2.228-2.945,0-2.011,1.006-4.848,1.941-7.327.43-1.077.609-1.58.609-2.262,0-1.616-1.148-2.944-2.944-2.944-3.413,0-4.741,5.206-4.741,5.53,0,.359.358.359.43.359.359,0,.395-.072.575-.647.898-3.123,2.263-4.453,3.628-4.453.323,0,.897.036.897,1.186,0,.861-.395,1.903-.609,2.442-1.33,3.555-2.084,5.781-2.084,7.542,0,3.411,2.478,4.309,4.419,4.309,2.37,0,3.663-1.616,4.273-2.406"/>
  </g>
  <polygon class="cls-5" points="19.217 314.227 19.217 314.227 19.217 314.227 19.217 314.227 19.217 314.227 19.217 314.227 19.217 314.227 19.217 314.227 19.217 314.227 19.217 314.227 19.217 314.227 19.217 314.227 19.217 314.227 19.217 314.227 19.217 314.227 19.217 314.227 19.217 314.227 19.217 314.227 19.217 314.227 19.217 314.227 19.217 314.227 19.217 314.227 19.217 314.227 19.217 314.227 19.217 314.227 19.217 314.227 19.217 314.227 19.217 314.227 19.217 314.227 19.217 314.227 19.217 314.227 19.217 314.227 19.217 314.227 19.217 314.227 19.217 314.227 19.217 314.227 19.217 314.227 19.217 314.227 19.217 314.227 19.217 314.227 19.217 314.227 19.217 314.227 19.217 314.227 19.217 314.227 19.217 314.227 19.217 314.227 19.217 314.227 19.217 314.227 19.217 314.227 19.217 314.227 19.217 314.227 19.217 314.227 19.217 314.227 19.217 314.227 19.217 314.227 19.217 314.227 19.217 314.227 19.217 314.227 19.217 314.227 19.217 314.227 19.217 314.227 19.217 314.227 19.217 314.227 19.217 314.227 19.217 314.227 19.217 314.227 19.217 314.227 19.217 314.227 19.217 314.227 19.217 314.227 19.217 314.227 19.217 314.227 19.217 314.227 19.217 314.227 19.217 314.227 19.217 314.227 19.217 314.227 19.217 314.227 19.217 314.227 19.217 314.227 19.217 314.227 19.217 314.227 19.217 314.227 19.217 314.227 19.217 314.227 19.217 314.227 19.217 314.227 19.217 314.227"/>
  <g class="cls-20">
    <path class="cls-10" d="m46.73,243.696c-.503.467-1.688,1.472-1.688,2.119,0,.359.359.719.717.719.324,0,.503-.251.683-.467.431-.539,1.258-1.544,2.838-2.334.252-.144.611-.323.611-.755,0-.359-.252-.539-.503-.719-.791-.537-1.186-1.184-1.473-2.047-.07-.324-.214-.789-.717-.789s-.719.466-.719.753c0,.18.287,1.33.863,2.083h-12.103c-.611,0-1.258,0-1.258.719s.647.719,1.258.719h11.492"/>
    <path class="cls-10" d="m40.152,249.935c0-.036,0-.395-.467-.395-.827,0-3.448.288-4.381.359-.287.036-.683.072-.683.719,0,.431.323.431.863.431,1.723,0,1.795.252,1.795.609l-.108.719-5.208,20.688c-.144.502-.144.573-.144.789,0,.827.719,1.006,1.042,1.006.575,0,1.148-.431,1.328-.934l.683-2.73.791-3.231c.214-.791.43-1.581.609-2.406.072-.216.359-1.402.395-1.617.108-.322,1.222-2.334,2.442-3.303.791-.575,1.903-1.258,3.448-1.258s1.939,1.222,1.939,2.514c0,1.939-1.366,5.855-2.226,8.045-.288.827-.467,1.256-.467,1.975,0,1.688,1.258,2.945,2.945,2.945,3.375,0,4.705-5.244,4.705-5.531,0-.359-.323-.359-.431-.359-.359,0-.359.108-.539.647-.539,1.903-1.688,4.453-3.663,4.453-.611,0-.862-.359-.862-1.184,0-.898.323-1.761.647-2.55.575-1.545,2.191-5.819,2.191-7.902,0-2.334-1.436-3.842-4.13-3.842-2.263,0-3.988,1.113-5.316,2.764l2.802-11.42"/>
  </g>
  <polygon class="cls-5" points="445.405 145.209 445.405 145.209 445.405 145.209 445.405 145.209 445.405 145.209 445.405 145.209 445.405 145.209 445.405 145.209 445.405 145.209 445.405 145.209 445.405 145.209 445.405 145.209 445.405 145.209 445.405 145.209 445.405 145.209 445.405 145.209 445.405 145.209 445.405 145.209 445.405 145.209 445.405 145.209 445.405 145.209 445.405 145.209 445.405 145.209 445.405 145.209 445.405 145.209 445.405 145.209 445.405 145.209 445.405 145.209 445.405 145.209 445.405 145.209 445.405 145.209 445.405 145.209 445.405 145.209 445.405 145.209 445.405 145.209 445.405 145.209 445.405 145.209 445.405 145.209 445.405 145.209 445.405 145.209 445.405 145.209 445.405 145.209 445.405 145.209 445.405 145.209 445.405 145.209 445.405 145.209 445.405 145.209 445.405 145.209 445.405 145.209 445.405 145.209 445.405 145.209 445.405 145.209 445.405 145.209 445.405 145.209 445.405 145.209 445.405 145.209 445.405 145.209 445.405 145.209 445.405 145.209 445.405 145.209 445.405 145.209 445.405 145.209 445.405 145.209 445.405 145.209 445.405 145.209 445.405 145.209 445.405 145.209 445.405 145.209 445.405 145.209 445.405 145.209 445.405 145.209 445.405 145.209 445.405 145.209 445.405 145.209 445.405 145.209 445.405 145.209 445.405 145.209 445.405 145.209 445.405 145.209 445.405 145.209 445.405 145.209 445.405 145.209 445.405 145.209 445.405 145.209 445.405 145.209 445.405 145.209 445.405 145.209 445.405 145.209 445.405 145.209 445.405 145.209 445.405 145.209 445.405 145.209 445.405 145.209"/>
  <g class="cls-19">
    <path class="cls-10" d="m388.259,150.524c-.503.467-1.688,1.472-1.688,2.119,0,.359.359.719.717.719.324,0,.503-.252.683-.467.431-.539,1.258-1.544,2.837-2.334.252-.144.611-.323.611-.755,0-.359-.252-.539-.503-.719-.791-.538-1.186-1.184-1.473-2.047-.07-.323-.214-.789-.717-.789s-.719.466-.719.753c0,.18.287,1.33.862,2.083h-12.103c-.611,0-1.258,0-1.258.719s.647.719,1.258.719h11.492"/>
    <path class="cls-10" d="m386.728,158.21c.144-.503.144-.575.144-.827,0-.647-.503-.97-1.042-.97-.359,0-.933.216-1.256.755-.072.18-.359,1.294-.503,1.939-.252.934-.503,1.905-.719,2.873l-1.616,6.464c-.144.539-1.688,3.053-4.058,3.053-1.833,0-2.228-1.58-2.228-2.909,0-1.652.611-3.878,1.833-7.039.573-1.472.717-1.867.717-2.586,0-1.616-1.148-2.944-2.944-2.944-3.413,0-4.741,5.206-4.741,5.53,0,.359.358.359.43.359.359,0,.395-.072.575-.647.97-3.375,2.406-4.453,3.628-4.453.287,0,.897,0,.897,1.15,0,.897-.359,1.831-.609,2.514-1.438,3.806-2.084,5.853-2.084,7.542,0,3.195,2.262,4.273,4.383,4.273,1.4,0,2.62-.611,3.627-1.616-.467,1.867-.898,3.627-2.334,5.53-.934,1.222-2.298,2.262-3.95,2.262-.503,0-2.119-.108-2.73-1.508.575,0,1.041,0,1.544-.431.359-.323.719-.791.719-1.472,0-1.114-.97-1.258-1.33-1.258-.825,0-2.011.575-2.011,2.334,0,1.795,1.581,3.125,3.808,3.125,3.698,0,7.398-3.269,8.403-7.327l3.448-13.719"/>
    <path class="cls-10" d="m422.882,167.116c.503,0,1.184,0,1.184-.719s-.681-.717-1.22-.717h-21.441c-.539,0-1.222,0-1.222.717s.683.719,1.186.719h21.513m-.036-6.967c.539,0,1.22,0,1.22-.719s-.681-.719-1.184-.719h-21.513c-.503,0-1.186,0-1.186.719s.683.719,1.222.719h21.441Z"/>
    <path class="cls-10" d="m452.859,141.124c-.503.467-1.688,1.472-1.688,2.119,0,.359.359.719.717.719.324,0,.503-.251.683-.467.431-.539,1.258-1.544,2.838-2.334.252-.144.611-.323.611-.755,0-.359-.252-.539-.503-.719-.791-.537-1.186-1.184-1.474-2.047-.07-.324-.214-.789-.717-.789s-.719.466-.719.753c0,.18.287,1.33.862,2.083h-12.103c-.611,0-1.258,0-1.258.719s.647.719,1.258.719h11.492"/>
    <path class="cls-10" d="m446.281,147.363c0-.036,0-.395-.467-.395-.826,0-3.448.288-4.381.359-.287.036-.683.072-.683.719,0,.431.323.431.863.431,1.723,0,1.795.251,1.795.609l-.108.719-5.208,20.688c-.144.502-.144.573-.144.789,0,.827.719,1.006,1.042,1.006.575,0,1.148-.431,1.328-.934l.683-2.73.791-3.231c.214-.791.43-1.581.609-2.406.072-.216.359-1.402.395-1.617.108-.322,1.222-2.334,2.442-3.303.791-.575,1.903-1.258,3.449-1.258s1.939,1.222,1.939,2.514c0,1.939-1.366,5.855-2.227,8.045-.287.827-.467,1.256-.467,1.975,0,1.688,1.258,2.945,2.945,2.945,3.375,0,4.705-5.244,4.705-5.531,0-.359-.324-.359-.431-.359-.359,0-.359.108-.539.647-.539,1.903-1.688,4.453-3.662,4.453-.611,0-.863-.359-.863-1.184,0-.898.323-1.761.647-2.55.575-1.545,2.191-5.819,2.191-7.902,0-2.334-1.436-3.842-4.13-3.842-2.263,0-3.988,1.112-5.316,2.764l2.801-11.42"/>
    <path class="cls-10" d="m482.989,166.505c.431.287,1.006.755,1.293.755.539,0,.969-.503.969-1.006,0-.538-.25-.645-.825-.933-.467-.251-2.694-1.258-4.956-2.406l5.028-2.406c.503-.288.753-.395.753-.934,0-.503-.43-1.005-.969-1.005-.323,0-.539.178-.646.25l-4.561,3.377.503-5.639c.036-.502.036-1.4-.935-1.4-.539,0-1.04.467-.932.934v.466l.501,5.603-3.914-2.837c-.431-.288-1.006-.753-1.292-.753-.539,0-.97.502-.97,1.005,0,.539.359.719.718.899l5.064,2.442-5.028,2.406c-.503.288-.754.395-.754.933,0,.503.431,1.006.97,1.006.25,0,.825-.431,1.22-.719l3.986-2.873-.537,6.034c0,.647.573.934.968.934s.971-.287.971-.934c0-.108-.18-1.795-.18-1.939,0-.036-.144-1.438-.18-2.155l-.179-1.941,3.914,2.838m-4.346,7.47c-6.104,0-11.061-4.956-11.061-11.061s4.957-11.062,11.061-11.062,11.063,4.956,11.063,11.062-4.956,11.061-11.063,11.061Zm11.96-11.061c0-6.609-5.388-11.959-11.96-11.959-6.607,0-11.959,5.386-11.959,11.959,0,6.608,5.387,11.959,11.959,11.959,6.608,0,11.96-5.388,11.96-11.959Z"/>
    <path class="cls-10" d="m519.359,150.524c-.503.467-1.688,1.472-1.688,2.119,0,.359.36.719.718.719.323,0,.503-.252.682-.467.432-.539,1.258-1.544,2.838-2.334.252-.144.611-.323.611-.755,0-.359-.252-.539-.503-.719-.791-.538-1.186-1.184-1.474-2.047-.07-.323-.214-.789-.717-.789s-.719.466-.719.753c0,.18.288,1.33.863,2.083h-12.103c-.611,0-1.258,0-1.258.719s.647.719,1.258.719h11.492"/>
    <path class="cls-10" d="m513.043,169.882c.396,1.472,1.652,2.406,3.196,2.406,1.257,0,2.084-.827,2.657-1.975.611-1.294,1.079-3.484,1.079-3.556,0-.359-.324-.359-.432-.359-.359,0-.395.144-.503.647-.503,2.011-1.184,4.453-2.694,4.453-.753,0-1.112-.467-1.112-1.652,0-.791.431-2.478.719-3.736l1.004-3.878c.108-.539.468-1.903.611-2.442.18-.827.539-2.191.539-2.406,0-.647-.503-.97-1.042-.97-.179,0-1.112.036-1.4,1.258-.683,2.622-2.262,8.906-2.694,10.809-.035.144-1.473,3.017-4.093,3.017-1.869,0-2.228-1.616-2.228-2.945,0-2.011,1.006-4.849,1.94-7.327.43-1.077.61-1.58.61-2.263,0-1.616-1.149-2.944-2.944-2.944-3.413,0-4.741,5.206-4.741,5.53,0,.359.358.359.43.359.359,0,.395-.072.575-.647.898-3.123,2.262-4.453,3.628-4.453.323,0,.897.036.897,1.186,0,.861-.395,1.903-.609,2.442-1.33,3.555-2.085,5.781-2.085,7.542,0,3.411,2.478,4.309,4.419,4.309,2.37,0,3.662-1.616,4.273-2.406"/>
  </g>
  <g class="cls-17">
    <path class="cls-10" d="m758.625,4.972c-.503.467-1.688,1.472-1.688,2.119,0,.359.359.719.717.719.323,0,.503-.252.683-.467.431-.539,1.258-1.544,2.837-2.334.252-.144.611-.323.611-.755,0-.359-.252-.539-.503-.719-.791-.538-1.186-1.184-1.474-2.047-.07-.323-.214-.789-.717-.789s-.719.466-.719.753c0,.18.288,1.33.863,2.083h-12.103c-.611,0-1.258,0-1.258.719s.647.719,1.258.719h11.492"/>
    <path class="cls-10" d="m752.31,24.329c.395,1.472,1.652,2.406,3.195,2.406,1.258,0,2.084-.827,2.658-1.975.611-1.294,1.078-3.484,1.078-3.556,0-.359-.323-.359-.431-.359-.359,0-.395.144-.503.647-.503,2.011-1.184,4.453-2.694,4.453-.753,0-1.113-.467-1.113-1.652,0-.791.431-2.478.719-3.736l1.005-3.878c.108-.539.467-1.903.611-2.442.18-.827.539-2.191.539-2.406,0-.647-.503-.97-1.042-.97-.18,0-1.113.036-1.4,1.258-.683,2.622-2.262,8.906-2.694,10.809-.036.144-1.473,3.017-4.094,3.017-1.869,0-2.228-1.616-2.228-2.945,0-2.011,1.006-4.848,1.941-7.327.43-1.077.609-1.58.609-2.262,0-1.616-1.148-2.944-2.944-2.944-3.413,0-4.741,5.206-4.741,5.53,0,.359.358.359.43.359.359,0,.395-.072.575-.647.898-3.123,2.263-4.453,3.628-4.453.323,0,.897.036.897,1.186,0,.861-.395,1.903-.609,2.442-1.33,3.555-2.084,5.781-2.084,7.542,0,3.411,2.478,4.309,4.419,4.309,2.37,0,3.663-1.616,4.273-2.406"/>
  </g>
  <g class="cls-18">
    <path class="cls-10" d="m838.125,70.272c-.503.467-1.688,1.472-1.688,2.119,0,.359.359.719.717.719.324,0,.503-.251.683-.467.431-.539,1.258-1.544,2.838-2.334.252-.144.611-.323.611-.755,0-.359-.252-.539-.503-.719-.791-.537-1.186-1.184-1.473-2.047-.07-.324-.214-.789-.717-.789s-.719.466-.719.753c0,.18.287,1.33.863,2.083h-12.103c-.611,0-1.258,0-1.258.719s.647.719,1.258.719h11.492"/>
    <path class="cls-10" d="m831.547,76.511c0-.036,0-.395-.467-.395-.827,0-3.448.288-4.381.359-.287.036-.683.072-.683.719,0,.431.323.431.863.431,1.723,0,1.795.252,1.795.609l-.108.719-5.208,20.688c-.144.502-.144.573-.144.789,0,.827.719,1.006,1.042,1.006.575,0,1.148-.431,1.328-.934l.683-2.73.791-3.231c.214-.791.43-1.581.609-2.406.072-.216.359-1.402.395-1.617.108-.322,1.222-2.334,2.442-3.303.791-.575,1.903-1.258,3.448-1.258s1.939,1.222,1.939,2.514c0,1.939-1.366,5.855-2.226,8.045-.288.827-.467,1.256-.467,1.975,0,1.688,1.258,2.945,2.945,2.945,3.375,0,4.705-5.244,4.705-5.531,0-.359-.323-.359-.431-.359-.359,0-.359.108-.539.647-.539,1.903-1.688,4.453-3.663,4.453-.611,0-.862-.359-.862-1.184,0-.898.323-1.761.647-2.55.575-1.545,2.191-5.819,2.191-7.902,0-2.334-1.436-3.842-4.13-3.842-2.263,0-3.988,1.113-5.316,2.764l2.802-11.42"/>
  </g>
  <g class="cls-21">
    <path class="cls-10" d="m758.559,147.247c-.503.467-1.688,1.472-1.688,2.119,0,.359.359.719.717.719.323,0,.503-.252.683-.467.431-.539,1.258-1.544,2.837-2.334.252-.144.611-.323.611-.755,0-.359-.252-.539-.503-.719-.791-.538-1.186-1.184-1.474-2.047-.07-.323-.214-.789-.717-.789s-.719.466-.719.753c0,.18.288,1.33.863,2.083h-12.103c-.611,0-1.258,0-1.258.719s.647.719,1.258.719h11.492"/>
    <path class="cls-10" d="m752.244,166.605c.395,1.472,1.652,2.406,3.195,2.406,1.258,0,2.084-.827,2.658-1.975.611-1.294,1.078-3.484,1.078-3.556,0-.359-.323-.359-.431-.359-.359,0-.395.144-.503.647-.503,2.011-1.184,4.453-2.694,4.453-.753,0-1.113-.467-1.113-1.652,0-.791.431-2.478.719-3.736l1.005-3.878c.108-.539.467-1.903.611-2.442.18-.827.539-2.191.539-2.406,0-.647-.503-.97-1.042-.97-.18,0-1.113.036-1.4,1.258-.683,2.622-2.262,8.906-2.694,10.809-.036.144-1.473,3.017-4.094,3.017-1.869,0-2.228-1.616-2.228-2.945,0-2.011,1.006-4.848,1.941-7.327.43-1.077.609-1.58.609-2.262,0-1.616-1.148-2.944-2.944-2.944-3.413,0-4.741,5.206-4.741,5.53,0,.359.358.359.43.359.359,0,.395-.072.575-.647.898-3.123,2.263-4.453,3.628-4.453.323,0,.897.036.897,1.186,0,.861-.395,1.903-.609,2.442-1.33,3.555-2.084,5.781-2.084,7.542,0,3.411,2.478,4.309,4.419,4.309,2.37,0,3.663-1.616,4.273-2.406"/>
  </g>
  <g class="cls-23">
    <path class="cls-10" d="m866.059,213.547c-.503.467-1.688,1.472-1.688,2.119,0,.359.359.719.717.719.324,0,.503-.251.683-.467.431-.539,1.258-1.544,2.838-2.334.252-.144.611-.323.611-.755,0-.359-.252-.539-.503-.719-.791-.537-1.186-1.184-1.473-2.047-.07-.324-.214-.789-.717-.789s-.719.466-.719.753c0,.18.287,1.33.863,2.083h-12.103c-.611,0-1.258,0-1.258.719s.647.719,1.258.719h11.492"/>
    <path class="cls-10" d="m859.481,219.786c0-.036,0-.395-.467-.395-.827,0-3.448.288-4.381.359-.287.036-.683.072-.683.719,0,.431.323.431.863.431,1.723,0,1.795.252,1.795.609l-.108.719-5.208,20.688c-.144.502-.144.573-.144.789,0,.827.719,1.006,1.042,1.006.575,0,1.148-.431,1.328-.934l.683-2.73.791-3.231c.214-.791.43-1.581.609-2.406.072-.216.359-1.402.395-1.617.108-.322,1.222-2.334,2.442-3.303.791-.575,1.903-1.258,3.448-1.258s1.939,1.222,1.939,2.514c0,1.939-1.366,5.855-2.226,8.045-.288.827-.467,1.256-.467,1.975,0,1.688,1.258,2.945,2.945,2.945,3.375,0,4.705-5.244,4.705-5.531,0-.359-.323-.359-.431-.359-.359,0-.359.108-.539.647-.539,1.903-1.688,4.453-3.663,4.453-.611,0-.862-.359-.862-1.184,0-.898.323-1.761.647-2.55.575-1.545,2.191-5.819,2.191-7.902,0-2.334-1.436-3.842-4.13-3.842-2.263,0-3.988,1.113-5.316,2.764l2.802-11.42"/>
  </g>
  <g class="cls-24">
    <path class="cls-10" d="m758.559,286.247c-.503.467-1.688,1.472-1.688,2.119,0,.359.359.719.717.719.323,0,.503-.252.683-.467.431-.539,1.258-1.544,2.837-2.334.252-.144.611-.323.611-.755,0-.359-.252-.539-.503-.719-.791-.538-1.186-1.184-1.474-2.047-.07-.323-.214-.789-.717-.789s-.719.466-.719.753c0,.18.288,1.33.863,2.083h-12.103c-.611,0-1.258,0-1.258.719s.647.719,1.258.719h11.492"/>
    <path class="cls-10" d="m752.244,305.605c.395,1.472,1.652,2.406,3.195,2.406,1.258,0,2.084-.827,2.658-1.975.611-1.294,1.078-3.484,1.078-3.556,0-.359-.323-.359-.431-.359-.359,0-.395.144-.503.647-.503,2.011-1.184,4.453-2.694,4.453-.753,0-1.113-.467-1.113-1.652,0-.791.431-2.478.719-3.736l1.005-3.878c.108-.539.467-1.903.611-2.442.18-.827.539-2.191.539-2.406,0-.647-.503-.97-1.042-.97-.18,0-1.113.036-1.4,1.258-.683,2.622-2.262,8.906-2.694,10.809-.036.144-1.473,3.017-4.094,3.017-1.869,0-2.228-1.616-2.228-2.945,0-2.011,1.006-4.848,1.941-7.327.43-1.077.609-1.58.609-2.262,0-1.616-1.148-2.944-2.944-2.944-3.413,0-4.741,5.206-4.741,5.53,0,.359.358.359.43.359.359,0,.395-.072.575-.647.898-3.123,2.263-4.453,3.628-4.453.323,0,.897.036.897,1.186,0,.861-.395,1.903-.609,2.442-1.33,3.555-2.084,5.781-2.084,7.542,0,3.411,2.478,4.309,4.419,4.309,2.37,0,3.663-1.616,4.273-2.406"/>
  </g>
  <g class="cls-22">
    <path class="cls-10" d="m892.388,350.091c-.503.467-1.688,1.472-1.688,2.119,0,.359.359.719.717.719.324,0,.503-.251.683-.467.431-.539,1.258-1.544,2.838-2.334.252-.144.611-.323.611-.755,0-.359-.252-.539-.503-.719-.791-.537-1.186-1.184-1.473-2.047-.07-.324-.214-.789-.717-.789s-.719.466-.719.753c0,.18.287,1.33.863,2.083h-12.103c-.611,0-1.258,0-1.258.719s.647.719,1.258.719h11.492"/>
    <path class="cls-10" d="m885.81,356.33c0-.036,0-.395-.467-.395-.827,0-3.448.288-4.381.359-.287.036-.683.072-.683.719,0,.431.323.431.863.431,1.723,0,1.795.252,1.795.609l-.108.719-5.208,20.688c-.144.502-.144.573-.144.789,0,.827.719,1.006,1.042,1.006.575,0,1.148-.431,1.328-.934l.683-2.73.791-3.231c.214-.791.43-1.581.609-2.406.072-.216.359-1.402.395-1.617.108-.322,1.222-2.334,2.442-3.303.791-.575,1.903-1.258,3.448-1.258s1.939,1.222,1.939,2.514c0,1.939-1.366,5.855-2.226,8.045-.288.827-.467,1.256-.467,1.975,0,1.688,1.258,2.945,2.945,2.945,3.375,0,4.705-5.244,4.705-5.531,0-.359-.323-.359-.431-.359-.359,0-.359.108-.539.647-.539,1.903-1.688,4.453-3.663,4.453-.611,0-.862-.359-.862-1.184,0-.898.323-1.761.647-2.55.575-1.545,2.191-5.819,2.191-7.902,0-2.334-1.436-3.842-4.13-3.842-2.263,0-3.988,1.113-5.316,2.764l2.802-11.42"/>
  </g>
</svg>