<?xml version="1.0" encoding="UTF-8"?>
<svg id="Layer_1" data-name="Layer 1" xmlns="http://www.w3.org/2000/svg" xmlns:xlink="http://www.w3.org/1999/xlink" viewBox="0 0 409.689 219.562">
  <defs>
    <style>
      .cls-1 {
        stroke-dasharray: 0 0 11.64 11.64;
      }

      .cls-1, .cls-2, .cls-3, .cls-4, .cls-5, .cls-6, .cls-7, .cls-8, .cls-9 {
        fill: none;
      }

      .cls-1, .cls-2, .cls-4, .cls-10, .cls-11, .cls-5, .cls-6, .cls-7, .cls-8, .cls-9 {
        stroke-miterlimit: 10;
      }

      .cls-1, .cls-2, .cls-4, .cls-5, .cls-7, .cls-8 {
        stroke: #cc9968;
      }

      .cls-2 {
        stroke-dasharray: 0 0 12.126 12.126;
      }

      .cls-12 {
        clip-path: url(#clippath);
      }

      .cls-3, .cls-13 {
        stroke-width: 0px;
      }

      .cls-14 {
        font-family: Avenir-Heavy, Avenir;
        font-weight: 800;
      }

      .cls-14, .cls-15 {
        font-size: 24px;
      }

      .cls-4 {
        stroke-dasharray: 0 0 12.173 12.173;
      }

      .cls-10 {
        fill: #e6f1ff;
      }

      .cls-10, .cls-11, .cls-6 {
        stroke-width: 2px;
      }

      .cls-10, .cls-11, .cls-6, .cls-9 {
        stroke: #000;
      }

      .cls-11 {
        fill: #fff6e5;
      }

      .cls-16 {
        clip-path: url(#clippath-1);
      }

      .cls-15 {
        font-family: Avenir-Roman, Avenir;
      }

      .cls-5 {
        stroke-dasharray: 0 0 12.577 12.577;
      }

      .cls-8 {
        stroke-dasharray: 0 0 12.274 12.274;
      }

      .cls-9 {
        opacity: 0;
        stroke-width: 0px;
      }
    </style>
    <clipPath id="clippath">
      <rect class="cls-3" y="119.038" width="22" height="25"/>
    </clipPath>
    <clipPath id="clippath-1">
      <rect class="cls-3" x="387.689" y="119.032" width="22" height="25"/>
    </clipPath>
  </defs>
  <polygon class="cls-9" points="186.782 5.296 186.782 5.296 186.782 5.296 186.782 5.296 186.782 5.296 186.782 5.296 186.782 5.296 186.782 5.296 186.782 5.296 186.782 5.296 186.782 5.296 186.782 5.296 186.782 5.296 186.782 5.296 186.782 5.296 186.782 5.296 186.782 5.296 186.782 5.296 186.782 5.296 186.782 5.296 186.782 5.296 186.782 5.296 186.782 5.296 186.782 5.296 186.782 5.296 186.782 5.296 186.782 5.296 186.782 5.296 186.782 5.296 186.782 5.296 186.782 5.296 186.782 5.296 186.782 5.296 186.782 5.296 186.782 5.296 186.782 5.296 186.782 5.296 186.782 5.296 186.782 5.296 186.782 5.296 186.782 5.296 186.782 5.296 186.782 5.296 186.782 5.296 186.782 5.296 186.782 5.296 186.782 5.296 186.782 5.296 186.782 5.296 186.782 5.296 186.782 5.296 186.782 5.296 186.782 5.296 186.782 5.296 186.782 5.296 186.782 5.296 186.782 5.296 186.782 5.296 186.782 5.296 186.782 5.296 186.782 5.296 186.782 5.296 186.782 5.296 186.782 5.296 186.782 5.296 186.782 5.296 186.782 5.296 186.782 5.296 186.782 5.296 186.782 5.296 186.782 5.296 186.782 5.296 186.782 5.296 186.782 5.296 186.782 5.296 186.782 5.296 186.782 5.296 186.782 5.296 186.782 5.296 186.782 5.296 186.782 5.296 186.782 5.296 186.782 5.296 186.782 5.296 186.782 5.296 186.782 5.296 186.782 5.296 186.782 5.296 186.782 5.296 186.782 5.296 186.782 5.296 186.782 5.296 186.782 5.296 186.782 5.296 186.782 5.296 186.782 5.296 186.782 5.296 186.782 5.296 186.782 5.296 186.782 5.296 186.782 5.296 186.782 5.296 186.782 5.296 186.782 5.296 186.782 5.296 186.782 5.296 186.782 5.296 186.782 5.296 186.782 5.296 186.782 5.296 186.782 5.296 186.782 5.296 186.782 5.296 186.782 5.296 186.782 5.296 186.782 5.296 186.782 5.296 186.782 5.296 186.782 5.296 186.782 5.296 186.782 5.296"/>
  <g>
    <line class="cls-6" x1="87.344" y1="131.752" x2="322.375" y2="131.752"/>
    <polygon class="cls-13" points="319.566 135.455 321.139 131.752 319.566 128.048 328.344 131.752 319.566 135.455"/>
  </g>
  <g>
    <rect class="cls-10" x="49.504" y="47.562" width="28" height="168"/>
    <rect class="cls-10" x="49.504" y="47.562" width="28" height="28"/>
    <rect class="cls-10" x="49.504" y="75.562" width="28" height="28"/>
    <rect class="cls-10" x="49.504" y="103.562" width="28" height="28"/>
    <rect class="cls-10" x="49.504" y="131.562" width="28" height="28"/>
    <rect class="cls-10" x="49.504" y="159.562" width="28" height="28"/>
    <rect class="cls-10" x="49.504" y="187.562" width="28" height="28"/>
  </g>
  <rect class="cls-11" x="98.344" y="46.562" width="214.16" height="172" rx="19.922" ry="19.922"/>
  <text class="cls-15" transform="translate(35.518 20.93)"><tspan x="0" y="0">Input</tspan></text>
  <text class="cls-15" transform="translate(312.965 20.496)"><tspan x="0" y="0">Output</tspan></text>
  <g>
    <line class="cls-6" x1="31.504" y1="58.633" x2="31.504" y2="203.492"/>
    <path class="cls-13" d="m31.504,46.562c-2.107,5.68-5.703,12.727-9.512,17.095l9.512-3.44,9.51,3.44c-3.809-4.368-7.404-11.415-9.51-17.095Z"/>
    <path class="cls-13" d="m31.504,215.562c-2.107-5.68-5.703-12.727-9.512-17.095l9.512,3.44,9.51-3.44c-3.809,4.368-7.404,11.415-9.51,17.095Z"/>
  </g>
  <polygon class="cls-9" points="10.808 119.898 10.808 119.898 10.808 119.898 10.808 119.898 10.808 119.898 10.808 119.898 10.808 119.898 10.808 119.898 10.808 119.898 10.808 119.898 10.808 119.898 10.808 119.898 10.808 119.898 10.808 119.898 10.808 119.898 10.808 119.898 10.808 119.898 10.808 119.898 10.808 119.898 10.808 119.898 10.808 119.898 10.808 119.898 10.808 119.898 10.808 119.898 10.808 119.898 10.808 119.898 10.808 119.898 10.808 119.898 10.808 119.898 10.808 119.898 10.808 119.898 10.808 119.898 10.808 119.898 10.808 119.898 10.808 119.898 10.808 119.898 10.808 119.898 10.808 119.898 10.808 119.898 10.808 119.898 10.808 119.898 10.808 119.898 10.808 119.898 10.808 119.898 10.808 119.898 10.808 119.898 10.808 119.898 10.808 119.898 10.808 119.898 10.808 119.898 10.808 119.898 10.808 119.898 10.808 119.898 10.808 119.898 10.808 119.898 10.808 119.898 10.808 119.898 10.808 119.898 10.808 119.898 10.808 119.898 10.808 119.898 10.808 119.898 10.808 119.898 10.808 119.898 10.808 119.898 10.808 119.898 10.808 119.898 10.808 119.898 10.808 119.898 10.808 119.898 10.808 119.898 10.808 119.898 10.808 119.898 10.808 119.898 10.808 119.898 10.808 119.898 10.808 119.898 10.808 119.898 10.808 119.898 10.808 119.898 10.808 119.898 10.808 119.898 10.808 119.898 10.808 119.898 10.808 119.898 10.808 119.898 10.808 119.898 10.808 119.898 10.808 119.898 10.808 119.898 10.808 119.898 10.808 119.898 10.808 119.898 10.808 119.898 10.808 119.898 10.808 119.898 10.808 119.898 10.808 119.898 10.808 119.898 10.808 119.898 10.808 119.898 10.808 119.898 10.808 119.898 10.808 119.898 10.808 119.898 10.808 119.898 10.808 119.898 10.808 119.898 10.808 119.898 10.808 119.898 10.808 119.898 10.808 119.898 10.808 119.898 10.808 119.898 10.808 119.898 10.808 119.898 10.808 119.898 10.808 119.898 10.808 119.898 10.808 119.898 10.808 119.898 10.808 119.898 10.808 119.898 10.808 119.898 10.808 119.898 10.808 119.898 10.808 119.898 10.808 119.898 10.808 119.898 10.808 119.898 10.808 119.898 10.808 119.898 10.808 119.898 10.808 119.898 10.808 119.898"/>
  <g class="cls-12">
    <path class="cls-13" d="m12.231,121.91c.323-1.292.431-1.688,3.808-1.688,1.076,0,1.364,0,1.364-.683,0-.431-.395-.431-.573-.431-1.186,0-4.131.108-5.316.108-1.078,0-3.7-.108-4.777-.108-.252,0-.683,0-.683.719,0,.395.323.395,1.006.395.072,0,.753,0,1.364.072.647.072.97.108.97.573,0,.144-.036.252-.144.683l-4.812,19.286c-.359,1.402-.431,1.687-3.269,1.687-.611,0-.97,0-.97.719,0,.395.323.395.97.395h16.628c.863,0,.899,0,1.114-.611l2.836-7.758c.144-.394.144-.466.144-.502,0-.144-.108-.395-.43-.395s-.359.18-.611.755c-1.222,3.303-2.802,7.397-9.014,7.397h-3.377c-.503,0-.575,0-.791-.036-.359-.036-.466-.07-.466-.358,0-.108,0-.18.178-.827l4.848-19.394"/>
  </g>
  <g>
    <line class="cls-7" x1="97.004" y1="92.062" x2="102.64" y2="94.121"/>
    <line class="cls-1" x1="113.573" y1="98.115" x2="304.902" y2="168.007"/>
    <line class="cls-7" x1="310.368" y1="170.004" x2="316.004" y2="172.062"/>
  </g>
  <g>
    <line class="cls-7" x1="97.004" y1="117.062" x2="102.823" y2="118.524"/>
    <line class="cls-5" x1="115.021" y1="121.587" x2="304.086" y2="169.069"/>
    <line class="cls-7" x1="310.185" y1="170.601" x2="316.004" y2="172.062"/>
  </g>
  <g>
    <line class="cls-7" x1="97.004" y1="145.062" x2="102.959" y2="145.797"/>
    <line class="cls-8" x1="115.141" y1="147.298" x2="303.958" y2="170.577"/>
    <line class="cls-7" x1="310.049" y1="171.328" x2="316.004" y2="172.062"/>
  </g>
  <g>
    <line class="cls-6" x1="378.504" y1="60.633" x2="378.504" y2="205.492"/>
    <path class="cls-13" d="m378.504,48.562c-2.107,5.68-5.703,12.727-9.512,17.095l9.512-3.44,9.51,3.44c-3.809-4.368-7.404-11.415-9.51-17.095Z"/>
    <path class="cls-13" d="m378.504,217.562c-2.107-5.68-5.703-12.727-9.512-17.095l9.512,3.44,9.51-3.44c-3.809,4.368-7.404,11.415-9.51,17.095Z"/>
  </g>
  <polygon class="cls-9" points="339.497 121.892 339.497 121.892 339.497 121.892 339.497 121.892 339.497 121.892 339.497 121.892 339.497 121.892 339.497 121.892 339.497 121.892 339.497 121.892 339.497 121.892 339.497 121.892 339.497 121.892 339.497 121.892 339.497 121.892 339.497 121.892 339.497 121.892 339.497 121.892 339.497 121.892 339.497 121.892 339.497 121.892 339.497 121.892 339.497 121.892 339.497 121.892 339.497 121.892 339.497 121.892 339.497 121.892 339.497 121.892 339.497 121.892 339.497 121.892 339.497 121.892 339.497 121.892 339.497 121.892 339.497 121.892 339.497 121.892 339.497 121.892 339.497 121.892 339.497 121.892 339.497 121.892 339.497 121.892 339.497 121.892 339.497 121.892 339.497 121.892 339.497 121.892 339.497 121.892 339.497 121.892 339.497 121.892 339.497 121.892 339.497 121.892 339.497 121.892 339.497 121.892 339.497 121.892 339.497 121.892 339.497 121.892 339.497 121.892 339.497 121.892 339.497 121.892 339.497 121.892 339.497 121.892 339.497 121.892 339.497 121.892 339.497 121.892 339.497 121.892 339.497 121.892 339.497 121.892 339.497 121.892 339.497 121.892 339.497 121.892 339.497 121.892 339.497 121.892 339.497 121.892 339.497 121.892 339.497 121.892 339.497 121.892 339.497 121.892 339.497 121.892 339.497 121.892 339.497 121.892 339.497 121.892 339.497 121.892 339.497 121.892 339.497 121.892 339.497 121.892 339.497 121.892 339.497 121.892 339.497 121.892 339.497 121.892 339.497 121.892 339.497 121.892 339.497 121.892 339.497 121.892 339.497 121.892 339.497 121.892 339.497 121.892 339.497 121.892 339.497 121.892 339.497 121.892 339.497 121.892 339.497 121.892 339.497 121.892 339.497 121.892 339.497 121.892 339.497 121.892 339.497 121.892 339.497 121.892 339.497 121.892 339.497 121.892 339.497 121.892 339.497 121.892 339.497 121.892 339.497 121.892 339.497 121.892 339.497 121.892 339.497 121.892 339.497 121.892 339.497 121.892 339.497 121.892 339.497 121.892 339.497 121.892 339.497 121.892 339.497 121.892 339.497 121.892 339.497 121.892 339.497 121.892 339.497 121.892 339.497 121.892 339.497 121.892 339.497 121.892 339.497 121.892 339.497 121.892 339.497 121.892 339.497 121.892 339.497 121.892 339.497 121.892 339.497 121.892"/>
  <g class="cls-16">
    <path class="cls-13" d="m399.92,121.904c.323-1.292.431-1.688,3.808-1.688,1.076,0,1.364,0,1.364-.683,0-.431-.395-.431-.573-.431-1.186,0-4.131.108-5.316.108-1.078,0-3.7-.108-4.777-.108-.252,0-.683,0-.683.719,0,.395.323.395,1.006.395.072,0,.753,0,1.364.072.647.072.97.108.97.573,0,.144-.036.252-.144.683l-4.812,19.286c-.359,1.402-.431,1.687-3.269,1.687-.611,0-.97,0-.97.719,0,.395.323.395.97.395h16.628c.863,0,.899,0,1.114-.611l2.836-7.758c.144-.394.144-.466.144-.502,0-.144-.108-.395-.43-.395s-.359.18-.611.755c-1.222,3.303-2.802,7.397-9.014,7.397h-3.377c-.503,0-.575,0-.791-.036-.359-.036-.466-.07-.466-.358,0-.108,0-.18.178-.827l4.848-19.394"/>
  </g>
  <g>
    <rect class="cls-10" x="334.901" y="47.538" width="28" height="168"/>
    <rect class="cls-10" x="334.901" y="47.538" width="28" height="28"/>
    <rect class="cls-10" x="334.901" y="75.538" width="28" height="28"/>
    <rect class="cls-10" x="334.901" y="103.538" width="28" height="28"/>
    <rect class="cls-10" x="334.901" y="131.538" width="28" height="28"/>
    <rect class="cls-10" x="334.901" y="159.538" width="28" height="28"/>
    <rect class="cls-10" x="334.901" y="187.538" width="28" height="28"/>
  </g>
  <g>
    <line class="cls-7" x1="97.401" y1="172.038" x2="103.401" y2="172.06"/>
    <line class="cls-2" x1="115.527" y1="172.106" x2="303.479" y2="172.809"/>
    <line class="cls-7" x1="309.542" y1="172.831" x2="315.542" y2="172.854"/>
  </g>
  <g>
    <line class="cls-7" x1="97.401" y1="63.038" x2="102.778" y2="65.702"/>
    <line class="cls-4" x1="113.685" y1="71.105" x2="304.571" y2="165.673"/>
    <line class="cls-7" x1="310.025" y1="168.374" x2="315.401" y2="171.038"/>
  </g>
  <text class="cls-14" transform="translate(153.639 75.474)"><tspan x="0" y="0">Operator</tspan></text>
</svg>